<?xml version="1.0" encoding="utf-8"?>
<!-- Generator: Adobe Illustrator 16.0.0, SVG Export Plug-In . SVG Version: 6.00 Build 0)  -->
<!DOCTYPE svg PUBLIC "-//W3C//DTD SVG 1.1//EN" "http://www.w3.org/Graphics/SVG/1.1/DTD/svg11.dtd">
<svg version="1.1" id="图层_2" xmlns="http://www.w3.org/2000/svg" xmlns:xlink="http://www.w3.org/1999/xlink" x="0px" y="0px"
	 width="1000px" height="660px" viewBox="0 0 1000 660" style="enable-background:new 0 0 1000 660;" xml:space="preserve">
<filter  id="AI_高斯模糊_4">
	<feGaussianBlur  stdDeviation="4"></feGaussianBlur>
</filter>
<g id="XMLID_1_" style="filter:url(#AI_高斯模糊_4);">
	<g>
		<path style="fill:#8DAFB8;" d="M988,321.502v339H707.5l5.5-312c0,0,0,0,0.01-0.01c0.91-0.36,44.431-17.8,85.99,0.01
			c0,0,13.34-30,33.47-36.66c4.53-1.49,9.391-1.81,14.53-0.34l7-0.95v-9.05v-12c0,0,12,11,17,10l12,2c0,0,8-28,34-7l6,2l17-9.81
			l10,16.81l12,2l8,8l13,3L988,321.502z"/>
		<path style="fill:#D0C8BA;" d="M967,303.502c20,1,16,13,16,13l-13-3l-8-8l-12-2l-10-16.81l-17,9.81l-6-2c-26-21-34,7-34,7l-12-2
			c-5,1-17-10-17-10v12v9.05l-7,0.95c-5.14-1.47-10-1.15-14.53,0.34l-0.47-1.34l5-13l-8-9c-7-14,16-17,16-17c6-17,20,0,20,0l19-12
			l24,13c-7-17,24-13,24-13l5,24l8-15c7-11,19,8,19,8l-7,8l6,8L967,303.502z"/>
		<path style="fill:#A3B7B5;" d="M832,310.502l0.47,1.34c-20.13,6.66-33.47,36.66-33.47,36.66c-41.56-17.81-85.08-0.37-85.99-0.01
			c5.96-15.86,55.141-28.53,55.971-28.75c0.01,0,0.01,0,0.01,0l17.01,0.76l11-1v-13l17-2C814,304.502,824,299.502,832,310.502z"/>
		<path style="fill:#ECC8AD;" d="M814,304.502l-17,2v13l-11,1l-17.01-0.76c0,0,0,0-0.01,0l-27.98-1.24c-7-5-39,12-39,12l-34-18
			l-5-14.5c13-1,8-18.5,8-18.5s18.5,9.5,27,0c7.47-8.35,17.18-12.83,24.56-12.12c0.98,0.18,1.94,0.37,2.881,0.58
			c0.01,0.01,0.01,0.01,0.02,0.01c5.29,1.18,9.85,2.94,11.54,5.53v-11.52l23,8.52C800,254.502,814,304.502,814,304.502z"/>
		<path style="fill:#82A7B0;" d="M741,318.502l27.98,1.24c-0.83,0.22-50.011,12.89-55.971,28.75c-0.01,0.01-0.01,0.01-0.01,0.01
			l-11-18C702,330.502,734,313.502,741,318.502z"/>
		<path style="fill:#ECB7A6;" d="M737,261.982v11.52c-1.69-2.59-6.25-4.35-11.54-5.53l11.021-6.18L737,261.982z"/>
		<path style="fill:#FCF1E9;" d="M736.48,261.792l-11.021,6.18c-0.01,0-0.01,0-0.02-0.01c-0.91-0.29-1.87-0.48-2.881-0.58
			c-9.729-1.76-20.56-1.88-20.56-1.88c-4.77-9.79-10.71-16.04-16.94-19.93l1.94-9.27l11.23-10.62l7.3-22.64l0.01-0.01
			c18.72,13.01,27.46,57.47,27.46,57.47L736.48,261.792z"/>
		<path style="fill:#F5CFAB;" d="M722.56,267.382c-7.38-0.71-17.09,3.77-24.56,12.12c-8.5,9.5-27,0-27,0c-8-0.5-14.5-9.24-14.5-9.24
			c-5.5-15.73-24.5,0.24-24.5,0.24v9c-1.84-5.05-21.93,1.82-25.17,2.96l-8.91-6.16l22.58-21.57l10.87-4.91l13.92-6.29l39.77,2.04
			c6.23,3.89,12.171,10.14,16.94,19.93C702,265.502,712.83,265.622,722.56,267.382z"/>
		<path style="fill:#999293;" d="M611.79,285.892c3.03,1.27,5.91,4.83,8.21,12.11c0,0,27-10.5,21,24.5l11,3l11-27.5l5,14.5l34,18
			l11,18l-5.5,312H506v-345c0,0,43-20,60-28l27,10.5c0,0,9.97-15.79,18.78-12.11H611.79z"/>
		<path style="fill:#FBF6F1;" d="M705.54,203.032l-0.01,0.01c-6.971,4.03-34.53,1.46-34.53,1.46c-8.5-7-7.5,8.82-7.5,8.82
			l-24.33-23.32c-5.27-11.37-40.9-27.46-41.72-27.83c9.399-6.05-21.98-10.34-21.98-10.34c-5.029-12.17-27.14-14-27.14-14l7.67-9.72
			c2.78-1.02,6.56-1.18,11.66,0.39l-5.66-8c4-4,25-3,25-3c33-18,36,11,36,11c33,0,31,26,31,26c18,1,29,38,29,38l12,7
			C698.81,199.492,702.32,200.802,705.54,203.032z"/>
		<path style="fill:#F7E0C0;" d="M705.53,203.042l-7.3,22.64L687,236.302l-1.94,9.27c-18.6-11.6-39.77-2.04-39.77-2.04l-4.96-18.37
			c14.24-22.22-6.08-17.18-12.29-15.24c6.82-2.57,16.03-9.34,11.13-19.92l24.33,23.32c0,0-1-15.82,7.5-8.82
			C671,204.502,698.56,207.072,705.53,203.042z"/>
		<path style="fill:#F9C5A7;" d="M685.06,245.572l-39.77-2.04C645.29,243.532,666.46,233.972,685.06,245.572z"/>
		<path style="fill:#D8B194;" d="M671,279.502c0,0,5,17.5-8,18.5L671,279.502z"/>
		<path style="fill:#ECC598;" d="M671,279.502l-8,18.5l-11,27.5l-11-3c6-35-21-24.5-21-24.5c-2.3-7.28-5.18-10.84-8.21-12.11h-0.01
			l-4.95-3.43c3.24-1.14,23.33-8.01,25.17-2.96v-9c0,0,19-15.97,24.5-0.24C656.5,270.262,663,279.002,671,279.502z"/>
		<path style="fill:#F7D9B5;" d="M640.33,225.162l4.96,18.37l-13.92,6.29c-15.13-57.68-48.37-50.98-48.37-50.98l-15.34-2.22
			c-4.18-19.63-24.05-11.05-24.65-10.79c0.23-0.37,5.971-9.17,19.181-4.37c0,0,0,0.01,0.01,0.01c3.42,5.39,6.08,5.85,8.09,4.19
			c3.05,2.02,6.4,4.68,10.04,8.14l6.67-7.92c0,0,5.34-9.39,6,2.61c0,0,28,17.34,33.33,22c0.03-0.01,0.05-0.02,0.08-0.03
			c0.5-0.14,1.03-0.32,1.57-0.52c0.02-0.01,0.039-0.02,0.06-0.02C634.25,207.982,654.57,202.942,640.33,225.162z"/>
		<path style="fill:#F8D8B0;" d="M639.17,190.002c4.9,10.58-4.31,17.35-11.13,19.92c-0.021,0-0.04,0.01-0.06,0.02
			c-0.82,0.25-1.381,0.45-1.57,0.52c-0.03,0.01-0.05,0.02-0.08,0.03L639.17,190.002z"/>
		<path style="fill:#F9E3C2;" d="M639.17,190.002l-12.84,20.49c-5.33-4.66-33.33-22-33.33-22c-0.66-12-6-2.61-6-2.61l-6.67,7.92
			c-3.64-3.46-6.99-6.12-10.04-8.14c3.68-3.04,5.18-13.16,5.18-13.16l14.761-7.5c3.479-0.98,5.8-1.92,7.21-2.83c0,0,0,0,0.01,0
			C598.27,162.542,633.9,178.632,639.17,190.002z"/>
		<path style="fill:#F5BC9E;" d="M631.37,249.822l-10.87,4.91c-1-30.77-45.03-31.23-45.03-31.23
			c-0.029-12.37-39.45-26.58-40.29-26.88l7.82-10.78c0,0,0,0,0.01-0.01c0.601-0.26,20.471-8.84,24.65,10.79l15.34,2.22
			C583,198.842,616.24,192.142,631.37,249.822z"/>
		<path style="fill:#F9CEAC;" d="M620.5,254.732l-22.58,21.57l-12.05-8.33h-0.01c-1.971-47.55-56.95-38.34-58.17-38.13
			c-24.271-26.04-62.69-9.11-62.69-9.11v-6.23c-1.26-4.29-3.98-6.35-7.36-7.03l-0.15-0.27c0,0,22.17-28.82,73.51-4.82l4.18-5.76
			c0.84,0.3,40.261,14.51,40.29,26.88C575.47,223.502,619.5,223.962,620.5,254.732z"/>
		<path style="fill:#E6B191;" d="M606.39,282.622l5.391,3.27c-8.811-3.68-18.78,12.11-18.78,12.11l-8-15.5l12.25-5.56l0.67-0.64
			l8.91,6.16C606.54,282.562,606.39,282.622,606.39,282.622z"/>
		<path style="fill:#E6B191;" d="M597.92,276.302l-0.67,0.64l-12.25,5.56c0.79-5.35,1.05-10.18,0.86-14.53h0.01L597.92,276.302z"/>
		<path style="fill:#FCE8B7;" d="M575.47,151.832c0,0,31.38,4.29,21.98,10.34c-0.01,0-0.01,0-0.01,0c-1.41,0.91-3.73,1.85-7.21,2.83
			l-14.761,7.5c0,0-1.5,10.12-5.18,13.16c-2.96-1.95-5.65-3.3-8.09-4.19c-0.01,0-0.01-0.01-0.01-0.01
			c-14.311-22.53-27.021-2.3-27.021-2.3c-5.5-9.87-19.67,0-19.67,0l-29.88-20.06c12.38-12.31,40.04-15.27,40.04-15.27l10,8l12.67-14
			C548.33,137.832,570.44,139.662,575.47,151.832z"/>
		<path style="fill:#E49F86;" d="M585,282.502l8,15.5l-27-10.5c-17,8-60,28-60,28c-5-10-42-17.5-42-17.5
			c-3.64-1.48-7.38-2.76-11.18-3.85L442,273.502h34l24-14.22l45,14.22l12.94-3.24l15.06,12.24H585z"/>
		<path style="fill:#F5C899;" d="M585.86,267.972c0.189,4.35-0.07,9.18-0.86,14.53h-12l-15.06-12.24h0.029L585.86,267.972z"/>
		<path style="fill:#FED8A5;" d="M585.86,267.972l-27.891,2.29l7.03-1.76h8c-1-12-22-19-22-19v9.78l-10-5.67
			c-3.4-10.38-8.02-18.1-13.31-23.77C528.91,229.632,583.89,220.422,585.86,267.972z"/>
		<path style="fill:#F0A987;" d="M527.69,229.842c5.29,5.67,9.909,13.39,13.31,23.77l10,5.67v-9.78c0,0,21,7,22,19h-8l-7.03,1.76
			h-0.029l-12.94,3.24l-45-14.22l-24,14.22h-34l10.82,20.65c-9.52-2.75-19.39-4.37-28.76-5.27l16.94-23.38l-4-14c3,6,28-11,28-11
			v-19.77C465,220.732,503.42,203.802,527.69,229.842z"/>
		<path style="fill:#E9AB8B;" d="M570.29,185.662c-2.01,1.66-4.67,1.2-8.09-4.19C564.64,182.362,567.33,183.712,570.29,185.662z"/>
		<path style="fill:#FEF4E3;" d="M562,120.502l5.66,8c-5.101-1.57-8.88-1.41-11.66-0.39L562,120.502z"/>
		<path style="fill:#FAECD1;" d="M562,120.502l-6,7.61c-6.68,2.42-7.67,9.72-7.67,9.72l-12.67,14l-10-8
			c2.17-21.67-44.16-18.83-44.16-18.83c-14-21-16.5,0.5-16.5,0.5l-14.9-2.98l-10.1-2.02c-3-2-32,8-32,8c4-19,22-22,22-22
			c18-17,31-15,31-15c32-16,60-4,60-4C537,72.502,562,120.502,562,120.502z"/>
		<path style="fill:#FADCC3;" d="M556,128.112l-7.67,9.72C548.33,137.832,549.32,130.532,556,128.112z"/>
		<path style="fill:#EFAE89;" d="M562.19,181.462c-13.21-4.8-18.95,4-19.181,4.37c-0.01,0.01-0.01,0.01-0.01,0.01l-7.83,10.78
			c0,0,0,0,0.01,0l-4.18,5.76c-51.34-24-73.51,4.82-73.51,4.82l0.15,0.27c-9.99-2.03-25.64,8.03-25.64,8.03c-25,12,0-16,0-16
			c8.47-4.6,7.07-9.54,2.92-13.6c13.24-6.61-1.92-20.07-1.92-20.07c9.32-18.66,35.81-6.61,44.89-1.76c0,0,2.44,13.09,3.77,15.09
			c1.34,2,21.34,6.74,21.34,6.74l12.5-6.74c0,0,14.17-9.87,19.67,0C535.17,179.162,547.88,158.932,562.19,181.462z"/>
		<path style="fill:#F9D2AC;" d="M481.5,125.002c0,0,46.33-2.84,44.16,18.83c-30.66-22.67-48.66-4-48.66-4
			c-26.67,12-20.67-8.67-20.67-8.67c-2.43-4.86-4.64-6.79-6.52-7.2l0.29-1.44l14.9,2.98C465,125.502,467.5,104.002,481.5,125.002z"
			/>
		<path style="fill:#F9C18A;" d="M515.5,179.162l-12.5,6.74c0,0-20-4.74-21.34-6.74c-1.33-2-3.77-15.09-3.77-15.09
			c1.96,1.05,3.11,1.76,3.11,1.76c1.02-2.51,2.62-4.74,4.62-6.73L515.5,179.162z"/>
		<path style="fill:#F8C988;" d="M525.66,143.832c0,0-27.66,2.96-40.04,15.27c-2,1.99-3.6,4.22-4.62,6.73c0,0-1.15-0.71-3.11-1.76
			c-9.08-4.85-35.57-16.9-44.89,1.76c0,0,15.16,13.46,1.92,20.07h-0.01c-5.17-5.05-14.58-8.74-14.58-8.74
			c-26.67-6-14,11.34-14,11.34c-8,0.66-12.67,17.71-12.67,17.71c-9.72-6.05-6.66,9.11-6.66,9.11l-16.23-3.87l-21.83-5.2
			c8.34-1.86,14.06-2.75,14.06-2.75c2-6-3-13-3-13c-19-13,8-28,8-28c-4-17,40-34,40-34l16.06,15.33c0,0,16.27-17.33,19.6-15.33
			c0,0,2.38-5.36,6.15-4.54c1.88,0.41,4.09,2.34,6.52,7.2c0,0-6,20.67,20.67,8.67C477,139.832,495,121.162,525.66,143.832z"/>
		<path style="fill:#9198A2;" d="M506,315.502v345H220l-10-261v-7l12-25.17l12,4.51l-19-26.34c0,0,17-14,23-15
			c0,0,19.05-10.65,47.09-3.41c0,0,0-0.01,0.01,0c9.41,2.42,19.84,6.87,30.9,14.41l51,8v-7l-9-12l-6-0.32l-12-8.68l-1.49-11.71
			h-0.01l-1.5-11.79c0,0-10,11.5-24-24.5c0,0,30-25,63,16c0,0,5.81-0.82,14.98-1.28l0.01,0.01v-0.01H391
			c8.7-0.43,20.42-0.54,33.06,0.66v0.01l28.76,5.26c3.8,1.09,7.54,2.37,11.18,3.85C464,298.002,501,305.502,506,315.502z"/>
		<path style="fill:#E99279;" d="M465,220.732v19.77c0,0-25,17-28,11l-12,14l-28,11.31l-6,11.41h-0.01c0,0,0,0-0.01,0l-23.43-20.5
			l37.45-22.22c0,0-25,6-17-15c0,0,25-37,44-31c0,0-25,28,0,16c0,0,15.65-10.06,25.64-8.03L465,220.732z"/>
		<path style="fill:#ECA283;" d="M465,214.502v6.23l-7.36-13.26C461.02,208.152,463.74,210.212,465,214.502z"/>
		<path style="fill:#F9D2AC;" d="M450.1,122.522l-0.29,1.44c-3.77-0.82-6.15,4.54-6.15,4.54c-3.33-2-19.6,15.33-19.6,15.33
			L408,128.502c0,0,29-10,32-8L450.1,122.522z"/>
		<path style="fill:#CE8886;" d="M437,251.502l4,14l-16.94,23.38c-12.64-1.2-24.36-1.09-33.06-0.66l6-11.41l28-11.31L437,251.502z"
			/>
		<path style="fill:#F4AB88;" d="M434.92,185.902c4.15,4.06,5.55,9-2.92,13.6l2.91-13.6H434.92z"/>
		<path style="fill:#E7A185;" d="M434.91,185.902l-2.91,13.6c-19-6-44,31-44,31c-8,21,17,15,17,15l-37.45,22.22l-1.25-1.09
			c-1.7-2.94-4.63-5.36-8.4-7.35l-0.01-0.01c-9.07-8.79,12.44-45.95,12.44-45.95l0.44-1.87l16.23,3.87c0,0-3.06-15.16,6.66-9.11
			c0,0,4.67-17.05,12.67-17.71c0,0-12.67-17.34,14-11.34C420.33,177.162,429.74,180.852,434.91,185.902z"/>
		<path style="fill:#E59582;" d="M367.55,267.722l23.43,20.5c-9.17,0.46-14.98,1.28-14.98,1.28c-33-41-63-16-63-16
			c14,36,24,24.5,24,24.5l1.5,11.79l-32.5-9.29l-36.84-23.69l-0.07-0.04l-5.09-3.27h-0.92l-26.11-14.22
			c8.75-1.31,24.03,0.22,24.03,0.22l26-9l29.98,0.23c0,0,0,0,0-0.01c14.4,0.88,30.71,3.14,40.91,8.55l0.01,0.01l8.4,7.35
			c0.26,0.46,0.5,0.94,0.7,1.42L367.55,267.722z"/>
		<path style="fill:#E59983;" d="M370.77,211.452l-0.44,1.87c0,0-21.51,37.16-12.44,45.95c-10.2-5.41-26.51-7.67-40.91-8.55
			c0.32-0.78,14.91-36.71,27.47-43.43c1.56-0.37,3.06-0.72,4.48-1.04h0.01L370.77,211.452z"/>
		<path style="fill:#D39F91;" d="M367,342.502v7l-51-8c-11.06-7.54-21.49-11.99-30.9-14.41c-0.01-0.01-0.01,0-0.01,0l-30.09-9.5
			l-27-12.54l-17,12.54l-21-5.09l-19-7l-16.97-13h-0.36l14.33-9l11,1v-11h10l11,6l9-6h27h27.08l6.01,3.27l0.07,0.04l36.84,23.69
			l32.5,9.29h0.01l1.49,11.71l12,8.68l6,0.32L367,342.502z"/>
		<path style="fill:#CD9387;" d="M287,250.502c-9.87-23.26,31.92-37.08,57.45-43.21c-12.56,6.72-27.15,42.65-27.47,43.43
			C300.79,249.742,287,250.502,287,250.502z"/>
		<path style="fill:#BF8B89;" d="M255,317.592l30.09,9.5c-28.04-7.24-47.09,3.41-47.09,3.41c-6,1-23,15-23,15l19,26.34l-12-4.51
			l-12,25.17v7l-28-14c6-28-15-18.17-15-18.17l-12.97-5.85c10.04-27-36.03-40.021-36.03-40.021c-39-24-60.31,8.97-60.31,8.97h-0.44
			c-2.46-0.34-5.51-0.35-9.25,0.07c9.91-45.4,36.85-34.93,45.95-29.89c1.71,1.1,2.83,1.76,3.02,1.87c0.01,0,0.01,0.01,0.01,0.01
			c0.01,0.01,0.02,0.01,0.02,0.01c3-11,54,0,54,0c1.36-3.71,2.23-7.03,2.67-10h0.36l16.97,13l19,7l21,5.09l17-12.54L255,317.592z"/>
		<path style="fill:#9DA7B2;" d="M263.08,273.502H236h-27l-9,6l-11-6h-10v11l-11-1l-14.33,9c5.44-36.38-52.67-21-52.67-21l-35-6
			c43-49,74-14,74-14c7-2,25,5,25,5c39-15,66,6,66,6c0-1.72,2.46-2.7,5.97-3.22L263.08,273.502z"/>
		<path style="fill:#7D8A9B;" d="M210,399.502l10,261H12v-206l26-25l-13-27c0,0,31-18,31-41c0,0,22.48-28.11,1.25-31.07h0.44
			c0,0,21.31-32.97,60.31-8.97c0,0,46.07,13.02,36.03,40.021l12.97,5.85c0,0,21-9.83,15,18.17L210,399.502z"/>
		<path style="fill:#B1999D;" d="M101,271.502c0,0,58.11-15.38,52.67,21c-0.44,2.97-1.31,6.29-2.67,10c0,0-51-11-54,0
			c0,0-0.01,0-0.02-0.01c0,0,0-0.01-0.01-0.01c-0.18-0.13-1.27-0.9-3.02-1.87c-8.58-5.51-32.05-21.99-27.95-35.11L101,271.502z"/>
		<path style="fill:#BA8C89;" d="M93.95,300.612c-9.1-5.04-36.04-15.51-45.95,29.89c0,0-48-3-24,31l-12,35v-143c12-3,54,12,54,12
			C61.9,278.622,85.37,295.102,93.95,300.612z"/>
		<path style="fill:#A6878C;" d="M57.25,330.432c21.23,2.96-1.25,31.07-1.25,31.07c0,23-31,41-31,41l13,27l-26,25v-58l12-35
			c-24-34,24-31,24-31L57.25,330.432z"/>
	</g>
</g>
</svg>
