<?xml version="1.0" encoding="utf-8"?>
<!-- Generator: Adobe Illustrator 16.0.0, SVG Export Plug-In . SVG Version: 6.00 Build 0)  -->
<!DOCTYPE svg PUBLIC "-//W3C//DTD SVG 1.1//EN" "http://www.w3.org/Graphics/SVG/1.1/DTD/svg11.dtd">
<svg version="1.1" id="图层_3" xmlns="http://www.w3.org/2000/svg" xmlns:xlink="http://www.w3.org/1999/xlink" x="0px" y="0px"
	 width="1000px" height="661.004px" viewBox="0 0 1000 661.004" style="enable-background:new 0 0 1000 661.004;"
	 xml:space="preserve">
<filter  id="AI_高斯模糊_4">
	<feGaussianBlur  stdDeviation="4"></feGaussianBlur>
</filter>
<g id="XMLID_11_" style="filter:url(#AI_高斯模糊_4);">
	<g>
		<path style="fill:#DCBCA8;" d="M988,547.604v114.4H12v-105.68c1.13,0.029,25.11,0.83,29.66,7.34c0,0,58.01-27.33,71.34-16
			c0,0,19.33-38,108-26.67c0,0,49.33-19.23,98.67-7.28c0,0,92-27.28,102,0l13.99,18.91c0,0,17.34-14.3,50-5.63
			c0,0,131,37.99,150.67,18c0,0,143.33,12.66,195.33,2.66s76.67-4,86,2.67C917.66,550.324,970.03,526.924,988,547.604z"/>
		<path style="fill:#779BAB;" d="M988,523.313v24.29c-17.97-20.68-70.34,2.721-70.34,2.721c-9.33-6.67-34-12.67-86-2.67
			s-195.33-2.66-195.33-2.66c-24.67-16,148.31-8,148.31-8c95.641-6.67,42.36-28.67,42.36-28.67
			c-18.52-12.84-41.49-19.12-65.04-21.48c5.07-1.96,10.05-5.93,14.75-12.53c13.73,9.33,46.28,3.341,46.28,3.341
			c1.12-0.28,2.34-0.54,3.64-0.771c0.01,0,0.01,0,0.021,0c4.14,0.43,8.09-0.12,11.8-1.37c25.3-1.81,61.88,0.8,61.88,0.8
			c2.09-1.29,3.99-2.38,5.72-3.27h0.01c5.521-0.34,9.57-1.58,12.511-3.43c8.72,1.67,1.76,18.77,1.76,18.77
			c-20,21.39,21.33,29.93,21.33,29.93C961.57,508.364,981.71,519.294,988,523.313z"/>
		<path style="fill:#8699A3;" d="M988,433.964v89.35c-6.29-4.02-26.43-14.949-46.34-5c0,0-41.33-8.54-21.33-29.93
			c0,0,6.96-17.1-1.76-18.77c14.62-9.141,1.37-32.99,1.37-32.99c4.25-0.67,8.06-1.53,11.06-2.62c0,0,22.5,15,31,24.5
			C962,458.504,975.51,429.244,988,433.964z"/>
		<path style="fill:#4C8DAA;" d="M988,322.004v111.96c-12.49-4.72-26,24.54-26,24.54c-8.5-9.5-31-24.5-31-24.5
			c-3,1.09-6.81,1.95-11.06,2.62c-2.351,0.38-4.83,0.689-7.381,0.97c-2.819,0.29-5.729,0.54-8.609,0.73
			c-3.521-5.82,18.55-33.67,18.55-33.67c31.5-31.351-40.84-65.65-40.84-65.65c-0.101-0.1-0.19-0.2-0.29-0.29
			c-10.601-10.96,14.29-6.37,14.29-6.37s16.34,10.16,26.34-2.84s13.5,1.87,16,2.94c2.5,1.06,18.38-9.89,20.99-12.1l8.68-7.34
			C981.67,311.004,988,322.004,988,322.004z"/>
		<path style="fill:#78A4B2;" d="M967.67,313.004l-8.68,7.34c0,0-42-40-56,0l-7.33,12c0,0-24.891-4.59-14.29,6.37
			c-3.23-3.11-32.71-30.04-63.311-7c6.86-7.91,13.61-18.04,13.61-18.04l19.33-2l-1.33-8l2-14c24,12,20.66,14.66,20.66,14.66
			l7.34-3.33c3.33-12,15.33-14.01,15.33-14.01c5.33,0.65,27.33,12.01,27.33,12.01c-0.66-8,18-12,18-12
			c5.34-0.67,12.67,21.33,12.67,21.33C961.66,298.334,967.67,313.004,967.67,313.004z"/>
		<path style="fill:#6699AE;" d="M958.99,320.344c-2.61,2.21-18.49,13.16-20.99,12.1c-2.5-1.07-6-15.94-16-2.94
			s-26.34,2.84-26.34,2.84l7.33-12C916.99,280.344,958.99,320.344,958.99,320.344z"/>
		<path style="fill:#6B97AA;" d="M881.66,339.004c0,0,72.34,34.3,40.84,65.65c0,0-22.07,27.85-18.55,33.67
			c-15.69,1.05-30.95,0.68-30.95,0.68c1-2.8-3.19-5.52-8.59-7.77l-0.01-0.011c-8.101-3.38-18.9-5.72-18.9-5.72
			c-43.5,0-19.5-23.5-19.5-23.5c53-15.5,22.25-40.25,3.5-21.5c-34.47,34.47-32-18.5-32-18.5c-41-24-83.82-1.96-83.82-1.96
			c-6.71-3.25-12.02-5.04-12.02-5.04c2.54-2.8,8.27-4.99,15.83-6.7l0.01,0.01c0,0,0-0.01,0.01-0.01l0.01-0.01
			c30.221-6.81,89.471-5.95,89.471-5.95c0.62-0.74,1.25-1.45,1.88-2.14c2.6-1.42,5.91-4.7,9.189-8.49
			c30.601-23.04,60.08,3.89,63.311,7C881.47,338.804,881.56,338.904,881.66,339.004z"/>
		<path style="fill:#8A98A3;" d="M919.94,436.624c0,0,13.25,23.85-1.37,32.99c-2.59-0.511-6.561,0.35-12.511,3.43h-0.01
			c-1.729,0.89-3.63,1.979-5.72,3.27c0,0-36.58-2.609-61.88-0.8c21.02-7.069,34.55-36.51,34.55-36.51s15.26,0.37,30.95-0.68
			c0.91,1.5,3.51,1.54,8.609-0.73C915.11,437.313,917.59,437.004,919.94,436.624z"/>
		<path style="fill:#7996A5;" d="M864.41,431.234c5.399,2.25,9.59,4.97,8.59,7.77c0,0-13.53,29.44-34.55,36.51
			c-4.351,0.32-8.36,0.76-11.8,1.37c-0.011,0-0.011,0-0.021,0c-1.3,0.23-2.52,0.49-3.64,0.771c0,0-32.55,5.989-46.28-3.341
			c2.75-3.84,5.4-8.569,7.93-14.31c0,0-6.64-32.66,15.36-31.58c4.08,0.2,6.87-0.1,8.61-0.74c14.18-1.029,42.239-2.16,55.79,3.54
			L864.41,431.234z"/>
		<path style="fill:#7490A0;" d="M845.5,425.504c0,0,10.8,2.34,18.9,5.72c-13.551-5.7-41.61-4.569-55.79-3.54
			c7.62-2.819-5.08-12.229-18.11-14.68c0,0-67.8,4.44-54-13.5c13.78-17.91-7.96-32.26-22.82-39.46c0,0,42.82-22.04,83.82,1.96
			c0,0-2.47,52.97,32,18.5c18.75-18.75,49.5,6-3.5,21.5C826,402.004,802,425.504,845.5,425.504z"/>
		<path style="fill:#A4B8B6;" d="M821,301.674l10.67,12c0,0-32,21.34-26.67,26.67c0.89,0.89,2.24,0.74,3.87-0.14
			c-0.63,0.69-1.26,1.4-1.88,2.14c0,0-59.25-0.86-89.471,5.95c0.811-1.09,30.511-40.54,67.12-29.91c1.521,0.75,2.36,1.29,2.36,1.29
			l8-2c-8.67-20,21.33-11.34,21.33-11.34L821,301.674z"/>
		<path style="fill:#9BAFB3;" d="M827,508.324c0,0,53.28,22-42.36,28.67c0,0-172.979-8-148.31,8c-19.67,19.99-150.67-18-150.67-18
			s28.67-26.67,62.67-16.67c0,0,26,8,33-4c0,0,35.67-35.471,52.33-4.73c0,0,52.899-16.77,108.47-15.87
			c6.5,2.851,13.24,3.681,19.83,1.12C785.51,489.204,808.48,495.484,827,508.324z"/>
		<path style="fill:#A4B7B6;" d="M831.67,313.674c0,0-6.75,10.13-13.61,18.04c-3.06,2.3-6.14,5.1-9.189,8.49
			c-1.63,0.88-2.98,1.03-3.87,0.14C799.67,335.014,831.67,313.674,831.67,313.674z"/>
		<path style="fill:#A4B7B6;" d="M808.87,340.204c3.05-3.39,6.13-6.19,9.189-8.49C814.78,335.504,811.47,338.784,808.87,340.204z"/>
		<path style="fill:#9A959C;" d="M790.5,413.004c13.03,2.45,25.73,11.86,18.11,14.68c-5.261,0.37-8.61,0.74-8.61,0.74
			c-22-1.08-15.36,31.58-15.36,31.58c-2.529,5.74-5.18,10.47-7.93,14.31c-4.7,6.601-9.68,10.57-14.75,12.53
			c-6.59-0.67-13.229-1.02-19.83-1.12c-19.39-8.479-36.62-34.859-41.35-42.58c-7.73-42.37,35.72-43.64,35.72-43.64
			C722.7,417.444,790.5,413.004,790.5,413.004z"/>
		<path style="fill:#86A9AF;" d="M784.64,318.384c-36.609-10.63-66.31,28.82-67.12,29.91l-0.01,0.01c-0.01,0-0.01,0-0.02,0
			l-15.16-12.63c18-22.67,42.67-14.67,42.67-14.67C762.03,309.294,778.64,315.434,784.64,318.384z"/>
		<path style="fill:#9AABAD;" d="M761.96,486.844c-6.59,2.561-13.33,1.73-19.83-1.12C748.73,485.824,755.37,486.174,761.96,486.844z
			"/>
		<path style="fill:#7B9FAF;" d="M742.13,485.724c-55.57-0.899-108.47,15.87-108.47,15.87c-16.66-30.74-52.33,4.73-52.33,4.73
			c-7,12-33,4-33,4c-34-10-62.67,16.67-62.67,16.67c-32.66-8.67-50,5.63-50,5.63l-13.99-18.91c-10-27.28-102,0-102,0
			c-49.34-11.95-98.67,7.28-98.67,7.28c-88.67-11.33-108,26.67-108,26.67c-13.33-11.33-71.34,16-71.34,16
			c-4.55-6.51-28.53-7.311-29.66-7.34v-82.721c0.69-1.05,10.75-15.89,15.46,4.061c0,0,26.21,42,40.21,35.33
			c0,0,23.72-3.99,15.86-34.66c-7.86-30.67,15.46-24,21.47,1.33c0,0,14,31.43,38.67,8.72c0,0,46.66,27.95,74.66,11.95
			c0,0,75.34,22.28,72.67-14.53c0,0,2.74-14.28-2.34-23.359c0,0,7.67-28.11,13.67-27.45c0,0,5.32-23.271-13.67-13.3
			c0,0-5.58-20.021,3.08-10.61c0,0,11.94-1.62,21.3-1.42c2.74,0.89,5.83,1.43,9.29,1.42c0,0,22.67,20.26,16.67,24.42
			c0,0-36-26.51-15.33,11.49c0,0,16.68-10.84,16.34,18.25c0,0,6.32,0.77,26.32-6.74c0,0,30.67,13.83,40-10.17l-25.79-17.33
			c0,0-10.87-26.61,25.79-9.31c0,0,24-35.36-10.66-35.36c0,0-26.67-4-30.67,0c0,0,11.97-39.32,27.99-24.33
			c9.3,8.28,27.34,9.67,27.34,9.67c-8.67,12,4.66,24.67,4.66,24.67c5.34,60.66,57.34,16.66,57.34,16.66
			c3.52,8.56,31.34,0.02,44.78-4.68c0,0,16.39,16.68,32.89,8.18c0,0,22,60.5,93,6c0,0,37.5-31,46.5,18.5c0,0,0.45,0.78,1.28,2.14
			C705.51,450.864,722.74,477.244,742.13,485.724z"/>
		<path style="fill:#9095A0;" d="M713.68,360.044c14.86,7.2,36.601,21.55,22.82,39.46c0,0-43.45,1.27-35.72,43.64
			c-0.83-1.359-1.28-2.14-1.28-2.14c-9-49.5-46.5-18.5-46.5-18.5c-71,54.5-93-6-93-6c-16.5,8.5-32.89-8.18-32.89-8.18
			c4.37-1.53,7.22-2.65,7.22-2.65c19.33-20.67,81.33-6.67,81.33-6.67c88.67-9.33,30.67-41.33,30.67-41.33
			c-14-6.67-21.34-28.89-21.34-28.89c3.37-3.85,7.06-5.2,10.77-4.95l-0.1,0.51l2.51-0.13c12.35,2.97,24.16,21.46,24.16,21.46
			c10-8,39.33,9.33,39.33,9.33S706.97,356.794,713.68,360.044z"/>
		<path style="fill:#B49B9C;" d="M702.33,335.674l15.16,12.63c-7.561,1.71-13.29,3.9-15.83,6.7c0,0-29.33-17.33-39.33-9.33
			c0,0-11.811-18.49-24.16-21.46l3.83-0.21h9l16-25.83l1.33,15.5c8-1.34,20,16,20,16L702.33,335.674z"/>
		<path style="fill:#BB8E8C;" d="M646.33,357.674c0,0,58,32-30.67,41.33c0,0-62-14-81.33,6.67c0,0-2.85,1.12-7.22,2.65
			c-13.44,4.699-41.26,13.239-44.78,4.68c-42.67-9.33-6-45.17-6-45.17c-18.67-16.5,20.66-38.82,20.66-38.82
			c12.67-14.67-58.66-13.34-58.66-13.34s-13.34-8.67-42.67,5.33c0,0-42.66-12.67,15.34-29.33c34-16,55.33,14,55.33,14
			c16.67-12.67,39.33,11.33,39.33,11.33c14,2,26-8,26-8l6.01-2.64v0.01c32.01,2.69,87.32,22.41,87.32,22.41
			S632.33,351.004,646.33,357.674z"/>
		<path style="fill:#C9988D;" d="M622.33,299.674c20.67-10.67,18,0.67,18,0.67l-4.57,23.49c-3.71-0.25-7.399,1.1-10.77,4.95
			c0,0-55.311-19.72-87.32-22.41v-0.01l21.33-9.36c12.66-18,38,0,38,0c22-23.33,19.33-4,19.33-4l3.33,1.34L622.33,299.674z"/>
		<path style="fill:#AB9191;" d="M438.33,315.674c0,0,71.33-1.33,58.66,13.34c0,0-39.33,22.32-20.66,38.82c0,0-36.67,35.84,6,45.17
			c0,0-52,44-57.34-16.66c0,0-13.33-12.67-4.66-24.67c0,0-18.04-1.39-27.34-9.67c-3.6-3.2-5.89-7.43-5.33-13
			c0,0-4-27.33,41.33-21.33C428.99,327.674,445.66,329.004,438.33,315.674z"/>
		<path style="fill:#A99395;" d="M438.33,315.674c7.33,13.33-9.34,12-9.34,12c-45.33-6-41.33,21.33-41.33,21.33
			c-0.56,5.57,1.73,9.8,5.33,13c-16.02-14.99-27.99,24.33-27.99,24.33c4-4,30.67,0,30.67,0c34.66,0,10.66,35.36,10.66,35.36
			c-36.66-17.301-25.79,9.31-25.79,9.31l25.79,17.33c-9.33,24-40,10.17-40,10.17c-20,7.51-26.32,6.74-26.32,6.74
			c0.34-29.09-16.34-18.25-16.34-18.25c-20.67-38,15.33-11.49,15.33-11.49c6-4.16-16.67-24.42-16.67-24.42
			c-1.96-0.95-5.4-1.34-9.29-1.42c-12.06-3.94-17.37-14.67-17.37-14.67c-32.96-34.08,20.21-21.33,20.21-21.33
			c6.22,4.67,4.45-5.83,4.45-5.83c-10.01-7.16,0-23.5,0-23.5c32.67-12.66,39.33,4,39.33,4c8.67,6,2.67-12,2.67-12l-6-10
			c-24,10.67-12.67-9.33-12.67-9.33c-7.33,2-6-15.33-6-15.33c-13.33-2.67-24.66-29.34-24.66-29.34c44-15.33,63.33,20,63.33,20
			l14.67,2.67c4-3.33,20-3.33,20-3.33c-58,16.66-15.34,29.33-15.34,29.33C424.99,307.004,438.33,315.674,438.33,315.674z"/>
		<path style="fill:#9398A2;" d="M320.33,367.834c0,0,1.77,10.5-4.45,5.83c0,0-53.17-12.75-20.21,21.33c0,0,5.31,10.729,17.37,14.67
			c-9.36-0.2-21.3,1.42-21.3,1.42c-8.66-9.41-3.08,10.61-3.08,10.61c18.99-9.971,13.67,13.3,13.67,13.3
			c-6-0.66-13.67,27.45-13.67,27.45c-3.6-6.44-11.12-10.261-26.33-4.551c0,0-25.33,5.12-16.66-26.89c0,0-11.28-28.88-35.92-27.67
			c5.66-0.73,17.6-2.33,11.91-2.33c-7.33,0-13.33-11.33-13.33-11.33c-6.67-6,18.67-21.84,18.67-21.84l8,5.17c0,0,14,0,1.33-5.17
			c-0.85-0.34-1.7-0.75-2.54-1.21c-11.68-6.42-22.13-22.95-22.13-22.95c-1.33-7.33,34.67-12,34.67-12c4-15.33,17.33-6.67,17.33-6.67
			c24-11.33,56.67,19.33,56.67,19.33S310.32,360.674,320.33,367.834z"/>
		<path style="fill:#9C969C;" d="M291,485.804c2.67,36.811-72.67,14.53-72.67,14.53c-28,16-74.66-11.95-74.66-11.95
			c-27.03-25.66,7.84-71.64,8.64-72.68c0.01-0.01,0.01-0.021,0.01-0.021c17.41-19.569,42.71-17.779,51.44-16.449
			c2.06,2.5,3.24,4.439,3.24,4.439s1.09-0.13,2.7-0.34c0.02,0,0.03,0,0.05,0c24.64-1.21,35.92,27.67,35.92,27.67
			c-8.67,32.01,16.66,26.89,16.66,26.89c15.21-5.71,22.73-1.89,26.33,4.551C293.74,471.523,291,485.804,291,485.804z"/>
		<path style="fill:#8097A4;" d="M200.42,395.594c1.27,1.25,2.4,2.5,3.34,3.641c-8.73-1.33-34.03-3.12-51.44,16.449
			c0,0,0,0.011-0.01,0.021c-25.16,28.28-14.65-24.54-14.65-24.54S179.82,385.954,200.42,395.594z"/>
		<path style="fill:#8F8692;" d="M187.66,372.344l-9.33,13.33l7.33,2.66c5.79,0,10.96,3.56,14.76,7.26
			c-20.6-9.64-62.76-4.43-62.76-4.43c-4-9.19-32.66-13.49-32.66-13.49s31.47-34.34,49.37-16.97l-0.71,1.3l3.46,1.94v0.01l12.54,7.05
			C170.33,359.004,187.66,372.344,187.66,372.344z"/>
		<path style="fill:#A88589;" d="M155.66,358.344l-1.29,2.36c-17.9-17.37-49.37,16.97-49.37,16.97
			c-4.28-15.689-12.95-22.71-21.47-25.61c0,0,0,0-0.01-0.01c-0.5-0.32-16.62-10.6-23.19-24.38c28-40,62,0,62,0
			C152.33,328.344,155.66,358.344,155.66,358.344z"/>
		<path style="fill:#8695A2;" d="M137.66,391.164c0,0-10.51,52.82,14.65,24.54c-0.8,1.04-35.67,47.02-8.64,72.68
			c-24.67,22.71-38.67-8.72-38.67-8.72c-6.01-25.33-29.33-32-21.47-1.33c7.86,30.67-15.86,34.66-15.86,34.66
			c-14,6.67-40.21-35.33-40.21-35.33c-4.71-19.95-14.77-5.11-15.46-4.061v-18.6c0,0,24.46-28.69,30.8-24.16c0,0,0,0.01,0.01,0.01
			c0.06,0.04,0.13,0.091,0.19,0.15h17c0,0,4.46-38.65,49.06-17.99C109.06,413.014,129.52,391.914,137.66,391.164z"/>
		<path style="fill:#8D8796;" d="M137.66,391.164c-8.14,0.75-28.6,21.85-28.6,21.85c-44.6-20.66-49.06,17.99-49.06,17.99H43
			c-0.06-0.06-0.13-0.11-0.19-0.15c-0.01,0-0.01-0.01-0.01-0.01c-1.94-1.52-17.08-13.78-16.18-24.47c0.09-1.15,0.38-2.271,0.88-3.37
			c0,0,24.16-20,24.83-29.33c0,0,10.67-14.67,8.67-22c0,0,11.12-3.49,22.52,0.38c0.01,0.01,0.01,0.01,0.01,0.01
			c8.52,2.9,17.19,9.92,21.47,25.61C105,377.674,133.66,381.974,137.66,391.164z"/>
		<path style="fill:#A5878C;" d="M60.33,327.674c6.57,13.78,22.69,24.06,23.19,24.38c-11.4-3.87-22.52-0.38-22.52-0.38l-5.23-24.35
			C58.59,327.494,60.33,327.674,60.33,327.674z"/>
		<path style="fill:#A5878C;" d="M61,351.674c2,7.33-8.67,22-8.67,22c-0.67,9.33-24.83,29.33-24.83,29.33
			c-0.5,1.1-0.79,2.22-0.88,3.37c-24.37-7.311-0.96-44.37-0.96-44.37c-35.33-29,16-34.69,16-34.69l-0.01-0.19
			c5.53-0.21,10.64-0.02,14.12,0.19v0.01L61,351.674z"/>
		<path style="fill:#AE8B89;" d="M41.65,327.124l0.01,0.19c0,0-51.33,5.69-16,34.69c0,0-23.41,37.06,0.96,44.37
			c-0.9,10.689,14.24,22.95,16.18,24.47c-6.34-4.53-30.8,24.16-30.8,24.16v-112.66C11.03,330.674,27.65,327.624,41.65,327.124z"/>
	</g>
</g>
</svg>
