<?xml version="1.0" encoding="utf-8"?>
<!-- Generator: Adobe Illustrator 16.0.0, SVG Export Plug-In . SVG Version: 6.00 Build 0)  -->
<!DOCTYPE svg PUBLIC "-//W3C//DTD SVG 1.1//EN" "http://www.w3.org/Graphics/SVG/1.1/DTD/svg11.dtd">
<svg version="1.1" id="图层_4" xmlns="http://www.w3.org/2000/svg" xmlns:xlink="http://www.w3.org/1999/xlink" x="0px" y="0px"
	 width="1000px" height="661.004px" viewBox="0 0 1000 661.004" style="enable-background:new 0 0 1000 661.004;"
	 xml:space="preserve">
<g id="XMLID_3_">
	<g>
		<path style="fill:#D9C4AF;" d="M968.52,546.204c2.301,0.41,4.5,0.84,6.54,1.28c8.24,1.77,13.94,3.52,13.94,3.52v110H13v-72.15
			c0,0,101.84-11.909,108.98-40.859c0.01,0.01,0.02,0.01,0.02,0.01c0-0.03,0-0.05,0.01-0.08c1.04,0.03,68.01,2.24,70.99,28.04
			c3,26,10,12.87,10,12.87l25-7.83h76l19-27c0,0,34-28,46-18c3.53,2.95,14.71,2.51,28.81,0.83c13.56-1.61,29.84-4.37,44.65-6.35
			c0.18,0.17,0.36,0.34,0.54,0.52c0.45-0.27,0.9-0.53,1.35-0.77c2.08-0.28,4.13-0.53,6.13-0.761c1.5,11.84,3.02,23.9,3.02,24.53
			l2.5-1.25l-1.57-23.72c6.52-0.681,12.45-1.05,17.31-0.92c7.74,1.899,13.26,4.89,13.26,4.89c27-20,110,16,110,16
			c4.65-7.9,17.07-7.16,29.04-4.1c-0.43,12.029-1.15,21.71-2.37,23.1H628c0,0,0.25-9.97,0.49-21.86
			c12.04,3.62,22.51,8.86,22.51,8.86c3.24-6.01,25.3-6.89,48.07-6.1c-1.07,9.699-1.9,17.42-1.9,17.42c0.83,2.33,4.33,0.84,4.33,0.84
			c-0.17-0.87,0.92-9.75,2-18.09c25.03,1.09,49.5,3.93,49.5,3.93c11-16,95,2,95,2c9-14,72-4,72-4
			C929.98,541.614,952.02,543.244,968.52,546.204z"/>
		<path style="fill:#E0C4B2;" d="M979.76,511.734c0.391-0.431,8.811-9.931,6.74-2.73l-7.75,8.5c0,0-3.51,28.96-3.69,29.98
			c-2.04-0.44-4.239-0.87-6.54-1.28c0.301-1.72,7-39.58,7.73-44.561l-5.74-17.85c0.29,0.47,4.891,7.96,5.74,12.03
			c0,0,4.63-35.82,4.63-45.82H984C984,450.004,980.76,508.864,979.76,511.734z"/>
		<path style="fill:#9EABAD;" d="M813.25,509.754l-1.25,8.79l0.25,17.46h-3.63c0,0-4.93-36.12-5.43-36.88l-5.44-7.12H800l3.19,4.38
			l-2.19-9.38h4l2.25,13.5l2.75-5l-1.75,7.25l1.75,14L813.25,509.754z"/>
		<path style="fill:#D6BEB0;" d="M714.17,516.654c0.83-0.33,5-3,2.66,2.67c0,0-9.83,13-11.33,14.83c0,0-1,7.229-2,14.92
			c-1.47-0.061-2.95-0.12-4.43-0.17c1.72-15.511,4.02-36.101,4.43-38.25c0,0-6.33-19.16-5.17-27.83c0,0,1.5-1.33,2,1.33
			c0,0,2.5,24,4.34,23.5c0,0,2.33-35.16,3.5-36.66c0,0,2.33-3.67,2,1.33l0.03,15.83c0,0,4.97-8.33,4.47-9.16c0,0,2-2.5,1,3.83
			c0,0-4,8-5.84,8.83c0,0-2.88,32.159-3.271,34.5C706.56,526.154,713.33,516.994,714.17,516.654z"/>
		<path style="fill:#B4BCB8;" d="M703.5,549.074c-1.08,8.34-2.17,17.22-2,18.09c0,0-3.5,1.49-4.33-0.84c0,0,0.83-7.721,1.9-17.42
			C700.55,548.954,702.03,549.014,703.5,549.074z"/>
		<path style="fill:#D4BFAA;" d="M636.33,492.824l-7.5,14c0.29,0.149,0.17,11.56-0.05,24.5l-4.3-5.17
			c0.25-17.87,0.119-34.65,0.119-34.65l-2.77-4.34c-3.5-7,1.17-6.12,1.17-6.12l2,4.96v-7.34c1-5.83,3.83,0.18,3.83,0.18l-0.4,22.771
			l5.9-9.46C635.5,489.994,636.33,492.824,636.33,492.824z"/>
		<path style="fill:#B9BFB6;" d="M624.48,526.154l4.3,5.17c-0.09,4.899-0.19,10.02-0.29,14.819c-1.471-0.449-2.96-0.859-4.45-1.239
			C624.25,538.984,624.39,532.504,624.48,526.154z"/>
		<path style="fill:#A9BDBB;" d="M628.49,546.144c-0.24,11.891-0.49,21.86-0.49,21.86h-6.33c1.22-1.39,1.94-11.07,2.37-23.1
			C625.53,545.284,627.02,545.694,628.49,546.144z"/>
		<path style="fill:#99B4B6;" d="M471.74,528.114c-4.86-0.13-10.79,0.239-17.31,0.92l-0.14-2.04
			C460.44,526.063,466.58,526.844,471.74,528.114z"/>
		<path style="fill:#B9B7AA;" d="M457.25,517.504l1.75,2.12l-4.71,7.37c-1.34,0.189-2.69,0.479-4.02,0.85
			c-1.42-11.13-2.77-21.59-2.77-21.59l-7.01-8.5c-3.02-7.5,0-5,0-5l7.01,10.5l-7-39.5c-0.25-9.5,3,0,3,0l4,20.75l1.57-10.5
			l1.93,0.25l-1.93,16.31c0.83,2.311,4.68,34.44,4.68,34.44L457.25,517.504z"/>
		<path style="fill:#D6C6B1;" d="M454.43,529.034l1.57,23.72l-2.5,1.25c0-0.63-1.52-12.69-3.02-24.53
			C451.82,529.313,453.14,529.164,454.43,529.034z"/>
		<path style="fill:#D6C6B1;" d="M454.29,526.994l0.14,2.04c-1.29,0.13-2.61,0.279-3.95,0.439c-0.07-0.55-0.14-1.09-0.21-1.63
			C451.6,527.474,452.95,527.184,454.29,526.994z"/>
		<path style="fill:#B9B7AA;" d="M450.27,527.844c0.07,0.54,0.14,1.08,0.21,1.63c-2,0.23-4.05,0.48-6.13,0.761
			C446.28,529.194,448.26,528.414,450.27,527.844z"/>
		<path style="fill:#98B1B6;" d="M400,510.004c3.99,1.06,23.24,1.96,42.46,20.48c-14.81,1.979-31.09,4.739-44.65,6.35l-0.07-0.61
			c0.64-0.06,1.4-0.62,2.26-2.05V510.004z"/>
		<path style="fill:#6F899B;" d="M402.5,501.824c2.84-3.641,2.67,0.68,2.67,0.68l-5.17,7.5v24.17c-0.86,1.43-1.62,1.99-2.26,2.05
			c-1.6,0.16-2.49-2.72-2.49-2.72c0.6,0.11-0.12-17.27-0.68-29.34c-0.31-6.41-0.57-11.33-0.57-11.33l-3.67-9c-1.5-3.5,1-2.16,1-2.16
			l2.67,6.33v-32.17c1-2.5,3.42,0,3.42,0c-0.34,7.67,1.08,17,1.08,17l0.83-5.16c0.84-5.17,1.67,0,1.67,0l-1.67,7.33l-0.16,22.5
			c-0.34,12.33,1.08,8.15,1.08,8.15L402.5,501.824z"/>
		<path style="fill:#C8C7B8;" d="M397.74,536.224l0.07,0.61c-14.1,1.68-25.28,2.12-28.81-0.83c-12-10-46,18-46,18l-19,27h-76
			l-25,7.83c0,0-7,13.13-10-12.87c-2.98-25.8-69.95-28.01-70.99-28.04c2.17-27.9,97.99-18.92,97.99-18.92
			c5.2-5.72,12-9.45,20.25-12.18l3.75,9.18v14c0,2.17,3.83,0,3.83,0l0.71-25.61c22.31-5.85,45.46-3.39,45.46-3.39c10,9,49,0,49,0
			c18.61-10.79,35.53-11.1,51.56-6.84h0.01c0.56,12.07,1.28,29.45,0.68,29.34C395.25,533.504,396.14,536.384,397.74,536.224z"/>
		<path style="fill:#728597;" d="M251.17,496.334c0,0,7.12-1.85,0.06,5.49c0,0-2.56,2.18-2.56,8.01l-0.13,4.56l-3.59,1.03
			l0.26-15.42l-8.71-10.5c0,0-1.5-4.67,3.17-1c0,0,1.33,4.5,4.33,7.17c0,0-0.33-32-2-39.34c0,0,3.67-4.66,7,0v44.67
			C249,501.004,251.67,498.334,251.17,496.334z"/>
		<path style="fill:#75889E;" d="M245.2,522.974c-0.01-0.08-0.37-0.8-0.37-0.8l0.12-6.75l3.59-1.03l-0.71,25.61
			c0,0-3.83,2.17-3.83,0v-14l-3.75-9.18l1.29-0.431c0.36,0.591,0.79,1.341,1.29,2.28C244.57,521.914,245.11,522.864,245.2,522.974z"
			/>
		<path style="fill:#728597;" d="M241.54,516.394l-1.29,0.431l-0.75-1.82C239.5,515.004,239.25,512.644,241.54,516.394z"/>
		<path style="fill:#98AAAB;" d="M80,558.004c5.91-18.71,40.91-10.27,41.98-10.01C114.84,576.944,13,588.854,13,588.854v-31.85
			c0.77,5.39,10.87,6.78,23.01,6.44c1.63-0.04,3.31-0.12,5-0.221C59.38,562.124,80,558.004,80,558.004z"/>
		<path style="fill:#B1BCB8;" d="M34.63,494.563c-0.74-1.35-1.37-11.529-1.63-16.319c0-0.141-0.01-0.28-0.02-0.41
			c0-0.021,0-0.04,0-0.061c-0.01-0.06-0.01-0.109-0.01-0.17c-0.08-5.68,3.28-0.85,3.28-0.85c0.49,3.75,3.75,33.5,3.75,33.5l2.5-4.5
			c3.5-4.75,2.5,0,2.5,0l-4,9c-2.25,2.25,0,28.75,0,28.75c6.5-2.25,0,3.5,0,3.5v16l0.01,0.22c-1.69,0.101-3.37,0.181-5,0.221
			l-0.01-0.44v-28l-2.38-5.25c-6.25-12.75-1.47-7.75-1.47-7.75l4.1,7.74l-1.51-29.25l-4.01-7.521c-5-10.5-1.51-6.52-1.51-6.52
			L34.63,494.563z"/>
	</g>
	<g>
	</g>
</g>
</svg>
