<?xml version="1.0" encoding="utf-8"?>
<!-- Generator: Adobe Illustrator 16.0.0, SVG Export Plug-In . SVG Version: 6.00 Build 0)  -->
<!DOCTYPE svg PUBLIC "-//W3C//DTD SVG 1.1//EN" "http://www.w3.org/Graphics/SVG/1.1/DTD/svg11.dtd">
<svg version="1.1" id="图层_5" xmlns="http://www.w3.org/2000/svg" xmlns:xlink="http://www.w3.org/1999/xlink" x="0px" y="0px"
	 width="1000px" height="661.004px" viewBox="0 0 1000 661.004" style="enable-background:new 0 0 1000 661.004;"
	 xml:space="preserve">
<g id="XMLID_6_">
	<g>
		<path style="fill:#DBC0AB;" d="M929.36,558.224c1.27,13.141,2.26,24.78,2.26,24.78c0.28,3.19,8.88,0,8.88,0
			c-0.54-1.73-2.81-18.91-5.21-37.85c50.46-10.9,53.71,11.85,53.71,11.85v104h-32.93c-61.5-71.57-107.78-30.61-107.78-30.61
			c-9.12-4.659-29.29-2.02-29.29-2.02c-9-14.64-50-8.37-50-8.37c-12,16-66,4.13-66,4.13c-45,6.12-98-7.13-98-7.13
			c-14,8-74,7.13-74,7.13c-46,12.12-42.16-25.64-42.16-25.64c14.48-3.82,24.16-7.49,24.16-7.49c-0.62-14.3,20.8-26.28,37.09-33.3
			c0.21,3.92,0.45,7.91,0.68,11.81c0.98,16.141,2.021,30.59,2.021,30.59c0.17,2.351,10.96,0,10.96,0
			c-0.77-2.27-1.39-13.189-1.85-24.699c0.119,1.399,0.149-8.62,0.149-22.4c3.66-1.3,5.95-2,5.95-2c5-19,82,3,82,3c12-20,97,2,97,2
			c-0.4-2.97,3.24-4.76,9.34-5.73c1.42,12.94,2.78,22.851,2.78,22.851c0.3,2.24,7.13,0,7.13,0c-0.2-0.95-0.88-11.43-1.64-23.63
			c28.47-1.351,81.39,6.51,81.39,6.51c1.26-2.1,5.12-3.59,10.44-4.62c-1.94,10.311-5.32,24.24-5.32,24.24
			c0.63,3.63,8.63,2.63,8.63,2.63c1.98-0.78,3.96-12.74,5.71-28.1c21.14-2.021,51.54-0.15,51.54-0.15
			c3.95-1.22,7.69-2.28,11.22-3.18C928.61,550.594,929,554.474,929.36,558.224z"/>
		<path style="fill:#C6BCB0;" d="M956.07,661.004H832.64c23.181-18.38,22.99-26.85,15.65-30.61
			C848.29,630.394,894.57,589.434,956.07,661.004z"/>
		<path style="fill:#E0BCAA;" d="M925.81,479.204c0.771-3.86,8.801-43.66,10.94-42.95c0,0-12.75,46-8,56.25c0,0,2.38,19.55,5,40.5
			c-2.75-0.75-8.99-18-8.99-18s-11.51-71-12.51-74L895,412.254c0,0-0.75-3.25,1.75,0c0,0,10.75,15.25,14.25,22
			c0,0-1.59-7.72-3.72-17.95c0,0,0-0.01,0-0.02c0.069-0.53,1.33-10.74,3.25-8.79C915.97,430.084,926.35,474.124,925.81,479.204z
			 M925.8,479.273c-0.02,0.08-0.03,0.141-0.04,0.171C925.78,479.394,925.79,479.344,925.8,479.273z"/>
		<path style="fill:#ABBBB7;" d="M934.74,545.273c0.189-0.05,0.37-0.09,0.55-0.119c2.4,18.939,4.67,36.119,5.21,37.85
			c0,0-8.6,3.19-8.88,0c0,0-0.99-11.64-2.26-24.78c0.27-2.779,1.05-9.359,2.529-12.3C932.86,545.694,933.81,545.474,934.74,545.273z
			"/>
		<path style="fill:#A8BFB5;" d="M935.29,545.154c-0.18,0.029-0.36,0.069-0.55,0.119c-1.141-1.409-2.09-0.859-2.851,0.65
			c-1.199,0.28-2.42,0.58-3.67,0.9c-1.3-12.7-2.66-24.101-3.41-25.07l-26.279-45.5c0,0-0.261-4,2.489,0c0,0,22.99,38.75,23.74,38.75
			c0,0,6.24,17.25,8.99,18C934.26,537.044,934.77,541.134,935.29,545.154z"/>
		<path style="fill:#ABBBB7;" d="M931.89,545.924c-1.479,2.94-2.26,9.521-2.529,12.3c-0.36-3.75-0.75-7.63-1.141-11.399
			C929.47,546.504,930.69,546.204,931.89,545.924z"/>
		<path style="fill:#F5E6DE;" d="M906.23,383.874l-0.23-1.62c0,0,8.75-34.3,8.75-32c0,3-8.63,42-7.44,44c0,0,1.301,5.29,3.221,13.24
			c-1.92-1.95-3.181,8.26-3.25,8.79c-4.061-19.48-10.09-48.061-10.9-50.03L883,344.004v-1c0,0,9.97,13.7,12.49,17.48
			c-0.25-1.25-10.42-50.851-5.24-40.23C890.25,320.254,905.51,380.334,906.23,383.874z"/>
		<path style="fill:#B7BABB;" d="M884.5,455.254c0,0,3,0.25,1.25,2c0,0-12.25,21.5-14.5,22.25l1.75-6.5
			C873,473.004,884,459.004,884.5,455.254z"/>
		<path style="fill:#D9BFA7;" d="M873,464.254v8.75l-1.75,6.5c0,0-0.71,11.93-1.88,27.5c0,0,0,0.05-0.01,0.13
			c-0.19,1.91-2.46,23.44-6.69,2.76v-0.01c1.13-10.12,2.38-21.82,3.39-32.77C866.87,478.624,873,464.254,873,464.254z"/>
		<path style="fill:#F4DCBD;" d="M873,440.254v24c0,0-6.13,14.37-6.94,12.86c1.7-18.33,2.761-34.58,1.561-37.87
			C867.62,439.244,871,437.004,873,440.254z"/>
		<path style="fill:#AABDB9;" d="M862.67,509.894c4.23,20.681,6.5-0.85,6.69-2.76c-1.011,13.43-2.36,29.53-3.9,43.021
			c-3.28,0.31-6.34,0.71-9.02,1.229c0.35-1.87,0.659-3.61,0.89-5.13c0.32-2.02,2.17-9.37,2.17-9.37S860.95,525.204,862.67,509.894z"
			/>
		<path style="fill:#A5BCB8;" d="M865.46,550.154c-1.75,15.359-3.729,27.319-5.71,28.1c0,0-8,1-8.63-2.63c0,0,3.38-13.93,5.32-24.24
			C859.12,550.864,862.18,550.464,865.46,550.154z"/>
		<path style="fill:#9CB7B9;" d="M856,498.004c0,0,1,39,3.5,38.88c0,0-1.85,7.351-2.17,9.37c0.4-2.67,0.57-4.65,0.36-5.4
			c0,0-4.101-42.85-3.141-42.85H856z"/>
		<path style="fill:#ABC0BC;" d="M848.29,630.394c7.34,3.761,7.53,12.23-15.65,30.61H285.76c8.85-2.91,15.78-11.18,17.82-28.61
			c0,0,54.12-30.159,88.68-32.3c6.95,3.07,14.66,4.97,22.73,5.97c25.28,3.181,54.05-2.34,73.85-7.569c0,0-3.84,37.76,42.16,25.64
			c0,0,60,0.87,74-7.13c0,0,53,13.25,98,7.13c0,0,54,11.87,66-4.13c0,0,41-6.27,50,8.37C819,628.374,839.17,625.734,848.29,630.394z
			"/>
		<path style="fill:#B5BAB8;" d="M780,474.254c0,0,1.75,1.41,0,2.25c0,0-15.75,31-17.75,32.75c0,0,0.07,1.3,0.2,3.52l-1.45-5.77
			C761,507.004,779.25,475.754,780,474.254z"/>
		<path style="fill:#DBBFA4;" d="M768.75,426.254l2.25,0.5c0,0-6.5,22.25-9,23.5c0,0-1,55.25-1,55.75s0,1,0,1l1.45,5.77
			c0.37,6.4,1.18,20.5,1.97,33.471c-3.58-10.971-8.79-2.73-8.79-2.73c-2.16-21.14-3.96-46.71-0.689-51.819l0.31-7.19
			c0,0,0.16-23.98,0.68-45.26c0,0,5.24-4.76,6.15,0h0.01c0.12,2.939,0.4,4.819,0.91,4.76L768.75,426.254z"/>
		<path style="fill:#AABFBD;" d="M764.61,549.494c0.76,12.2,1.439,22.68,1.64,23.63c0,0-6.83,2.24-7.13,0c0,0-1.36-9.91-2.78-22.851
			C758.74,549.884,761.53,549.634,764.61,549.494z"/>
		<path style="fill:#B0B9AD;" d="M764.42,546.254c0.07,1.09,0.13,2.17,0.19,3.24c-3.08,0.14-5.87,0.39-8.271,0.779
			c-0.24-2.17-0.479-4.439-0.71-6.76c0,0,5.21-8.24,8.79,2.73V546.254z"/>
		<path style="fill:#FAF7EF;" d="M762.09,439.244h-0.01c-0.91-4.76-6.15,0-6.15,0c0.431-16.86,1.08-32.021,2.07-32.24
			c0,0,5-3.75,5,0C763,407.004,761.66,429.244,762.09,439.244z"/>
		<path style="fill:#C3B4AC;" d="M755.25,484.504l-0.31,7.19c0,0-9.19-38.69-6.94-53.69h1
			C749,438.004,753.25,484.254,755.25,484.504z"/>
		<path style="fill:#F5B296;" d="M583.97,418.254c0.28,0,1.82,2.75,1.82,2.75S559,459.254,559,464.754c0,0-0.25,4.25-0.56,10.62
			c-2.11,4.81-7.44,11.78-7.7,12.12c0.81-22.771,1.92-50.21,2.5-50.36c0,0-7.24-13.13-6.99-25.13H547c0,0,5.92,20.17,6.24,20.75
			c0,0.11-0.01,0.5-0.01,0.5s2.09-22.71,3.699-41.01c0.681-7.67,8.521-18.95,8.521-18.95c-0.7,7.11-1.311,12.31-1.69,13.44
			c-0.01,0.01-0.01,0.02-0.01,0.02l0.25,0.25v5l0.4,0.16c-0.351,0.54-0.58,0.84-0.65,0.84c0,0-5.25,60.35-4,62.8
			C559.75,455.804,583.7,418.254,583.97,418.254z"/>
		<path style="fill:#EDBEA8;" d="M583.75,355.004c0,0,0.5,1.5,0,2.75c-0.45,1.13-15.89,29.16-19.35,34.41l-0.4-0.16v-5l-0.25-0.25
			c0,0,0-0.01,0.01-0.02C564.34,385.764,583.01,354.754,583.75,355.004z"/>
		<path style="fill:#D0C2AE;" d="M572.5,506.254c0,0,3.25-2.25,1,5c0,0-8.47,17.12-11.47,27.85c0-3.84-0.011-7.77-0.021-11.659
			C565.85,519.324,572.01,505.284,572.5,506.254z"/>
		<path style="fill:#F9F7EB;" d="M560.5,360.504c0,0,5-64.75,9.75-45c0,0-2.76,37.05-4.8,57.79c0,0-7.84,11.28-8.521,18.95
			c1-11.431,1.82-21.141,1.82-22.49c0,0-1-1.92-2.34-5.15l2.34-0.35C558.75,364.254,560.5,368.004,560.5,360.504z"/>
		<path style="fill:#DABDAA;" d="M562.01,527.444c0.01,3.89,0.021,7.819,0.021,11.659c-0.7,2.49-1.101,4.641-1.03,6.15
			c0,0,0.06,3.2,0.19,8.07c-3.051,1.1-6.91,2.569-11.101,4.38c-0.8-14.66-1.35-28.19-0.82-31.141c0,0-1.689-5.68-4-13.71l2.48-0.58
			c0.93,3.2,1.64,5.19,1.97,5.24c0,0,0.431-13.819,1.011-30.01c0,0,0,0,0.01-0.01c0.26-0.34,5.59-7.311,7.7-12.12
			c-0.94,19.189-2.44,57.63,0.56,57.63C559.29,533.004,560.46,530.704,562.01,527.444z"/>
		<path style="fill:#BDBEB5;" d="M561.9,575.404c0.46,11.51,1.08,22.43,1.85,24.699c0,0-10.79,2.351-10.96,0
			c0,0-1.04-14.449-2.021-30.59h0.011c0,0,10.72-3.04,11.1,5.49C561.89,575.184,561.9,575.313,561.9,575.404z"/>
		<path style="fill:#D6BCA9;" d="M561.19,553.324c0.149,5.75,0.38,13.83,0.689,21.68c-0.38-8.53-11.1-5.49-11.1-5.49h-0.011
			c-0.229-3.899-0.47-7.89-0.68-11.81C554.28,555.894,558.14,554.424,561.19,553.324z"/>
		<path style="fill:#FFF1E7;" d="M558.75,364.254l-2.34,0.35c-3.51-8.409-9.34-25.68-5.91-40.85l1.25,1.5
			C551.75,325.254,554.25,353.004,558.75,364.254z"/>
		<path style="fill:#CDC4B7;" d="M547.75,512.273l-2.48,0.58c-5.479-19.159-14.42-51.689-12.13-52.569c0,0,2.301-1.261,2.301,1.489
			C535.44,461.773,543.71,498.404,547.75,512.273z"/>
		<path style="fill:#D4CDB7;" d="M378,591.004c4.2,3.78,9.01,6.77,14.26,9.09c-34.56,2.141-88.68,32.3-88.68,32.3
			c-13.25,20.15-73.13,9.73-74.54,9.49c-0.01-0.01-0.02-0.01-0.02-0.01c-50.5-4.061-88.14-3.26-115.87-0.4
			C44.2,621.944,13,661.004,13,661.004v-65c0-24.79,35.61-25.5,56.39-23.8c-0.33,9.64-0.41,18.38,0.08,23.3c0,0,9.03,14.5,8.53-19.5
			l-0.04-2.9c3.75,0.48,6.04,0.9,6.04,0.9c14-66,104,2,104,2c3.52,5.28,6.95,8.32,10.05,9.98c3.01,9.25,8.7,6.02,8.7,6.02l-0.1-4.38
			c2.71-0.43,4.35-1.62,4.35-1.62l29-6c9.02-9.93,25.11-12.89,43.19-12.16c-0.09,10.84-0.19,19.16-0.19,19.16h9.25
			c-0.11-0.42-0.51-8.88-0.95-18.62c11.86,1.101,24.23,3.51,35.79,6.36c1.34,15.5,2.24,33.59,2.24,33.59
			c2.17,3.91,7.31,2.729,10.63,1.43c1.78-0.7,3.04-1.43,3.04-1.43c1.12-2.09-1.47-19.82-3.11-30.19
			C361.64,584.344,378,591.004,378,591.004z"/>
		<path style="fill:#D0C2B0;" d="M352.33,509.334l2.34,0.34c0,0-7.34,52.66-16,61c0,0,0.53,3.07,1.22,7.47
			c-0.84-0.239-1.7-0.479-2.56-0.72c-5.12-32.99-15.66-39.75-15.66-39.75s10.22-0.05,10.66,2.39c2,11.391,4.4,21.99,6.67,24.271
			C339,564.334,354.33,512.674,352.33,509.334z"/>
		<path style="fill:#CFC9B7;" d="M339.89,578.144c1.64,10.37,4.23,28.101,3.11,30.19c0,0-1.26,0.729-3.04,1.43
			c-0.29-12.89-1.27-23.55-2.63-32.34C338.19,577.664,339.05,577.904,339.89,578.144z"/>
		<path style="fill:#D9BDA5;" d="M339,451.004h3c0,0-2.33,37.67-14.33,57c0,0,1.97,16.75,4.66,32.06
			c-0.44-2.439-10.66-2.39-10.66-2.39c-1.69-15.05-6.2-53.53-8.34-55.67c0,0-22.66-39-20-44c0,0,15,36,19,37
			c0,0-0.99-8.54-2.25-19.64c0,0,2.93,15.689,11.59,17.5l5.33,31.31C327,504.174,341.33,469.004,339,451.004z"/>
		<path style="fill:#9FBCC2;" d="M337.33,577.424c1.36,8.79,2.34,19.45,2.63,32.34c-3.32,1.3-8.46,2.48-10.63-1.43
			c0,0-0.9-18.09-2.24-33.59C330.59,575.604,334.02,576.504,337.33,577.424z"/>
		<path style="fill:#A8BFBD;" d="M321.67,537.674c0,0,10.54,6.76,15.66,39.75c-3.31-0.92-6.74-1.82-10.24-2.68
			c-0.97-11.19-2.16-21.04-3.42-21.74l-13-17.06l11.66,7.699C322.33,543.644,322.09,541.364,321.67,537.674z"/>
		<path style="fill:#D6B1A1;" d="M329,364.344c0,0,1.33,59.33-11.67,83l-0.25-2.89v-0.021c0-0.069-0.02-0.3-0.06-0.71l-0.02-0.18
			c0,0,11.33-28.85,9-79.85L329,364.344z"/>
		<path style="fill:#F2B18E;" d="M305,405.674c0,0-1.75-3.11-4.26-7.84l2.41-0.63c0.67,1.35,1.15,2.08,1.35,1.97
			c0,0-1.11-10.979-2.46-25.51h0.01c0,0,3.69,10.71,7.49,13.689c3.9,30.15,7.43,57.101,7.54,57.101l0.25,2.89l4.34,25.521
			c-8.66-1.811-11.59-17.5-11.59-17.5c-2.08-18.32-4.87-43.58-5.08-48.86V405.674z"/>
		<path style="fill:#F8E9C7;" d="M299,305.584c0,0,5.58,43.47,10.54,81.77c-3.8-2.979-7.49-13.689-7.49-13.689h-0.01
			C299.05,341.344,294.86,291.444,299,305.584z"/>
		<path style="fill:#F0DDC8;" d="M303.15,397.204l-2.41,0.63c-6.8-12.811-19.2-37.48-17.74-44.66c0,0,1.73-3.17,2.7,0
			C285.7,353.174,298.72,388.404,303.15,397.204z"/>
		<path style="fill:#B3BBB8;" d="M299,520.254v2.75c0,0-8,11.12-9,15.38l-1.75-4.88C288.25,533.504,297.75,520.254,299,520.254z"/>
		<path style="fill:#ADBBB5;" d="M292.25,587.004H283c0,0,0.1-8.32,0.19-19.16c2.67,0.101,5.37,0.28,8.11,0.54
			C291.74,578.124,292.14,586.584,292.25,587.004z"/>
		<path style="fill:#A0A8AE;" d="M289.25,465.254c0,0,2.25-5.5,2,2.25c0,0-2.75,14.75-4,16.25c0,0-0.96,1.16-1.11,4.69l-0.89-6.94
			C285.25,481.504,289.25,469.254,289.25,465.254z"/>
		<path style="fill:#B8BCB5;" d="M290.44,548.754c0.25,5.71,0.56,12.97,0.86,19.63c-2.74-0.26-5.44-0.439-8.11-0.54
			c0.04-5.92,0.09-12.6,0.11-19.09h0.01C283.31,548.754,284.13,537.254,290.44,548.754z"/>
		<path style="fill:#DDBDAD;" d="M283,518.754c0,0-9.75-23.5-8.75-25.25c0,0,8.25,19,8.5,19.25c0.16,0.16-0.57-19.1-1.13-33.52
			c1.1-6.19,3.04-15.12,3.08-15.12l0.09,2.88l0.46,14.51l0.89,6.94c-0.02,0.479-0.02,0.989-0.01,1.56c0,0,0.62,41,2.12,43.5
			l1.75,4.88c0,0,0.18,4.311,0.44,10.37c-6.31-11.5-7.13,0-7.13,0h-0.01C283.37,534.324,283.33,520.844,283,518.754z"/>
		<path style="fill:#E7DED8;" d="M284,442.004l0.7,22.11c-0.04,0-1.98,8.93-3.08,15.12c-0.34-8.601-0.62-15.48-0.62-15.48v-3.75v-18
			C281,442.004,282.5,438.754,284,442.004z"/>
		<path style="fill:#B2C2C5;" d="M281,460.004v3.75c0,0-8.25-15.75-5-17L281,460.004z"/>
		<path style="fill:#A6C1BE;" d="M267.04,661.004H42c0,0,15.96-13.84,71.15-19.53c27.73-2.859,65.37-3.66,115.87,0.4
			c0,0,0.01,0,0.02,0.01C229.72,642.414,248.45,656.604,267.04,661.004z"/>
		<path style="fill:#DEBDA5;" d="M204.51,530.494c0.38-0.61,12.51-20.21,13.99-33.99c0,0,2.5-1.75,1.75,1.25
			c0,0-10.25,34.25-14.75,38.5l0.67,29.75c-7.84-7.51-9.88-17.25-9.88-17.25h-0.01c0.03-24.97-0.02-64.81-0.53-65.5
			c0,0-16-35.75-11.75-31l11,22.25c0,0-0.72-22.9-1.91-48.53h0.01c3.85,4.73,8.15,21.03,8.15,21.03S205.99,527.834,204.51,530.494z"
			/>
		<path style="fill:#F8EBDE;" d="M214,388.504l1.5,2.5c0,0-11.75,20.5-14.25,30.5c0,0-0.25,17.25,0,25.5c0,0-4.3-16.3-8.15-21.03
			h-0.01c-1.47-32.17-3.68-68.64-6.09-69.47c0,0,3.5-7.5,6,0c0,0,7,59,6,61L214,388.504z"/>
		<path style="fill:#C2C0B4;" d="M206.65,587.624l0.1,4.38c0,0-5.69,3.23-8.7-6.02C201.43,587.813,204.41,587.984,206.65,587.624z"
			/>
		<path style="fill:#B8BDB4;" d="M206.17,566.004l0.48,21.62c-2.24,0.36-5.22,0.189-8.6-1.64c-1.17-3.61-1.94-9.131-1.8-17.48
			c0,0,0.02-8.31,0.03-19.75h0.01C196.29,548.754,198.33,558.494,206.17,566.004z"/>
		<polygon style="fill:#A2B2B4;" points="91,535.004 91,537.504 77.77,560.004 78,553.004 		"/>
		<path style="fill:#E0BBA4;" d="M84,482.504c0.5,22-6,19.5-6,19.5v43h-7l-0.24-0.02c0.64-10.591,1.24-18.48,1.24-18.48
			c3-11,0-63,0-63l-5.5-22c-2-10,0-4.5,0-4.5l5.5,16v-29h5h0.12c0.08,29.83,1.19,70.79,1.19,70.79
			C79.11,499.074,84,482.504,84,482.504z"/>
		<path style="fill:#F3E5D9;" d="M72,391.004l6.31,2.5c-0.97,0.54-1.24,13.77-1.19,30.5H77h-5V391.004z"/>
		<path style="fill:#D4CDB7;" d="M13,661.004c0,0,31.2-39.06,100.15-19.53c-55.19,5.69-71.15,19.53-71.15,19.53H13z"/>
		<path style="fill:#ADBDBD;" d="M78,576.004c0.5,34-8.53,19.5-8.53,19.5c-0.49-4.92-0.41-13.66-0.08-23.3
			c3.3,0.26,6.22,0.59,8.57,0.899L78,576.004z"/>
		<path style="fill:#BAC0BB;" d="M78,545.004v8l-0.23,7l0.19,13.1c-2.35-0.31-5.27-0.64-8.57-0.899c0.32-9.09,0.86-18.97,1.37-27.22
			l0.24,0.02H78z"/>
	</g>
	<g>
	</g>
</g>
</svg>
