<?xml version="1.0" encoding="utf-8"?>
<!-- Generator: Adobe Illustrator 16.0.0, SVG Export Plug-In . SVG Version: 6.00 Build 0)  -->
<!DOCTYPE svg PUBLIC "-//W3C//DTD SVG 1.1//EN" "http://www.w3.org/Graphics/SVG/1.1/DTD/svg11.dtd">
<svg version="1.1" id="图层_3" xmlns="http://www.w3.org/2000/svg" xmlns:xlink="http://www.w3.org/1999/xlink" x="0px" y="0px"
	 width="978px" height="600px" viewBox="0 0 978 600" style="enable-background:new 0 0 978 600;" xml:space="preserve">
<g id="XMLID_2_">
	<g>
		<path style="fill:#DCBCA8;" d="M978,489v114.4H2V497.8c1.1,0,25.1,0.8,29.7,7.3c0,0,58-27.3,71.3-16c0,0,19.3-38,108-26.7
			c0,0,49.3-19.2,98.7-7.3c0,0,92-27.3,102,0l14,18.9c0,0,17.3-14.3,50-5.6c0,0,131,38,150.7,18c0,0,143.3,12.7,195.3,2.7
			s76.7-4,86,2.7C907.7,491.8,960,468.4,978,489z"/>
		<path style="fill:#9AABAD;" d="M752,428.3c-6.6,2.6-13.3,1.7-19.8-1.1C738.7,427.3,745.4,427.6,752,428.3z"/>
		<path style="fill:#7B9FAF;" d="M732.1,427.2c-55.6-0.9-108.5,15.9-108.5,15.9c-16.7-30.7-52.3,4.7-52.3,4.7c-7,12-33,4-33,4
			c-34-10-62.7,16.7-62.7,16.7c-32.7-8.7-50,5.6-50,5.6l-14-18.9c-10-27.3-102,0-102,0c-49.3-12-98.7,7.3-98.7,7.3
			c-88.7-11.3-108,26.7-108,26.7c-13.3-11.3-71.3,16-71.3,16c-4.6-6.5-28.5-7.3-29.7-7.3V415c0.7-1,10.8-15.9,15.5,4.1
			c0,0,26.2,42,40.2,35.3c0,0,23.7-4,15.9-34.7c-7.9-30.7,15.5-24,21.5,1.3c0,0,14,31.4,38.7,8.7c0,0,46.7,28,74.7,12
			c0,0,75.3,22.3,72.7-14.5c0,0,2.7-14.3-2.3-23.4c0,0,7.7-28.1,13.7-27.5c0,0,5.3-23.3-13.7-13.3c0,0-5.6-20,3.1-10.6
			c0,0,11.9-1.6,21.3-1.4c2.7,0.9,5.8,1.4,9.3,1.4c0,0,22.7,20.3,16.7,24.4c0,0-36-26.5-15.3,11.5c0,0,16.7-10.8,16.3,18.3
			c0,0,6.3,0.8,26.3-6.7c0,0,30.7,13.8,40-10.2l-25.8-17.3c0,0-10.9-26.6,25.8-9.3c0,0,24-35.4-10.7-35.4c0,0-26.7-4-30.7,0
			c0,0,12-39.3,28-24.3c9.3,8.3,27.3,9.7,27.3,9.7c-8.7,12,4.7,24.7,4.7,24.7c5.3,60.7,57.3,16.7,57.3,16.7c3.5,8.6,31.3,0,44.8-4.7
			c0,0,16.4,16.7,32.9,8.2c0,0,22,60.5,93,6c0,0,37.5-31,46.5,18.5c0,0,0.5,0.8,1.3,2.1C695.5,392.3,712.7,418.7,732.1,427.2z"/>
		<path style="fill:#9BAFB3;" d="M817,449.8c0,0,53.3,22-42.4,28.7c0,0-173-8-148.3,8c-19.7,20-150.7-18-150.7-18
			s28.7-26.7,62.7-16.7c0,0,26,8,33-4c0,0,35.7-35.5,52.3-4.7c0,0,52.9-16.8,108.5-15.9c6.5,2.9,13.2,3.7,19.8,1.1
			C775.5,430.6,798.5,436.9,817,449.8z"/>
		<path style="fill:#779BAB;" d="M978,464.8V489c-18-20.7-70.3,2.7-70.3,2.7c-9.3-6.7-34-12.7-86-2.7s-195.3-2.7-195.3-2.7
			c-24.7-16,148.3-8,148.3-8c95.6-6.7,42.4-28.7,42.4-28.7c-18.5-12.8-41.5-19.1-65-21.5c5.1-2,10-5.9,14.8-12.5
			c13.7,9.3,46.3,3.3,46.3,3.3c1.1-0.3,2.3-0.5,3.6-0.8c0,0,0,0,0,0c4.1,0.4,8.1-0.1,11.8-1.4c25.3-1.8,61.9,0.8,61.9,0.8
			c2.1-1.3,4-2.4,5.7-3.3h0c5.5-0.3,9.6-1.6,12.5-3.4c8.7,1.7,1.8,18.8,1.8,18.8c-20,21.4,21.3,29.9,21.3,29.9
			C951.6,449.8,971.7,460.7,978,464.8z"/>
		<path style="fill:#8699A3;" d="M978,375.4v89.3c-6.3-4-26.4-14.9-46.3-5c0,0-41.3-8.5-21.3-29.9c0,0,7-17.1-1.8-18.8
			c14.6-9.1,1.4-33,1.4-33c4.3-0.7,8.1-1.5,11.1-2.6c0,0,22.5,15,31,24.5C952,399.9,965.5,370.7,978,375.4z"/>
		<path style="fill:#4C8DAA;" d="M978,263.4v112c-12.5-4.7-26,24.5-26,24.5c-8.5-9.5-31-24.5-31-24.5c-3,1.1-6.8,2-11.1,2.6
			c-2.4,0.4-4.8,0.7-7.4,1c-2.8,0.3-5.7,0.5-8.6,0.7c-3.5-5.8,18.5-33.7,18.5-33.7c31.5-31.4-40.8-65.7-40.8-65.7
			c-0.1-0.1-0.2-0.2-0.3-0.3c-10.6-11,14.3-6.4,14.3-6.4s16.3,10.2,26.3-2.8s13.5,1.9,16,2.9c2.5,1.1,18.4-9.9,21-12.1l8.7-7.3
			C971.7,252.4,978,263.4,978,263.4z"/>
		<path style="fill:#78A4B2;" d="M957.7,254.4l-8.7,7.3c0,0-42-40-56,0l-7.3,12c0,0-24.9-4.6-14.3,6.4c-3.2-3.1-32.7-30-63.3-7
			c6.9-7.9,13.6-18,13.6-18l19.3-2l-1.3-8l2-14c24,12,20.7,14.7,20.7,14.7l7.3-3.3c3.3-12,15.3-14,15.3-14c5.3,0.6,27.3,12,27.3,12
			c-0.7-8,18-12,18-12c5.3-0.7,12.7,21.3,12.7,21.3C951.7,239.8,957.7,254.4,957.7,254.4z"/>
		<path style="fill:#6699AE;" d="M949,261.8c-2.6,2.2-18.5,13.2-21,12.1c-2.5-1.1-6-15.9-16-2.9s-26.3,2.8-26.3,2.8l7.3-12
			C907,221.8,949,261.8,949,261.8z"/>
		<path style="fill:#6B97AA;" d="M871.7,280.4c0,0,72.3,34.3,40.8,65.7c0,0-22.1,27.8-18.5,33.7c-15.7,1-31,0.7-31,0.7
			c1-2.8-3.2-5.5-8.6-7.8l0,0c-8.1-3.4-18.9-5.7-18.9-5.7c-43.5,0-19.5-23.5-19.5-23.5c53-15.5,22.3-40.3,3.5-21.5
			c-34.5,34.5-32-18.5-32-18.5c-41-24-83.8-2-83.8-2c-6.7-3.3-12-5-12-5c2.5-2.8,8.3-5,15.8-6.7l0,0c0,0,0,0,0,0l0,0
			c30.2-6.8,89.5-6,89.5-6c0.6-0.7,1.3-1.4,1.9-2.1c2.6-1.4,5.9-4.7,9.2-8.5c30.6-23,60.1,3.9,63.3,7
			C871.5,280.2,871.6,280.3,871.7,280.4z"/>
		<path style="fill:#8A98A3;" d="M909.9,378.1c0,0,13.3,23.8-1.4,33c-2.6-0.5-6.6,0.3-12.5,3.4h0c-1.7,0.9-3.6,2-5.7,3.3
			c0,0-36.6-2.6-61.9-0.8c21-7.1,34.5-36.5,34.5-36.5s15.3,0.4,31-0.7c0.9,1.5,3.5,1.5,8.6-0.7C905.1,378.8,907.6,378.4,909.9,378.1
			z"/>
		<path style="fill:#7996A5;" d="M854.4,372.7c5.4,2.3,9.6,5,8.6,7.8c0,0-13.5,29.4-34.5,36.5c-4.4,0.3-8.4,0.8-11.8,1.4
			c0,0,0,0,0,0c-1.3,0.2-2.5,0.5-3.6,0.8c0,0-32.5,6-46.3-3.3c2.8-3.8,5.4-8.6,7.9-14.3c0,0-6.6-32.7,15.4-31.6
			c4.1,0.2,6.9-0.1,8.6-0.7C812.8,368.1,840.8,367,854.4,372.7L854.4,372.7z"/>
		<path style="fill:#7490A0;" d="M835.5,366.9c0,0,10.8,2.3,18.9,5.7c-13.6-5.7-41.6-4.6-55.8-3.5c7.6-2.8-5.1-12.2-18.1-14.7
			c0,0-67.8,4.4-54-13.5c13.8-17.9-8-32.3-22.8-39.5c0,0,42.8-22,83.8,2c0,0-2.5,53,32,18.5c18.8-18.8,49.5,6-3.5,21.5
			C816,343.4,792,366.9,835.5,366.9z"/>
		<path style="fill:#A4B8B6;" d="M811,243.1l10.7,12c0,0-32,21.3-26.7,26.7c0.9,0.9,2.2,0.7,3.9-0.1c-0.6,0.7-1.3,1.4-1.9,2.1
			c0,0-59.3-0.9-89.5,6c0.8-1.1,30.5-40.5,67.1-29.9c1.5,0.8,2.4,1.3,2.4,1.3l8-2c-8.7-20,21.3-11.3,21.3-11.3L811,243.1z"/>
		<path style="fill:#A4B7B6;" d="M821.7,255.1c0,0-6.8,10.1-13.6,18c-3.1,2.3-6.1,5.1-9.2,8.5c-1.6,0.9-3,1-3.9,0.1
			C789.7,276.5,821.7,255.1,821.7,255.1z"/>
		<path style="fill:#A4B7B6;" d="M798.9,281.6c3-3.4,6.1-6.2,9.2-8.5C804.8,276.9,801.5,280.2,798.9,281.6z"/>
		<path style="fill:#9A959C;" d="M780.5,354.4c13,2.5,25.7,11.9,18.1,14.7c-5.3,0.4-8.6,0.7-8.6,0.7c-22-1.1-15.4,31.6-15.4,31.6
			c-2.5,5.7-5.2,10.5-7.9,14.3c-4.7,6.6-9.7,10.6-14.8,12.5c-6.6-0.7-13.2-1-19.8-1.1c-19.4-8.5-36.6-34.9-41.3-42.6
			c-7.7-42.4,35.7-43.6,35.7-43.6C712.7,358.9,780.5,354.4,780.5,354.4z"/>
		<path style="fill:#86A9AF;" d="M774.6,259.8c-36.6-10.6-66.3,28.8-67.1,29.9l0,0c0,0,0,0,0,0l-15.2-12.6
			c18-22.7,42.7-14.7,42.7-14.7C752,250.7,768.6,256.9,774.6,259.8z"/>
		<path style="fill:#9095A0;" d="M703.7,301.5c14.9,7.2,36.6,21.5,22.8,39.5c0,0-43.5,1.3-35.7,43.6c-0.8-1.4-1.3-2.1-1.3-2.1
			c-9-49.5-46.5-18.5-46.5-18.5c-71,54.5-93-6-93-6c-16.5,8.5-32.9-8.2-32.9-8.2c4.4-1.5,7.2-2.7,7.2-2.7
			c19.3-20.7,81.3-6.7,81.3-6.7c88.7-9.3,30.7-41.3,30.7-41.3c-14-6.7-21.3-28.9-21.3-28.9c3.4-3.8,7.1-5.2,10.8-4.9l-0.1,0.5
			l2.5-0.1c12.3,3,24.2,21.5,24.2,21.5c10-8,39.3,9.3,39.3,9.3S697,298.2,703.7,301.5z"/>
		<path style="fill:#B49B9C;" d="M692.3,277.1l15.2,12.6c-7.6,1.7-13.3,3.9-15.8,6.7c0,0-29.3-17.3-39.3-9.3
			c0,0-11.8-18.5-24.2-21.5l3.8-0.2h9l16-25.8l1.3,15.5c8-1.3,20,16,20,16L692.3,277.1z"/>
		<path style="fill:#BB8E8C;" d="M636.3,299.1c0,0,58,32-30.7,41.3c0,0-62-14-81.3,6.7c0,0-2.8,1.1-7.2,2.7
			c-13.4,4.7-41.3,13.2-44.8,4.7c-42.7-9.3-6-45.2-6-45.2c-18.7-16.5,20.7-38.8,20.7-38.8c12.7-14.7-58.7-13.3-58.7-13.3
			s-13.3-8.7-42.7,5.3c0,0-42.7-12.7,15.3-29.3c34-16,55.3,14,55.3,14c16.7-12.7,39.3,11.3,39.3,11.3c14,2,26-8,26-8l6-2.6v0
			c32,2.7,87.3,22.4,87.3,22.4S622.3,292.4,636.3,299.1z"/>
		<path style="fill:#C9988D;" d="M612.3,241.1c20.7-10.7,18,0.7,18,0.7l-4.6,23.5c-3.7-0.3-7.4,1.1-10.8,4.9
			c0,0-55.3-19.7-87.3-22.4v0l21.3-9.4c12.7-18,38,0,38,0c22-23.3,19.3-4,19.3-4l3.3,1.3L612.3,241.1z"/>
		<path style="fill:#AB9191;" d="M428.3,257.1c0,0,71.3-1.3,58.7,13.3c0,0-39.3,22.3-20.7,38.8c0,0-36.7,35.8,6,45.2
			c0,0-52,44-57.3-16.7c0,0-13.3-12.7-4.7-24.7c0,0-18-1.4-27.3-9.7c-3.6-3.2-5.9-7.4-5.3-13c0,0-4-27.3,41.3-21.3
			C419,269.1,435.7,270.4,428.3,257.1z"/>
		<path style="fill:#A99395;" d="M428.3,257.1c7.3,13.3-9.3,12-9.3,12c-45.3-6-41.3,21.3-41.3,21.3c-0.6,5.6,1.7,9.8,5.3,13
			c-16-15-28,24.3-28,24.3c4-4,30.7,0,30.7,0c34.7,0,10.7,35.4,10.7,35.4c-36.7-17.3-25.8,9.3-25.8,9.3l25.8,17.3
			c-9.3,24-40,10.2-40,10.2c-20,7.5-26.3,6.7-26.3,6.7c0.3-29.1-16.3-18.3-16.3-18.3c-20.7-38,15.3-11.5,15.3-11.5
			c6-4.2-16.7-24.4-16.7-24.4c-2-1-5.4-1.3-9.3-1.4c-12.1-3.9-17.4-14.7-17.4-14.7c-33-34.1,20.2-21.3,20.2-21.3
			c6.2,4.7,4.5-5.8,4.5-5.8c-10-7.2,0-23.5,0-23.5c32.7-12.7,39.3,4,39.3,4c8.7,6,2.7-12,2.7-12l-6-10c-24,10.7-12.7-9.3-12.7-9.3
			c-7.3,2-6-15.3-6-15.3c-13.3-2.7-24.7-29.3-24.7-29.3c44-15.3,63.3,20,63.3,20l14.7,2.7c4-3.3,20-3.3,20-3.3
			c-58,16.7-15.3,29.3-15.3,29.3C415,248.4,428.3,257.1,428.3,257.1z"/>
		<path style="fill:#9398A2;" d="M310.3,309.3c0,0,1.8,10.5-4.5,5.8c0,0-53.2-12.8-20.2,21.3c0,0,5.3,10.7,17.4,14.7
			c-9.4-0.2-21.3,1.4-21.3,1.4c-8.7-9.4-3.1,10.6-3.1,10.6c19-10,13.7,13.3,13.7,13.3c-6-0.7-13.7,27.5-13.7,27.5
			c-3.6-6.4-11.1-10.3-26.3-4.6c0,0-25.3,5.1-16.7-26.9c0,0-11.3-28.9-35.9-27.7c5.7-0.7,17.6-2.3,11.9-2.3
			c-7.3,0-13.3-11.3-13.3-11.3c-6.7-6,18.7-21.8,18.7-21.8l8,5.2c0,0,14,0,1.3-5.2c-0.9-0.3-1.7-0.8-2.5-1.2
			c-11.7-6.4-22.1-23-22.1-23c-1.3-7.3,34.7-12,34.7-12c4-15.3,17.3-6.7,17.3-6.7c24-11.3,56.7,19.3,56.7,19.3
			S300.3,302.1,310.3,309.3z"/>
		<path style="fill:#9C969C;" d="M281,427.2c2.7,36.8-72.7,14.5-72.7,14.5c-28,16-74.7-12-74.7-12c-27-25.7,7.8-71.6,8.6-72.7
			c0,0,0,0,0,0c17.4-19.6,42.7-17.8,51.4-16.4c2.1,2.5,3.2,4.4,3.2,4.4s1.1-0.1,2.7-0.3c0,0,0,0,0,0c24.6-1.2,35.9,27.7,35.9,27.7
			c-8.7,32,16.7,26.9,16.7,26.9c15.2-5.7,22.7-1.9,26.3,4.6C283.7,413,281,427.2,281,427.2z"/>
		<path style="fill:#8097A4;" d="M190.4,337c1.3,1.3,2.4,2.5,3.3,3.6c-8.7-1.3-34-3.1-51.4,16.4c0,0,0,0,0,0
			c-25.2,28.3-14.6-24.5-14.6-24.5S169.8,327.4,190.4,337z"/>
		<path style="fill:#8F8692;" d="M177.7,313.8l-9.3,13.3l7.3,2.7c5.8,0,11,3.6,14.8,7.3c-20.6-9.6-62.8-4.4-62.8-4.4
			c-4-9.2-32.7-13.5-32.7-13.5s31.5-34.3,49.4-17l-0.7,1.3l3.5,1.9v0l12.5,7C160.3,300.4,177.7,313.8,177.7,313.8z"/>
		<path style="fill:#A88589;" d="M145.7,299.8l-1.3,2.4c-17.9-17.4-49.4,17-49.4,17c-4.3-15.7-13-22.7-21.5-25.6c0,0,0,0,0,0
			c-0.5-0.3-16.6-10.6-23.2-24.4c28-40,62,0,62,0C142.3,269.8,145.7,299.8,145.7,299.8z"/>
		<path style="fill:#8695A2;" d="M127.7,332.6c0,0-10.5,52.8,14.6,24.5c-0.8,1-35.7,47-8.6,72.7C109,452.5,95,421.1,95,421.1
			c-6-25.3-29.3-32-21.5-1.3c7.9,30.7-15.9,34.7-15.9,34.7c-14,6.7-40.2-35.3-40.2-35.3C12.8,399.2,2.7,414,2,415v-18.6
			c0,0,24.5-28.7,30.8-24.2c0,0,0,0,0,0c0.1,0,0.1,0.1,0.2,0.2h17c0,0,4.5-38.7,49.1-18C99.1,354.5,119.5,333.4,127.7,332.6z"/>
		<path style="fill:#8D8796;" d="M127.7,332.6c-8.1,0.8-28.6,21.8-28.6,21.8c-44.6-20.7-49.1,18-49.1,18H33
			c-0.1-0.1-0.1-0.1-0.2-0.2c0,0,0,0,0,0c-1.9-1.5-17.1-13.8-16.2-24.5c0.1-1.2,0.4-2.3,0.9-3.4c0,0,24.2-20,24.8-29.3
			c0,0,10.7-14.7,8.7-22c0,0,11.1-3.5,22.5,0.4c0,0,0,0,0,0c8.5,2.9,17.2,9.9,21.5,25.6C95,319.1,123.7,323.4,127.7,332.6z"/>
		<path style="fill:#A5878C;" d="M50.3,269.1c6.6,13.8,22.7,24.1,23.2,24.4c-11.4-3.9-22.5-0.4-22.5-0.4l-5.2-24.4
			C48.6,268.9,50.3,269.1,50.3,269.1z"/>
		<path style="fill:#A5878C;" d="M51,293.1c2,7.3-8.7,22-8.7,22c-0.7,9.3-24.8,29.3-24.8,29.3c-0.5,1.1-0.8,2.2-0.9,3.4
			c-24.4-7.3-1-44.4-1-44.4c-35.3-29,16-34.7,16-34.7l0-0.2c5.5-0.2,10.6,0,14.1,0.2v0L51,293.1z"/>
		<path style="fill:#AE8B89;" d="M31.6,268.6l0,0.2c0,0-51.3,5.7-16,34.7c0,0-23.4,37.1,1,44.4c-0.9,10.7,14.2,23,16.2,24.5
			C26.5,367.8,2,396.4,2,396.4V283.8C1,272.1,17.6,269.1,31.6,268.6z"/>
	</g>
	<g>
	</g>
</g>
</svg>
