<?xml version="1.0" encoding="utf-8"?>
<!-- Generator: Adobe Illustrator 16.0.0, SVG Export Plug-In . SVG Version: 6.00 Build 0)  -->
<!DOCTYPE svg PUBLIC "-//W3C//DTD SVG 1.1//EN" "http://www.w3.org/Graphics/SVG/1.1/DTD/svg11.dtd">
<svg version="1.1" id="图层_2" xmlns="http://www.w3.org/2000/svg" xmlns:xlink="http://www.w3.org/1999/xlink" x="0px" y="0px"
	 width="980px" height="600px" viewBox="0 0 980 600" style="enable-background:new 0 0 980 600;" xml:space="preserve">
<g id="XMLID_1_">
	<g>
		<path style="fill:#8DAFB8;" d="M978,260v339H697.5l5.5-312c0,0,0,0,0,0c0.9-0.4,44.4-17.8,86,0c0,0,13.3-30,33.5-36.7
			c4.5-1.5,9.4-1.8,14.5-0.3l7-1v-9v-12c0,0,12,11,17,10l12,2c0,0,8-28,34-7l6,2l17-9.8l10,16.8l12,2l8,8l13,3L978,260z"/>
		<path style="fill:#D0C8BA;" d="M957,242c20,1,16,13,16,13l-13-3l-8-8l-12-2l-10-16.8l-17,9.8l-6-2c-26-21-34,7-34,7l-12-2
			c-5,1-17-10-17-10v12v9l-7,1c-5.1-1.5-10-1.1-14.5,0.3L822,249l5-13l-8-9c-7-14,16-17,16-17c6-17,20,0,20,0l19-12l24,13
			c-7-17,24-13,24-13l5,24l8-15c7-11,19,8,19,8l-7,8l6,8L957,242z"/>
		<path style="fill:#A3B7B5;" d="M822,249l0.5,1.3C802.3,257,789,287,789,287c-41.6-17.8-85.1-0.4-86,0c6-15.9,55.1-28.5,56-28.8
			c0,0,0,0,0,0l17,0.8l11-1v-13l17-2C804,243,814,238,822,249z"/>
		<path style="fill:#ECC8AD;" d="M804,243l-17,2v13l-11,1l-17-0.8c0,0,0,0,0,0l-28-1.2c-7-5-39,12-39,12l-34-18l-5-14.5
			c13-1,8-18.5,8-18.5s18.5,9.5,27,0c7.5-8.4,17.2-12.8,24.6-12.1c1,0.2,1.9,0.4,2.9,0.6c0,0,0,0,0,0c5.3,1.2,9.8,2.9,11.5,5.5
			v-11.5l23,8.5C790,193,804,243,804,243z"/>
		<path style="fill:#82A7B0;" d="M731,257l28,1.2c-0.8,0.2-50,12.9-56,28.8c0,0,0,0,0,0l-11-18C692,269,724,252,731,257z"/>
		<path style="fill:#ECB7A6;" d="M727,200.5V212c-1.7-2.6-6.3-4.4-11.5-5.5l11-6.2L727,200.5z"/>
		<path style="fill:#FCF1E9;" d="M726.5,200.3l-11,6.2c0,0,0,0,0,0c-0.9-0.3-1.9-0.5-2.9-0.6c-9.7-1.8-20.6-1.9-20.6-1.9
			c-4.8-9.8-10.7-16-16.9-19.9l1.9-9.3l11.2-10.6l7.3-22.6l0,0c18.7,13,27.5,57.5,27.5,57.5L726.5,200.3z"/>
		<path style="fill:#F5CFAB;" d="M712.6,205.9c-7.4-0.7-17.1,3.8-24.6,12.1c-8.5,9.5-27,0-27,0c-8-0.5-14.5-9.2-14.5-9.2
			C641,193,622,209,622,209v9c-1.8-5-21.9,1.8-25.2,3l-8.9-6.2l22.6-21.6l10.9-4.9l13.9-6.3l39.8,2c6.2,3.9,12.2,10.1,16.9,19.9
			C692,204,702.8,204.1,712.6,205.9z"/>
		<path style="fill:#999293;" d="M601.8,224.4c3,1.3,5.9,4.8,8.2,12.1c0,0,27-10.5,21,24.5l11,3l11-27.5l5,14.5l34,18l11,18
			l-5.5,312H496V254c0,0,43-20,60-28l27,10.5C583,236.5,593,220.7,601.8,224.4L601.8,224.4z"/>
		<path style="fill:#FBF6F1;" d="M695.5,141.5L695.5,141.5c-7,4-34.5,1.5-34.5,1.5c-8.5-7-7.5,8.8-7.5,8.8l-24.3-23.3
			c-5.3-11.4-40.9-27.5-41.7-27.8c9.4-6-22-10.3-22-10.3c-5-12.2-27.1-14-27.1-14l7.7-9.7c2.8-1,6.6-1.2,11.7,0.4l-5.7-8
			c4-4,25-3,25-3c33-18,36,11,36,11c33,0,31,26,31,26c18,1,29,38,29,38l12,7C688.8,138,692.3,139.3,695.5,141.5z"/>
		<path style="fill:#F7E0C0;" d="M695.5,141.5l-7.3,22.6L677,174.8l-1.9,9.3c-18.6-11.6-39.8-2-39.8-2l-5-18.4
			c14.2-22.2-6.1-17.2-12.3-15.2c6.8-2.6,16-9.3,11.1-19.9l24.3,23.3c0,0-1-15.8,7.5-8.8C661,143,688.6,145.6,695.5,141.5z"/>
		<path style="fill:#F9C5A7;" d="M675.1,184.1l-39.8-2C635.3,182,656.5,172.5,675.1,184.1z"/>
		<path style="fill:#D8B194;" d="M661,218c0,0,5,17.5-8,18.5L661,218z"/>
		<path style="fill:#ECC598;" d="M661,218l-8,18.5L642,264l-11-3c6-35-21-24.5-21-24.5c-2.3-7.3-5.2-10.8-8.2-12.1h0l-5-3.4
			c3.2-1.1,23.3-8,25.2-3v-9c0,0,19-16,24.5-0.2C646.5,208.8,653,217.5,661,218z"/>
		<path style="fill:#F7D9B5;" d="M630.3,163.7l5,18.4l-13.9,6.3c-15.1-57.7-48.4-51-48.4-51l-15.3-2.2c-4.2-19.6-24-11.1-24.7-10.8
			c0.2-0.4,6-9.2,19.2-4.4c0,0,0,0,0,0c3.4,5.4,6.1,5.8,8.1,4.2c3,2,6.4,4.7,10,8.1l6.7-7.9c0,0,5.3-9.4,6,2.6c0,0,28,17.3,33.3,22
			c0,0,0,0,0.1,0c0.5-0.1,1-0.3,1.6-0.5c0,0,0,0,0.1,0C624.3,146.5,644.6,141.4,630.3,163.7z"/>
		<path style="fill:#F8D8B0;" d="M629.2,128.5c4.9,10.6-4.3,17.4-11.1,19.9c0,0,0,0-0.1,0c-0.8,0.3-1.4,0.5-1.6,0.5c0,0,0,0-0.1,0
			L629.2,128.5z"/>
		<path style="fill:#F9E3C2;" d="M629.2,128.5L616.3,149c-5.3-4.7-33.3-22-33.3-22c-0.7-12-6-2.6-6-2.6l-6.7,7.9
			c-3.6-3.5-7-6.1-10-8.1c3.7-3,5.2-13.2,5.2-13.2l14.8-7.5c3.5-1,5.8-1.9,7.2-2.8c0,0,0,0,0,0C588.3,101,623.9,117.1,629.2,128.5z"
			/>
		<path style="fill:#F5BC9E;" d="M621.4,188.3l-10.9,4.9c-1-30.8-45-31.2-45-31.2c0-12.4-39.5-26.6-40.3-26.9l7.8-10.8c0,0,0,0,0,0
			c0.6-0.3,20.5-8.8,24.7,10.8l15.3,2.2C573,137.3,606.2,130.6,621.4,188.3z"/>
		<path style="fill:#F9CEAC;" d="M610.5,193.2l-22.6,21.6l-12-8.3h0c-2-47.6-57-38.3-58.2-38.1c-24.3-26-62.7-9.1-62.7-9.1V153
			c-1.3-4.3-4-6.4-7.4-7l-0.1-0.3c0,0,22.2-28.8,73.5-4.8l4.2-5.8c0.8,0.3,40.3,14.5,40.3,26.9C565.5,162,609.5,162.5,610.5,193.2z"
			/>
		<path style="fill:#E6B191;" d="M596.4,221.1l5.4,3.3c-8.8-3.7-18.8,12.1-18.8,12.1l-8-15.5l12.3-5.6l0.7-0.6l8.9,6.2
			C596.5,221.1,596.4,221.1,596.4,221.1z"/>
		<path style="fill:#E6B191;" d="M587.9,214.8l-0.7,0.6L575,221c0.8-5.4,1-10.2,0.9-14.5h0L587.9,214.8z"/>
		<path style="fill:#FCE8B7;" d="M565.5,90.3c0,0,31.4,4.3,22,10.3c0,0,0,0,0,0c-1.4,0.9-3.7,1.9-7.2,2.8l-14.8,7.5
			c0,0-1.5,10.1-5.2,13.2c-3-2-5.7-3.3-8.1-4.2c0,0,0,0,0,0c-14.3-22.5-27-2.3-27-2.3c-5.5-9.9-19.7,0-19.7,0l-29.9-20.1
			c12.4-12.3,40-15.3,40-15.3l10,8l12.7-14C538.3,76.3,560.4,78.2,565.5,90.3z"/>
		<path style="fill:#E49F86;" d="M575,221l8,15.5L556,226c-17,8-60,28-60,28c-5-10-42-17.5-42-17.5c-3.6-1.5-7.4-2.8-11.2-3.9
			L432,212h34l24-14.2l45,14.2l12.9-3.2L563,221H575z"/>
		<path style="fill:#F5C899;" d="M575.9,206.5c0.2,4.3-0.1,9.2-0.9,14.5h-12l-15.1-12.2h0L575.9,206.5z"/>
		<path style="fill:#FED8A5;" d="M575.9,206.5l-27.9,2.3l7-1.8h8c-1-12-22-19-22-19v9.8l-10-5.7c-3.4-10.4-8-18.1-13.3-23.8
			C518.9,168.1,573.9,158.9,575.9,206.5z"/>
		<path style="fill:#F0A987;" d="M517.7,168.3c5.3,5.7,9.9,13.4,13.3,23.8l10,5.7V188c0,0,21,7,22,19h-8l-7,1.8h0L535,212l-45-14.2
			L466,212h-34l10.8,20.6c-9.5-2.8-19.4-4.4-28.8-5.3L431,204l-4-14c3,6,28-11,28-11v-19.8C455,159.2,493.4,142.3,517.7,168.3z"/>
		<path style="fill:#E9AB8B;" d="M560.3,124.2c-2,1.7-4.7,1.2-8.1-4.2C554.6,120.9,557.3,122.2,560.3,124.2z"/>
		<path style="fill:#FEF4E3;" d="M552,59l5.7,8c-5.1-1.6-8.9-1.4-11.7-0.4L552,59z"/>
		<path style="fill:#FAECD1;" d="M552,59l-6,7.6c-6.7,2.4-7.7,9.7-7.7,9.7l-12.7,14l-10-8c2.2-21.7-44.2-18.8-44.2-18.8
			c-14-21-16.5,0.5-16.5,0.5l-14.9-3L430,59c-3-2-32,8-32,8c4-19,22-22,22-22c18-17,31-15,31-15c32-16,60-4,60-4
			C527,11,552,59,552,59z"/>
		<path style="fill:#FADCC3;" d="M546,66.6l-7.7,9.7C538.3,76.3,539.3,69,546,66.6z"/>
		<path style="fill:#EFAE89;" d="M552.2,120c-13.2-4.8-19,4-19.2,4.4c0,0,0,0,0,0l-7.8,10.8c0,0,0,0,0,0l-4.2,5.8
			c-51.3-24-73.5,4.8-73.5,4.8l0.1,0.3c-10-2-25.6,8-25.6,8c-25,12,0-16,0-16c8.5-4.6,7.1-9.5,2.9-13.6c13.2-6.6-1.9-20.1-1.9-20.1
			c9.3-18.7,35.8-6.6,44.9-1.8c0,0,2.4,13.1,3.8,15.1c1.3,2,21.3,6.7,21.3,6.7l12.5-6.7c0,0,14.2-9.9,19.7,0
			C525.2,117.7,537.9,97.4,552.2,120z"/>
		<path style="fill:#F9D2AC;" d="M471.5,63.5c0,0,46.3-2.8,44.2,18.8c-30.7-22.7-48.7-4-48.7-4c-26.7,12-20.7-8.7-20.7-8.7
			c-2.4-4.9-4.6-6.8-6.5-7.2l0.3-1.4l14.9,3C455,64,457.5,42.5,471.5,63.5z"/>
		<path style="fill:#F9C18A;" d="M505.5,117.7l-12.5,6.7c0,0-20-4.7-21.3-6.7c-1.3-2-3.8-15.1-3.8-15.1c2,1.1,3.1,1.8,3.1,1.8
			c1-2.5,2.6-4.7,4.6-6.7L505.5,117.7z"/>
		<path style="fill:#F8C988;" d="M515.7,82.3c0,0-27.7,3-40,15.3c-2,2-3.6,4.2-4.6,6.7c0,0-1.1-0.7-3.1-1.8
			c-9.1-4.8-35.6-16.9-44.9,1.8c0,0,15.2,13.5,1.9,20.1h0c-5.2-5-14.6-8.7-14.6-8.7c-26.7-6-14,11.3-14,11.3
			c-8,0.7-12.7,17.7-12.7,17.7c-9.7-6-6.7,9.1-6.7,9.1l-16.2-3.9l-21.8-5.2c8.3-1.9,14.1-2.8,14.1-2.8c2-6-3-13-3-13
			c-19-13,8-28,8-28c-4-17,40-34,40-34l16.1,15.3c0,0,16.3-17.3,19.6-15.3c0,0,2.4-5.4,6.1-4.5c1.9,0.4,4.1,2.3,6.5,7.2
			c0,0-6,20.7,20.7,8.7C467,78.3,485,59.7,515.7,82.3z"/>
		<path style="fill:#9198A2;" d="M496,254v345H210l-10-261v-7l12-25.2l12,4.5L205,284c0,0,17-14,23-15c0,0,19-10.6,47.1-3.4
			c0,0,0,0,0,0c9.4,2.4,19.8,6.9,30.9,14.4l51,8v-7l-9-12l-6-0.3l-12-8.7l-1.5-11.7h0l-1.5-11.8c0,0-10,11.5-24-24.5
			c0,0,30-25,63,16c0,0,5.8-0.8,15-1.3l0,0v0h0c8.7-0.4,20.4-0.5,33.1,0.7v0l28.8,5.3c3.8,1.1,7.5,2.4,11.2,3.9
			C454,236.5,491,244,496,254z"/>
		<path style="fill:#E99279;" d="M455,159.2V179c0,0-25,17-28,11l-12,14l-28,11.3l-6,11.4h0c0,0,0,0,0,0l-23.4-20.5L395,184
			c0,0-25,6-17-15c0,0,25-37,44-31c0,0-25,28,0,16c0,0,15.6-10.1,25.6-8L455,159.2z"/>
		<path style="fill:#ECA283;" d="M455,153v6.2l-7.4-13.3C451,146.6,453.7,148.7,455,153z"/>
		<path style="fill:#F9D2AC;" d="M440.1,61l-0.3,1.4c-3.8-0.8-6.1,4.5-6.1,4.5c-3.3-2-19.6,15.3-19.6,15.3L398,67c0,0,29-10,32-8
			L440.1,61z"/>
		<path style="fill:#CE8886;" d="M427,190l4,14l-16.9,23.4c-12.6-1.2-24.4-1.1-33.1-0.7l6-11.4l28-11.3L427,190z"/>
		<path style="fill:#F4AB88;" d="M424.9,124.4c4.1,4.1,5.6,9-2.9,13.6L424.9,124.4L424.9,124.4z"/>
		<path style="fill:#E7A185;" d="M424.9,124.4L422,138c-19-6-44,31-44,31c-8,21,17,15,17,15l-37.5,22.2l-1.3-1.1
			c-1.7-2.9-4.6-5.4-8.4-7.4l0,0c-9.1-8.8,12.4-46,12.4-46l0.4-1.9l16.2,3.9c0,0-3.1-15.2,6.7-9.1c0,0,4.7-17,12.7-17.7
			c0,0-12.7-17.3,14-11.3C410.3,115.7,419.7,119.4,424.9,124.4z"/>
		<path style="fill:#E59582;" d="M357.5,206.2l23.4,20.5c-9.2,0.5-15,1.3-15,1.3c-33-41-63-16-63-16c14,36,24,24.5,24,24.5l1.5,11.8
			L296,239l-36.8-23.7l-0.1,0L254,212h-0.9L227,197.8c8.8-1.3,24,0.2,24,0.2l26-9l30,0.2c0,0,0,0,0,0c14.4,0.9,30.7,3.1,40.9,8.5
			l0,0l8.4,7.4c0.3,0.5,0.5,0.9,0.7,1.4L357.5,206.2z"/>
		<path style="fill:#E59983;" d="M360.8,150l-0.4,1.9c0,0-21.5,37.2-12.4,46c-10.2-5.4-26.5-7.7-40.9-8.5
			c0.3-0.8,14.9-36.7,27.5-43.4c1.6-0.4,3.1-0.7,4.5-1h0L360.8,150z"/>
		<path style="fill:#D39F91;" d="M357,281v7l-51-8c-11.1-7.5-21.5-12-30.9-14.4c0,0,0,0,0,0l-30.1-9.5l-27-12.5l-17,12.5l-21-5.1
			l-19-7l-17-13h-0.4l14.3-9l11,1v-11h10l11,6l9-6h27h27.1l6,3.3l0.1,0L296,239l32.5,9.3h0L330,260l12,8.7l6,0.3L357,281z"/>
		<path style="fill:#CD9387;" d="M277,189c-9.9-23.3,31.9-37.1,57.5-43.2c-12.6,6.7-27.2,42.6-27.5,43.4
			C290.8,188.2,277,189,277,189z"/>
		<path style="fill:#BF8B89;" d="M245,256.1l30.1,9.5c-28-7.2-47.1,3.4-47.1,3.4c-6,1-23,15-23,15l19,26.3l-12-4.5L200,331v7l-28-14
			c6-28-15-18.2-15-18.2l-13-5.9c10-27-36-40-36-40c-39-24-60.3,9-60.3,9h-0.4c-2.5-0.3-5.5-0.4-9.3,0.1c9.9-45.4,36.9-34.9,46-29.9
			c1.7,1.1,2.8,1.8,3,1.9c0,0,0,0,0,0c0,0,0,0,0,0c3-11,54,0,54,0c1.4-3.7,2.2-7,2.7-10h0.4l17,13l19,7l21,5.1l17-12.5L245,256.1z"
			/>
		<path style="fill:#9DA7B2;" d="M253.1,212H226h-27l-9,6l-11-6h-10v11l-11-1l-14.3,9c5.4-36.4-52.7-21-52.7-21l-35-6
			c43-49,74-14,74-14c7-2,25,5,25,5c39-15,66,6,66,6c0-1.7,2.5-2.7,6-3.2L253.1,212z"/>
		<path style="fill:#7D8A9B;" d="M200,338l10,261H2V393l26-25l-13-27c0,0,31-18,31-41c0,0,22.5-28.1,1.3-31.1h0.4
			c0,0,21.3-33,60.3-9c0,0,46.1,13,36,40l13,5.9c0,0,21-9.8,15,18.2L200,338z"/>
		<path style="fill:#B1999D;" d="M91,210c0,0,58.1-15.4,52.7,21c-0.4,3-1.3,6.3-2.7,10c0,0-51-11-54,0c0,0,0,0,0,0c0,0,0,0,0,0
			c-0.2-0.1-1.3-0.9-3-1.9c-8.6-5.5-32.1-22-28-35.1L91,210z"/>
		<path style="fill:#BA8C89;" d="M84,239.1c-9.1-5-36-15.5-46,29.9c0,0-48-3-24,31L2,335V192c12-3,54,12,54,12
			C51.9,217.1,75.4,233.6,84,239.1z"/>
		<path style="fill:#A6878C;" d="M47.3,268.9c21.2,3-1.3,31.1-1.3,31.1c0,23-31,41-31,41l13,27L2,393v-58l12-35c-24-34,24-31,24-31
			L47.3,268.9z"/>
	</g>
	<g>
	</g>
</g>
</svg>
