<?xml version="1.0" encoding="utf-8"?>
<!-- Generator: Adobe Illustrator 16.0.0, SVG Export Plug-In . SVG Version: 6.00 Build 0)  -->
<!DOCTYPE svg PUBLIC "-//W3C//DTD SVG 1.1//EN" "http://www.w3.org/Graphics/SVG/1.1/DTD/svg11.dtd">
<svg version="1.1" id="图层_4" xmlns="http://www.w3.org/2000/svg" xmlns:xlink="http://www.w3.org/1999/xlink" x="0px" y="0px"
	 width="978px" height="600px" viewBox="0 0 978 600" style="enable-background:new 0 0 978 600;" xml:space="preserve">
<g id="XMLID_3_">
	<g>
		<path style="fill:#D9C4AF;" d="M958.5,487.6c2.3,0.4,4.5,0.8,6.5,1.3c8.2,1.8,13.9,3.5,13.9,3.5v110H3v-72.2
			c0,0,101.8-11.9,109-40.9c0,0,0,0,0,0c0,0,0,0,0-0.1c1,0,68,2.2,71,28c3,26,10,12.9,10,12.9l25-7.8h76l19-27c0,0,34-28,46-18
			c3.5,3,14.7,2.5,28.8,0.8c13.6-1.6,29.8-4.4,44.6-6.3c0.2,0.2,0.4,0.3,0.5,0.5c0.5-0.3,0.9-0.5,1.4-0.8c2.1-0.3,4.1-0.5,6.1-0.8
			c1.5,11.8,3,23.9,3,24.5l2.5-1.3l-1.6-23.7c6.5-0.7,12.4-1,17.3-0.9c7.7,1.9,13.3,4.9,13.3,4.9c27-20,110,16,110,16
			c4.7-7.9,17.1-7.2,29-4.1c-0.4,12-1.2,21.7-2.4,23.1h6.3c0,0,0.3-10,0.5-21.9c12,3.6,22.5,8.9,22.5,8.9c3.2-6,25.3-6.9,48.1-6.1
			c-1.1,9.7-1.9,17.4-1.9,17.4c0.8,2.3,4.3,0.8,4.3,0.8c-0.2-0.9,0.9-9.8,2-18.1c25,1.1,49.5,3.9,49.5,3.9c11-16,95,2,95,2
			c9-14,72-4,72-4C920,483.1,942,484.7,958.5,487.6z"/>
		<path style="fill:#E0C4B2;" d="M969.8,453.2c0.4-0.4,8.8-9.9,6.7-2.7l-7.8,8.5c0,0-3.5,29-3.7,30c-2-0.4-4.2-0.9-6.5-1.3
			c0.3-1.7,7-39.6,7.7-44.6l-5.7-17.8c0.3,0.5,4.9,8,5.7,12c0,0,4.6-35.8,4.6-45.8h3.1C974,391.4,970.8,450.3,969.8,453.2z"/>
		<path style="fill:#9EABAD;" d="M803.3,451.2L802,460l0.3,17.5h-3.6c0,0-4.9-36.1-5.4-36.9l-5.4-7.1h2.3l3.2,4.4l-2.2-9.4h4
			l2.3,13.5l2.8-5l-1.8,7.3l1.8,14L803.3,451.2z"/>
		<path style="fill:#D6BEB0;" d="M704.2,458.1c0.8-0.3,5-3,2.7,2.7c0,0-9.8,13-11.3,14.8c0,0-1,7.2-2,14.9c-1.5-0.1-3-0.1-4.4-0.2
			c1.7-15.5,4-36.1,4.4-38.3c0,0-6.3-19.2-5.2-27.8c0,0,1.5-1.3,2,1.3c0,0,2.5,24,4.3,23.5c0,0,2.3-35.2,3.5-36.7c0,0,2.3-3.7,2,1.3
			l0,15.8c0,0,5-8.3,4.5-9.2c0,0,2-2.5,1,3.8c0,0-4,8-5.8,8.8c0,0-2.9,32.2-3.3,34.5C696.6,467.6,703.3,458.4,704.2,458.1z"/>
		<path style="fill:#B4BCB8;" d="M693.5,490.5c-1.1,8.3-2.2,17.2-2,18.1c0,0-3.5,1.5-4.3-0.8c0,0,0.8-7.7,1.9-17.4
			C690.5,490.4,692,490.5,693.5,490.5z"/>
		<path style="fill:#D4BFAA;" d="M626.3,434.3l-7.5,14c0.3,0.1,0.2,11.6,0,24.5l-4.3-5.2c0.3-17.9,0.1-34.7,0.1-34.7l-2.8-4.3
			c-3.5-7,1.2-6.1,1.2-6.1l2,5v-7.3c1-5.8,3.8,0.2,3.8,0.2l-0.4,22.8l5.9-9.5C625.5,431.4,626.3,434.3,626.3,434.3z"/>
		<path style="fill:#B9BFB6;" d="M614.5,467.6l4.3,5.2c-0.1,4.9-0.2,10-0.3,14.8c-1.5-0.4-3-0.9-4.5-1.2
			C614.3,480.4,614.4,473.9,614.5,467.6z"/>
		<path style="fill:#A9BDBB;" d="M618.5,487.6c-0.2,11.9-0.5,21.9-0.5,21.9h-6.3c1.2-1.4,1.9-11.1,2.4-23.1
			C615.5,486.7,617,487.1,618.5,487.6z"/>
		<path style="fill:#D6C6B1;" d="M444.3,468.4l0.1,2c-1.3,0.1-2.6,0.3-4,0.4c-0.1-0.5-0.1-1.1-0.2-1.6
			C441.6,468.9,443,468.6,444.3,468.4z"/>
		<path style="fill:#99B4B6;" d="M461.7,469.6c-4.9-0.1-10.8,0.2-17.3,0.9l-0.1-2C450.4,467.5,456.6,468.3,461.7,469.6z"/>
		<path style="fill:#B9B7AA;" d="M440.3,469.3c0.1,0.5,0.1,1.1,0.2,1.6c-2,0.2-4,0.5-6.1,0.8C436.3,470.6,438.3,469.9,440.3,469.3z"
			/>
		<path style="fill:#B9B7AA;" d="M447.3,458.9l1.8,2.1l-4.7,7.4c-1.3,0.2-2.7,0.5-4,0.8c-1.4-11.1-2.8-21.6-2.8-21.6l-7-8.5
			c-3-7.5,0-5,0-5l7,10.5l-7-39.5c-0.3-9.5,3,0,3,0l4,20.8l1.6-10.5l1.9,0.3l-1.9,16.3c0.8,2.3,4.7,34.4,4.7,34.4L447.3,458.9z"/>
		<path style="fill:#D6C6B1;" d="M444.4,470.5l1.6,23.7l-2.5,1.3c0-0.6-1.5-12.7-3-24.5C441.8,470.8,443.1,470.6,444.4,470.5z"/>
		<path style="fill:#6F899B;" d="M392.5,443.3c2.8-3.6,2.7,0.7,2.7,0.7l-5.2,7.5v24.2c-0.9,1.4-1.6,2-2.3,2
			c-1.6,0.2-2.5-2.7-2.5-2.7c0.6,0.1-0.1-17.3-0.7-29.3c-0.3-6.4-0.6-11.3-0.6-11.3l-3.7-9c-1.5-3.5,1-2.2,1-2.2l2.7,6.3v-32.2
			c1-2.5,3.4,0,3.4,0c-0.3,7.7,1.1,17,1.1,17l0.8-5.2c0.8-5.2,1.7,0,1.7,0l-1.7,7.3l-0.2,22.5c-0.3,12.3,1.1,8.2,1.1,8.2
			L392.5,443.3z"/>
		<path style="fill:#98B1B6;" d="M390,451.4c4,1.1,23.2,2,42.5,20.5c-14.8,2-31.1,4.7-44.6,6.3l-0.1-0.6c0.6-0.1,1.4-0.6,2.3-2
			V451.4z"/>
		<path style="fill:#728597;" d="M231.5,457.8l-1.3,0.4l-0.8-1.8C229.5,456.4,229.3,454.1,231.5,457.8z"/>
		<path style="fill:#728597;" d="M241.2,437.8c0,0,7.1-1.8,0.1,5.5c0,0-2.6,2.2-2.6,8l-0.1,4.6l-3.6,1l0.3-15.4l-8.7-10.5
			c0,0-1.5-4.7,3.2-1c0,0,1.3,4.5,4.3,7.2c0,0-0.3-32-2-39.3c0,0,3.7-4.7,7,0v44.7C239,442.4,241.7,439.8,241.2,437.8z"/>
		<path style="fill:#75889E;" d="M235.2,464.4c0-0.1-0.4-0.8-0.4-0.8l0.1-6.8l3.6-1l-0.7,25.6c0,0-3.8,2.2-3.8,0v-14l-3.8-9.2
			l1.3-0.4c0.4,0.6,0.8,1.3,1.3,2.3C234.6,463.4,235.1,464.3,235.2,464.4z"/>
		<path style="fill:#B1BCB8;" d="M24.6,436c-0.7-1.3-1.4-11.5-1.6-16.3c0-0.1,0-0.3,0-0.4c0,0,0,0,0-0.1c0-0.1,0-0.1,0-0.2
			c-0.1-5.7,3.3-0.8,3.3-0.8c0.5,3.8,3.8,33.5,3.8,33.5l2.5-4.5c3.5-4.8,2.5,0,2.5,0l-4,9c-2.3,2.3,0,28.8,0,28.8
			c6.5-2.3,0,3.5,0,3.5v16l0,0.2c-1.7,0.1-3.4,0.2-5,0.2l0-0.4v-28l-2.4-5.3c-6.3-12.8-1.5-7.8-1.5-7.8l4.1,7.7l-1.5-29.3l-4-7.5
			c-5-10.5-1.5-6.5-1.5-6.5L24.6,436z"/>
		<path style="fill:#C8C7B8;" d="M387.7,477.7l0.1,0.6c-14.1,1.7-25.3,2.1-28.8-0.8c-12-10-46,18-46,18l-19,27h-76l-25,7.8
			c0,0-7,13.1-10-12.9c-3-25.8-70-28-71-28c2.2-27.9,98-18.9,98-18.9c5.2-5.7,12-9.5,20.3-12.2l3.8,9.2v14c0,2.2,3.8,0,3.8,0
			l0.7-25.6c22.3-5.8,45.5-3.4,45.5-3.4c10,9,49,0,49,0c18.6-10.8,35.5-11.1,51.6-6.8h0c0.6,12.1,1.3,29.5,0.7,29.3
			C385.3,474.9,386.1,477.8,387.7,477.7z"/>
		<path style="fill:#98AAAB;" d="M70,499.4c5.9-18.7,40.9-10.3,42-10c-7.1,29-109,40.9-109,40.9v-31.8c0.8,5.4,10.9,6.8,23,6.4
			c1.6,0,3.3-0.1,5-0.2C49.4,503.6,70,499.4,70,499.4z"/>
	</g>
	<g>
	</g>
</g>
</svg>
