<?xml version="1.0" encoding="utf-8"?>
<!-- Generator: Adobe Illustrator 16.0.0, SVG Export Plug-In . SVG Version: 6.00 Build 0)  -->
<!DOCTYPE svg PUBLIC "-//W3C//DTD SVG 1.1//EN" "http://www.w3.org/Graphics/SVG/1.1/DTD/svg11.dtd">
<svg version="1.1" id="图层_5" xmlns="http://www.w3.org/2000/svg" xmlns:xlink="http://www.w3.org/1999/xlink" x="0px" y="0px"
	 width="980px" height="600px" viewBox="0 0 980 600" style="enable-background:new 0 0 980 600;" xml:space="preserve">
<g id="XMLID_4_">
	<g>
		<path style="fill:#B5C5BB;" d="M293.1,573.8c-2,17.4-9,25.7-17.8,28.6h-18.7c-18.6-4.4-37.3-18.6-38-19.1
			C220,583.6,279.8,594,293.1,573.8z"/>
		<path style="fill:#DBC0AB;" d="M918.9,499.7c1.3,13.1,2.3,24.8,2.3,24.8c0.3,3.2,8.9,0,8.9,0c-0.5-1.7-2.8-18.9-5.2-37.8
			c50.5-10.9,53.7,11.8,53.7,11.8v104h-32.9c-61.5-71.6-107.8-30.6-107.8-30.6c-9.1-4.7-29.3-2-29.3-2c-9-14.6-50-8.4-50-8.4
			c-12,16-66,4.1-66,4.1c-45,6.1-98-7.1-98-7.1c-14,8-74,7.1-74,7.1c-46,12.1-42.2-25.6-42.2-25.6c14.5-3.8,24.2-7.5,24.2-7.5
			c-0.6-14.3,20.8-26.3,37.1-33.3c0.2,3.9,0.5,7.9,0.7,11.8c1,16.1,2,30.6,2,30.6c0.2,2.4,11,0,11,0c-0.8-2.3-1.4-13.2-1.8-24.7
			c0.1,1.4,0.1-8.6,0.1-22.4c3.7-1.3,6-2,6-2c5-19,82,3,82,3c12-20,97,2,97,2c-0.4-3,3.2-4.8,9.3-5.7c1.4,12.9,2.8,22.9,2.8,22.9
			c0.3,2.2,7.1,0,7.1,0c-0.2-1-0.9-11.4-1.6-23.6c28.5-1.4,81.4,6.5,81.4,6.5c1.3-2.1,5.1-3.6,10.4-4.6c-1.9,10.3-5.3,24.2-5.3,24.2
			c0.6,3.6,8.6,2.6,8.6,2.6c2-0.8,4-12.7,5.7-28.1c21.1-2,51.5-0.2,51.5-0.2c4-1.2,7.7-2.3,11.2-3.2
			C918.1,492,918.5,495.9,918.9,499.7z"/>
		<path style="fill:#C6BCB0;" d="M945.6,602.4H822.1c23.2-18.4,23-26.8,15.7-30.6C837.8,571.8,884.1,530.9,945.6,602.4z"/>
		<path style="fill:#E0BCAA;" d="M915.3,420.9c0-0.1,0-0.1,0-0.2C915.3,420.8,915.3,420.9,915.3,420.9z M915.3,420.6
			c0.8-3.9,8.8-43.7,10.9-43c0,0-12.8,46-8,56.3c0,0,2.4,19.5,5,40.5c-2.8-0.8-9-18-9-18s-11.5-71-12.5-74l-17.3-28.8
			c0,0-0.8-3.3,1.8,0c0,0,10.8,15.3,14.3,22c0,0-1.6-7.7-3.7-18c0,0,0,0,0,0c0.1-0.5,1.3-10.7,3.3-8.8
			C905.5,371.5,915.8,415.6,915.3,420.6z"/>
		<path style="fill:#ABBBB7;" d="M924.2,486.7c0.2,0,0.4-0.1,0.5-0.1c2.4,18.9,4.7,36.1,5.2,37.8c0,0-8.6,3.2-8.9,0
			c0,0-1-11.6-2.3-24.8c0.3-2.8,1-9.4,2.5-12.3C922.4,487.1,923.3,486.9,924.2,486.7z"/>
		<path style="fill:#A8BFB5;" d="M924.8,486.6c-0.2,0-0.4,0.1-0.5,0.1c-1.1-1.4-2.1-0.9-2.9,0.7c-1.2,0.3-2.4,0.6-3.7,0.9
			c-1.3-12.7-2.7-24.1-3.4-25.1L888,417.7c0,0-0.3-4,2.5,0c0,0,23,38.8,23.7,38.8c0,0,6.2,17.3,9,18
			C923.8,478.5,924.3,482.6,924.8,486.6z"/>
		<path style="fill:#ABBBB7;" d="M921.4,487.4c-1.5,2.9-2.3,9.5-2.5,12.3c-0.4-3.8-0.8-7.6-1.1-11.4
			C919,487.9,920.2,487.6,921.4,487.4z"/>
		<path style="fill:#F5E6DE;" d="M895.7,325.3l-0.2-1.6c0,0,8.8-34.3,8.8-32c0,3-8.6,42-7.4,44c0,0,1.3,5.3,3.2,13.2
			c-1.9-2-3.2,8.3-3.3,8.8c-4.1-19.5-10.1-48.1-10.9-50l-13.4-22.3v-1c0,0,10,13.7,12.5,17.5c-0.3-1.3-10.4-50.9-5.2-40.2
			C879.8,261.7,895,321.8,895.7,325.3z"/>
		<path style="fill:#B7BABB;" d="M874,396.7c0,0,3,0.3,1.3,2c0,0-12.3,21.5-14.5,22.3l1.8-6.5C862.5,414.4,873.5,400.4,874,396.7z"
			/>
		<path style="fill:#D9BFA7;" d="M862.5,405.7v8.8l-1.8,6.5c0,0-0.7,11.9-1.9,27.5c0,0,0,0,0,0.1c-0.2,1.9-2.5,23.4-6.7,2.8v0
			c1.1-10.1,2.4-21.8,3.4-32.8C856.4,420.1,862.5,405.7,862.5,405.7z"/>
		<path style="fill:#F4DCBD;" d="M862.5,381.7v24c0,0-6.1,14.4-6.9,12.9c1.7-18.3,2.8-34.6,1.6-37.9
			C857.1,380.7,860.5,378.4,862.5,381.7z"/>
		<path style="fill:#AABDB9;" d="M852.2,451.3c4.2,20.7,6.5-0.8,6.7-2.8c-1,13.4-2.4,29.5-3.9,43c-3.3,0.3-6.3,0.7-9,1.2
			c0.3-1.9,0.7-3.6,0.9-5.1c0.3-2,2.2-9.4,2.2-9.4S850.5,466.6,852.2,451.3z"/>
		<path style="fill:#A5BCB8;" d="M855,491.6c-1.8,15.4-3.7,27.3-5.7,28.1c0,0-8,1-8.6-2.6c0,0,3.4-13.9,5.3-24.2
			C848.6,492.3,851.7,491.9,855,491.6z"/>
		<path style="fill:#9CB7B9;" d="M845.5,439.4c0,0,1,39,3.5,38.9c0,0-1.8,7.4-2.2,9.4c0.4-2.7,0.6-4.7,0.4-5.4
			c0,0-4.1-42.8-3.1-42.8H845.5z"/>
		<path style="fill:#ABC0BC;" d="M837.8,571.8c7.3,3.8,7.5,12.2-15.7,30.6H275.3c8.9-2.9,15.8-11.2,17.8-28.6
			c0,0,54.1-30.2,88.7-32.3c7,3.1,14.7,5,22.7,6c25.3,3.2,54-2.3,73.8-7.6c0,0-3.8,37.8,42.2,25.6c0,0,60,0.9,74-7.1
			c0,0,53,13.3,98,7.1c0,0,54,11.9,66-4.1c0,0,41-6.3,50,8.4C808.5,569.8,828.7,567.2,837.8,571.8z"/>
		<path style="fill:#B5BAB8;" d="M769.5,415.7c0,0,1.8,1.4,0,2.3c0,0-15.8,31-17.8,32.8c0,0,0.1,1.3,0.2,3.5l-1.5-5.8
			C750.5,448.4,768.8,417.2,769.5,415.7z"/>
		<path style="fill:#DBBFA4;" d="M758.3,367.7l2.3,0.5c0,0-6.5,22.3-9,23.5c0,0-1,55.3-1,55.8s0,1,0,1l1.5,5.8
			c0.4,6.4,1.2,20.5,2,33.5c-3.6-11-8.8-2.7-8.8-2.7c-2.2-21.1-4-46.7-0.7-51.8l0.3-7.2c0,0,0.2-24,0.7-45.3c0,0,5.2-4.8,6.2,0h0
			c0.1,2.9,0.4,4.8,0.9,4.8L758.3,367.7z"/>
		<path style="fill:#AABFBD;" d="M754.1,490.9c0.8,12.2,1.4,22.7,1.6,23.6c0,0-6.8,2.2-7.1,0c0,0-1.4-9.9-2.8-22.9
			C748.2,491.3,751,491.1,754.1,490.9z"/>
		<path style="fill:#B0B9AD;" d="M753.9,487.7c0.1,1.1,0.1,2.2,0.2,3.2c-3.1,0.1-5.9,0.4-8.3,0.8c-0.2-2.2-0.5-4.4-0.7-6.8
			C745.1,485,750.3,476.7,753.9,487.7L753.9,487.7z"/>
		<path style="fill:#FAF7EF;" d="M751.6,380.7L751.6,380.7c-0.9-4.8-6.2,0-6.2,0c0.4-16.9,1.1-32,2.1-32.2c0,0,5-3.8,5,0
			C752.5,348.4,751.2,370.7,751.6,380.7z"/>
		<path style="fill:#C3B4AC;" d="M744.8,425.9l-0.3,7.2c0,0-9.2-38.7-6.9-53.7h1C738.5,379.4,742.8,425.7,744.8,425.9z"/>
		<path style="fill:#F5B296;" d="M573.5,359.7c0.3,0,1.8,2.8,1.8,2.8s-26.8,38.3-26.8,43.8c0,0-0.3,4.3-0.6,10.6
			c-2.1,4.8-7.4,11.8-7.7,12.1c0.8-22.8,1.9-50.2,2.5-50.4c0,0-7.2-13.1-7-25.1h0.8c0,0,5.9,20.2,6.2,20.8c0,0.1,0,0.5,0,0.5
			s2.1-22.7,3.7-41c0.7-7.7,8.5-19,8.5-19c-0.7,7.1-1.3,12.3-1.7,13.4c0,0,0,0,0,0l0.3,0.3v5l0.4,0.2c-0.4,0.5-0.6,0.8-0.7,0.8
			c0,0-5.3,60.3-4,62.8C549.3,397.2,573.2,359.7,573.5,359.7z"/>
		<path style="fill:#EDBEA8;" d="M573.3,296.4c0,0,0.5,1.5,0,2.8c-0.5,1.1-15.9,29.2-19.3,34.4l-0.4-0.2v-5l-0.3-0.3c0,0,0,0,0,0
			C553.8,327.2,572.5,296.2,573.3,296.4z"/>
		<path style="fill:#D0C2AE;" d="M562,447.7c0,0,3.3-2.3,1,5c0,0-8.5,17.1-11.5,27.8c0-3.8,0-7.8,0-11.7
			C555.3,460.8,561.5,446.7,562,447.7z"/>
		<path style="fill:#F9F7EB;" d="M550,301.9c0,0,5-64.8,9.8-45c0,0-2.8,37-4.8,57.8c0,0-7.8,11.3-8.5,19c1-11.4,1.8-21.1,1.8-22.5
			c0,0-1-1.9-2.3-5.2l2.3-0.3C548.3,305.7,550,309.4,550,301.9z"/>
		<path style="fill:#DABDAA;" d="M551.5,468.9c0,3.9,0,7.8,0,11.7c-0.7,2.5-1.1,4.6-1,6.2c0,0,0.1,3.2,0.2,8.1
			c-3.1,1.1-6.9,2.6-11.1,4.4c-0.8-14.7-1.3-28.2-0.8-31.1c0,0-1.7-5.7-4-13.7l2.5-0.6c0.9,3.2,1.6,5.2,2,5.2c0,0,0.4-13.8,1-30
			c0,0,0,0,0,0c0.3-0.3,5.6-7.3,7.7-12.1c-0.9,19.2-2.4,57.6,0.6,57.6C548.8,474.4,550,472.1,551.5,468.9z"/>
		<path style="fill:#BDBEB5;" d="M551.4,516.8c0.5,11.5,1.1,22.4,1.8,24.7c0,0-10.8,2.4-11,0c0,0-1-14.4-2-30.6h0
			c0,0,10.7-3,11.1,5.5C551.4,516.6,551.4,516.8,551.4,516.8z"/>
		<path style="fill:#D6BCA9;" d="M550.7,494.8c0.1,5.8,0.4,13.8,0.7,21.7c-0.4-8.5-11.1-5.5-11.1-5.5h0c-0.2-3.9-0.5-7.9-0.7-11.8
			C543.8,497.3,547.6,495.9,550.7,494.8z"/>
		<path style="fill:#FFF1E7;" d="M548.3,305.7l-2.3,0.3c-3.5-8.4-9.3-25.7-5.9-40.8l1.3,1.5C541.3,266.7,543.8,294.4,548.3,305.7z"
			/>
		<path style="fill:#CDC4B7;" d="M537.3,453.7l-2.5,0.6c-5.5-19.2-14.4-51.7-12.1-52.6c0,0,2.3-1.3,2.3,1.5
			C524.9,403.2,533.2,439.8,537.3,453.7z"/>
		<path style="fill:#D4CDB7;" d="M367.5,532.4c4.2,3.8,9,6.8,14.3,9.1c-34.6,2.1-88.7,32.3-88.7,32.3c-13.3,20.2-73.1,9.7-74.5,9.5
			c0,0,0,0,0,0c-50.5-4.1-88.1-3.3-115.9-0.4C33.7,563.4,2.5,602.4,2.5,602.4v-65c0-24.8,35.6-25.5,56.4-23.8
			c-0.3,9.6-0.4,18.4,0.1,23.3c0,0,9,14.5,8.5-19.5l0-2.9c3.8,0.5,6,0.9,6,0.9c14-66,104,2,104,2c3.5,5.3,7,8.3,10,10
			c3,9.3,8.7,6,8.7,6l-0.1-4.4c2.7-0.4,4.4-1.6,4.4-1.6l29-6c9-9.9,25.1-12.9,43.2-12.2c-0.1,10.8-0.2,19.2-0.2,19.2h9.3
			c-0.1-0.4-0.5-8.9-1-18.6c11.9,1.1,24.2,3.5,35.8,6.4c1.3,15.5,2.2,33.6,2.2,33.6c2.2,3.9,7.3,2.7,10.6,1.4c1.8-0.7,3-1.4,3-1.4
			c1.1-2.1-1.5-19.8-3.1-30.2C351.1,525.8,367.5,532.4,367.5,532.4z"/>
		<path style="fill:#D0C2B0;" d="M341.8,450.8l2.3,0.3c0,0-7.3,52.7-16,61c0,0,0.5,3.1,1.2,7.5c-0.8-0.2-1.7-0.5-2.6-0.7
			c-5.1-33-15.7-39.8-15.7-39.8s10.2,0,10.7,2.4c2,11.4,4.4,22,6.7,24.3C328.5,505.8,343.8,454.1,341.8,450.8z"/>
		<path style="fill:#CFC9B7;" d="M329.4,519.6c1.6,10.4,4.2,28.1,3.1,30.2c0,0-1.3,0.7-3,1.4c-0.3-12.9-1.3-23.5-2.6-32.3
			C327.7,519.1,328.5,519.3,329.4,519.6z"/>
		<path style="fill:#D9BDA5;" d="M328.5,392.4h3c0,0-2.3,37.7-14.3,57c0,0,2,16.8,4.7,32.1c-0.4-2.4-10.7-2.4-10.7-2.4
			c-1.7-15-6.2-53.5-8.3-55.7c0,0-22.7-39-20-44c0,0,15,36,19,37c0,0-1-8.5-2.3-19.6c0,0,2.9,15.7,11.6,17.5l5.3,31.3
			C316.5,445.6,330.8,410.4,328.5,392.4z"/>
		<path style="fill:#9FBCC2;" d="M326.8,518.9c1.4,8.8,2.3,19.5,2.6,32.3c-3.3,1.3-8.5,2.5-10.6-1.4c0,0-0.9-18.1-2.2-33.6
			C320.1,517,323.5,517.9,326.8,518.9z"/>
		<path style="fill:#A8BFBD;" d="M311.2,479.1c0,0,10.5,6.8,15.7,39.8c-3.3-0.9-6.7-1.8-10.2-2.7c-1-11.2-2.2-21-3.4-21.7l-13-17.1
			l11.7,7.7C311.8,485.1,311.6,482.8,311.2,479.1z"/>
		<path style="fill:#D6B1A1;" d="M318.5,305.8c0,0,1.3,59.3-11.7,83l-0.3-2.9v0c0-0.1,0-0.3-0.1-0.7l0-0.2c0,0,11.3-28.8,9-79.8
			L318.5,305.8z"/>
		<path style="fill:#F2B18E;" d="M294.5,347.1c0,0-1.8-3.1-4.3-7.8l2.4-0.6c0.7,1.3,1.1,2.1,1.4,2c0,0-1.1-11-2.5-25.5h0
			c0,0,3.7,10.7,7.5,13.7c3.9,30.2,7.4,57.1,7.5,57.1l0.3,2.9l4.3,25.5c-8.7-1.8-11.6-17.5-11.6-17.5c-2.1-18.3-4.9-43.6-5.1-48.9
			V347.1z"/>
		<path style="fill:#F8E9C7;" d="M288.5,247c0,0,5.6,43.5,10.5,81.8c-3.8-3-7.5-13.7-7.5-13.7h0C288.5,282.8,284.4,232.9,288.5,247z
			"/>
		<path style="fill:#F0DDC8;" d="M292.6,338.6l-2.4,0.6c-6.8-12.8-19.2-37.5-17.7-44.7c0,0,1.7-3.2,2.7,0
			C275.2,294.6,288.2,329.8,292.6,338.6z"/>
		<path style="fill:#B3BBB8;" d="M288.5,461.7v2.8c0,0-8,11.1-9,15.4l-1.8-4.9C277.8,474.9,287.3,461.7,288.5,461.7z"/>
		<path style="fill:#ADBBB5;" d="M281.8,528.4h-9.3c0,0,0.1-8.3,0.2-19.2c2.7,0.1,5.4,0.3,8.1,0.5
			C281.2,519.6,281.6,528,281.8,528.4z"/>
		<path style="fill:#A0A8AE;" d="M278.8,406.7c0,0,2.3-5.5,2,2.3c0,0-2.8,14.8-4,16.3c0,0-1,1.2-1.1,4.7l-0.9-6.9
			C274.8,422.9,278.8,410.7,278.8,406.7z"/>
		<path style="fill:#B8BCB5;" d="M279.9,490.2c0.3,5.7,0.6,13,0.9,19.6c-2.7-0.3-5.4-0.4-8.1-0.5c0-5.9,0.1-12.6,0.1-19.1h0
			C272.8,490.2,273.6,478.7,279.9,490.2z"/>
		<path style="fill:#DDBDAD;" d="M272.5,460.2c0,0-9.8-23.5-8.8-25.3c0,0,8.3,19,8.5,19.3c0.2,0.2-0.6-19.1-1.1-33.5
			c1.1-6.2,3-15.1,3.1-15.1l0.1,2.9l0.5,14.5l0.9,6.9c0,0.5,0,1,0,1.6c0,0,0.6,41,2.1,43.5l1.8,4.9c0,0,0.2,4.3,0.4,10.4
			c-6.3-11.5-7.1,0-7.1,0h0C272.9,475.8,272.8,462.3,272.5,460.2z"/>
		<path style="fill:#E7DED8;" d="M273.5,383.4l0.7,22.1c0,0-2,8.9-3.1,15.1c-0.3-8.6-0.6-15.5-0.6-15.5v-3.8v-18
			C270.5,383.4,272,380.2,273.5,383.4z"/>
		<path style="fill:#B2C2C5;" d="M270.5,401.4v3.8c0,0-8.3-15.8-5-17L270.5,401.4z"/>
		<path style="fill:#A6C1BE;" d="M256.5,602.4h-225c0,0,16-13.8,71.1-19.5c27.7-2.9,65.4-3.7,115.9,0.4c0,0,0,0,0,0
			C219.2,583.9,238,598,256.5,602.4z"/>
		<path style="fill:#DEBDA5;" d="M194,471.9c0.4-0.6,12.5-20.2,14-34c0,0,2.5-1.8,1.8,1.3c0,0-10.3,34.3-14.8,38.5l0.7,29.8
			c-7.8-7.5-9.9-17.3-9.9-17.3h0c0-25,0-64.8-0.5-65.5c0,0-16-35.8-11.8-31l11,22.3c0,0-0.7-22.9-1.9-48.5h0c3.9,4.7,8.1,21,8.1,21
			S195.5,469.3,194,471.9z"/>
		<path style="fill:#F8EBDE;" d="M203.5,329.9l1.5,2.5c0,0-11.8,20.5-14.3,30.5c0,0-0.3,17.3,0,25.5c0,0-4.3-16.3-8.1-21h0
			c-1.5-32.2-3.7-68.6-6.1-69.5c0,0,3.5-7.5,6,0c0,0,7,59,6,61L203.5,329.9z"/>
		<path style="fill:#C2C0B4;" d="M196.1,529.1l0.1,4.4c0,0-5.7,3.2-8.7-6C190.9,529.3,193.9,529.4,196.1,529.1z"/>
		<path style="fill:#B8BDB4;" d="M195.7,507.4l0.5,21.6c-2.2,0.4-5.2,0.2-8.6-1.6c-1.2-3.6-1.9-9.1-1.8-17.5c0,0,0-8.3,0-19.8h0
			C185.8,490.2,187.8,499.9,195.7,507.4z"/>
		<polygon style="fill:#A2B2B4;" points="80.5,476.4 80.5,478.9 67.3,501.4 67.5,494.4 		"/>
		<path style="fill:#E0BBA4;" d="M73.5,423.9c0.5,22-6,19.5-6,19.5v43h-7l-0.2,0c0.6-10.6,1.2-18.5,1.2-18.5c3-11,0-63,0-63l-5.5-22
			c-2-10,0-4.5,0-4.5l5.5,16v-29h5h0.1c0.1,29.8,1.2,70.8,1.2,70.8C68.6,440.5,73.5,423.9,73.5,423.9z"/>
		<path style="fill:#F3E5D9;" d="M61.5,332.4l6.3,2.5c-1,0.5-1.2,13.8-1.2,30.5h-0.1h-5V332.4z"/>
		<path style="fill:#D4CDB7;" d="M2.5,602.4c0,0,31.2-39.1,100.1-19.5c-55.2,5.7-71.1,19.5-71.1,19.5H2.5z"/>
		<path style="fill:#ADBDBD;" d="M67.5,517.4c0.5,34-8.5,19.5-8.5,19.5c-0.5-4.9-0.4-13.7-0.1-23.3c3.3,0.3,6.2,0.6,8.6,0.9
			L67.5,517.4z"/>
		<path style="fill:#BAC0BB;" d="M67.5,486.4v8l-0.2,7l0.2,13.1c-2.4-0.3-5.3-0.6-8.6-0.9c0.3-9.1,0.9-19,1.4-27.2l0.2,0H67.5z"/>
	</g>
	<g>
	</g>
</g>
</svg>
