<?xml version="1.0" encoding="utf-8"?>
<!-- Generator: Adobe Illustrator 16.0.0, SVG Export Plug-In . SVG Version: 6.00 Build 0)  -->
<!DOCTYPE svg PUBLIC "-//W3C//DTD SVG 1.1//EN" "http://www.w3.org/Graphics/SVG/1.1/DTD/svg11.dtd">
<svg version="1.1" id="图层_2" xmlns="http://www.w3.org/2000/svg" xmlns:xlink="http://www.w3.org/1999/xlink" x="0px" y="0px"
	 width="246.9px" height="127.5px" viewBox="0 0 246.9 127.5" style="enable-background:new 0 0 246.9 127.5;" xml:space="preserve"
	>
<g>
	<g id="XMLID_1_">
		<g>
			<path style="fill:#91CBCD;" d="M78.8,81.3c0,0-46.2,0.9-61.2-6.8c0,0,29-45,34.2-55C51.7,19.6,66.6,54.4,78.8,81.3z"/>
			<path style="fill:#F8DED1;" d="M102.3,104.3l-8.1,7.6c-1.2-0.1-7-12-13.9-27.2C77,70.8,102.3,104.3,102.3,104.3z"/>
			<polygon style="fill:#EFDFE2;" points="246.9,91.9 241.2,91.9 241.2,91.9 240.9,91.8 69.2,26.2 65.3,24.8 59.9,22.7 57.2,21.7
				55.7,21.1 54.4,20.6 51.8,19.6 51.7,19.6 53.6,17.9 			"/>
			<path style="fill:#91C9CA;" d="M241.2,91.9L241.2,91.9c-0.6,5.3-119.3-6-119.3-6L51.8,19.6l2.6,1c0.4,0.1,0.8,0.3,1.3,0.5
				l1.5,0.6c0.8,0.3,1.7,0.7,2.7,1c1.6,0.6,3.5,1.3,5.5,2.1c1.2,0.5,2.5,1,3.9,1.5c45.5,17.4,164.6,62.9,171.7,65.5
				C241,91.8,241.1,91.9,241.2,91.9z"/>
			<path style="fill:#99B9B8;" d="M121.9,85.9l-19.6,18.4c0,0-25.3-33.5-22-19.6l-1.5-3.4c-12.2-26.9-27-61.8-27-61.8l0,0
				L121.9,85.9z"/>
		</g>
		<g>
		</g>
	</g>
</g>
<path style="fill:#F6D3D9;" d="M-94.8-31.6l12-12.8c0,0,5.3-5,3.8,1.8l-4,14.3L-94.8-31.6z"/>
<path style="fill:#E89F8C;" d="M-154.8,180.2l23,2.5l4.8-9.8c0,0,1-3.5-4.3-1.3L-154.8,180.2z"/>
<g id="XMLID_2_">
	<g>
		<polygon style="fill:#B5C6BC;" points="256.6,204.3 246.9,207 237.2,192.7 237.2,188.7 		"/>
		<polygon style="fill:#DEA68D;" points="237.2,192.7 246.9,207 237.2,209.7 		"/>
	</g>
	<g>
	</g>
</g>
</svg>
