<?xml version="1.0" encoding="utf-8"?>
<!-- Generator: Adobe Illustrator 16.0.0, SVG Export Plug-In . SVG Version: 6.00 Build 0)  -->
<!DOCTYPE svg PUBLIC "-//W3C//DTD SVG 1.1//EN" "http://www.w3.org/Graphics/SVG/1.1/DTD/svg11.dtd">
<svg version="1.1" id="图层_2" xmlns="http://www.w3.org/2000/svg" xmlns:xlink="http://www.w3.org/1999/xlink" x="0px" y="0px"
	 width="800px" height="600px" viewBox="0 0 800 600" style="enable-background:new 0 0 800 600;" xml:space="preserve">
<g id="XMLID_1_">
	<g>
		<path style="fill:#99BBBF;" d="M344.426,405.67c10.33,4.66-9,2.33-9,2.33c-2.67-1-16.33-4-16.33-4c-11.67,4-32.67-19-32.67-19
			c-15.67-10.33-13-27-13-27l-6.71-11.81c4.37,0.39,8.74,0.75,13.05,1.069l7.66,12.74c2,4.33,19.66,23.67,19.66,23.67
			c8,8.66,16.19,10.18,21.01,14.33C332.856,402.11,344.426,405.67,344.426,405.67z"/>
		<path style="fill:#A9DCDB;" d="M116.426,296.67c2,2.66,0,2.33,0,2.33h-11l2-10.33c-0.33-6,2.33,0,2.33,0L116.426,296.67z"/>
		<path style="fill:#A4DDD9;" d="M160.476,331.44c-3.71-0.881-7.26-1.78-10.65-2.681c-11.61-20.24-47.11-16.33-47.11-16.33
			c-4.56-2.09-7.86-3.819-9.99-5.01C93.706,307.16,145.016,293.9,160.476,331.44z"/>
		<path style="fill:#A9DDDF;" d="M94.756,300c-1.66-0.33-6.56,4.94-6.56,4.94l-0.01-0.011c-12.22-11.72-4.09-9.6-4.09-9.6
			L94.756,300z"/>
		<path style="fill:#A6E1E1;" d="M147.426,307.33c18.67-4,14.33,0,14.33,0l-4.33,7.67L147.426,307.33z"/>
		<path style="fill:#A8C8CB;" d="M338.926,338.53c-0.5,5.54,5.5,6.97,5.5,6.97c-9.07,4.36-35.72,3.91-64.66,1.76
			c-4.31-0.319-8.68-0.68-13.05-1.069c-40.62-3.57-81.29-9.521-81.29-9.521c-6.43-1.18-12.51-2.42-18.24-3.689l8.57-4.221
			c0,0,6.42-2.09-4.29-4.09c0,0-8.78-5.43-5.71,1.03l1.42,7.28c-2.29-0.511-4.52-1.021-6.7-1.54
			c-15.46-37.541-66.77-24.28-67.75-24.021c-0.01,0-0.01,0-0.01,0c-2-1.12-2.96-1.75-2.96-1.75c-0.5-0.21-1.02-0.45-1.56-0.729
			c0,0,4.9-5.271,6.56-4.94l-10.66-4.67c0,0-8.13-2.12,4.09,9.6c-16.48-8.54-52.09-49.93-52.09-49.93c-1.2-0.92-1.98-1.75-2.47-2.47
			c0,0,10.05,5.47,18.8,6.72c0,0,20.5,5,23.25,5c0,0,4.64,0.12,9,1.75c3.61,1.35,7.39,3,9,3c3.5,0,8-0.25,14,3
			c0,0,15.95,1.98,26.5,3.5c2.98,0.43,5.31,1.95,7,2c0,0,1.94,0.12,4,0.29c2.01,0.17,4.15,0.39,4.71,0.59
			c0.02,0.01,0.03,0.01,0.04,0.02c0.02,0.01,0.04,0.02,0.06,0.03c0.02,0.01,0.06,0.04,0.12,0.08c1.56,1.07,16.63,11.34,22.32,13.24
			c0,0,35,13.25,39,14c0,0,30,12.25,31.75,13c0,0,36.5,7.75,45.25,13c0,0,32.5,6.5,42,1.75
			C333.426,334,338.926,338.53,338.926,338.53z M161.756,307.33c0,0,4.34-4-14.33,0l10,7.67L161.756,307.33z M136.816,304.94
			l-0.06-11.9c0.67-4.63-4.33,0-4.33,0l-5.83,5.97c-3.49,3.021,2.54,3.32,2.54,3.32L136.816,304.94z M116.426,299c0,0,2,0.33,0-2.33
			l-6.67-8c0,0-2.66-6-2.33,0l-2,10.33H116.426z"/>
		<path style="fill:#96DFE3;" d="M119.356,319.23c0.33-0.211,7.05-4.221,19.57,6.47C131.516,323.5,125.006,321.31,119.356,319.23z"
			/>
		<path style="fill:#8EAEB6;" d="M769.756,368c0,0,10.78,16.41,12.56,13.54c0.38,0.65,0.75,1.3,1.11,1.96c0,0,5,10-14.5-9
			c0,0-29.95-25.56-44.53-29.21c7.42,0.67,22.46,2.8,32.59,9.43c2.49,2.45,5.141,5.13,7.95,8.09
			C766.485,364.45,768.096,366.18,769.756,368z"/>
		<path style="fill:#F3DDD0;" d="M782.315,381.54c-1.779,2.87-12.56-13.54-12.56-13.54c-1.66-1.82-3.271-3.55-4.82-5.19
			c-1.83-3.25-4.62-5.92-7.95-8.09c-19.1-18.68-29.229-23.05-29.229-23.05c-2.5-2.4-5.87-4.63-9.76-6.68l1-1.94
			C740.806,334.31,765.726,352.6,782.315,381.54z"/>
		<path style="fill:#A4E0E3;" d="M117.426,207c-3.5,2.5-52.96,38.08-53.74,38.04c-0.99-0.05-1.95-0.1-2.9-0.16
			c1.4-1.01,91.45-65.43,99.64-71.63c0,0,74.23-57.09,92.49-72.01l0.48,0.58c-11.29,9.24-37.03,30.32-40.72,33.43
			C207.926,139.25,120.926,204.5,117.426,207z"/>
		<path style="fill:#8EAEB6;" d="M756.985,354.72c-10.13-6.63-25.17-8.76-32.59-9.43h-0.01c-1.729-0.43-3.24-0.56-4.46-0.29
			c0,0-22.5-14-26-21c0,0-16-7-18-4.5c0,0-3.5-0.5-11,11c0,0-19-2.93-28.5,8.03l-10.5,11.47c0,0-8,10.5-1-6c0,0,12.5-34.5,32.5-33
			c0,0,4.8-2.54,2.94-3.17c1.659,0.28,37.06,6.31,57.63,17.16c3.89,2.05,7.26,4.279,9.76,6.68
			C727.756,331.67,737.886,336.04,756.985,354.72z"/>
		<path style="fill:#A6C6CB;" d="M149.826,328.76c-3.83-1.02-7.47-2.04-10.9-3.06c-12.52-10.69-19.24-6.681-19.57-6.47
			c-6.75-2.48-12.28-4.811-16.64-6.801C102.716,312.43,138.216,308.52,149.826,328.76z"/>
		<path style="fill:#DEE4E0;" d="M107.676,272c-6-3.25-10.5-3-14-3c-1.61,0-5.39-1.65-9-3c-4.36-1.63-9-1.75-9-1.75
			c-2.75,0-23.25-5-23.25-5c-8.75-1.25-18.8-6.72-18.8-6.72c-0.02-0.02-0.04-0.04-0.05-0.06c-0.29-0.44-0.48-0.83-0.6-1.18
			c0.42-2.39,19.95,5.46,19.95,5.46c10,0.07,13.25,4,13.25,4c2.35-1.18,32.75,7,32.75,7c4,0,27.75,5.5,27.75,5.5
			c7.69-0.94,18.5,4.54,18.5,4.54c-2.06-0.17-4-0.29-4-0.29c-1.69-0.05-4.02-1.57-7-2C123.626,273.98,107.676,272,107.676,272z"/>
		<path style="fill:#F3DDD0;" d="M60.776,244.88c0,0,0,0,0.01,0c0.95,0.06,1.91,0.11,2.9,0.16c33.25,1.78,85.7,4.46,99.74,4.46
			c0,0,141.5,1.5,144.5,0c0,0,157,8,160,11c0,0,147,19.5,205.5,46c0,0,20.78,3.74,45.57,16.55l-1,1.94
			c-20.57-10.851-55.971-16.88-57.63-17.16c-0.011,0-0.021,0-0.021,0c-0.62-0.2-1.96-0.2-4.42,0.17c0,0-90-10-114.5-4.5
			c0,0-30.02,2.31-66.52,9.91c-17.211,3.58-35.86,8.34-53.48,14.59c0,0-19.5,6-71,7c0,0,4.45,3.76,10.97,9.04
			c15.01,12.17,41.01,32.41,49.03,33.46c0,0,68.5,28.5,89,23.5c0,0,20.5,3,0,4c0,0-20,3-23.5,3c0,0-33.5-3.5-36-4.5
			c0,0-8,2.5-8.5,0.5c0,0-10.5,0.5-14-3.5c0,0-16.5-3.5-21.5-6c0,0-11.5,0-13-6.5c0,0-24.5-13.5-29-24c0,0-9-12-9.5-18.5
			c0,0-6-1.43-5.5-6.97c0,0-5.5-4.53-8.5-5.03c0,0-36.5-0.5-72-14.5c0,0-80.39-24.29-108.32-40.49c-0.06-0.04-0.1-0.07-0.12-0.08
			c-0.01-0.01-0.01-0.01-0.01-0.01c-0.01-0.01-0.03-0.01-0.05-0.02c-0.01-0.01-0.02-0.01-0.04-0.02c-1.7-1-3.19-1.96-4.46-2.88
			c0,0,5.33-1.83-25.33-5.5c0,0-44-9-49.67-10.67c0,0-33.33-7.66-37.5-9.83c0,0-2.5-7,2.5-6
			C35.426,243.5,45.826,244.08,60.776,244.88z"/>
		<path style="fill:#AAC9C8;" d="M474.906,313.41c-6.521,4.41-54.48,19.09-54.48,19.09c-37,11.5-59.03,11.54-59.03,11.54
			c-6.52-5.28-10.97-9.04-10.97-9.04c51.5-1,71-7,71-7C439.046,321.75,457.695,316.99,474.906,313.41z"/>
		<path style="fill:#89C0C8;" d="M258.426,319c35.5,14,72,14.5,72,14.5c-9.5,4.75-42-1.75-42-1.75c-8.75-5.25-45.25-13-45.25-13
			c-1.75-0.75-31.75-13-31.75-13c-4-0.75-39-14-39-14c-5.69-1.9-20.76-12.17-22.32-13.24C178.036,294.71,258.426,319,258.426,319z"
			/>
		<path style="fill:#B7C8CF;" d="M32.976,251.29c-0.4-1.14-0.05-1.79-0.05-1.79c4.17,2.17,37.5,9.83,37.5,9.83
			c5.67,1.67,49.67,10.67,49.67,10.67c30.66,3.67,25.33,5.5,25.33,5.5c1.27,0.92,2.76,1.88,4.46,2.88c-0.56-0.2-2.7-0.42-4.71-0.59
			c0,0-10.81-5.48-18.5-4.54c0,0-23.75-5.5-27.75-5.5c0,0-30.4-8.18-32.75-7c0,0-3.25-3.93-13.25-4
			C52.926,256.75,33.396,248.9,32.976,251.29z"/>
		<path style="fill:#A7E2E2;" d="M171.466,324.67c10.71,2,4.29,4.09,4.29,4.09l-8.57,4.221h-0.01l-1.42-7.28
			C162.686,319.24,171.466,324.67,171.466,324.67z"/>
		<path style="fill:#A9E1E8;" d="M136.756,293.04l0.06,11.9l-7.68-2.61c0,0-6.03-0.3-2.54-3.32l5.83-5.97
			C132.426,293.04,137.426,288.41,136.756,293.04z"/>
		<path style="fill:#E1DCD6;" d="M255.676,92l12.5,4c0,0,20,5.25,0,1.25c0,0-12.25-2.5,0.75,2c0,0,0.75,1.25-10.25-1.75
			c0,0-2.05,1.67-5.28,4.32l-0.48-0.58c2.43-1.99,3.86-3.23,4.01-3.49c0,0-5-4.5-6.25-4.5C250.676,93.25,246.676,90.25,255.676,92z"
			/>
	</g>
	<g>
	</g>
</g>
</svg>
