<?xml version="1.0" encoding="utf-8"?>
<!-- Generator: Adobe Illustrator 16.0.0, SVG Export Plug-In . SVG Version: 6.00 Build 0)  -->
<!DOCTYPE svg PUBLIC "-//W3C//DTD SVG 1.1//EN" "http://www.w3.org/Graphics/SVG/1.1/DTD/svg11.dtd">
<svg version="1.1" id="图层_3" xmlns="http://www.w3.org/2000/svg" xmlns:xlink="http://www.w3.org/1999/xlink" x="0px" y="0px"
	 width="400px" height="400px" viewBox="0 0 400 400" style="enable-background:new 0 0 400 400;" xml:space="preserve">
<g id="XMLID_1_">
	<g>
		<path style="fill:#F4AB9D;" d="M337.5,163.5c6.5,1.5,0,5,0,5c-2.51,3.79-25.67,31.17-25.67,31.17c-25.33,23.66-29,34.66-29,34.66
			s-67-50-94-72s-52.66-44.33-62-51.66c-9.26-7.28-70.75-72.51-73.63-76.19c-0.03-0.03-0.04-0.06-0.06-0.08
			c13.67,14.88,85.36,53.93,85.36,53.93c81.67,42,101.33,45.67,101.33,45.67C285.5,151.67,337.5,163.5,337.5,163.5z"/>
		<path style="fill:#F49E93;" d="M275.5,244.67c4.67,1.66,4.33,5.66,4.33,5.66c-3.2,5.56-5.21,11.38-6.41,15.78h-0.01
			c-5.08-7.391-83.34,11.51-83.34,11.51c-1.49-2.25-3.02-4.561-4.55-6.88c2.35-1.26-22.02-36.24-22.02-36.24
			c-7.99-18.27-26.65-42.37-28.38-44.58c-0.05-0.07-0.09-0.12-0.11-0.14c-0.01-0.02-0.02-0.03-0.02-0.03
			c-0.53-0.76-0.93-1.25-1.16-1.42c0,0-30.66-49-33.66-54c0,0-45.48-89-48.04-99.78c0.27,0.91,1.15,2.85,3.04,6.45
			c0,0,64,75,93.66,100.67c0,0,55.34,52,77,66.66c0,0,40.43,33.49,48.67,36.18C274.49,245.14,275.5,244.67,275.5,244.67z"/>
		<path style="fill:#EF7A69;" d="M54.89,36.83l-1.69-2.35c2.88,3.68,64.37,68.91,73.63,76.19c9.34,7.33,35,29.66,62,51.66
			s94,72,94,72c-6.78,6.97-8.32,9.4-8.33,10.18c-8.24-2.689-48.67-36.18-48.67-36.18c-21.66-14.66-77-66.66-77-66.66
			C119.17,116,55.17,41,55.17,41c-1.89-3.6-2.77-5.54-3.04-6.45c-0.01-0.05-0.02-0.11-0.03-0.15c-0.02-0.08-0.03-0.15-0.05-0.22
			c0-0.04-0.01-0.08-0.01-0.12C52.04,33.13,54.18,35.89,54.89,36.83z"/>
		<path style="fill:#F3978A;" d="M273.41,266.11h0.01c-1.18,4.29-1.59,7.22-1.59,7.22c-10,31.67-14,98-14,98s-40-47.66-49.33-65.66
			c0,0-8.41-12.87-18.43-28.05C190.07,277.62,268.33,258.72,273.41,266.11z"/>
		<path style="fill:#F7F3CB;" d="M257.83,371.33c2.34,14.34-45.66-54.33-45.66-54.33c-1.7-2.41-29-45-29-45
			c-2-3.66-12.25-19.92-22-35.25l1.03-0.71c5.5,7.91,14.62,21.56,23.32,34.7c1.53,2.319,3.06,4.63,4.55,6.88
			c10.02,15.18,18.43,28.05,18.43,28.05C217.83,323.67,257.83,371.33,257.83,371.33z"/>
		<path style="fill:#FCCBB7;" d="M212.17,317c-6.67,17-9.67,17.67-9.67,17.67c-8.67,1-53.33-85.67-53.33-85.67
			c-12.24-16.87-58.61-126.6-59.33-128.31c0.87,1.42,47.04,77.39,52.33,86.31c0,0,9.25,14.42,19,29.75s20,31.59,22,35.25
			C183.17,272,210.47,314.59,212.17,317z"/>
		<path style="fill:#E68B7A;" d="M163.5,234.5c0,0,24.37,34.98,22.02,36.24c-8.7-13.141-17.82-26.79-23.32-34.7
			c-0.01-0.01-0.02-0.03-0.03-0.04c0,0-21.17-37.67-27.05-46.08C136.85,192.13,155.51,216.23,163.5,234.5z"/>
		<path style="fill:#F7F3CB;" d="M52.04,34.06c0,0.04,0.01,0.08,0.01,0.12c0.01,0.06,0.02,0.14,0.05,0.22
			c0.01,0.04,0.02,0.1,0.03,0.15c2.56,10.78,48.04,99.78,48.04,99.78c3,5,33.66,54,33.66,54c0.23,0.17,0.63,0.66,1.16,1.42
			c0,0,0.01,0.01,0.02,0.03c0.03,0.04,0.07,0.09,0.11,0.14C141,198.33,162.17,236,162.17,236c0.01,0.01,0.02,0.03,0.03,0.04
			l-1.03,0.71c-9.75-15.33-19-29.75-19-29.75c-5.29-8.92-51.46-84.89-52.33-86.31c-0.01-0.01-0.01-0.02-0.01-0.02
			c-2-3.67-41-86-41-86c-1.33-4.34,2.34-3,2.34-3c0.35,0.78,1.01,1.69,1.96,2.72l0.01,0.01c0.02,0.02,0.03,0.05,0.06,0.08l1.69,2.35
			C54.18,35.89,52.04,33.13,52.04,34.06z"/>
	</g>
	<g>
	</g>
</g>
</svg>
