<?xml version="1.0" encoding="utf-8"?>
<!-- Generator: Adobe Illustrator 16.0.0, SVG Export Plug-In . SVG Version: 6.00 Build 0)  -->
<!DOCTYPE svg PUBLIC "-//W3C//DTD SVG 1.1//EN" "http://www.w3.org/Graphics/SVG/1.1/DTD/svg11.dtd">
<svg version="1.1" id="图层_4" xmlns="http://www.w3.org/2000/svg" xmlns:xlink="http://www.w3.org/1999/xlink" x="0px" y="0px"
	 width="160px" height="120px" viewBox="0 0 160 120" style="enable-background:new 0 0 160 120;" xml:space="preserve">
<g id="XMLID_2_">
	<g>
		<path style="fill:#FFF9F8;" d="M84,63c0,0,8.78,0,18.75,0c0,0-18.81,23.75-21,25.25l0.31-3.49l1.561-17.52L84,63z"/>
		<path style="fill:#FEBDB2;" d="M104.25,33.25l9.5-3.5c0,0-32,28.75-32,31.25c0,0-3.63,28.51,0.31,23.76l-0.31,3.49
			c0,0-3,4.5-3-1.75c0,0,0.5-21.25-1.75-23.5H30c0,0-6,0,1.25-3.25C31.25,59.75,71.75,42.5,104.25,33.25z"/>
		<path style="fill:#FCA28F;" d="M113.75,29.75c0,0,2.36-0.7,3.71,0.53c0,0-23.71,23.22-23.96,22.72s-0.25-0.5-0.25-0.5
			s-6.75,6.5-8,8.5c0,0-3.26,0.98-1.63,6.24L82.06,84.76C78.12,89.51,81.75,61,81.75,61C81.75,58.5,113.75,29.75,113.75,29.75z"/>
		<path style="fill:#FDB2A5;" d="M131,61c0,0,2,2,0,2c-0.56,0-15.39,0-28.25,0C92.78,63,84,63,84,63l-0.38,4.24
			C81.99,61.98,85.25,61,85.25,61c1.25-2,8-8.5,8-8.5s0,0,0.25,0.5s23.96-22.72,23.96-22.72c0.271,0.25,0.5,0.56,0.66,0.97
			C118.12,31.25,131,59.25,131,61z"/>
	</g>
	<g>
	</g>
</g>
</svg>
