<?xml version="1.0" encoding="utf-8"?>
<!-- Generator: Adobe Illustrator 16.0.0, SVG Export Plug-In . SVG Version: 6.00 Build 0)  -->
<!DOCTYPE svg PUBLIC "-//W3C//DTD SVG 1.1//EN" "http://www.w3.org/Graphics/SVG/1.1/DTD/svg11.dtd">
<svg version="1.1" id="图层_2" xmlns="http://www.w3.org/2000/svg" xmlns:xlink="http://www.w3.org/1999/xlink" x="0px" y="0px"
	 width="800px" height="600px" viewBox="0 0 800 600" style="enable-background:new 0 0 800 600;" xml:space="preserve">
<g id="XMLID_1_">
	<g>
		<path style="fill:#FBEBE5;" d="M681,571.67V581l-8-6.33C673,574.67,676,571.33,681,571.67z"/>
		<polygon style="fill:#FEDAD3;" points="800,535 800,562.67 794.33,578 710,523 		"/>
		<path style="fill:#FCDAD4;" d="M644,467v24.33l-24.83-25.66c0,0,2.41-0.34,3.41,0l7.21,4L644,467z"/>
		<path style="fill:#C8DCE8;" d="M217.33,498l-7,6.33l-11-8C210.67,496.33,217.33,498,217.33,498z"/>
		<path style="fill:#EDE5DF;" d="M38.67,553c2,2,1.66,9,1.66,9c-1.33,0.67-15.66-4.67-15.66-4.67C33.67,556.33,38.67,553,38.67,553z
			"/>
	</g>
	<g>
	</g>
</g>
</svg>
