<?xml version="1.0" encoding="utf-8"?>
<!-- Generator: Adobe Illustrator 16.0.0, SVG Export Plug-In . SVG Version: 6.00 Build 0)  -->
<!DOCTYPE svg PUBLIC "-//W3C//DTD SVG 1.1//EN" "http://www.w3.org/Graphics/SVG/1.1/DTD/svg11.dtd">
<svg version="1.1" id="图层_3" xmlns="http://www.w3.org/2000/svg" xmlns:xlink="http://www.w3.org/1999/xlink" x="0px" y="0px"
	 width="800px" height="600px" viewBox="0 0 800 600" style="enable-background:new 0 0 800 600;" xml:space="preserve">
<g>
	<g id="XMLID_1_">
		<g>
			<path style="fill:#98B8B8;" d="M478.57,494.42c97.77,9.59,84.18-84.17,84.18-84.17s50.75,10.5,51.75,11.5
				c0,0,39.75,9.25,40.25,10.5c0,0,18.55,2.47,30.15,4.58c5.319,0.97,9.18,1.87,9.1,2.42c0,0,42.23,9.41,46.38,8.32
				C739.6,448,738.5,448.47,737,449c0,0-27,6.33-33.33,9.67c0,0-16,6.33-17.34,4.33c0,0-69.33,24.67-80,26.67
				c0,0-64.78,20.271-97.83,31.35v-0.01C508.5,517.19,494.72,506.1,478.57,494.42z"/>
			<path style="fill:#81B2B8;" d="M495.5,513.5c0,0,10.41,5.48,11.21,8.12c-8.82,2.97-15.07,5.2-16.71,6.05L495.5,513.5z"/>
			<path style="fill:#99BEBC;" d="M440.74,468.44c9.62,6.35,23.26,15.529,35.79,24.52c0.1,0.64-0.03,1.03-0.36,1.2
				c-0.67-0.07-1.35-0.15-2.03-0.24c-0.01,0-0.01,0-0.02,0C466.18,490.84,441.51,469.11,440.74,468.44z"/>
			<path style="fill:#E2D5C9;" d="M429.1,505.36c-22.02-14.221-42.84-27.54-43.479-27.95c-0.01-0.01-0.02-0.01-0.02-0.01
				c-7.25-6.62-13.52-12.591-18-17.271C369.35,461.1,425.34,492.17,429.1,505.36z"/>
			<path style="fill:#FFD4DA;" d="M429.1,505.36c24.771,15.989,51.08,33.13,52.021,34.39v0.01l-6.79,9.24H469
				c0,0-51.25-42.22-83.38-71.59C386.26,477.82,407.08,491.14,429.1,505.36z"/>
			<path style="fill:#8FBABD;" d="M504,394c0,0,58.5,15.5,58.75,16.25c0,0,13.59,93.76-84.18,84.17
				c-0.681-0.49-1.36-0.979-2.04-1.46c-12.53-8.99-26.17-18.17-35.79-24.52c-0.01-0.011-0.01-0.021-0.021-0.021
				c-7.63-5.04-12.72-8.31-12.72-8.31c-1.29-0.5-9.23-5.78-19.63-12.88C404.73,432.46,472,405.5,472,405.5
				c-63.51,3.05-127.27-56.25-127.27-56.25c6.12,1.65,10.32,2.82,10.8,3.06c0,0,61.49,17.221,63.99,18.221
				C419.52,370.53,503.75,394,504,394z"/>
			<path style="fill:#7BB5BD;" d="M236.55,322.35c16.52,10.891,50.19,33.4,76.59,53.051c0.01,0.01,0.03,0.029,0.04,0.029
				c1.08,1.101,2.15,1.891,3.22,2.42c15.12,11.391,27.39,21.58,31.85,27.65c0,0-36.75-24.5-43.25-29.25c0,0-0.05-0.04-0.14-0.12
				c-0.04-0.03-0.08-0.07-0.13-0.1c-0.04-0.05-0.09-0.08-0.15-0.12c-0.26-0.22-0.61-0.51-1.01-0.8c-0.12-0.101-0.26-0.2-0.39-0.301
				c-0.03-0.02-0.07-0.05-0.1-0.079C292.34,366.24,240.14,324.95,236.55,322.35z"/>
			<path style="fill:#90B8BA;" d="M472,405.5c0,0-67.27,26.96-63.63,41.73c-23.68-16.16-60.12-41.73-60.12-41.73
				c-4.46-6.07-16.73-16.26-31.85-27.65c13.64,6.78,25.89-29.25,25.89-29.25c0.84,0.221,1.66,0.44,2.44,0.65
				C344.73,349.25,408.49,408.55,472,405.5z"/>
			<path style="fill:#99BEBC;" d="M481.12,539.75c-0.94-1.26-27.25-18.4-52.021-34.39c-3.76-13.19-59.75-44.261-61.5-45.23h-0.01
				c-2.65-2.76-4.68-5.07-5.92-6.8c0,0-43.23-43.89-61.16-61.33l0.01-0.01c7.26-0.51,3.23-11.49,3.23-11.49s7.25,9.5-0.25-1.25
				c-5.11-7.32-2.56-6.06-0.42-4.52c0.03,0.029,0.07,0.06,0.1,0.079c0.13,0.101,0.27,0.2,0.39,0.301c0.43,0.35,0.77,0.609,1.01,0.8
				c0.06,0.04,0.11,0.07,0.15,0.12c0.05,0.05,0.09,0.08,0.13,0.1c0.09,0.08,0.14,0.12,0.14,0.12c6.5,4.75,43.25,29.25,43.25,29.25
				s36.44,25.57,60.12,41.73c10.399,7.1,18.34,12.38,19.63,12.88c0,0,5.09,3.27,12.72,8.31c0.011,0,0.011,0.01,0.021,0.021
				c0.77,0.67,25.439,22.399,33.38,25.479c0.01,0,0.01,0,0.02,0c0.931,0.36,1.63,0.46,2.03,0.24c0.811,0.1,1.61,0.18,2.4,0.26
				c16.149,11.68,29.93,22.771,29.93,26.59v0.01c-0.61,0.2-1.21,0.4-1.79,0.601c-0.8-2.64-11.21-8.12-11.21-8.12l-5.5,14.17
				L481.12,539.75z"/>
			<path style="fill:#F3E2D4;" d="M562.75,410.25C562.5,409.5,504,394,504,394c-0.25,0-84.48-23.47-84.48-23.47
				c-2.5-1-63.99-18.221-63.99-18.221c-0.48-0.239-4.68-1.409-10.8-3.06c-0.78-0.21-1.6-0.43-2.44-0.65
				c-20.18-5.409-56.23-14.72-56.23-14.72c-11.83-0.75-55.72-16.939-58.77-18.06v-0.011l0.08-0.21
				c10.29,2.73,229.77,61.07,235.63,64.65c0,0,94.67,23.38,97,27.04c0,0,95,17.86,97.67,22.19l27.65,5.06l-0.42,2.29
				c-11.601-2.11-30.15-4.58-30.15-4.58c-0.5-1.25-40.25-10.5-40.25-10.5C613.5,420.75,562.75,410.25,562.75,410.25z"/>
			<path style="fill:#90B8BA;" d="M286.06,333.88c0,0,36.05,9.311,56.23,14.72c0,0-12.25,36.03-25.89,29.25
				c-1.06-0.8-2.13-1.6-3.22-2.42c-0.01,0-0.03-0.02-0.04-0.029c-26.4-19.65-60.07-42.16-76.59-53.051
				c-0.06-0.04-0.11-0.08-0.14-0.1c-5.67-3.73-9.29-6.08-9.85-6.45c0.06-0.16,0.21-0.26,0.44-0.3c0,0,0.13,0.03,0.37,0.1l-0.08,0.21
				v0.011C230.34,316.94,274.23,333.13,286.06,333.88z"/>
			<path style="fill:#99BEBC;" d="M236.55,322.35c3.59,2.601,55.79,43.891,66.53,52.381c-2.14-1.54-4.69-2.801,0.42,4.52
				c7.5,10.75,0.25,1.25,0.25,1.25s4.03,10.98-3.23,11.49l-0.01,0.01c-4.11-4.01-6.89-6.63-7.51-7c0,0-68.84-64.14-66.44-69.2
				c0.56,0.37,4.18,2.72,9.85,6.45C236.44,322.27,236.49,322.31,236.55,322.35z"/>
		</g>
		<g>
		</g>
	</g>
</g>
</svg>
