<?xml version="1.0" encoding="utf-8"?>
<!-- Generator: Adobe Illustrator 16.0.0, SVG Export Plug-In . SVG Version: 6.00 Build 0)  -->
<!DOCTYPE svg PUBLIC "-//W3C//DTD SVG 1.1//EN" "http://www.w3.org/Graphics/SVG/1.1/DTD/svg11.dtd">
<svg version="1.1" id="图层_2" xmlns="http://www.w3.org/2000/svg" xmlns:xlink="http://www.w3.org/1999/xlink" x="0px" y="0px"
	 width="400px" height="500px" viewBox="0 0 400 500" style="enable-background:new 0 0 400 500;" xml:space="preserve">
<g>
	<g id="XMLID_1_">
		<g>
			<path style="fill:#516580;" d="M344.7,23c39.1,9.3,41.3,39.9,41.3,39.9c0,40.7-111.3,169.3-111.3,169.3
				c-20.7,29.3-38.7,57.3-38.7,57.3c-52.7,89.3-31.3,153-31.3,153c1.5,3,3.9,6.1,6.8,9.2c-19.7-13.6-33.9-54.9-33.9-54.9
				s-2-15.3-2.7-18c-0.7-2.7-3.3-21.3-3.3-21.3c1.3-8.7-4.7-22.7-4.7-22.7c2.7-24.7-9.3-26-9.3-26c-0.3-3.5,5.6-17.7,12.8-33.4
				c0.3-0.6,0.5-1.2,0.9-1.9c7.2-15.2,29.7-54,29.7-54c8.3-16.3,32-45.7,32-45.7c2.7-11.3,54.3-52,54.3-52
				c18.3-13.3,41-33.7,41-33.7c35.9-29,27.7-49.9,27.3-50.7c0,0,0,0,0,0c-2-8.5-10.1-12.4-11.3-12.9L344.7,23z M237.7,203.1
				c4.8,1.8,6.8-3,6.8-3c0-8-6.8-5.8-6.8-5.8C230.9,198.4,237.7,203.1,237.7,203.1z"/>
			<path style="fill:#6A94AC;" d="M333.6,74.7c20.3-17.2,23.9-29.3,22-37.4c0.4,0.9,8.6,21.7-27.3,50.7c0,0-22.7,20.3-41,33.7
				c0,0-51.7,40.7-54.3,52c0,0-23.7,29.3-32,45.7c0,0-22.5,38.8-29.7,54c10.4-22.8,23-48,23-48c28-62,96-111.3,96-111.3
				C304.2,104.7,333.6,74.7,333.6,74.7z"/>
			<path style="fill:#B8CDD2;" d="M355.6,37.3c1.9,8.1-1.7,20.2-22,37.4c0,0-29.3,30-43.3,39.3c0,0-68,49.3-96,111.3
				c0,0-12.6,25.2-23,48c-0.3,0.7-0.6,1.3-0.9,1.9c-7.2,15.7-13.1,29.9-12.8,33.4c0,0-11.3,2-12,23.3c0,0-9.3,24,0,28
				c0,0-7.4,5.8-1.9,22.2c0,0-2.7,70.4,40,112.9h-81.8c-1.1-1.3-2.2-2.5-3.3-3.8c-24.1-54.7-28.3-106.3-23.6-150
				c8.5-79.2,45.8-132.7,45.8-132.7C202.5,79.2,351.1,29.2,351.1,29.2l-6.9-4.9c0,0,0.1,0,0.1,0.1C345.5,24.9,353.6,28.8,355.6,37.3
				C355.6,37.3,355.6,37.3,355.6,37.3z"/>
			<path style="fill:#CEDEDD;" d="M344.2,24.3l6.9,4.9c0,0-148.6,49.9-230.2,179.5c0,0-37.4,53.5-45.8,132.7
				c0,0-13.1-192.6,247.9-319.8l0-1.3c8.3,0.2,15.5,1.1,21.7,2.6l-0.3,1.4C344.3,24.3,344.2,24.3,344.2,24.3z"/>
			<path style="fill:#E3EDE4;" d="M323,20.4l0,1.3C62,148.8,75.1,341.4,75.1,341.4c-4.7,43.7-0.5,95.3,23.6,150
				c-56.8-68-59.4-169-59.4-169C39.3,209.7,94,145.7,94,145.7c30.5-49,103.4-104.6,189.5-121.5C298.8,21.3,311.9,20.1,323,20.4z"/>
			<path style="fill:#598296;" d="M265.9,489.5c26,2,21,5.7,21,5.7h-22.4c-26.5-8.4-75.1-50.7-92.3-92.5c-20-48.7-14.7-94-14.7-94
				s12,1.3,9.3,26c0,0,6,14,4.7,22.7c0,0,2.7,18.7,3.3,21.3c0.7,2.7,2.7,18,2.7,18s14.2,41.3,33.9,54.9
				C228.8,470.2,265.9,489.5,265.9,489.5z"/>
			<path style="fill:#7F7C91;" d="M264.5,495.2h-26.9c-19.7-3.9-38.7-11.8-38.7-11.8c-7.5-3.1-22.8-16.9-32.7-33.7
				c-11.2-19-16.7-41-16.7-41c-7.3-6.7-3.3-20-3.3-20c-1.1-2.3-1.9-4.5-2.6-6.5c-5.5-16.4,1.9-22.2,1.9-22.2c-9.3-4,0-28,0-28
				c0.7-21.3,12-23.3,12-23.3s-5.3,45.3,14.7,94C189.4,444.5,238.1,486.8,264.5,495.2z"/>
			<path style="fill:#4F5D78;" d="M242.6,197.5c1,1.7,0.6,2.9-0.2,3.7c0.5-0.8,0-1.6,0-1.6c0.9-1.2-1.8-1.6-1.8-1.6
				c-2,0.5-0.9,2.4-0.9,2.4c-3.3,0.3-1.5-3.7-1.5-3.7c1-1.2,0.8-1.4,0.5-1.5C242.9,194.8,242.6,197.5,242.6,197.5z"/>
			<path style="fill:#798BA1;" d="M242.3,199.6c0,0,0.5,0.9,0,1.6c-0.3,0.3-0.6,0.5-0.9,0.7c-0.9,0.5-1.9,0.8-1.9,0.8
				c-6.6-3.2-1.4-7.4-1.4-7.4c0.2,0,0.3,0,0.5-0.1c0.3,0,0.5,0.3-0.5,1.5c0,0-1.7,4,1.5,3.7C240.4,200.3,241.2,200.1,242.3,199.6z"
				/>
			<path style="fill:#5B93AA;" d="M240.6,198c0,0,2.7,0.4,1.8,1.6c-1.1,0.5-2,0.7-2.6,0.8C239.7,200.4,238.6,198.5,240.6,198z"/>
			<path style="fill:#485B79;" d="M244.4,200.1c0,0-2,4.8-6.8,3c0,0-6.8-4.8,0-8.8C237.7,194.4,244.4,192.1,244.4,200.1z
				 M242.3,201.2c0.8-0.8,1.3-2,0.2-3.7c0,0,0.3-2.7-4-2.3c-0.2,0-0.5,0.1-0.5,0.1s-5.3,4.3,1.4,7.4c0,0,0.9-0.2,1.9-0.8
				C241.9,201.7,242.2,201.4,242.3,201.2z"/>
			<path style="fill:#536981;" d="M237.6,495.2h-54c-42.7-42.5-40-112.9-40-112.9c0.7,2,1.5,4.1,2.6,6.5c0,0-4,13.3,3.3,20
				c0,0,5.5,22,16.7,41c9.9,16.8,25.2,30.5,32.7,33.7C199,483.4,217.9,491.3,237.6,495.2z"/>
		</g>
		<g>
		</g>
	</g>
</g>
</svg>
