<?xml version="1.0" encoding="utf-8"?>
<!-- Generator: Adobe Illustrator 16.0.0, SVG Export Plug-In . SVG Version: 6.00 Build 0)  -->
<!DOCTYPE svg PUBLIC "-//W3C//DTD SVG 1.1//EN" "http://www.w3.org/Graphics/SVG/1.1/DTD/svg11.dtd">
<svg version="1.1" id="图层_2" xmlns="http://www.w3.org/2000/svg" xmlns:xlink="http://www.w3.org/1999/xlink" x="0px" y="0px"
	 width="800px" height="600px" viewBox="0 0 800 600" style="enable-background:new 0 0 800 600;" xml:space="preserve">
<g id="XMLID_1_">
	<g>
		<path style="fill:#7C92B4;" d="M418,293.25V290h2.5C420.5,290,419.24,293.15,418,293.25z"/>
		<polygon style="fill:#78C6DD;" points="459.5,366.83 418,367 418,366 490,366 558.33,366 559.67,366 596,366 673,366 702.3,366
			714,366 716,366 716.12,366 716.12,367 716,367 608.75,367 590,367 529.17,366.93 495.34,366.88 492.5,366.88 		"/>
		<path style="fill:#87C2D8;" d="M668.54,409.41c0.79-0.061,1.28-0.13,1.44-0.22C669.85,409.2,669.31,409.28,668.54,409.41z
			 M527.73,412.25c-9.53-2-79.23-6.75-79.23-6.75c-1.7-1.4-4.31-2.45-6.93-3.21L580,402h144.25l-45.75,1.17
			c-9,1.25,9.75,4.58,9.75,4.58c-0.75,3.25-21.08,5.09-21.08,5.09c-16.939-0.28-3.42-2.67,1.34-3.43
			c-11.08,0.83-78.49-0.891-78.49-0.891c-5.34-2.659-74.319-1.64-74.319-1.64c2.83,2,8.03,2.71,8.03,2.71
			c4.14,0,25.34,3.271,31.319,4.2C539.48,412.95,527.73,412.25,527.73,412.25z"/>
		<path style="fill:#88CDDE;" d="M580,402l-138.43,0.29c-0.011,0-0.011,0-0.011,0c-4.52-1.31-9.06-1.78-9.06-1.78l114.25,0.04
			c0,0,69.75,0.311,71,0c0,0,111.25-0.22,113.75-1.88c0,0,64.17,5.04,68.5,2.021v18.06c-1.5,0.75-79.75,0-79.75,0
			c-2.5-1.5-90-2.25-90-2.25c-6.59,0.8-47.07-1.18-75.15-2.7c-0.01-0.01-0.029-0.01-0.05-0.01c-5.979-0.93-27.18-4.2-31.319-4.2
			c0,0-5.2-0.71-8.03-2.71c0,0,68.979-1.02,74.319,1.64c0,0,67.41,1.721,78.49,0.891c-4.76,0.76-18.279,3.149-1.34,3.43
			c0,0,20.33-1.84,21.08-5.09c0,0-18.75-3.33-9.75-4.58l45.75-1.17H580z"/>
		<path style="fill:#E9EAE7;" d="M379.5,392l12.5,6c0.75-0.5,15,2.69,15,2.69l25.5-0.181c0,0,4.54,0.471,9.06,1.78c0,0,0,0,0.011,0
			c2.62,0.76,5.229,1.81,6.93,3.21c-5.25,3-31.5-0.25-31.5-0.25c-5.75,3-37.5-8.91-37.5-8.91C367.25,391.44,379.5,392,379.5,392z"/>
		<path style="fill:#6B638B;" d="M411.4,290H410l0.3-10.83c0,0,0.65-0.03,1.7-0.06v2.52V290H411.4z"/>
		<path style="fill:#E9EFF1;" d="M392,398l-12.5-6c0,0-12.25-0.56,0,4.34c0,0,31.75,11.91,37.5,8.91c0,0,26.25,3.25,31.5,0.25
			c0,0,69.7,4.75,79.23,6.75c0,0,11.75,0.7,27.319,1.54c0.021,0,0.04,0,0.05,0.01c28.08,1.521,68.561,3.5,75.15,2.7
			c0,0,87.5,0.75,90,2.25c0,0,78.25,0.75,79.75,0V431c0,0-138,18-141,25c0,0-115.55-12-131.27,11c0,0-138.42-2-137.07,29
			c0,0-66.55,2.86-60.61,33.93C233.57,525,0,525,0,525V415c3,0,306-7,306-7c-19.5-2-306,3.5-306,3.5v-10.81
			c0,2.02,172.5-2.021,172.5-2.021c-8.5-3.84-172.5,0-172.5,0V385h391.91l0.09,7c0,0-12.75,0.5-5.75,2c0,0,22.06,5.47,29.5,6.41
			c1.13,0.149,1.92,0.189,2.25,0.09l14.5,0.01L407,400.69C407,400.69,392.75,397.5,392,398z"/>
		<path style="fill:#406D81;" d="M561,361h61v-54h-1v-2h-60v1h-2v-4h64v60.93c-3.32,0.011-6.69,0.04-10.06,0.07H559v-3.5l2,0.5V361z
			"/>
		<path style="fill:#E1D5D2;" d="M800,573v27H0v-47c0-3,419-1,442,0C442,553,800,567,800,573z"/>
		<path style="fill:#E2DCD9;" d="M800,547v26c0-6-358-20-358-20c-23-1-442-3-442,0v-28c0,0,233.57,0,330.05,4.93
			c21.45,1.09,36.13,2.431,39.95,4.07C370,534,783.64,530,800,547z"/>
		<path style="fill:#E4E7E9;" d="M800,431v116c-16.36-17-430-13-430-13c-3.82-1.64-18.5-2.98-39.95-4.07
			C324.11,498.86,390.66,496,390.66,496c-1.35-31,137.07-29,137.07-29C543.45,444,659,456,659,456C662,449,800,431,800,431z"/>
		<path style="fill:#A3C1D2;" d="M800,396.34v4.351c-4.33,3.02-68.5-2.021-68.5-2.021s-12.84-2.12-15.33-2.31l-0.01-1.61
			C716.16,394.75,798.75,396.19,800,396.34z"/>
		<path style="fill:#DED2CB;" d="M800,395.55v0.79c-1.25-0.149-83.84-1.59-83.84-1.59v-4.21C723.96,390.92,798.34,394.64,800,395.55
			z"/>
		<path style="fill:#E7E3DE;" d="M800,385v10.55c-1.66-0.91-76.04-4.63-83.84-5.01l-0.01-5.54H800z"/>
		<polygon style="fill:#C7C8CB;" points="800,374 800,385 716.15,385 716.14,379 716.13,374 		"/>
		<path style="fill:#35ACC4;" d="M729,278v12h-11h-1H552H420.5H418h-1.33H412v-8.37c4.17-0.86,5.61,1.37,5.61,1.37
			c1.449,1.83,10.89,1,10.89,1c3.6-4.98-11.34-5.02-16.5-4.89V278h115h107.75h5.75h2h1.5h15h1h8h2h11h2H729z"/>
		<path style="fill:#82B0C4;" d="M716.17,396.36c2.49,0.189,15.33,2.31,15.33,2.31c-2.5,1.66-113.75,1.88-113.75,1.88
			c-1.25,0.311-71,0-71,0l-114.25-0.04L418,400.5c-0.33,0.1-1.12,0.06-2.25-0.09c0.99-0.22,0.92-1.74,0.92-1.74l86.66-0.34L612,398
			h5.75c0.05,0,0.09,0,0.13,0h98.29V396.36z"/>
		<rect x="717" y="290" style="fill:#A2DFE5;" width="1" height="9"/>
		<path style="fill:#8BD4E4;" d="M717,290v9h-1h-2l-151.67-1.33c-3-0.34-29,3.99-29,3.99l-53.66,0.01c-12-0.34,1.33,6.33,1.33,6.33
			c-3,0,0,12.67,0,12.67c0.82,1.36,4.18,2.08,7.88,2.46c-8.27-0.07-18.02,0.38-18.21,2.87c0,0-1,15,6.66,17c0,0-1,10.33,28.67,6.67
			l32-3.34c0,0-3,12.34,0,14c0,0,21.67,4.71,20.33,5.67H490h-72v-36.83v-35.92c1.24-0.1,2.5-3.25,2.5-3.25H552H717z"/>
		<path style="fill:#87C8D9;" d="M716.17,396.36V398h-98.29c-0.04,0-0.08,0-0.13,0c-2.45-0.01-22.59-0.21-36.75-0.36
			c-14-15.85,9-30.64,9-30.64h18.75l4,7.75c2,1.75,8.25,0.75,8.25,0.75c18-0.75,16,12.25,16,12.25c1.5,2.75,24.25,0.5,24.25,0.5
			c14,3,18.25-2.25,18.25-2.25c4-10.5,11.75-4.25,11.75-4.25c2.5,5,13.5-7.75,13.5-7.75c0.5-3,1.75-1.75,1.75-1.75L716,379h0.14
			l0.011,6l0.01,5.54v4.21L716.17,396.36z"/>
		<path style="fill:#62BDD9;" d="M716.13,374l0.01,5H716l-9.5-6.75c0,0-1.25-1.25-1.75,1.75c0,0-11,12.75-13.5,7.75
			c0,0-7.75-6.25-11.75,4.25c0,0-4.25,5.25-18.25,2.25c0,0-22.75,2.25-24.25-0.5c0,0,2-13-16-12.25c0,0-6.25,1-8.25-0.75l-4-7.75
			H716h0.12L716.13,374z"/>
		<polygon style="fill:#CBDDDD;" points="716,299 716.12,366 716,366 714,366 714,337.5 714,299 		"/>
		<path style="fill:#CBDDDD;" d="M714,337.5V366h-11.7l0.03-18.33c-0.5-15,4.84-7.34,4.84-7.34C713,362.83,714,337.5,714,337.5z"/>
		<path style="fill:#A7D9E2;" d="M488.88,323.13c-3.7-0.38-7.06-1.1-7.88-2.46c0,0-3-12.67,0-12.67c0,0-13.33-6.67-1.33-6.33
			l53.66-0.01c0,0,26-4.33,29-3.99L714,299v38.5c0,0-1,25.33-6.83,2.83c0,0-5.34-7.66-4.84,7.34L702.3,366H673c0,0,3-4-6.67-3
			c0,0-19.79-0.18-42.33-0.08V302h-1h-64v4v53.5v3.5h53.94c-26.73,0.25-53.44,1-53.271,3h-1.34c1.34-0.96-20.33-5.67-20.33-5.67
			c-3-1.66,0-14,0-14l-32,3.34c-29.67,3.66-28.67-6.67-28.67-6.67c-7.66-2-6.66-17-6.66-17
			C470.86,323.51,480.61,323.06,488.88,323.13z M488.9,323.13c5.369,0.54,11.43,0.37,11.43,0.37S495.03,323.17,488.9,323.13z"/>
		<path style="fill:#2DABC2;" d="M683,269v9h-2v-8c0,0-10.33,1.17-11,1.83V278h-2v-6c0,0-6,0.5-8,0.83V278h-1v-5
			c0,0-13.33,2.67-14.5,3.33L644,278h-1.5c0.33-2.17-2,0-2,0h-5.75c0,0,15.87-7.17,47.37-10.33L683,269z"/>
		<path style="fill:#A7D9E2;" d="M666.33,363c9.67-1,6.67,3,6.67,3h-77h-36.33c-0.17-2,26.54-2.75,53.271-3H623h1v-0.08
			C646.54,362.82,666.33,363,666.33,363z"/>
		<path style="fill:#6B8799;" d="M624,302v60.92c-0.33,0-0.67,0.01-1,0.01V302H624z"/>
		<path style="fill:#35AAC9;" d="M622,307v54h-61v-1v-54v-1h60v2H622z M620,360v-29h-25v28L620,360z M619,328v-21h-15.08H595v21h16
			H619z M590,360v-28.18l-28-0.49v28L590,360z M590,327v-19h-28v21l1-2H590z"/>
		<polygon style="fill:#4A6D83;" points="620,331 620,360 595,359 595,331 		"/>
		<path style="fill:#456981;" d="M619,307v21h-8v-2.2c1.48,0,2.41-0.8,2-3.13l-1.33-7.5c-2.05-4.93-5.29-6.02-7.75-6.02V307H619z"/>
		<path style="fill:#8CACC0;" d="M617.75,398H612l-108.67,0.33l-86.66,0.34c0,0,0.1-0.82,0.36-1.67H496l45.81,0.32
			c1.98,0.31,4.021,0.29,6.03,0.05L567,397.5c0,0,6.06,0.06,14,0.14C595.16,397.79,615.3,397.99,617.75,398z"/>
		<path style="fill:#5B788D;" d="M613,322.67c0.41,2.33-0.52,3.13-2,3.13c-3.31,0-9.33-3.97-9.33-3.97s-8.5-7.16-1.17-12
			c0,0,1.46-0.68,3.42-0.68c2.46,0,5.7,1.09,7.75,6.02L613,322.67z"/>
		<path style="fill:#476B84;" d="M611,325.8v2.2h-16v-21h8.92v2.15c-1.96,0-3.42,0.68-3.42,0.68c-7.33,4.84,1.17,12,1.17,12
			S607.69,325.8,611,325.8z"/>
		<polygon style="fill:#496B84;" points="590,331.82 590,360 562,359.33 562,331.33 		"/>
		<polygon style="fill:#496B84;" points="590,308 590,327 563,327 562,329 562,308 		"/>
		<path style="fill:#61BBD5;" d="M529.17,366.93L590,367c0,0-23,14.79-9,30.64c-7.94-0.08-14-0.14-14-0.14l-19.16-0.13
			c9.11-1.08,17.66-6.62,17.66-6.62c19.75-20-7.67-17.5-7.67-17.5S547,381,537.25,371.5L529.17,366.93z"/>
		<path style="fill:#79C4D8;" d="M557.83,373.25c0,0,27.42-2.5,7.67,17.5c0,0-8.55,5.54-17.66,6.62l-6.03-0.05
			c-4.76-0.721-9.18-3.33-12.06-9.32c0,0-14.75-13.86-34.5-5.68c0,0-19.75,0.93-9.5-12.32l9.59-3.12l33.83,0.05l8.08,4.57
			C547,381,557.83,373.25,557.83,373.25z"/>
		<polygon style="fill:#72C3DE;" points="561,306 561,360 559,359.5 559,306 		"/>
		<path style="fill:#6FBFD9;" d="M541.81,397.32L496,397h-78.97c0.22-0.68,0.529-1.38,0.97-1.67V367l41.5-0.17l33,0.05h2.84
			l-9.59,3.12c-10.25,13.25,9.5,12.32,9.5,12.32c19.75-8.181,34.5,5.68,34.5,5.68C532.63,393.99,537.05,396.6,541.81,397.32z"/>
		<path style="fill:#4496AD;" d="M412,279.11c5.16-0.13,20.1-0.09,16.5,4.89c0,0-9.44,0.83-10.89-1c0,0-1.44-2.23-5.61-1.37V279.11z
			"/>
		<path style="fill:#E3F1ED;" d="M417.03,397c-0.261,0.85-0.36,1.67-0.36,1.67l-8.229-2.229l0.31-1.141
			c0.57,0.19,1.25,0.28,1.25-0.3l0.88-72.83c0.351-0.09,7.12-1.62,7.12,7V366v1v28.33C417.56,395.62,417.25,396.32,417.03,397z"/>
		<path style="fill:#D4DEDB;" d="M418,293.25v35.92c0-8.62-6.77-7.09-7.12-7l0.29-24.52c0,0-2.04,1.33-2.53-1.94
			c6.091-0.81,11.13-2.43,8.03-5.71H418V293.25z"/>
		<path style="fill:#7B5171;" d="M401,296.35c-1.08,0.05-2.09,0.08-2.98,0.1c-2.09,0.05-3.55,0.04-3.79,0.04
			c6.31-0.66,18.77-2.25,18.77-4.49l-1.83-1.22c0.1-0.34,0.18-0.59,0.23-0.78h0.6h4.67c3.1,3.28-1.939,4.9-8.03,5.71
			c-0.01-0.06-0.02-0.13-0.029-0.2v0.2C406.08,296.04,403.38,296.24,401,296.35z"/>
		<path style="fill:#8996A0;" d="M416.67,398.67c0,0,0.07,1.521-0.92,1.74c-7.44-0.94-29.5-6.41-29.5-6.41c-7-1.5,5.75-2,5.75-2
			l16.44,4.44L416.67,398.67z"/>
		<path style="fill:#5489AC;" d="M411.17,290.78L413,292c0,2.24-12.46,3.83-18.77,4.49c-0.02,0-0.03,0-0.03,0
			c-1.85,0.19-3.16,0.31-3.47,0.33l-0.07-5.27C390.66,291.55,410.34,293.56,411.17,290.78z"/>
		<path style="fill:#7B5171;" d="M411.4,290c-0.051,0.19-0.131,0.44-0.23,0.78L410,290H411.4z"/>
		<path style="fill:#6A6875;" d="M410.88,322.17L410,395c0,0.58-0.68,0.49-1.25,0.3c-0.4-0.13-0.75-0.3-0.75-0.3l0.61-99.29
			c0.01,0,0.02,0,0.029,0c0.49,3.27,2.53,1.94,2.53,1.94L410.88,322.17z"/>
		<path style="fill:#687190;" d="M410,290l1.17,0.78c-0.83,2.78-20.51,0.77-20.51,0.77L410,290z"/>
		<polygon style="fill:#1BAFD9;" points="410.33,278 410.3,279.17 410,290 390.66,291.55 385,292 385,283.83 		"/>
		<path style="fill:#D5E0DD;" d="M391.91,385l-0.15-11l-1.03-77.18c0.31-0.02,1.62-0.14,3.47-0.33c0,0,0.01,0,0.03,0
			c0.24,0,1.7,0.01,3.79-0.04l0.17,95.63l2.81,1.09l7,1.83c0,0,0.35,0.17,0.75,0.3l-0.31,1.141L392,392L391.91,385z"/>
		<path style="fill:#68ACC1;" d="M408.61,295.71L408,395l-7-1.83v-96.82C403.38,296.24,406.08,296.04,408.61,295.71z"/>
		<path style="fill:#426E87;" d="M401,296.35v96.82l-2.81-1.09l-0.17-95.63C398.91,296.43,399.92,296.4,401,296.35z"/>
		<polygon style="fill:#C6C9CC;" points="391.76,374 391.91,385 0,385 0,374 137,374 		"/>
		<path style="fill:#E4E6E5;" d="M0,411.5c0,0,286.5-5.5,306-3.5c0,0-303,7-306,7V411.5z"/>
		<path style="fill:#E2E5E2;" d="M0,398.67c0,0,164-3.84,172.5,0c0,0-172.5,4.04-172.5,2.021V398.67z"/>
	</g>
	<g>
	</g>
</g>
</svg>
