<?xml version="1.0" encoding="utf-8"?>
<!-- Generator: Adobe Illustrator 16.0.0, SVG Export Plug-In . SVG Version: 6.00 Build 0)  -->
<!DOCTYPE svg PUBLIC "-//W3C//DTD SVG 1.1//EN" "http://www.w3.org/Graphics/SVG/1.1/DTD/svg11.dtd">
<svg version="1.1" id="图层_3" xmlns="http://www.w3.org/2000/svg" xmlns:xlink="http://www.w3.org/1999/xlink" x="0px" y="0px"
	 width="800px" height="300px" viewBox="0 0 800 300" style="enable-background:new 0 0 800 300;" xml:space="preserve">
<filter  id="AI_高斯模糊_7">
	<feGaussianBlur  stdDeviation="7"></feGaussianBlur>
</filter>
<g id="XMLID_1_" style="filter:url(#AI_高斯模糊_7);">
	<g>
		<path style="fill:#F8FCF9;" d="M782.173,207.148c3.34,18.67,0,2.67,0,2.67s-7.45,25.47-43.98,37.39
			c8.79-7.29,3.311-18.75-3.42-27.609c26.19-9.45,44.99-18.15,44.99-18.15C780.963,203.179,781.803,205.068,782.173,207.148z"/>
		<path style="fill:#EFF0DD;" d="M737.513,184.479c0,0,32.66,3.16,42.25,16.97c0,0-18.8,8.7-44.99,18.15
			c-5.54-7.3-11.93-12.83-11.93-12.83c-5.32,6.03-10.979,7.71-16.38,6.979c-7.72-15.619,7.05-31.939,7.05-31.939
			s7.71-7.07,5.46-11.75l2.53,4.42l8.01,2C729.513,176.479,738.173,177.148,737.513,184.479z"/>
		<path style="fill:#FFFFFF;" d="M734.772,219.599c6.73,8.859,12.21,20.319,3.42,27.609c-16.989,5.561-40.27,8.181-72.02,3.94
			c0,0-152.67,37.53-206.67,2.1c-3.58-2.35-7.17-4.35-10.78-6.04c0.95-0.569,1.9-1.109,2.86-1.619
			c10.79-0.08,17.75-0.811,18.92-2.48c2.06-2.93,6.43-5.05,12.4-6.53c3.229-0.319,5.81-0.41,7.439-0.43c-0.21,0,0.33,0,1.92,0
			c1.75,0,6.91,0,6.91,0c0.73,0,1.51,0,2.34,0c4.33,0,8.36-0.94,12.05-2.49c41.761-0.41,97.92,8.01,97.92,8.01
			C645.843,247.828,697.713,232.969,734.772,219.599z"/>
		<path style="fill:#F8FCF9;" d="M706.463,213.748c5.4,0.73,11.06-0.949,16.38-6.979c0,0,6.39,5.53,11.93,12.83
			c-37.06,13.37-88.93,28.229-123.29,22.069c0,0-56.159-8.42-97.92-8.01c1.891-0.8,3.69-1.75,5.41-2.819l0.2,0.31h49
			c33.18,4,129.04-20.83,129.04-20.83C700.113,212.038,703.243,213.318,706.463,213.748z"/>
		<path style="fill:#FFFFFF;" d="M713.513,181.809c0,0-14.77,16.32-7.05,31.939c-3.22-0.43-6.35-1.71-9.25-3.43
			c-9.76-5.78-17.04-16.5-17.04-16.5c4-20.67-16-19.33-16-19.33c-9.33-24,12.67-16.67,12.67-16.67
			c27.99-21.42-15.33-31.31-15.33-31.31c-14,0.02-12.649-22.69-12.649-22.69c-3.99-60-67.99-30-67.99-30l-14.7-3.33l-8,13.33
			l-8.66-19.99c17.19-6.449,95.33-31.439,106,42.65c0,0,28.66-4,38.66,26.67c0,0,20,9.33,0,26
			C694.173,159.148,712.843,167.809,713.513,181.809z"/>
		<path style="fill:#FFF2DB;" d="M664.173,174.488c0,0,20-1.34,16,19.33c0,0,7.28,10.72,17.04,16.5c0,0-95.86,24.83-129.04,20.83
			c14-1,12.67-24.19,12.67-24.19l-5.33-11.14l-9.34-2.67l-8-3.97l4.8-11.15c0.36-0.649,0.66-1.34,0.891-2.06l2.31-5.37l-2.28-0.72
			c-0.34-1.211-0.899-2.49-1.72-3.86c-8.66-14.46,7.34-8.2,4-18.43c-3.33-10.221,2-11.971,2-11.971s13.34-3.8,12.7-15.13
			c22.7,74.66,36.64,56.9,36.64,56.9c-0.67,15.569,11.44,7.43,11.44,7.43c-0.561-16.99,12.56,0,12.56,0
			c6.66,0.34,7.351-5.59,7.351-5.59c-7.32,3.42-9.96-13.21-9.96-13.21s9.27,0.46,9.939-4.5c0.67-4.97-19.89-11.66-19.89-11.66
			h-0.011c-2.77-8.02-8.1-14.24-8.1-14.24c-1.13-0.41-2.75-1-4.689-1.729c19.46-27.96-15.271-37-15.271-37
			c2.25-8.12-8.71-5.74-8.71-5.74l-22.66,2.67l11.36-20c0,0,64-30,67.99,30c0,0-1.351,22.71,12.649,22.69
			c0,0,43.32,9.89,15.33,31.31C676.843,157.818,654.843,150.488,664.173,174.488z"/>
		<path style="fill:#B6E6DE;" d="M628.953,149.858c0,0,20.56,6.69,19.89,11.66c-0.67,4.96-9.939,4.5-9.939,4.5
			s2.64,16.63,9.96,13.21c0,0-0.69,5.93-7.351,5.59c0,0-13.12-16.99-12.56,0c0,0-12.11,8.14-11.44-7.43
			c14.45-7.28,14.55-18.54,11.43-27.53H628.953z"/>
		<path style="fill:#F8FCF9;" d="M628.942,149.858c3.12,8.99,3.021,20.25-11.43,27.53c0,0-13.939,17.76-36.64-56.9
			c0,0,23.54,9.03,35.28,13.4c1.939,0.729,3.56,1.319,4.689,1.729C620.843,135.618,626.173,141.839,628.942,149.858z"/>
		<path style="fill:#CEE8DB;" d="M600.883,96.889c0,0,34.73,9.04,15.271,37c-11.74-4.37-35.28-13.4-35.28-13.4
			c-0.63-11.34,7.97-3.34,17.3-18C599.623,100.219,600.473,98.379,600.883,96.889z"/>
		<path style="fill:#A3E5E6;" d="M592.173,91.148c0,0,10.96-2.38,8.71,5.74c-0.41,1.49-1.26,3.33-2.71,5.6
			c-9.33,14.66-17.93,6.66-17.3,18c0.64,11.33-12.7,15.13-12.7,15.13s-5.33,1.75-2,11.971c3.34,10.229-12.66,3.97-4,18.43
			c0.82,1.37,1.38,2.649,1.72,3.86l-11.72-3.73v-8v-15c-9-12.67-32.65,4.55-32.65,4.55l-13.319,23l-42.65-17.43l0.12-0.34
			c2.91,1.12-4.43-31.19,19.17-35.78l2.67,1.33c0,0,16.66-21.33,30.66-16.67c0,0,6-37.33,30-36.66c0,0,1.2-0.52,3.34-1.32
			l8.66,19.99l8-13.33l14.7,3.33l-11.36,20L592.173,91.148z"/>
		<path style="fill:#84E2E6;" d="M580.843,206.958c0,0,1.33,23.19-12.67,24.19h-49l-0.2-0.31c13.96-8.75,21.87-25.19,21.87-25.19
			c-4.66-28.67-23.33-11.83-23.33-11.83c-22.66,17.33-28.66,3.99-28.66,3.99c-15.33-33.33-14.66-1.351-14.66-1.351
			c-12.659,12-25.31-3.35-25.31-3.35c6.67-33.33-17.96-3.31-17.96-3.31c-2-7.261-30.76-0.79-30.76-0.79
			c0.11,0.069,0.22,0.149,0.32,0.22c-0.15-0.021-0.31-0.03-0.48-0.05c-14.18-1.3,5.51-20.03,2.17-20.03c-3.33,0,0,0-11-3.13
			s12.34-15.54,12.34-15.54l3.66-7.33h35l0.01-0.03c7.46,2.05,14.69,5.15,21.33,9.73c0.061,0.04,0.11,0.069,0.16,0.08l-0.12,0.34
			l42.65,17.43l13.319-23c0,0,23.65-17.22,32.65-4.55v15v8l11.72,3.73c0.66,2.3,0.54,4.31-0.029,6.09l-0.891,2.06
			c-3.1,5.68-10,8.57-4.8,11.15l8,3.97l9.34,2.67L580.843,206.958z"/>
		<path style="fill:#A9E4DE;" d="M540.843,205.648c0,0-7.91,16.44-21.87,25.19c-1.72,1.069-3.52,2.02-5.41,2.819
			c-6.79,0.061-13.199,0.36-18.92,0.971c-7.51-2.601-21.939-7.87-24.14-10.811c-2.99-4-17.66,1.89-20.33,6.95
			c-2.66,5.05-23.33-20.95-23.33-20.95s-8.07-7.71-23.08-18.31c-0.03-1.15-0.93-1.971-3.27-2.28c0,0,0,0-0.01,0
			c-0.1-0.07-0.21-0.15-0.32-0.22c0,0,28.76-6.471,30.76,0.79c0,0,24.63-30.021,17.96,3.31c0,0,12.65,15.35,25.31,3.35
			c0,0-0.67-31.979,14.66,1.351c0,0,6,13.34,28.66-3.99C517.513,193.818,536.183,176.979,540.843,205.648z"/>
		<path style="fill:#DAEAE2;" d="M309.353,207.938c-1.64-0.09-14.76-0.92,2.16-2.9c1.48-0.17,2.66-0.47,3.59-0.87l2.86,0.87
			c-3.68,17.45,48.88,8.11,48.88,8.11c1.96-16.63,18.89-11.54,27.77-7.65c-0.32,1.69,0.97,2.771,5.39,2.681
			c0,0-2.16-1.261-5.39-2.681c0.69-3.72,9.23-10.42,9.15-13.989c15.01,10.6,23.08,18.31,23.08,18.31s20.67,26,23.33,20.95
			c2.67-5.061,17.34-10.95,20.33-6.95c2.2,2.94,16.63,8.21,24.14,10.811c-4.359,0.46-8.31,1.1-11.739,1.949
			c-8.03,0.801-20.061,3.011-31.32,9.011c-2.061,0.02-4.25,0.01-6.561-0.021c-22.729-9.43-45.75-7.38-66.729-3.59
			c-60.82-4.6-129.26-11.95-129.26-11.95c19.03-3.979,44.48-22.88,44.48-22.88L309.353,207.938z"/>
		<path style="fill:#E5F3E5;" d="M442.183,143.118l-0.01,0.03h-35l-3.66,7.33c0,0-23.34,12.41-12.34,15.54s7.67,3.13,11,3.13
			c3.34,0-16.35,18.73-2.17,20.03c0.17,0.02,0.33,0.029,0.48,0.05c0.01,0,0.01,0,0.01,0c1.13,0.78,2.22,1.54,3.27,2.28
			c0.08,3.569-8.46,10.27-9.15,13.989c-8.88-3.89-25.81-8.979-27.77,7.65c0,0-52.56,9.34-48.88-8.11l-2.86-0.87
			c10.43-4.47-10.93-21.789-10.93-21.789c-8.66,13.22-12.66-0.15-12.66-0.15c15.33,1.75,3.33-13.08,3.33-13.08
			c-7.92,10.18-25.93-7.96-31.2-13.68c0.21-0.5,0.39-1.051,0.53-1.65c3.34-14-2,0-2,0s0.53,0.63,1.47,1.65
			c-4.59,11.17-24.14-1.65-24.14-1.65s-3.33-17.34,13.34-14.67c0.37,0.06,0.73,0.12,1.07,0.17c-0.7,1.53-1.07,2.5-1.07,2.5
			s15.92,0,1.07-2.5c3.13-6.92,12.8-25.39,24.26-18.84c0,0,12-24,30.67,2c0,0,13.33,6,13.33,13.34c0,0,0.72-0.09,1.99-0.189
			c-3.83,1.97-4.26,6.55-3.56,11.039l-0.28,0.051l-22.15,14.8l19.79,28.37c0,0,32.21-20.95,38.88-14.51l10-33.221
			C383.933,142.259,414.692,135.549,442.183,143.118z"/>
		<path style="fill:#E8F1DB;" d="M378.293,241.979c20.98-3.79,44-5.84,66.729,3.59C427.823,245.339,403.723,243.898,378.293,241.979
			z"/>
		<path style="fill:#93E3E8;" d="M366.843,142.158l-10,33.221c-6.67-6.44-38.88,14.51-38.88,14.51l-19.79-28.37l22.15-14.8
			l0.28-0.051c0.88,5.65,3.57,11.15,3.57,11.15l32.67-17.34C359.143,141.679,362.563,142.129,366.843,142.158z"/>
		<path style="fill:#E8F1DB;" d="M356.843,140.479l-32.67,17.34c0,0-2.69-5.5-3.57-11.15c-0.7-4.489-0.27-9.069,3.56-11.039
			C329.663,135.168,345.463,134.519,356.843,140.479z"/>
		<path style="fill:#EFF0D9;" d="M378.293,241.979c-24.92,4.49-46.95,11.439-62.12,4.51c-30.67-14-177.33,16-203.33-14
			c-5.55-6.399-12.81-7.72-20.87-6.7c-19.51-24.67,17.53-17.84,17.53-17.84c10.82,28.22,42.67,0.2,42.67,0.2
			c0.9,0.07,1.71,0,2.43-0.2c2.9-0.76,4.42-3.5,5.13-6.92c6.08-6.58,16.55-12.81,25.77,7.15c0,0,16,4.97,26,8.97
			c9.26,3.7,3.66,0.55,2.78,0.06l17.23,8.591c3.57,5.069,10.05,5.8,17.52,4.229C249.033,230.028,317.473,237.379,378.293,241.979z"
			/>
		<path style="fill:#93E3E5;" d="M304.173,182.379c0,0,21.36,17.319,10.93,21.789c-0.93,0.4-2.11,0.7-3.59,0.87
			c-16.92,1.98-3.8,2.811-2.16,2.9l-15.84-0.79c0,0-25.45,18.9-44.48,22.88c-7.47,1.57-13.95,0.84-17.52-4.229l-17.23-8.591
			l-0.11-0.06l-12.67-17.33l-15.82,0.66c0,0-5.26-1.13,1.26-7.59c0.6-0.33,1.24-0.891,1.9-1.74l17.33-1.33c0,0-3.33-26,33.33-36
			c0,0,19.55,12.82,24.14,1.65c5.27,5.72,23.28,23.859,31.2,13.68c0,0,12,14.83-3.33,13.08
			C291.513,182.229,295.513,195.599,304.173,182.379z"/>
		<path style="fill:#89E2E8;" d="M214.283,217.208c0.88,0.49,6.48,3.641-2.78-0.06c-10-4-26-8.97-26-8.97
			c-9.22-19.96-19.69-13.73-25.77-7.15c1.59-7.68-0.89-18.8-0.89-18.8l12.28-6.85c5.04,3.149,9.72,7.569,9.72,13.1
			c0,0,2.45,6.38,6.1,4.41c-6.52,6.46-1.26,7.59-1.26,7.59l15.82-0.66l12.67,17.33L214.283,217.208z"/>
		<path style="fill:#BFE9E3;" d="M171.123,175.379l-12.28,6.85c0,0,2.48,11.12,0.89,18.8c-3.16,3.41-5.13,6.92-5.13,6.92
			c-0.72,0.2-1.53,0.271-2.43,0.2v-21c0-14-21,3-21,3v8.33c-31,17.34-39.19-44.5-39.19-44.5l-0.1-0.34
			c6.07-1.91,13.15-3.851,15.3-3.311c4,1,4.99-6.18,4.99-6.18h11c0,0,13,13.67,6.33,16.33c0,0,14.67,3.17,15.34,9.25
			c0,0,7.33-26.08,14,0C158.843,169.729,165.233,171.688,171.123,175.379z"/>
		<path style="fill:#98E4E5;" d="M152.173,187.148v21c0,0-31.85,28.02-42.67-0.2c0,0-37.04-6.83-17.53,17.84
			c-8.53,1.091-17.96,4.801-27.19,7.88c-3.38-26.14-39.53-51.439-39.53-51.439s19.96-32.04,47.96-24.04c0,0,0.98,15.41,8.98-1.3
			c0,0,4.48-1.61,9.69-3.25l0.1,0.34c0,0,8.19,61.84,39.19,44.5v-8.33C131.173,190.148,152.173,173.148,152.173,187.148z"/>
		<path style="fill:#C7E9DD;" d="M64.783,233.668c-22.91,7.66-44.61,11.461-48.44-38.35l8.91-13.09
			C25.253,182.229,61.403,207.528,64.783,233.668z"/>
	</g>
</g>
</svg>
