<?xml version="1.0" encoding="utf-8"?>
<!-- Generator: Adobe Illustrator 16.0.0, SVG Export Plug-In . SVG Version: 6.00 Build 0)  -->
<!DOCTYPE svg PUBLIC "-//W3C//DTD SVG 1.1//EN" "http://www.w3.org/Graphics/SVG/1.1/DTD/svg11.dtd">
<svg version="1.1" id="图层_4" xmlns="http://www.w3.org/2000/svg" xmlns:xlink="http://www.w3.org/1999/xlink" x="0px" y="0px"
	 width="800px" height="300px" viewBox="0 0 800 300" style="enable-background:new 0 0 800 300;" xml:space="preserve">
<filter  id="AI_高斯模糊_7">
	<feGaussianBlur  stdDeviation="7"></feGaussianBlur>
</filter>
<g id="XMLID_3_" style="filter:url(#AI_高斯模糊_7);">
	<g>
		<path style="fill:#DEFAFD;" d="M740.331,173.33c15.33,3.33,59.33,42,46.66,43.33c-12.66,1.34-71.33,4.17-71.33,4.17
			c-24.011-0.561-45.04-2.25-65.66-4.01c-7.65-8.66-33.16-11.82-36.34-11.82c-18.95,0-143.34-27.67-143.34-27.67
			c-7.33,1.33-56.95-8.061-56.95-8.061c4-4.35,8.52-9.789,13.62-16.59v-0.16c64.399,0.58,165.08,6.761,184,8.141
			C638.331,162.66,724.991,170,740.331,173.33z"/>
		<path style="fill:#ACEDF4;" d="M426.991,152.52v0.16c-5.101,6.801-9.62,12.24-13.62,16.59c-21.12,22.95-27.71,15.391-27.71,15.391
			c-4-7.33-12.67-28.66-12.67-28.66C376.891,153.12,398.351,152.27,426.991,152.52z"/>
		<path style="fill:#CEF9FB;" d="M434.311,220c-78.44,3.48-133.83-5.11-159.31-4c-30.67,1.33-196.67-4.67-196.67-4.67
			s6.41-29.18,124.65-23.94C255.231,189.71,329.301,198.75,434.311,220z"/>
		<path style="fill:#CAF9FD;" d="M554.991,211.94c-8.74,0.09-17.891,0.359-27.57,0.859c-48.46-2.74-141.76-15.84-141.76-15.84
			c-37.69-13.8-36.52-42.26-35.23-50.82l3.31-1.79c2.52,0.62,3.92,0.98,3.92,0.98c4.67,14,15.33,10.67,15.33,10.67
			s8.67,21.33,12.67,28.66c0,0,6.59,7.56,27.71-15.391c0,0,49.62,9.391,56.95,8.061c0,0,124.39,27.67,143.34,27.67
			c3.18,0,28.689,3.16,36.34,11.82C620.091,214.26,591.051,211.56,554.991,211.94z"/>
		<path style="fill:#9FE5EB;" d="M350.911,143.65c0,0-0.24,0.899-0.48,2.489l-19.44,10.521c-9.33,6-15.33-4.66-21.33,1.29
			c-6,5.96-19.33,6.05-16,0c3.33-6.04-8.91-28.87-12.67-17.95c-3.76,10.92-20-0.67-20-0.67c-29.33,32.66-21.33-2.67-21.33-2.67
			s-12,12.67-14.67,12.67c-2.66,0-6.66-26-6.66-26l-30.67,1.33l11.33,28.02c-6.66,17.351-32-13.67-32-13.67
			c-45.33,23.01-62.66-5.01-52.66-8.35c10-3.33,10-23.33,10-23.33l-53.34,28c-4.66-2.67-40.66,6.67-42.66,2.67
			s-13.53-11.7-13.53-11.7c13.13-20.39,98.19-31.64,98.19-31.64c69.34-34.66,113.34,30.67,113.34,30.67
			C233.201,115.6,325.031,137.31,350.911,143.65z"/>
		<path style="fill:#D0F8FA;" d="M202.981,187.39c-118.24-5.239-124.65,23.94-124.65,23.94c-50.67-10-45.33-22.67-45.33-22.67
			c-11.17-5.17-17.08-12.19-19.93-19.391C13.071,169.27,187.631,164.79,202.981,187.39z"/>
		<path style="fill:#D7F8F9;" d="M14.801,126.3c0,0,11.53,7.7,13.53,11.7s38-5.34,42.66-2.67l53.34-28c0,0,0,20-10,23.33
			c-10,3.34,7.33,31.359,52.66,8.35c0,0,25.34,31.021,32,13.67l-11.33-28.02l30.67-1.33c0,0,4,26,6.66,26
			c2.67,0,14.67-12.67,14.67-12.67s-8,35.33,21.33,2.67c0,0,16.24,11.59,20,0.67c3.76-10.92,16,11.91,12.67,17.95
			c-3.33,6.05,10,5.96,16,0c6-5.95,12,4.71,21.33-1.29l19.44-10.521c-1.29,8.561-2.46,37.021,35.23,50.82
			c0,0,93.3,13.1,141.76,15.84c-13.08,0.67-27.13,1.76-42.42,3.391c-17.811,1.89-34.72,3.1-50.68,3.81h-0.011
			c-105.01-21.25-179.08-30.29-231.33-32.61c-15.35-22.6-189.91-18.12-189.91-18.12c-6.18-15.569,1.93-31.939,1.93-31.939
			C12.411,133.4,12.591,129.72,14.801,126.3z"/>
	</g>
</g>
</svg>
