<?xml version="1.0" encoding="utf-8"?>
<!-- Generator: Adobe Illustrator 16.0.0, SVG Export Plug-In . SVG Version: 6.00 Build 0)  -->
<!DOCTYPE svg PUBLIC "-//W3C//DTD SVG 1.1//EN" "http://www.w3.org/Graphics/SVG/1.1/DTD/svg11.dtd">
<svg version="1.1" id="图层_3" xmlns="http://www.w3.org/2000/svg" xmlns:xlink="http://www.w3.org/1999/xlink" x="0px" y="0px"
	 width="800px" height="300px" viewBox="0 0 800 300" style="enable-background:new 0 0 800 300;" xml:space="preserve">
<filter  id="AI_高斯模糊_7">
	<feGaussianBlur  stdDeviation="7"></feGaussianBlur>
</filter>
<g id="XMLID_2_" style="filter:url(#AI_高斯模糊_7);">
	<g>
		<path style="fill:#CAF8FB;" d="M651.067,205.5c0,0,19,20.061-54.4,19.41c2.711-1.32,5.29-2.75,7.73-4.3
			c7.15-4.54,3.61-11.26-4.95-18.021C617.478,201.509,642.478,201,651.067,205.5z"/>
		<path style="fill:#CAF8FB;" d="M596.667,224.91c-16.47,8.03-37.75,11.97-61.819,13.13c11.8-6.729,26.37-17.6,44.64-33.88
			c0,0,8.601-0.9,19.96-1.57c8.561,6.761,12.101,13.48,4.95,18.021C601.957,222.16,599.378,223.589,596.667,224.91z"/>
		<path style="fill:#E6F9FA;" d="M579.487,190.629c7.66,3.681,14.74,7.83,19.96,11.96c-11.359,0.67-19.96,1.57-19.96,1.57
			c-18.27,16.28-32.84,27.15-44.64,33.88c-14.73,0.73-30.49,0.41-46.84-0.649c-10.53-12.33-16.41-33.101-31.601-43.23
			c-11.59-7.72-20.529-8.689-29.59-6.57c0,0-116.41-7.43-158.41-2.069c-42,5.37-16.67,10.64-51.92,1.979
			c-35.25-8.67-25.71,14.021-25.71,14.021c-7.33-5.84-13.83-11.221-19.04-15.36c-19.41-15.4-57.34,4-57.34,4
			c-11.33-10.67-8.67-24.67-8.67-24.67c-22.66-20,7.34-53.33,7.34-53.33c-2.11-3.42-2.15-6.28-0.67-8.67c0,0,41.33,15.99,61.33,0
			c0,0,5.34-5.33,26,10c0,0,24.01,16,47.34,3.33c0,0,13.33-12.24,22,4.88c0,0,8,28.88,20,0c0,0,6.66-16.73,18.66-3.14
			c0,0,8.36,8.81,12.85-2.12h0.01c1.34-0.28,2.48-0.28,2.48-0.28c-0.67,26,18.66,1.33,18.66,1.33c4.67-5.33,16.67-1.33,16.67-1.33
			c0-2.84,5.85-3.04,11.33-2.6c0,0,0.67,33.36,24,20.98c0,0,31.51-0.24,33.09-15.98c4.65,3.44,7.58,6.26,7.58,6.26
			c4.67,20,16.67,5.34,16.67,5.34c11.33-4,22,37.33,22,37.33c18.66-4,62.66,10.67,62.66,10.67
			C544.878,177.27,563.438,182.919,579.487,190.629z"/>
		<path style="fill:#C1F3F7;" d="M579.487,190.629c-16.05-7.71-34.609-13.359-43.76-12.47c0,0-44-14.67-62.66-10.67
			c0,0-10.67-41.33-22-37.33c0,0,25.33-15.34,54.67,0C505.737,130.16,563.897,173.77,579.487,190.629z"/>
		<path style="fill:#C1F3F7;" d="M488.008,237.39c16.35,1.06,32.109,1.38,46.84,0.649C509.718,252.41,497.117,248.07,488.008,237.39
			z"/>
		<path style="fill:#C1F3F7;" d="M456.407,194.16c15.19,10.13,21.07,30.9,31.601,43.23c-44.801-2.86-93.96-11.2-137.96-18.73
			c14.34-6.75,27.39-12.9,37.02-15.83c17-5.17,28.47-12.6,39.75-15.24C435.878,185.47,444.817,186.44,456.407,194.16z"/>
		<path style="fill:#98E4EB;" d="M426.817,118.56c-1.58,15.74-33.09,15.98-33.09,15.98c-23.33,12.38-24-20.98-24-20.98
			c4.82,0.38,9.34,1.26,9.34,1.26C393.308,97.73,415.327,110.05,426.817,118.56z"/>
		<path style="fill:#D1F8FD;" d="M268.407,185.52c42-5.36,158.41,2.069,158.41,2.069c-11.28,2.641-22.75,10.07-39.75,15.24
			c-9.63,2.93-22.68,9.08-37.02,15.83c-43.98-7.51-82.8-14.22-106.98-13.84c-25.02,0.39-39.27-1.74-52.29-3.3
			c0,0-9.54-22.69,25.71-14.021C251.737,196.16,226.407,190.89,268.407,185.52z"/>
		<path style="fill:#A2E6ED;" d="M316.397,119.49c0.38-1.87,2.44-2.69,4.18-3.05c-4.49,10.93-12.85,2.12-12.85,2.12
			c-12-13.59-18.66,3.14-18.66,3.14c-12,28.88-20,0-20,0c-8.67-17.12-22-4.88-22-4.88c-23.33,12.67-47.34-3.33-47.34-3.33
			c-20.66-15.33-26-10-26-10c-20,15.99-61.33,0-61.33,0c8.25-13.44,64-12,64-12c0.67-4.67,37.33-14,37.33-14
			c53.34-19.33,70.67,28.67,70.67,28.67c4-7.34,20.67-4.67,20.67-4.67C305.067,112.16,315.728,122.82,316.397,119.49z"/>
		<path style="fill:#CAF6FD;" d="M350.047,218.66c-31.32,14.75-68.82,32.36-90.31,25.5c-22.92-7.31-49-26.71-68.96-42.64
			c13.02,1.56,27.27,3.689,52.29,3.3C267.248,204.44,306.067,211.15,350.047,218.66z"/>
		<path style="fill:#CAF6FD;" d="M171.737,186.16c5.21,4.14,11.71,9.521,19.04,15.36c-9.18-1.101-17.74-1.91-29.05-1.36
			c-27.33,1.33-36,0.66-47.33-10C114.397,190.16,152.328,170.759,171.737,186.16z"/>
	</g>
</g>
</svg>
