<?xml version="1.0" encoding="utf-8"?>
<!-- Generator: Adobe Illustrator 16.0.0, SVG Export Plug-In . SVG Version: 6.00 Build 0)  -->
<!DOCTYPE svg PUBLIC "-//W3C//DTD SVG 1.1//EN" "http://www.w3.org/Graphics/SVG/1.1/DTD/svg11.dtd">
<svg version="1.1" id="图层_4" xmlns="http://www.w3.org/2000/svg" xmlns:xlink="http://www.w3.org/1999/xlink" x="0px" y="0px"
	 width="500px" height="200px" viewBox="0 0 500 200" style="enable-background:new 0 0 500 200;" xml:space="preserve">
<filter  id="AI_高斯模糊_7">
	<feGaussianBlur  stdDeviation="7"></feGaussianBlur>
</filter>
<g id="XMLID_1_" style="filter:url(#AI_高斯模糊_7);">
	<g>
		<path style="fill:#CBF8FE;" d="M412.605,106.838c44,16,61,34-69.5,29.5c-7.05-0.24-13.93-0.48-20.63-0.72c-0.01,0-0.01,0-0.01,0
			c-26.311-4.42-42.851-8.44,2.64-11.28c20.81-1.3,34.23-5.36,42.88-9.96c0.04-0.01,0.07-0.03,0.101-0.04
			c0.96-0.43,1.76-0.89,2.409-1.38c0.011-0.01,0.021-0.01,0.03-0.021c10.57-6.43,12.64-13.419,13.01-15.18
			C392.645,100.059,402.165,103.039,412.605,106.838z"/>
		<path style="fill:#CCF5F8;" d="M152.045,105.088l-0.18,1.49c-63.07-8.07-106.19,9.51-106.19,9.51
			c-6.46-1.66-10.59-5.42,11.93-13.75c0,0,20.5-6,22.5-16.5c0,0,43-11.5,72.5,0c0,0,88.5,8.5,138.5,6
			c38.13-1.91,63.17-1.49,92.43,5.92c-0.37,1.76-2.439,8.75-13.01,15.18c-0.01,0.011-0.02,0.011-0.03,0.021
			c-0.76,0.46-1.56,0.92-2.409,1.38c-0.03,0.01-0.061,0.03-0.101,0.04C338.365,127.208,169.565,107.208,152.045,105.088z"/>
		<path style="fill:#E2F9FA;" d="M152.045,105.088c17.52,2.12,186.32,22.12,215.94,9.29c-8.649,4.6-22.07,8.66-42.88,9.96
			c-45.49,2.84-28.95,6.86-2.64,11.28c-32.24-1.141-60.45-2.2-84.42-3.141h-0.01c-31.02-14.949-60.27-22.59-86.17-25.899
			L152.045,105.088z"/>
		<path style="fill:#C6F7FA;" d="M238.035,132.478l-0.08-0.01l-192.28-16.38c0,0,43.12-17.58,106.19-9.51
			C177.765,109.888,207.015,117.529,238.035,132.478z"/>
		<path style="fill:#C7F2F5;" d="M45.675,116.088l192.28,16.38c-63.22-2.479-96.85-4.13-96.85-4.13s-86-7.5-86.5-11
			C54.605,117.338,49.685,117.119,45.675,116.088z"/>
	</g>
</g>
</svg>
