<?xml version="1.0" encoding="utf-8"?>
<!-- Generator: Adobe Illustrator 16.0.0, SVG Export Plug-In . SVG Version: 6.00 Build 0)  -->
<!DOCTYPE svg PUBLIC "-//W3C//DTD SVG 1.1//EN" "http://www.w3.org/Graphics/SVG/1.1/DTD/svg11.dtd">
<svg version="1.1" id="图层_3" xmlns="http://www.w3.org/2000/svg" xmlns:xlink="http://www.w3.org/1999/xlink" x="0px" y="0px"
	 width="220px" height="220px" viewBox="0 0 220 220" style="enable-background:new 0 0 220 220;" xml:space="preserve">
<g>
	<polygon style="fill:#FFC98B;" points="190.557,26.108 190.557,28.748 177.896,28.748 177.896,7.208 180.837,7.208 180.837,26.108
			"/>
	<path style="fill:#FFC98B;" d="M186.957,71.648h-1.859v-2.16h1.859v-3.3l2.76-1.08v4.38h4.32v2.16h-4.32v7.86
		c0,1.32,0.24,2.28,0.721,2.82c0.42,0.54,1.14,0.84,2.1,0.84c0.72,0,1.439-0.18,2.22-0.54l0.42,2.46c-1.14,0.3-2.399,0.42-3.78,0.42
		c-1.26,0-2.279-0.48-3.18-1.38c-0.84-0.9-1.26-2.1-1.26-3.54V71.648L186.957,71.648z"/>
	<path style="fill:#85EBD3;" d="M188.917,121.988h-5.8v-1.4h11v1.4h-4.04c0.271,0.18,0.5,0.479,0.71,0.89
		c0.18,0.39,0.27,0.81,0.27,1.25c0,0.84-0.27,1.49-0.8,1.97c-0.569,0.44-1.31,0.68-2.229,0.68h-4.91v-1.369h4.91
		c0.56,0,1.039-0.15,1.359-0.44c0.33-0.27,0.51-0.69,0.51-1.19c0-0.329-0.09-0.689-0.299-1.02
		C189.387,122.438,189.188,122.168,188.917,121.988z"/>
	<path style="fill:#85EBD3;" d="M180.057,112.298h10.851v1.39h-0.62c0.5,0.511,0.77,1.16,0.77,1.91c0,1.101-0.33,1.961-1.01,2.59
		c-0.689,0.621-1.699,0.92-3.029,0.92c-1.19,0-2.181-0.33-2.92-0.949c-0.74-0.631-1.131-1.52-1.131-2.68
		c0-0.33,0.061-0.69,0.18-1.07c0.121-0.391,0.24-0.631,0.391-0.721h-3.48V112.298L180.057,112.298z M187.047,117.648
		c0.98,0,1.721-0.211,2.17-0.631c0.44-0.379,0.68-1.039,0.68-1.959c0-0.211-0.06-0.44-0.209-0.711c-0.15-0.27-0.301-0.51-0.44-0.66
		h-4.55c-0.15,0.09-0.271,0.271-0.391,0.541c-0.119,0.27-0.18,0.56-0.18,0.83C184.127,116.788,185.107,117.648,187.047,117.648z"/>
	<path style="fill:#85EBD3;" d="M187.047,134.068c0.98,0,1.721-0.211,2.17-0.631c0.44-0.39,0.68-1.039,0.68-1.959
		c0-0.211-0.06-0.451-0.209-0.721c-0.15-0.26-0.301-0.5-0.44-0.65h-4.55c-0.15,0.091-0.271,0.271-0.391,0.541
		c-0.119,0.26-0.18,0.56-0.18,0.83C184.127,133.198,185.107,134.068,187.047,134.068z M190.047,134.598
		c-0.689,0.631-1.699,0.92-3.029,0.92c-1.19,0-2.181-0.319-2.92-0.949c-0.74-0.62-1.131-1.521-1.131-2.68
		c0-0.32,0.061-0.681,0.18-1.07c0.121-0.381,0.24-0.62,0.391-0.711h-3.48v-1.399h10.851v1.399h-0.62c0.5,0.511,0.77,1.16,0.77,1.9
		C191.057,133.107,190.727,133.979,190.047,134.598z"/>
	<path style="fill:#FFC98B;" d="M179.997,77.288c0-1.98-0.42-3.48-1.261-4.38c-0.779-0.9-2.1-1.38-3.959-1.38
		c-0.42,0-0.9,0.12-1.44,0.42c-0.54,0.3-1.021,0.6-1.319,0.9v9.18c0.18,0.3,0.539,0.54,1.08,0.78c0.539,0.24,1.139,0.36,1.68,0.36
		C178.257,83.168,179.997,81.188,179.997,77.288z M169.197,91.388v-21.9h2.82v1.26c1.02-1.02,2.34-1.56,3.84-1.56
		c2.22,0,3.959,0.66,5.22,2.04c1.26,1.38,1.86,3.42,1.86,6.12c0,2.4-0.66,4.38-1.92,5.88c-1.261,1.5-3.061,2.28-5.4,2.28
		c-0.66,0-1.381-0.12-2.16-0.36c-0.779-0.24-1.26-0.48-1.439-0.78v7.02H169.197z"/>
	<polygon style="fill:#FFC98B;" points="164.816,29.048 159.957,14.888 157.438,28.748 154.677,28.748 158.697,7.208 160.018,7.208
		165.177,22.928 169.917,7.208 171.236,7.208 175.617,28.748 172.797,28.748 170.217,14.888 165.537,29.048 	"/>
	<polygon style="fill:#FFC98B;" points="164.757,69.488 164.757,85.208 161.997,85.208 161.997,71.828 159.837,71.828
		159.837,69.488 	"/>
	<path style="fill:#FFC98B;" d="M164.757,64.028c0.3,0.3,0.479,0.72,0.479,1.2s-0.18,0.9-0.479,1.26c-0.36,0.3-0.78,0.48-1.26,0.48
		s-0.899-0.18-1.2-0.48c-0.359-0.36-0.54-0.78-0.54-1.26s0.181-0.9,0.54-1.2c0.301-0.36,0.721-0.54,1.2-0.54
		S164.396,63.668,164.757,64.028z"/>
	<g id="XMLID_1_">
		<g>
			<polygon style="fill:#F4F4C2;" points="164.49,98.67 149.61,109.53 164.49,109.53 164.49,112.35 142.65,112.35 142.65,111.45
				158.43,100.29 142.95,100.29 142.95,97.53 164.49,97.53 			"/>
			<path style="fill:#F4F4C2;" d="M150.45,131.73c2.34,0,4.38,0.72,6,2.159c1.68,1.38,2.52,3.061,2.52,5.04
				c0,1.62-0.359,2.82-1.14,3.66h7.32v2.82h-22.2v-2.82h1.2c-1.021-0.96-1.5-2.34-1.5-4.2c0-1.979,0.72-3.54,2.159-4.8
				C146.19,132.33,148.11,131.73,150.45,131.73z M156.63,139.71c0-1.5-0.54-2.7-1.68-3.6c-1.141-0.96-2.521-1.44-4.26-1.44
				c-3.78,0-5.7,1.74-5.7,5.22c0,0.42,0.12,0.96,0.42,1.561c0.3,0.66,0.6,1.02,0.899,1.14h8.761
				C156.09,141.93,156.63,140.97,156.63,139.71z"/>
			<path style="fill:#F4F4C2;" d="M157.11,160.95c-1.261,1.26-2.88,1.859-4.86,1.859c-0.6,0-1.14-0.06-1.68-0.239v-11.34
				c-1.86,0-3.24,0.479-4.261,1.5c-0.899,0.899-1.319,2.039-1.319,3.479c0,1.56,0.479,2.88,1.439,3.96l-2.04,1.2
				c-0.42-0.42-0.84-1.08-1.14-1.98c-0.42-1.14-0.6-2.399-0.6-3.779c0-1.98,0.659-3.66,2.04-5.04c1.5-1.5,3.479-2.28,5.939-2.28
				c2.58,0,4.68,0.78,6.24,2.34c1.38,1.44,2.1,3.12,2.1,5.04C158.97,157.89,158.37,159.69,157.11,160.95z M152.61,159.99
				c1.14,0,2.04-0.36,2.819-1.021c0.78-0.779,1.2-1.859,1.2-3.18c0-1.26-0.42-2.28-1.2-3.12c-0.779-0.78-1.68-1.26-2.819-1.38
				V159.99z"/>
			<path style="fill:#F4F4C2;" d="M150.87,115.47c2.46,0,4.38,0.66,5.88,1.98c1.5,1.26,2.22,3,2.22,5.16c0,2.22-0.72,3.96-2.16,5.22
				c-1.38,1.26-3.359,1.86-5.939,1.86s-4.561-0.601-6-1.86c-1.5-1.26-2.22-3-2.22-5.22c0-2.221,0.72-4.021,2.22-5.28
				S148.35,115.47,150.87,115.47z M156.69,122.61c0-1.261-0.54-2.28-1.561-3.061c-1.02-0.78-2.46-1.14-4.26-1.14
				c-3.96,0-5.94,1.38-5.94,4.2c0,1.26,0.54,2.279,1.62,3.06c1.021,0.72,2.46,1.08,4.32,1.08
				C154.77,126.75,156.69,125.37,156.69,122.61z"/>
		</g>
		<g>
		</g>
	</g>
	<polygon style="fill:#F9927E;" points="154.257,43.688 161.337,43.688 161.337,46.208 154.257,46.208 154.257,53.948
		163.977,53.948 163.977,56.588 151.316,56.588 151.316,35.048 164.157,35.048 164.157,37.688 154.257,37.688 	"/>
	<path style="fill:#FFC98B;" d="M155.637,71.528c-1.02,0-1.859,0.48-2.58,1.38c-0.779,0.9-1.14,1.98-1.14,3.3v9h-2.76v-15.72h2.76
		v2.46c1.021-1.86,2.58-2.76,4.56-2.76c0.541,0,1.26,0.06,2.16,0.24c-0.359,0.9-0.72,1.8-1.14,2.7
		C156.896,71.708,156.297,71.528,155.637,71.528z"/>
	<polygon style="fill:#FFC98B;" points="144.057,9.848 137.157,9.848 137.157,7.208 154.137,7.208 154.137,9.848 146.997,9.848
		146.997,28.748 144.057,28.748 	"/>
	<path style="fill:#FFC98B;" d="M140.457,85.508c-2.16,0-3.96-0.72-5.34-2.16c-1.381-1.44-2.1-3.42-2.1-5.88s0.719-4.5,2.159-6
		c1.5-1.5,3.48-2.28,6-2.28c0.78,0,1.681,0.18,2.64,0.48c0.961,0.36,1.681,0.72,2.101,1.08l-1.38,1.98
		c-0.301-0.3-0.78-0.54-1.5-0.84c-0.721-0.24-1.439-0.36-2.1-0.36c-1.5,0-2.761,0.54-3.66,1.62c-0.9,1.02-1.32,2.46-1.32,4.32
		c0,1.86,0.48,3.24,1.38,4.26c0.899,0.96,2.16,1.44,3.78,1.44c1.26,0,2.52-0.48,3.779-1.5l1.141,2.4
		C144.537,85.028,142.677,85.508,140.457,85.508z"/>
	<path style="fill:#F9927E;" d="M138.236,53.948c2.101,0,3.721-0.78,4.861-2.34c1.199-1.5,1.799-3.66,1.799-6.42
		c0-5.1-2.279-7.62-6.899-7.62l-2.16,0.12v16.08L138.236,53.948z M137.217,56.588h-4.32v-21.54l5.28-0.12c3,0,5.4,0.9,7.14,2.7
		c1.74,1.86,2.641,4.26,2.641,7.32C147.957,52.688,144.357,56.588,137.217,56.588z"/>
	<path style="fill:#FFC98B;" d="M130.137,110.228c-1.26,1.14-3,1.68-5.22,1.68c-1.92,0-3.54-0.42-4.86-1.32l1.021-2.76
		c0.54,0.42,1.26,0.78,2.1,1.02c0.78,0.3,1.5,0.42,2.16,0.42c1.14,0,2.101-0.3,2.761-0.96c0.719-0.6,1.079-1.38,1.079-2.4
		c0-0.72-0.18-1.38-0.6-1.98c-0.42-0.66-1.38-1.32-2.94-2.04l-1.68-0.84c-1.5-0.66-2.52-1.5-3.12-2.4c-0.54-0.96-0.84-2.1-0.84-3.42
		c0-1.62,0.54-2.94,1.68-4.02c1.14-1.02,2.58-1.56,4.38-1.56c2.4,0,4.08,0.36,4.98,1.14c-0.301,0.9-0.6,1.74-0.9,2.58
		c-0.359-0.3-0.96-0.54-1.74-0.84c-0.84-0.24-1.619-0.36-2.279-0.36c-1.02,0-1.801,0.3-2.34,0.84c-0.541,0.54-0.84,1.26-0.84,2.16
		c0,0.54,0.119,1.08,0.299,1.5c0.181,0.48,0.48,0.84,0.841,1.14c0.36,0.3,1.14,0.72,2.28,1.26l1.74,0.84
		c1.5,0.72,2.52,1.56,3.119,2.52c0.6,0.96,0.9,2.16,0.9,3.66C132.117,107.708,131.457,109.088,130.137,110.228z"/>
	<polygon style="fill:#FFC98B;" points="122.396,18.368 122.396,28.748 119.457,28.748 119.457,7.208 122.396,7.208 122.396,15.848
		131.816,15.848 131.816,7.208 134.757,7.208 134.757,28.748 131.816,28.748 131.816,18.368 	"/>
	<path style="fill:#FFC98B;" d="M120.477,64.868c1.141-1.02,2.58-1.56,4.381-1.56c2.399,0,4.08,0.36,4.979,1.14
		c-0.3,0.9-0.601,1.74-0.899,2.58c-0.36-0.3-0.961-0.54-1.74-0.84c-0.84-0.24-1.62-0.36-2.28-0.36c-1.021,0-1.8,0.3-2.34,0.84
		s-0.841,1.26-0.841,2.16c0,0.54,0.121,1.08,0.301,1.5c0.18,0.48,0.48,0.84,0.84,1.14c0.359,0.3,1.141,0.72,2.28,1.26l1.739,0.84
		c1.5,0.72,2.521,1.56,3.121,2.52c0.6,0.96,0.899,2.16,0.899,3.66c0,1.62-0.66,3-1.979,4.14c-1.261,1.14-3,1.68-5.221,1.68
		c-1.92,0-3.54-0.42-4.859-1.32l1.02-2.76c0.54,0.42,1.26,0.78,2.1,1.02c0.78,0.3,1.5,0.42,2.16,0.42c1.141,0,2.1-0.3,2.76-0.96
		c0.721-0.6,1.08-1.38,1.08-2.4c0-0.72-0.18-1.38-0.6-1.98c-0.42-0.66-1.38-1.32-2.939-2.04l-1.681-0.84
		c-1.5-0.66-2.521-1.5-3.12-2.4c-0.539-0.96-0.84-2.1-0.84-3.42C118.797,67.268,119.337,65.948,120.477,64.868z"/>
	<path style="fill:#F9927E;" d="M116.098,39.548c-0.961,1.5-1.44,3.48-1.44,6.06c0,2.46,0.479,4.56,1.5,6.24
		c0.96,1.62,2.34,2.46,4.079,2.46c1.98,0,3.541-0.78,4.621-2.28c1.02-1.5,1.56-3.66,1.56-6.42c0-5.52-2.04-8.28-6.181-8.28
		C118.438,37.328,117.057,38.048,116.098,39.548z M120.236,56.948c-2.699,0-4.859-1.08-6.359-3.18s-2.279-4.86-2.279-8.16
		c0-3.06,0.779-5.7,2.34-7.8c1.56-2.1,3.66-3.12,6.299-3.12c3,0,5.281,0.96,6.9,2.88c1.62,1.92,2.4,4.62,2.4,8.04
		c0,3.54-0.78,6.36-2.4,8.34C125.518,55.928,123.236,56.948,120.236,56.948z"/>
	<path style="fill:#FFC98B;" d="M107.217,91.208c1.14-1.02,2.58-1.56,4.381-1.56c2.399,0,4.079,0.36,4.979,1.14
		c-0.3,0.9-0.601,1.74-0.9,2.58c-0.36-0.3-0.96-0.54-1.739-0.84c-0.84-0.24-1.621-0.36-2.28-0.36c-1.021,0-1.8,0.3-2.34,0.84
		s-0.84,1.26-0.84,2.16c0,0.54,0.12,1.08,0.3,1.5c0.18,0.48,0.48,0.84,0.84,1.14c0.36,0.3,1.14,0.72,2.279,1.26l1.74,0.84
		c1.5,0.72,2.521,1.56,3.12,2.52c0.601,0.96,0.9,2.16,0.9,3.66c0,1.62-0.66,3-1.979,4.14c-1.261,1.14-3,1.68-5.221,1.68
		c-1.92,0-3.54-0.42-4.86-1.32l1.02-2.76c0.54,0.42,1.26,0.78,2.1,1.02c0.78,0.3,1.5,0.42,2.16,0.42c1.141,0,2.1-0.3,2.76-0.96
		c0.721-0.6,1.08-1.38,1.08-2.4c0-0.72-0.18-1.38-0.6-1.98c-0.42-0.66-1.381-1.32-2.939-2.04l-1.681-0.84
		c-1.5-0.66-2.52-1.5-3.12-2.4c-0.54-0.96-0.84-2.1-0.84-3.42C105.537,93.608,106.077,92.288,107.217,91.208z"/>
	<path style="fill:#FFC98B;" d="M112.677,83.408c-1.14,1.38-2.82,2.1-5.1,2.1c-1.26,0-2.34-0.42-3.24-1.32s-1.32-2.04-1.32-3.36
		c0-1.62,0.72-2.94,2.1-4.08c1.38-1.08,3.12-1.62,5.34-1.62c0.54,0,1.2,0.12,1.98,0.36c0-2.58-1.141-3.84-3.42-3.84
		c-1.74,0-3.12,0.48-4.02,1.44l-1.2-2.34c0.54-0.42,1.32-0.84,2.22-1.14c0.9-0.3,1.8-0.42,2.7-0.42c2.28,0,3.961,0.54,4.98,1.56
		s1.5,2.7,1.5,4.92v5.64c0,1.38,0.42,2.34,1.26,2.76v1.44c-1.141,0-1.98-0.18-2.52-0.48
		C113.337,84.668,112.917,84.128,112.677,83.408z M110.577,77.168c-1.38,0-2.58,0.36-3.48,1.08c-0.9,0.72-1.32,1.56-1.32,2.58
		c0,1.62,0.96,2.46,2.88,2.46c1.44,0,2.7-0.66,3.78-1.98v-3.84L110.577,77.168z"/>
	<path style="fill:#F9927E;" d="M102.897,37.328c-1.86,0-3.36,0.84-4.5,2.46s-1.74,3.72-1.74,6.3c0,2.46,0.6,4.44,1.74,5.94
		c1.2,1.5,2.7,2.28,4.56,2.28c1.98,0,3.54-0.72,4.68-2.16l1.62,2.28c-1.74,1.68-3.9,2.521-6.6,2.521c-2.82,0-5.04-1.021-6.66-3.06
		c-1.62-1.98-2.4-4.68-2.4-7.98c0-3.24,0.84-5.94,2.58-8.04c1.74-2.1,3.96-3.18,6.66-3.18c2.34,0,4.2,0.36,5.52,1.14l-1.02,2.52
		C106.437,37.688,104.937,37.328,102.897,37.328z"/>
	<path style="fill:#FFC98B;" d="M90.117,92.828c1.74-2.1,3.96-3.18,6.66-3.18c2.34,0,4.2,0.36,5.52,1.14l-1.02,2.52
		c-0.9-0.66-2.4-1.02-4.44-1.02c-1.86,0-3.36,0.84-4.5,2.46s-1.74,3.72-1.74,6.3c0,2.46,0.6,4.44,1.74,5.94
		c1.2,1.5,2.7,2.28,4.56,2.28c1.98,0,3.54-0.72,4.68-2.16l1.62,2.28c-1.74,1.68-3.9,2.52-6.6,2.52c-2.82,0-5.04-1.02-6.66-3.06
		c-1.62-1.98-2.4-4.68-2.4-7.98C87.537,97.628,88.377,94.928,90.117,92.828z"/>
	<polygon style="fill:#FFC98B;" points="94.497,80.468 98.757,69.428 101.697,69.428 94.797,85.508 94.017,85.508 87.297,69.428
		90.357,69.428 	"/>
	<path style="fill:#FFC98B;" d="M78.177,83.288c1.44,0,2.7-0.66,3.78-1.98v-3.84l-1.86-0.3c-1.38,0-2.58,0.36-3.48,1.08
		c-0.9,0.72-1.32,1.56-1.32,2.58C75.297,82.448,76.257,83.288,78.177,83.288z M78.237,69.188c2.28,0,3.96,0.54,4.98,1.56
		s1.5,2.7,1.5,4.92v5.64c0,1.38,0.42,2.34,1.26,2.76v1.44c-1.14,0-1.98-0.18-2.52-0.48c-0.6-0.36-1.02-0.9-1.26-1.62
		c-1.14,1.38-2.82,2.1-5.1,2.1c-1.26,0-2.34-0.42-3.24-1.32s-1.32-2.04-1.32-3.36c0-1.62,0.72-2.94,2.1-4.08
		c1.38-1.08,3.12-1.62,5.34-1.62c0.54,0,1.2,0.12,1.98,0.36c0-2.58-1.14-3.84-3.42-3.84c-1.74,0-3.12,0.48-4.02,1.44l-1.2-2.34
		c0.54-0.42,1.32-0.84,2.22-1.14C76.437,69.308,77.337,69.188,78.237,69.188z"/>
	<path style="fill:#F4F4C2;" d="M64.017,40.088c-0.42-0.3-0.84-0.66-1.14-1.08c-0.3-0.36-0.54-0.78-0.72-1.2
		c-0.18-0.42-0.24-0.9-0.24-1.44c0-1.26,0.48-2.28,1.38-3c0.96-0.72,2.22-1.08,3.72-1.08c1.14,0,2.58,0.36,4.32,1.08l-0.78,2.58
		c-1.14-0.9-2.22-1.32-3.36-1.32c-0.66,0-1.26,0.18-1.68,0.48c-0.42,0.3-0.66,0.72-0.66,1.2c0,1.02,0.54,1.74,1.68,2.28l2.04,0.9
		c1.2,0.54,2.1,1.2,2.64,1.92c0.54,0.72,0.84,1.62,0.84,2.7c0,1.38-0.48,2.52-1.5,3.3c-0.96,0.78-2.34,1.2-4.08,1.2
		c-1.68,0-3.24-0.42-4.68-1.26l0.96-2.64c1.56,1.02,2.82,1.56,3.78,1.56c1.74,0,2.58-0.72,2.58-2.22c0-1.02-0.84-1.92-2.46-2.64
		C65.337,40.808,64.437,40.388,64.017,40.088z"/>
	<path style="fill:#FFC98B;" d="M62.637,85.508c-1.38,0-2.52-0.42-3.42-1.26c-0.9-0.84-1.44-1.98-1.5-3.36h2.58
		c0.24,1.32,1.02,1.98,2.34,1.98c1.32,0,2.22-0.3,2.76-0.84c0.54-0.54,0.78-2.16,0.78-4.74v-13.62h2.94v13.5
		c0,2.94-0.48,5.04-1.38,6.36C66.777,84.848,65.097,85.508,62.637,85.508z"/>
	<path style="fill:#85EBD3;" d="M63.007,99.028c0,0.28-0.11,0.53-0.32,0.71c-0.17,0.21-0.42,0.31-0.7,0.31
		c-0.28,0-0.53-0.1-0.74-0.31c-0.18-0.18-0.29-0.43-0.29-0.71c0-0.28,0.11-0.53,0.29-0.7c0.21-0.22,0.46-0.32,0.74-0.32
		c0.28,0,0.53,0.1,0.7,0.32C62.897,98.498,63.007,98.748,63.007,99.028z"/>
	<polygon style="fill:#85EBD3;" points="59.517,119.658 50.067,115.607 50.067,115.148 59.517,111.198 59.517,112.998
		53.027,115.428 59.517,117.938 	"/>
	<path style="fill:#F4F4C2;" d="M51.897,40.088c-0.42-0.3-0.84-0.66-1.14-1.08c-0.3-0.36-0.54-0.78-0.72-1.2
		c-0.18-0.42-0.24-0.9-0.24-1.44c0-1.26,0.48-2.28,1.38-3c0.96-0.72,2.22-1.08,3.72-1.08c1.14,0,2.58,0.36,4.32,1.08l-0.78,2.58
		c-1.14-0.9-2.22-1.32-3.36-1.32c-0.66,0-1.26,0.18-1.68,0.48c-0.42,0.3-0.66,0.72-0.66,1.2c0,1.02,0.54,1.74,1.68,2.28l2.04,0.9
		c1.2,0.54,2.1,1.2,2.64,1.92c0.54,0.72,0.84,1.62,0.84,2.7c0,1.38-0.48,2.52-1.5,3.3c-0.96,0.78-2.34,1.2-4.08,1.2
		c-1.68,0-3.24-0.42-4.68-1.26l0.96-2.64c1.56,1.02,2.82,1.56,3.78,1.56c1.74,0,2.58-0.72,2.58-2.22c0-1.02-0.84-1.92-2.46-2.64
		C53.217,40.808,52.317,40.388,51.897,40.088z"/>
	<path style="fill:#85EBD3;" d="M51.367,105.798c0,0.85,0.39,1.59,1.17,2.23h2.25l0.18-1.1c0-0.81-0.21-1.51-0.64-2.04
		c-0.42-0.53-0.91-0.78-1.51-0.78C51.857,104.108,51.367,104.668,51.367,105.798z M52.537,109.648c-0.82,0-1.38,0.24-1.63,0.74
		h-0.84c0-0.67,0.1-1.17,0.28-1.48c0.21-0.36,0.53-0.6,0.95-0.74c-0.81-0.67-1.23-1.66-1.23-3c0-0.74,0.24-1.38,0.77-1.91
		c0.53-0.53,1.2-0.77,1.98-0.77c0.95,0,1.73,0.42,2.4,1.23c0.63,0.81,0.95,1.84,0.95,3.14c0,0.32-0.07,0.71-0.21,1.17
		c1.51,0,2.25-0.67,2.25-2.01c0-1.03-0.28-1.84-0.84-2.37l1.37-0.7c0.25,0.31,0.5,0.77,0.67,1.3c0.18,0.53,0.25,1.06,0.25,1.59
		c0,1.34-0.32,2.33-0.92,2.93c-0.6,0.6-1.58,0.88-2.89,0.88H52.537z"/>
	<path style="fill:#85EBD3;" d="M51.367,123.758c0,0.84,0.39,1.58,1.17,2.221h2.25l0.18-1.101c0-0.81-0.21-1.51-0.64-2.04
		c-0.42-0.529-0.91-0.779-1.51-0.779C51.857,122.059,51.367,122.628,51.367,123.758z M51.297,126.118c-0.81-0.67-1.23-1.66-1.23-3
		c0-0.74,0.24-1.37,0.77-1.9c0.53-0.53,1.2-0.78,1.98-0.78c0.95,0,1.73,0.42,2.4,1.23c0.63,0.82,0.95,1.84,0.95,3.141
		c0,0.319-0.07,0.709-0.21,1.17c1.51,0,2.25-0.67,2.25-2.011c0-1.03-0.28-1.84-0.84-2.37l1.37-0.699c0.25,0.319,0.5,0.77,0.67,1.3
		c0.18,0.53,0.25,1.06,0.25,1.59c0,1.34-0.32,2.33-0.92,2.93c-0.6,0.601-1.58,0.88-2.89,0.88h-3.31c-0.82,0-1.38,0.25-1.63,0.74
		h-0.84c0-0.67,0.1-1.16,0.28-1.48C50.557,126.508,50.877,126.258,51.297,126.118z"/>
	<path style="fill:#85EBD3;" d="M47.527,98.958c-0.6-0.74-0.92-1.9-0.92-3.49h1.48c0,1.13,0.18,1.9,0.49,2.33
		c0.36,0.42,0.92,0.63,1.7,0.63h7.83v-1.83h1.37v3.49h-9.17C49.037,100.088,48.127,99.698,47.527,98.958z"/>
	<path style="fill:#F4F4C2;" d="M36.237,40.688c0,1.86,0.48,3.24,1.5,4.26c0.9,0.9,2.04,1.32,3.48,1.32c1.56,0,2.88-0.48,3.96-1.44
		l1.2,2.04c-0.42,0.42-1.08,0.84-1.98,1.14c-1.14,0.42-2.4,0.6-3.78,0.6c-1.98,0-3.66-0.66-5.04-2.04c-1.5-1.5-2.28-3.48-2.28-5.94
		c0-2.58,0.78-4.68,2.34-6.24c1.44-1.38,3.12-2.1,5.04-2.1c2.22,0,4.02,0.6,5.28,1.86c1.26,1.26,1.86,2.88,1.86,4.86
		c0,0.6-0.06,1.14-0.24,1.68H36.237z M44.997,38.648c0-1.14-0.36-2.04-1.02-2.82c-0.78-0.78-1.86-1.2-3.18-1.2
		c-1.26,0-2.28,0.42-3.12,1.2c-0.78,0.78-1.26,1.68-1.38,2.82H44.997z"/>
	<path style="fill:#85EBD3;" d="M32.777,102.038c-0.29,0-0.55-0.11-0.77-0.3c-0.19-0.22-0.3-0.48-0.3-0.78
		c0-0.29,0.11-0.55,0.3-0.74c0.22-0.22,0.48-0.33,0.77-0.33c0.3,0,0.56,0.11,0.74,0.33c0.22,0.19,0.33,0.45,0.33,0.74
		c0,0.3-0.11,0.56-0.33,0.78C33.337,101.928,33.077,102.038,32.777,102.038z"/>
	<path style="fill:#85EBD3;" d="M32.777,150.508c0.3,0,0.56,0.11,0.74,0.33c0.22,0.189,0.33,0.45,0.33,0.74
		c0,0.3-0.11,0.561-0.33,0.779c-0.18,0.181-0.44,0.301-0.74,0.301c-0.29,0-0.55-0.12-0.77-0.301c-0.19-0.219-0.3-0.479-0.3-0.779
		c0-0.29,0.11-0.551,0.3-0.74C32.227,150.618,32.487,150.508,32.777,150.508z"/>
	<polygon style="fill:#F4F4C2;" points="31.977,45.668 31.977,48.308 19.317,48.308 19.317,26.768 22.257,26.768 22.257,45.668 	"/>
	<polygon style="fill:#85EBD3;" points="30.157,149.328 30.157,152.357 20.467,152.357 20.467,150.658 28.707,150.658
		28.707,149.328 	"/>
	<polygon style="fill:#85EBD3;" points="30.157,98.708 30.157,101.738 20.467,101.738 20.467,100.038 28.707,100.038 28.707,98.708
			"/>
	<path style="fill:#85EBD3;" d="M26.017,144.448h-5.55v-1.7h9.69v1.7h-1.52c1.15,0.63,1.7,1.59,1.7,2.81c0,0.33-0.04,0.77-0.15,1.33
		l-1.66-0.699c0.26-0.371,0.37-0.74,0.37-1.15c0-0.631-0.3-1.15-0.85-1.59C27.487,144.668,26.827,144.448,26.017,144.448z"/>
	<path style="fill:#85EBD3;" d="M30.337,118.898c0,2.1-1.29,3.18-3.88,3.18h-5.99v-1.7h5.66c1.03,0,1.73-0.149,2.14-0.479
		c0.41-0.34,0.63-0.86,0.63-1.561c0-0.4-0.11-0.811-0.33-1.25c-0.26-0.41-0.56-0.74-0.89-0.97h-7.21v-1.729h9.69v1.18l-1.22,0.55
		C29.857,116.678,30.337,117.598,30.337,118.898z"/>
	<path style="fill:#85EBD3;" d="M30.447,76.118l-5.84-2.07v3.95L30.447,76.118z M33.927,76.448l-13.46,4.99v-1.99l2.81-0.93v-4.95
		l-2.81-0.96v-2.04l13.46,5.4V76.448z"/>
	<path style="fill:#85EBD3;" d="M27.897,84.658c-0.63-0.56-1.51-0.81-2.66-0.81c-1.15,0-2,0.29-2.63,0.85
		c-0.59,0.55-0.88,1.33-0.88,2.33c0,0.77,0.29,1.55,0.92,2.32l-1.48,0.71c-0.59-0.93-0.89-2.07-0.89-3.44
		c0-1.33,0.45-2.44,1.34-3.29c0.88-0.85,2.1-1.3,3.62-1.3c1.51,0,2.77,0.45,3.7,1.33c0.92,0.93,1.4,2.15,1.4,3.7
		c0,0.48-0.11,1.04-0.29,1.63c-0.23,0.59-0.45,1.03-0.67,1.29l-1.22-0.85c0.18-0.18,0.33-0.48,0.52-0.92
		c0.15-0.45,0.22-0.89,0.22-1.3C28.897,85.988,28.567,85.208,27.897,84.658z"/>
	<path style="fill:#85EBD3;" d="M30.337,137.828c0,0.48-0.11,1.029-0.29,1.62c-0.23,0.6-0.45,1.04-0.67,1.3l-1.22-0.85
		c0.18-0.19,0.33-0.48,0.52-0.931c0.15-0.44,0.22-0.88,0.22-1.29c0-0.92-0.33-1.699-1-2.26c-0.63-0.55-1.51-0.811-2.66-0.811
		c-1.15,0-2,0.301-2.63,0.851c-0.59,0.56-0.88,1.33-0.88,2.33c0,0.78,0.29,1.55,0.92,2.33l-1.48,0.7c-0.59-0.92-0.89-2.07-0.89-3.44
		c0-1.33,0.45-2.44,1.34-3.29c0.88-0.85,2.1-1.29,3.62-1.29c1.51,0,2.77,0.44,3.7,1.33
		C29.857,135.059,30.337,136.277,30.337,137.828z"/>
	<path style="fill:#85EBD3;" d="M30.157,94.158v2.66h-1.33v-2.66h-4.85c-0.81,0-1.4,0.15-1.74,0.45c-0.33,0.25-0.51,0.7-0.51,1.29
		c0,0.44,0.11,0.89,0.33,1.37l-1.52,0.26c-0.18-0.71-0.26-1.48-0.26-2.33c0-0.78,0.3-1.41,0.85-1.96c0.56-0.52,1.3-0.78,2.19-0.78
		h5.51v-1.15h1.33v1.15h2.03l0.67,1.7H30.157z"/>
	<path style="fill:#85EBD3;" d="M30.157,165.998h2.03l0.67,1.7h-2.7v2.67h-1.33v-2.67h-4.85c-0.81,0-1.4,0.149-1.74,0.45
		c-0.33,0.26-0.51,0.699-0.51,1.289c0,0.451,0.11,0.891,0.33,1.371l-1.52,0.26c-0.18-0.7-0.26-1.48-0.26-2.33
		c0-0.78,0.3-1.41,0.85-1.961c0.56-0.52,1.3-0.779,2.19-0.779h5.51v-1.141h1.33V165.998z"/>
	<path style="fill:#85EBD3;" d="M30.527,124.038c0.99,0,1.81,0.33,2.47,1.03c0.63,0.699,0.96,1.59,0.96,2.699
		c0,1.48-0.22,2.521-0.7,3.07l-1.59-0.55c0.19-0.229,0.34-0.601,0.52-1.08c0.15-0.51,0.22-1,0.22-1.399c0-0.631-0.18-1.11-0.52-1.44
		c-0.33-0.341-0.77-0.521-1.33-0.521c-0.33,0-0.66,0.07-0.92,0.18c-0.3,0.111-0.52,0.301-0.7,0.521c-0.19,0.22-0.45,0.7-0.78,1.41
		l-0.52,1.069c-0.44,0.921-0.96,1.551-1.55,1.921s-1.33,0.56-2.26,0.56c-0.99,0-1.84-0.41-2.55-1.22c-0.7-0.78-1.03-1.851-1.03-3.22
		c0-1.18,0.26-2.18,0.81-3l1.7,0.63c-0.26,0.329-0.48,0.78-0.63,1.3c-0.18,0.48-0.26,0.92-0.26,1.33c0,0.699,0.19,1.29,0.6,1.699
		c0.37,0.44,0.85,0.66,1.47,0.66c0.45,0,0.86-0.109,1.23-0.369c0.4-0.25,0.81-0.851,1.25-1.811l0.52-1.029
		c0.41-0.931,0.92-1.561,1.48-1.931C29.007,124.218,29.707,124.038,30.527,124.038z"/>
	<path style="fill:#85EBD3;" d="M21.727,158.527c0,2.15,1.22,3.221,3.62,3.221c1.22,0,2.14-0.26,2.7-0.78
		c0.55-0.479,0.85-1.29,0.85-2.44c0-0.25-0.07-0.549-0.26-0.879c-0.18-0.34-0.37-0.631-0.55-0.82h-5.66
		c-0.19,0.109-0.33,0.34-0.48,0.67C21.797,157.828,21.727,158.198,21.727,158.527z M29.377,156.828c0.63,0.63,0.96,1.449,0.96,2.37
		c0,1.37-0.41,2.44-1.26,3.22c-0.85,0.77-2.1,1.141-3.77,1.141c-1.48,0-2.7-0.4-3.62-1.181c-0.93-0.78-1.41-1.89-1.41-3.33
		c0-0.409,0.08-0.85,0.23-1.33c0.14-0.479,0.29-0.78,0.48-0.89h-4.33v-1.73h13.5v1.73H29.377z"/>
	<path style="fill:#85EBD3;" d="M22.687,110.128c0.63,0.45,1.51,0.67,2.66,0.67c2.4,0,3.59-0.85,3.59-2.55
		c0-0.78-0.34-1.41-0.96-1.89c-0.63-0.48-1.52-0.7-2.63-0.7c-2.44,0-3.66,0.85-3.66,2.59
		C21.687,109.028,22.017,109.648,22.687,110.128z M28.967,105.068c0.93,0.78,1.37,1.85,1.37,3.18c0,1.37-0.44,2.439-1.33,3.22
		c-0.85,0.771-2.07,1.14-3.66,1.14c-1.59,0-2.81-0.369-3.7-1.14c-0.92-0.78-1.37-1.85-1.37-3.22s0.45-2.48,1.37-3.26
		c0.93-0.77,2.15-1.14,3.7-1.14C26.867,103.848,28.047,104.258,28.967,105.068z"/>
</g>
</svg>
