<?xml version="1.0" encoding="utf-8"?>
<!-- Generator: Adobe Illustrator 16.0.0, SVG Export Plug-In . SVG Version: 6.00 Build 0)  -->
<!DOCTYPE svg PUBLIC "-//W3C//DTD SVG 1.1//EN" "http://www.w3.org/Graphics/SVG/1.1/DTD/svg11.dtd">
<svg version="1.1" id="图层_3" xmlns="http://www.w3.org/2000/svg" xmlns:xlink="http://www.w3.org/1999/xlink" x="0px" y="0px"
	 width="530.709px" height="355.143px" viewBox="0 0 530.709 355.143" style="enable-background:new 0 0 530.709 355.143;"
	 xml:space="preserve">
<g id="XMLID_1_">
	<g>
		<polygon style="fill:#F9927E;" points="509.044,167.028 509.044,173.248 473.714,173.248 473.714,120.545 509.044,120.545
			509.044,126.765 480.824,126.765 480.824,141.222 509.044,141.222 509.044,147.442 480.824,147.442 480.824,167.028 		"/>
		<path style="fill:#F9927E;" d="M459.271,149.406c2.055,2.073,3.055,5.019,3.055,8.784c0,2.073-0.5,4.092-1.444,6.11
			c-1,2.019-2.389,3.71-4.11,5.074c-1.944,1.528-4.167,2.728-6.722,3.546c-2.556,0.873-5.611,1.31-9.222,1.31
			c-3.889,0-7.389-0.382-10.443-1.091c-3.111-0.709-6.277-1.746-9.444-3.165v-8.784h0.5c2.722,2.237,5.833,3.928,9.389,5.128
			c3.555,1.255,6.888,1.855,10.055,1.855c4.389,0,7.832-0.818,10.332-2.455c2.444-1.637,3.667-3.819,3.667-6.547
			c0-2.346-0.556-4.037-1.723-5.128c-1.166-1.146-2.944-2.019-5.333-2.619l-5.833-1.146l-6.722-1.2
			c-4.722-0.982-8.276-2.673-10.555-5.019c-2.277-2.455-3.444-5.565-3.444-9.384c0-4.419,1.89-8.074,5.667-10.857
			c3.833-2.837,8.666-4.255,14.499-4.255c3.722,0,7.166,0.382,10.332,1.091c3.167,0.709,5.944,1.582,8.389,2.619v8.293h-0.5
			c-2.056-1.691-4.722-3.11-8.056-4.256c-3.333-1.146-6.722-1.691-10.221-1.691c-3.833,0-6.889,0.764-9.222,2.346
			s-3.5,3.546-3.5,6.001c0,2.237,0.611,3.928,1.777,5.183c1.167,1.254,3.167,2.182,6.056,2.891l6.555,1.201l7.222,1.418
			C454.271,145.696,457.271,147.278,459.271,149.406z"/>
		<path style="fill:#F4F4C2;" d="M454.835,45.992c2.407,3.128,3.63,7.611,3.63,13.394c0,2.937-0.389,5.538-1.223,7.902
			c-0.833,2.31-2.009,4.292-3.435,5.883c-1.519,1.637-3.139,2.882-4.953,3.71c-1.815,0.818-3.777,1.2-5.935,1.2
			c-2.019,0-3.778-0.236-5.306-0.673c-1.519-0.482-2.99-1.109-4.463-1.928l-0.389,1.637h-5.592V28.452h5.98v17.395
			c1.667-1.346,3.436-2.455,5.352-3.328c1.907-0.864,4.019-1.3,6.379-1.3C449.049,41.218,452.382,42.81,454.835,45.992z
			 M452.289,59.531c0-4.146-0.686-7.274-2.111-9.447c-1.426-2.164-3.675-3.273-6.768-3.273c-1.722,0-3.49,0.382-5.305,1.155
			c-1.76,0.728-3.436,1.637-4.954,2.846v19.995c1.723,0.718,3.194,1.255,4.417,1.537c1.231,0.291,2.602,0.437,4.12,0.437
			c3.286,0,5.888-1.055,7.805-3.183C451.354,67.433,452.289,64.105,452.289,59.531z"/>
		<path style="fill:#F4F4C2;" d="M414.801,42.182c1.815,3.283,2.704,7.184,2.704,11.712c0,4.237-0.936,8.092-2.796,11.511
			c-1.917,3.428-4.417,6.12-7.509,8.002c-2.157,1.3-4.564,2.264-7.213,2.846c-2.694,0.573-6.185,0.864-10.545,0.864h-11.972V30.57
			h11.823c4.657,0,8.342,0.336,11.036,1.009c2.703,0.627,5.009,1.546,6.916,2.655C410.486,36.208,412.986,38.863,414.801,42.182z
			 M409.163,62.859c1.176-2.41,1.768-5.447,1.768-9.065c0-3.655-0.639-6.747-1.962-9.248c-1.278-2.455-3.194-4.438-5.796-5.883
			c-1.861-1.055-3.824-1.782-5.936-2.164c-2.11-0.437-4.61-0.627-7.555-0.627h-5.935v35.944h5.935c3.046,0,5.694-0.236,7.953-0.673
			c2.25-0.437,4.314-1.255,6.231-2.455C406.219,67.188,407.987,65.269,409.163,62.859z"/>
		<path style="fill:#F9927E;" d="M395.72,120.545l19.554,52.703h-7.61l-5.277-14.676h-23.221l-5.277,14.676h-7.222l19.554-52.703
			H395.72z M400.163,152.516l-9.388-25.86l-9.444,25.86H400.163z"/>
		<polygon style="fill:#FFC98B;" points="367.388,264.905 367.388,271.124 333.446,271.124 333.446,218.421 340.557,218.421
			340.557,264.905 		"/>
		<path style="fill:#F4F4C2;" d="M363.389,46.183c2.99,3.328,4.463,7.811,4.463,13.494s-1.473,10.166-4.463,13.494
			c-2.991,3.273-6.972,4.91-11.925,4.91c-5.056,0-9.027-1.637-11.972-4.91c-2.99-3.328-4.463-7.811-4.463-13.494
			s1.473-10.166,4.463-13.494c2.944-3.328,6.916-4.965,11.972-4.965C356.417,41.218,360.397,42.855,363.389,46.183z M361.666,59.677
			c0-4.528-0.879-7.901-2.694-10.075c-1.814-2.219-4.314-3.319-7.508-3.319c-3.287,0-5.787,1.1-7.556,3.319
			c-1.814,2.173-2.694,5.546-2.694,10.075c0,4.383,0.88,7.711,2.694,9.975s4.314,3.374,7.556,3.374c3.193,0,5.693-1.109,7.508-3.328
			C360.787,67.433,361.666,64.06,361.666,59.677z"/>
		<path style="fill:#F9927E;" d="M359.722,147.987c2.111,2.346,3.167,5.401,3.167,9.057c0,2.619-0.5,4.91-1.556,6.929
			c-1,2.019-2.333,3.655-4.056,4.964c-2.055,1.583-4.222,2.673-6.61,3.328c-2.444,0.655-5.555,0.982-9.276,0.982h-18.999v-52.703
			h15.888c3.944,0,6.833,0.164,8.777,0.437s3.833,0.818,5.61,1.746c1.944,1.037,3.389,2.346,4.277,3.928
			c0.889,1.583,1.333,3.438,1.333,5.674c0,2.51-0.666,4.637-1.944,6.438c-1.277,1.746-2.999,3.165-5.166,4.201v0.273
			C354.778,143.95,357.667,145.532,359.722,147.987z M354.5,161.9c0.611-1.2,0.944-2.728,0.944-4.583c0-2.128-0.333-3.819-1-5.074
			c-0.61-1.255-1.777-2.292-3.499-3.165c-1.167-0.6-2.556-0.982-4.223-1.146l-5.999-0.273h-11.222v19.586h9.444
			c3.166,0,5.722-0.164,7.722-0.437c1.943-0.328,3.61-0.928,4.888-1.8C352.89,164.082,353.89,163.045,354.5,161.9z M350.834,133.257
			c0-1.255-0.223-2.346-0.611-3.219c-0.444-0.873-1.166-1.582-2.11-2.128c-1.111-0.6-2.5-0.982-4.111-1.146l-5.999-0.273h-8.5
			v15.222h9.222l5.333-0.273c1.333-0.272,2.556-0.709,3.722-1.418c1.111-0.709,1.889-1.637,2.389-2.728
			C350.611,136.148,350.834,134.839,350.834,133.257z"/>
		<path style="fill:#F4F4C2;" d="M325.762,42.182v30.989c0,5.919-1.38,10.257-4.129,13.003c-2.694,2.746-6.917,4.146-12.61,4.146
			c-1.907,0-3.722-0.1-5.537-0.336l-5.305-1.155v-5.974h0.296l4.666,1.391c2.103,0.537,4.269,0.818,6.37,0.818
			c2.019,0,3.731-0.236,5.056-0.718c1.323-0.482,2.407-1.155,3.139-2.028c0.74-0.818,1.277-1.782,1.573-2.937
			c0.343-1.109,0.491-2.41,0.491-3.81v-3.228c-1.814,1.4-3.537,2.51-5.147,3.228c-1.676,0.682-3.778,1.019-6.333,1.019
			c-4.222,0-7.556-1.5-10.055-4.483c-2.509-3.037-3.778-7.329-3.778-12.767c0-3.037,0.435-5.592,1.324-7.756
			c0.833-2.173,2.009-4.101,3.481-5.692c1.37-1.491,3.046-2.601,5.056-3.419c1.962-0.818,3.925-1.255,5.888-1.255
			c2.056,0,3.777,0.191,5.148,0.627c1.426,0.382,2.897,1.009,4.416,1.837l0.389-1.5H325.762z M319.771,67.533V48.493
			c-1.62-0.718-3.093-1.2-4.416-1.537c-1.371-0.291-2.75-0.437-4.12-0.437c-3.287,0-5.889,1.064-7.75,3.228
			c-1.916,2.173-2.852,5.347-2.852,9.447c0,3.901,0.694,6.893,2.111,8.911c1.426,2.028,3.731,3.037,6.972,3.037
			c1.713,0,3.481-0.336,5.249-0.964C316.679,69.506,318.299,68.633,319.771,67.533z"/>
		<path style="fill:#FFC98B;" d="M323.392,277.617v6.438l-4.277,0.764l-4.333,0.218c-4.167,0-7.555-1.146-10.055-3.382
			c-2.556-2.237-3.944-5.456-4.167-9.657l-1.61,0.164l-1.611,0.055c-3.777,0-7.222-0.6-10.277-1.855c-3.111-1.2-5.722-3-7.888-5.347
			s-3.833-5.183-5-8.565c-1.167-3.437-1.722-7.311-1.722-11.675c0-4.31,0.555-8.129,1.722-11.512
			c1.167-3.437,2.833-6.329,5.055-8.784c2.111-2.346,4.722-4.092,7.889-5.347c3.111-1.2,6.5-1.801,10.221-1.801
			c3.833,0,7.333,0.601,10.388,1.855c3.056,1.255,5.611,3.001,7.777,5.292c2.167,2.346,3.889,5.237,5.056,8.674
			c1.166,3.438,1.722,7.311,1.722,11.621c0,6.438-1.333,11.894-3.999,16.313c-2.723,4.419-6.333,7.475-10.833,9.275
			c0.111,2.673,0.777,4.801,1.944,6.274c1.222,1.473,3.444,2.183,6.61,2.183l3.5-0.382l2.889-0.818H323.392z M314.837,244.773
			c0-6.82-1.556-12.112-4.667-15.822c-3.11-3.71-7.388-5.565-12.776-5.565c-5.5,0-9.777,1.855-12.833,5.565
			c-3.167,3.71-4.722,9.002-4.722,15.822c0,6.929,1.611,12.221,4.777,15.931c3.167,3.655,7.444,5.456,12.777,5.456
			s9.555-1.8,12.721-5.456C313.281,256.994,314.837,251.702,314.837,244.773z"/>
		<path style="fill:#F9927E;" d="M294.783,120.545l19.554,52.703h-7.61l-5.277-14.676h-23.221l-5.278,14.676h-7.222l19.554-52.703
			H294.783z M299.227,152.516l-9.388-25.86l-9.443,25.86H299.227z"/>
		<path style="fill:#F4F4C2;" d="M285.432,54.467v22.65h-5.991V57.222c-0.046-1.5-0.148-2.991-0.296-4.483
			c-0.194-1.4-0.537-2.509-1.028-3.328c-0.537-0.864-1.278-1.491-2.305-1.928c-0.981-0.437-2.259-0.673-3.879-0.673
			c-1.611,0-3.333,0.382-5.102,1.2c-1.815,0.828-3.527,1.837-5.148,3.037v26.069h-5.99V42.182h5.99v3.901
			c1.861-1.537,3.778-2.746,5.787-3.564c2.009-0.864,4.028-1.3,6.139-1.3c3.87,0,6.768,1.155,8.777,3.419
			C284.395,46.911,285.432,50.184,285.432,54.467z"/>
		<polygon style="fill:#F9927E;" points="264.84,120.545 264.84,126.765 245.675,126.765 245.675,173.248 238.509,173.248
			238.509,126.765 219.344,126.765 219.344,120.545 		"/>
		<path style="fill:#FFC98B;" d="M261.063,247.282c2.055,2.073,3.055,5.02,3.055,8.784c0,2.073-0.5,4.092-1.444,6.11
			c-1,2.019-2.389,3.71-4.111,5.074c-1.944,1.528-4.166,2.728-6.722,3.546c-2.555,0.873-5.61,1.309-9.221,1.309
			c-3.889,0-7.389-0.382-10.444-1.091c-3.111-0.709-6.277-1.746-9.444-3.165v-8.784h0.5c2.722,2.237,5.833,3.928,9.388,5.128
			c3.555,1.255,6.888,1.855,10.055,1.855c4.389,0,7.833-0.818,10.333-2.455c2.444-1.637,3.667-3.819,3.667-6.547
			c0-2.346-0.556-4.037-1.722-5.128c-1.167-1.146-2.944-2.019-5.333-2.619l-5.833-1.146l-6.722-1.2
			c-4.722-0.982-8.277-2.673-10.555-5.02c-2.277-2.455-3.444-5.564-3.444-9.384c0-4.419,1.889-8.074,5.666-10.857
			c3.833-2.837,8.666-4.255,14.499-4.255c3.722,0,7.166,0.382,10.333,1.091c3.167,0.709,5.944,1.582,8.388,2.619v8.292h-0.5
			c-2.055-1.691-4.722-3.109-8.055-4.255c-3.333-1.146-6.722-1.691-10.222-1.691c-3.833,0-6.888,0.764-9.221,2.346
			c-2.333,1.582-3.5,3.546-3.5,6.001c0,2.237,0.611,3.928,1.778,5.183c1.167,1.255,3.167,2.183,6.055,2.892l6.555,1.2l7.222,1.419
			C256.063,243.573,259.063,245.155,261.063,247.282z"/>
		<path style="fill:#F4F4C2;" d="M242.111,46.183c2.99,3.328,4.462,7.811,4.462,13.494s-1.472,10.166-4.462,13.494
			c-3,3.273-6.972,4.91-11.925,4.91c-5.055,0-9.027-1.637-11.971-4.91c-2.991-3.328-4.462-7.811-4.462-13.494
			s1.472-10.166,4.462-13.494c2.944-3.328,6.916-4.965,11.971-4.965C235.139,41.218,239.111,42.855,242.111,46.183z M240.389,59.677
			c0-4.528-0.88-7.901-2.694-10.075c-1.814-2.219-4.324-3.319-7.509-3.319c-3.287,0-5.787,1.1-7.555,3.319
			c-1.815,2.173-2.704,5.546-2.704,10.075c0,4.383,0.889,7.711,2.704,9.975c1.814,2.264,4.314,3.374,7.555,3.374
			c3.185,0,5.694-1.109,7.509-3.328C239.509,67.433,240.389,64.06,240.389,59.677z"/>
		<path style="fill:#F9927E;" d="M198.957,120.545l19.554,52.703H210.9l-5.277-14.676h-23.22l-5.277,14.676h-7.222l19.554-52.703
			H198.957z M203.401,152.516l-9.388-25.86l-9.444,25.86H203.401z"/>
		<path style="fill:#FFC98B;" d="M215.844,231.57l-23.499,54.121h-7.277l7.5-16.476l-15.999-37.645h7.333
			c4.166,9.766,8.277,19.532,12.388,29.297l12.443-29.297H215.844z"/>
		<polygon style="fill:#F4F4C2;" points="203.984,30.57 203.984,77.117 197.707,77.117 197.707,36.981 184.504,64.296
			180.782,64.296 167.681,36.981 167.681,77.117 161.792,77.117 161.792,30.57 170.375,30.57 183.032,56.495 195.253,30.57 		"/>
		<polygon style="fill:#FFC98B;" points="167.125,218.421 167.125,271.124 160.015,271.124 160.015,225.678 145.072,256.612
			140.85,256.612 126.018,225.678 126.018,271.124 119.352,271.124 119.352,218.421 129.073,218.421 143.405,247.773
			157.237,218.421 		"/>
		<path style="fill:#F9927E;" d="M161.626,133.693c2.056,3.71,3.055,8.129,3.055,13.258c0,4.801-1.055,9.166-3.166,13.039
			c-2.167,3.874-5,6.929-8.5,9.057c-2.444,1.473-5.167,2.564-8.166,3.219c-3.055,0.655-7,0.982-11.943,0.982h-13.555v-52.703h13.388
			c5.277,0,9.444,0.382,12.499,1.146c3.056,0.709,5.667,1.746,7.833,3C156.738,126.928,159.571,129.929,161.626,133.693z
			 M155.238,157.099c1.333-2.728,2-6.165,2-10.257c0-4.146-0.722-7.638-2.222-10.475c-1.444-2.782-3.611-5.019-6.555-6.656
			c-2.111-1.201-4.333-2.019-6.722-2.455c-2.389-0.491-5.222-0.709-8.555-0.709h-6.722v40.7h6.722c3.444,0,6.444-0.273,9-0.764
			c2.555-0.491,4.889-1.418,7.055-2.782C151.905,162.009,153.904,159.827,155.238,157.099z"/>
		<rect x="80.354" y="251.647" style="fill:#85EBD3;" width="7.055" height="7.475"/>
		<path style="fill:#85EBD3;" d="M83.688,109.416c2.889,3.764,4.333,8.511,4.333,14.239c0,3.655-0.389,7.038-1.111,10.148
			c-0.722,3.109-1.611,5.837-2.667,8.238h-8.444v-0.491c1.722-2.019,3.167-4.638,4.333-7.911s1.722-6.601,1.722-10.039
			c0-3.764-0.778-6.765-2.389-9.056c-1.611-2.292-3.611-3.438-6.111-3.438c-2.277,0-4,0.6-5.277,1.746
			c-1.278,1.146-2.222,3.11-2.944,5.947l-1.222,6.438l-1.444,7.093c-1.055,3.928-2.667,6.874-4.833,8.838
			c-2.111,2.019-5.11,3-8.943,3c-2.111,0-4.167-0.491-6.222-1.418c-2.055-0.982-3.777-2.346-5.166-4.037
			c-1.556-1.91-2.778-4.092-3.611-6.602c-0.889-2.51-1.333-5.51-1.333-9.057c0-3.819,0.389-7.256,1.111-10.257
			c0.722-3.055,1.777-6.165,3.222-9.275h8.944v0.491c-2.277,2.673-4,5.729-5.222,9.22c-1.278,3.492-1.889,6.765-1.889,9.875
			c0,4.31,0.833,7.692,2.5,10.147c1.667,2.401,3.889,3.601,6.667,3.601c2.389,0,4.111-0.546,5.222-1.691
			c1.167-1.146,2.056-2.892,2.667-5.237l1.167-5.729l1.222-6.601c1-4.638,2.722-8.129,5.111-10.366
			c2.5-2.237,5.666-3.382,9.555-3.382C77.132,103.851,80.854,105.706,83.688,109.416z"/>
		<polygon style="fill:#85EBD3;" points="87.021,212.256 87.021,219.24 39.691,219.24 39.691,245.591 33.358,245.591
			33.358,212.256 		"/>
		<path style="fill:#85EBD3;" d="M86.298,166.755c1.222,3.055,1.833,6.383,1.833,10.039c0,3.765-0.611,7.202-1.889,10.202
			c-1.278,3.001-3.056,5.51-5.389,7.638c-2.389,2.128-5.333,3.819-8.833,4.965c-3.5,1.146-7.444,1.691-11.833,1.691
			c-6.555,0-12.11-1.31-16.61-3.928c-4.5-2.673-7.611-6.22-9.444-10.639c-2.722,0.109-4.889,0.764-6.388,1.909
			c-1.5,1.2-2.222,3.383-2.222,6.493l0.389,3.437l0.833,2.837v0.982h-6.555l-0.778-4.201l-0.222-4.255
			c0-4.092,1.167-7.42,3.444-9.875c2.277-2.51,5.555-3.874,9.833-4.092l-0.167-1.583l-0.056-1.582c0-3.71,0.611-7.092,1.889-10.093
			c1.222-3.055,3.055-5.619,5.444-7.747c2.389-2.128,5.278-3.765,8.722-4.91c3.5-1.146,7.444-1.691,11.888-1.691
			c4.389,0,8.277,0.546,11.721,1.691c3.5,1.146,6.444,2.782,8.944,4.965C83.243,161.082,85.021,163.646,86.298,166.755z
			 M81.965,176.849c0-5.401-1.889-9.602-5.666-12.603c-3.777-3.11-9.166-4.637-16.11-4.637c-7.055,0-12.443,1.582-16.221,4.692
			c-3.722,3.11-5.555,7.311-5.555,12.548c0,5.237,1.833,9.384,5.555,12.494c3.778,3.11,9.166,4.637,16.221,4.637
			c6.944,0,12.333-1.527,16.11-4.583S81.965,182.141,81.965,176.849z"/>
		<path style="fill:#85EBD3;" d="M85.188,271.888v6.656H73.633v13.694h-5.722v-13.694H49.579l-5,0.109
			c-1.167,0.109-2.222,0.436-3.278,0.982c-0.944,0.545-1.667,1.255-2.167,2.182c-0.389,0.928-0.611,2.292-0.611,4.146
			c0,1.091,0.167,2.237,0.444,3.382c0.278,0.873,0.556,1.746,0.833,2.564v0.327h-6.111l-0.778-4.037l-0.333-3.983
			c0-4.037,1.111-7.092,3.277-9.22c2.222-2.073,5.777-3.11,10.666-3.11h21.387v-4.528h5.722v4.528H85.188z"/>
		<path style="fill:#85EBD3;" d="M74.744,316.625c0,5.347-1.611,9.493-4.777,12.385s-7.666,4.31-13.499,4.31h-3.666v-29.134
			c-2.5,0-4.667,0.382-6.5,1.091c-1.833,0.709-3.333,1.746-4.5,3s-2,2.673-2.611,4.365c-0.556,1.691-0.833,3.546-0.833,5.565
			c0,2.673,0.555,5.401,1.611,8.184c1.111,2.673,2.167,4.637,3.222,5.783v0.382h-7.388c-0.944-2.237-1.777-4.528-2.389-6.875
			c-0.667-2.346-1-4.801-1-7.365c0-6.602,1.778-11.73,5.389-15.385s8.777-5.51,15.443-5.51c6.61,0,11.832,1.746,15.666,5.292
			C72.799,306.259,74.744,310.896,74.744,316.625z M66.245,324.208c1.944-1.746,2.889-4.364,2.889-7.911s-1.056-6.383-3.167-8.511
			c-2.167-2.127-4.833-3.328-8-3.601v22.642C61.522,326.773,64.3,325.9,66.245,324.208z"/>
		<rect x="33.358" y="252.029" style="fill:#85EBD3;" width="40.275" height="6.656"/>
	</g>
	<g>

			<rect x="0.25" y="-35.817" style="fill:none;stroke:#FFFFFF;stroke-width:0.06;stroke-linecap:round;stroke-linejoin:round;stroke-miterlimit:10;" width="530.459" height="390.96"/>
	</g>
</g>
</svg>
