<?xml version="1.0" encoding="utf-8"?>
<!-- Generator: Adobe Illustrator 16.0.0, SVG Export Plug-In . SVG Version: 6.00 Build 0)  -->
<!DOCTYPE svg PUBLIC "-//W3C//DTD SVG 1.1//EN" "http://www.w3.org/Graphics/SVG/1.1/DTD/svg11.dtd">
<svg version="1.1" id="图层_3" xmlns="http://www.w3.org/2000/svg" xmlns:xlink="http://www.w3.org/1999/xlink" x="0px" y="0px"
	 width="470px" height="420px" viewBox="0 0 470 420" style="enable-background:new 0 0 470 420;" xml:space="preserve">
<g id="XMLID_1_">
	<g>
		<path style="fill:#FFC98B;" d="M453.654,100.18c2.16,2.94,3.239,7.08,3.239,12.36c0,2.64-0.359,5.1-1.14,7.32
			c-0.78,2.16-1.8,4.02-3.18,5.52c-1.26,1.44-2.82,2.58-4.561,3.36c-1.739,0.78-3.6,1.2-5.52,1.2c-1.74,0-3.24-0.18-4.62-0.6
			c-1.38-0.36-2.82-0.9-4.2-1.68v13.68h-5.52V96.58h5.52V100c1.44-1.2,3.061-2.22,4.92-3.06c1.86-0.84,3.78-1.26,5.82-1.26
			C448.374,95.68,451.434,97.18,453.654,100.18z M451.254,112.72c0-3.96-0.66-6.9-2.04-8.88c-1.32-1.92-3.36-2.88-6.18-2.88
			c-1.62,0-3.181,0.36-4.8,1.02c-1.62,0.66-3.12,1.56-4.561,2.7v18.48c1.561,0.72,2.88,1.2,4.021,1.44
			c1.14,0.24,2.399,0.36,3.779,0.36c3.061,0,5.46-1.02,7.2-3.06C450.414,119.8,451.254,116.74,451.254,112.72z"/>
		<path style="fill:#FFC98B;" d="M415.674,100.36c2.7,3.06,4.08,7.26,4.08,12.6s-1.38,9.54-4.08,12.6s-6.359,4.62-10.979,4.62
			s-8.28-1.56-10.98-4.62s-4.08-7.26-4.08-12.6s1.38-9.54,4.08-12.6c2.7-3.12,6.36-4.68,10.98-4.68S412.974,97.24,415.674,100.36z
			 M414.114,112.96c0-4.26-0.84-7.38-2.521-9.42c-1.62-2.1-3.96-3.12-6.899-3.12c-2.94,0-5.28,1.02-6.9,3.12
			c-1.68,2.04-2.52,5.16-2.52,9.42c0,4.08,0.84,7.2,2.52,9.3c1.62,2.1,3.96,3.18,6.9,3.18c2.939,0,5.22-1.02,6.899-3.12
			C413.274,120.22,414.114,117.1,414.114,112.96z"/>
		<path style="fill:#FFC98B;" d="M414.774,159.82v5.64h-0.301l-2.34-0.36l-2.76-0.18c-1.74,0-3.36,0.36-4.92,1.14
			c-1.62,0.78-3.12,1.74-4.561,2.88v23.22h-5.52v-32.7h5.52v4.86c2.16-1.74,4.08-3,5.761-3.72c1.68-0.78,3.359-1.14,5.1-1.14
			l2.1,0.12L414.774,159.82z"/>
		<path style="fill:#FFC98B;" d="M381.894,163.24c2.7,3.06,4.08,7.26,4.08,12.6c0,5.34-1.38,9.54-4.08,12.6
			c-2.699,3.06-6.359,4.62-10.979,4.62s-8.28-1.56-10.98-4.62c-2.699-3.06-4.08-7.26-4.08-12.6c0-5.34,1.381-9.54,4.08-12.6
			c2.7-3.12,6.36-4.68,10.98-4.68S379.194,160.12,381.894,163.24z M380.334,175.84c0-4.26-0.84-7.38-2.52-9.42
			c-1.62-2.1-3.961-3.12-6.9-3.12c-2.94,0-5.28,1.02-6.9,3.12c-1.68,2.04-2.52,5.16-2.52,9.42c0,4.08,0.84,7.2,2.52,9.3
			c1.62,2.1,3.96,3.18,6.9,3.18c2.939,0,5.22-1.02,6.9-3.12C379.494,183.1,380.334,179.98,380.334,175.84z"/>
		<path style="fill:#FFC98B;" d="M381.354,108.1v21.18h-5.52v-18.6l-0.3-4.2c-0.181-1.32-0.48-2.34-0.96-3.12
			c-0.48-0.78-1.2-1.38-2.101-1.8c-0.899-0.42-2.1-0.6-3.54-0.6c-1.5,0-3.119,0.36-4.739,1.08c-1.62,0.78-3.181,1.68-4.681,2.82
			v24.42h-5.52V83.74h5.52v16.5c1.74-1.44,3.48-2.58,5.34-3.36c1.801-0.78,3.66-1.2,5.641-1.2c3.54,0,6.18,1.08,8.04,3.18
			C380.394,101.02,381.354,104.08,381.354,108.1z"/>
		<path style="fill:#FFC98B;" d="M351.594,186.94v4.92l-3.359,0.66l-3.301,0.3c-3.3,0-5.819-0.9-7.56-2.7
			c-1.74-1.8-2.64-4.68-2.64-8.64v-17.4h-3.721v-4.62h3.721v-9.36h5.52v9.36h11.34v4.62h-11.34v14.94l0.12,4.02
			c0.06,0.96,0.36,1.86,0.78,2.7c0.42,0.78,1.02,1.32,1.8,1.74c0.78,0.3,1.92,0.48,3.42,0.48c0.9,0,1.86-0.12,2.82-0.36l2.1-0.66
			H351.594z"/>
		<path style="fill:#FFC98B;" d="M346.194,119.86c0,3-1.2,5.46-3.66,7.32c-2.46,1.92-5.88,2.88-10.141,2.88
			c-2.399,0-4.619-0.3-6.659-0.84c-1.98-0.6-3.66-1.26-5.04-1.92v-6.18h0.3c1.74,1.32,3.66,2.4,5.76,3.18
			c2.1,0.78,4.14,1.14,6.12,1.14c2.4,0,4.26-0.42,5.64-1.2c1.38-0.78,2.101-1.98,2.101-3.66c0-1.26-0.36-2.28-1.141-2.94
			c-0.72-0.66-2.159-1.26-4.26-1.68c-1.02-0.18-2.04-0.42-3.06-0.66l-3.42-0.72c-2.881-0.78-4.92-1.86-6.12-3.36s-1.8-3.3-1.8-5.4
			c0-1.38,0.3-2.64,0.84-3.84s1.38-2.28,2.52-3.18c1.08-0.9,2.46-1.62,4.2-2.16c1.68-0.54,3.54-0.84,5.64-0.84
			c1.98,0,3.96,0.24,5.94,0.72c1.979,0.48,3.66,1.08,4.979,1.74v5.88h-0.3c-1.38-1.02-3.12-1.92-5.1-2.58
			c-2.04-0.72-4.021-1.08-5.94-1.08c-1.979,0-3.72,0.36-5.1,1.14c-1.38,0.78-2.04,1.92-2.04,3.42c0,1.38,0.42,2.4,1.26,3.06
			c0.78,0.66,2.101,1.26,3.96,1.68l3.42,0.72l3.12,0.6c2.58,0.6,4.561,1.62,5.94,3C345.534,115.6,346.194,117.52,346.194,119.86z"/>
		<path style="fill:#FFC98B;" d="M324.054,169.96v22.2h-5.46v-3.48l-1.92,1.38l-2.46,1.44l-3.18,1.14
			c-1.141,0.3-2.521,0.42-4.141,0.42c-2.939,0-5.46-0.96-7.5-2.94c-2.04-1.92-3.06-4.38-3.06-7.44c0-2.46,0.54-4.5,1.62-6
			c1.02-1.5,2.52-2.7,4.5-3.6c1.979-0.9,4.38-1.5,7.2-1.8l8.939-0.72v-0.84c0-1.26-0.24-2.28-0.66-3.12
			c-0.42-0.78-1.08-1.44-1.859-1.92c-0.78-0.42-1.74-0.72-2.82-0.9l-3.42-0.24c-1.44,0-3.06,0.18-4.86,0.6
			c-1.739,0.36-3.6,0.9-5.46,1.62h-0.3v-5.58l4.62-0.96c2.04-0.36,4.02-0.54,6-0.54c2.34,0,4.32,0.18,6.06,0.6
			c1.681,0.36,3.12,1.02,4.381,1.92c1.26,0.9,2.159,2.1,2.819,3.48C323.754,166.12,324.054,167.86,324.054,169.96z M318.594,184.12
			V175l-5.88,0.48c-2.28,0.18-4.08,0.48-5.399,0.84c-1.62,0.42-2.881,1.14-3.841,2.1c-1.02,0.9-1.5,2.22-1.5,3.9
			c0,1.86,0.601,3.3,1.74,4.2c1.14,0.96,2.82,1.44,5.16,1.44c1.92,0,3.66-0.36,5.28-1.14
			C315.774,186.04,317.214,185.14,318.594,184.12z"/>
		<path style="fill:#FFC98B;" d="M310.374,100.36c2.7,3.06,4.08,7.26,4.08,12.6s-1.38,9.54-4.08,12.6s-6.36,4.62-10.98,4.62
			c-4.62,0-8.28-1.56-10.979-4.62c-2.7-3.06-4.08-7.26-4.08-12.6s1.38-9.54,4.08-12.6c2.7-3.12,6.36-4.68,10.979-4.68
			C304.014,95.68,307.674,97.24,310.374,100.36z M308.814,112.96c0-4.26-0.841-7.38-2.521-9.42c-1.62-2.1-3.96-3.12-6.9-3.12
			c-2.939,0-5.28,1.02-6.899,3.12c-1.68,2.04-2.52,5.16-2.52,9.42c0,4.08,0.84,7.2,2.52,9.3c1.62,2.1,3.96,3.18,6.899,3.18
			c2.94,0,5.221-1.02,6.9-3.12C307.974,120.22,308.814,117.1,308.814,112.96z"/>
		<path style="fill:#FFC98B;" d="M293.634,159.82v5.64h-0.3l-2.34-0.36l-2.76-0.18c-1.74,0-3.36,0.36-4.92,1.14
			c-1.62,0.78-3.12,1.74-4.56,2.88v23.22h-5.52v-32.7h5.52v4.86c2.16-1.74,4.08-3,5.76-3.72c1.68-0.78,3.36-1.14,5.1-1.14l2.1,0.12
			L293.634,159.82z"/>
		<path style="fill:#FFC98B;" d="M280.074,124.06v4.92l-3.36,0.66l-3.3,0.3c-3.3,0-5.82-0.9-7.56-2.7c-1.74-1.8-2.64-4.68-2.64-8.64
			v-17.4h-3.72v-4.62h3.72v-9.36h5.52v9.36h11.34v4.62h-11.34v14.94l0.12,4.02c0.06,0.96,0.36,1.86,0.78,2.7
			c0.42,0.78,1.02,1.32,1.8,1.74c0.78,0.3,1.92,0.48,3.42,0.48c0.9,0,1.86-0.12,2.82-0.36l2.1-0.66H280.074z"/>
		<path style="fill:#FFC98B;" d="M266.694,186.94v4.92l-3.36,0.66l-3.3,0.3c-3.3,0-5.82-0.9-7.56-2.7c-1.74-1.8-2.64-4.68-2.64-8.64
			v-17.4h-3.72v-4.62h3.72v-9.36h5.52v9.36h11.34v4.62h-11.34v14.94l0.12,4.02c0.06,0.96,0.36,1.86,0.78,2.7
			c0.42,0.78,1.02,1.32,1.8,1.74c0.78,0.3,1.92,0.48,3.42,0.48c0.9,0,1.86-0.12,2.82-0.36l2.1-0.66H266.694z"/>
		<path style="fill:#FFC98B;" d="M250.614,100.36c2.7,3.06,4.08,7.26,4.08,12.6s-1.38,9.54-4.08,12.6
			c-2.7,3.06-6.36,4.62-10.98,4.62c-4.62,0-8.28-1.56-10.98-4.62c-2.7-3.06-4.08-7.26-4.08-12.6s1.38-9.54,4.08-12.6
			c2.7-3.12,6.36-4.68,10.98-4.68C244.254,95.68,247.914,97.24,250.614,100.36z M249.054,112.96c0-4.26-0.84-7.38-2.52-9.42
			c-1.62-2.1-3.96-3.12-6.9-3.12c-2.94,0-5.28,1.02-6.9,3.12c-1.68,2.04-2.52,5.16-2.52,9.42c0,4.08,0.84,7.2,2.52,9.3
			c1.62,2.1,3.96,3.18,6.9,3.18c2.94,0,5.22-1.02,6.9-3.12C248.214,120.22,249.054,117.1,249.054,112.96z"/>
		<path style="fill:#FFC98B;" d="M241.914,182.74c0,3-1.2,5.46-3.66,7.32c-2.46,1.92-5.88,2.88-10.14,2.88
			c-2.4,0-4.62-0.3-6.66-0.84c-1.98-0.6-3.66-1.26-5.04-1.92V184h0.3c1.74,1.32,3.66,2.4,5.76,3.18c2.1,0.78,4.14,1.14,6.12,1.14
			c2.4,0,4.26-0.42,5.64-1.2c1.38-0.78,2.1-1.98,2.1-3.66c0-1.26-0.36-2.28-1.14-2.94c-0.72-0.66-2.16-1.26-4.26-1.68
			c-1.02-0.18-2.04-0.42-3.06-0.66l-3.42-0.72c-2.88-0.78-4.92-1.86-6.12-3.36s-1.8-3.3-1.8-5.4c0-1.38,0.3-2.64,0.84-3.84
			c0.54-1.2,1.38-2.28,2.52-3.18c1.08-0.9,2.46-1.62,4.2-2.16c1.68-0.54,3.54-0.84,5.64-0.84c1.98,0,3.96,0.24,5.94,0.72
			s3.66,1.08,4.98,1.74v5.88h-0.3c-1.38-1.02-3.12-1.92-5.1-2.58c-2.04-0.72-4.02-1.08-5.94-1.08c-1.98,0-3.72,0.36-5.1,1.14
			s-2.04,1.92-2.04,3.42c0,1.38,0.42,2.4,1.26,3.06c0.78,0.66,2.1,1.26,3.96,1.68l3.42,0.72l3.12,0.6c2.58,0.6,4.56,1.62,5.94,3
			C241.254,178.48,241.914,180.4,241.914,182.74z"/>
		<path style="fill:#FFC98B;" d="M216.294,108.1v21.18h-5.52v-18.6l-0.3-4.2c-0.18-1.32-0.48-2.34-0.96-3.12
			c-0.48-0.78-1.2-1.38-2.1-1.8s-2.1-0.6-3.54-0.6c-1.5,0-3.12,0.36-4.74,1.08c-1.62,0.78-3.18,1.68-4.68,2.82v24.42h-5.52V83.74
			h5.52v16.5c1.74-1.44,3.48-2.58,5.34-3.36c1.8-0.78,3.66-1.2,5.64-1.2c3.54,0,6.18,1.08,8.04,3.18
			C215.334,101.02,216.294,104.08,216.294,108.1z"/>
		<path style="fill:#FFC98B;" d="M207.774,159.46v32.7h-5.52v-3.6c-1.86,1.44-3.6,2.58-5.34,3.36c-1.68,0.78-3.54,1.14-5.58,1.14
			c-3.42,0-6.12-1.02-8.04-3.12s-2.88-5.22-2.88-9.24v-21.24h5.52v18.66l0.24,4.26c0.18,1.14,0.48,2.16,0.96,3
			c0.54,0.84,1.26,1.44,2.1,1.86c0.84,0.42,2.04,0.6,3.6,0.6c1.44,0,3-0.36,4.68-1.14c1.68-0.72,3.24-1.68,4.74-2.82v-24.42H207.774
			z"/>
		<path style="fill:#85EBD3;" d="M187.434,338.5v5.52h-45.54v-5.52h3.42c-1.38-1.56-2.4-3.18-3.18-4.92
			c-0.78-1.74-1.14-3.6-1.14-5.58c0-3.9,1.5-7.02,4.5-9.3c3-2.28,7.14-3.42,12.48-3.42c2.76,0,5.22,0.42,7.38,1.2
			c2.22,0.78,4.08,1.8,5.58,3.18c1.5,1.32,2.58,2.88,3.36,4.62c0.78,1.74,1.2,3.6,1.2,5.46c0,1.74-0.18,3.24-0.6,4.62
			c-0.3,1.32-0.84,2.7-1.62,4.14H187.434z M170.034,334.54c0.3-1.14,0.42-2.46,0.42-3.84c0-3.06-1.08-5.46-3.24-7.2
			c-2.1-1.74-5.16-2.58-9.12-2.58c-3.9,0-6.84,0.66-8.88,1.98c-1.98,1.38-3,3.48-3,6.42c0,1.56,0.36,3.12,1.02,4.74
			c0.72,1.62,1.62,3.06,2.7,4.44h18.78C169.374,337,169.794,335.68,170.034,334.54z"/>
		<rect x="141.894" y="265.6" style="fill:#85EBD3;" width="45.54" height="5.52"/>
		<rect x="180.054" y="248.92" style="fill:#85EBD3;" width="5.7" height="6.24"/>
		<polygon style="fill:#85EBD3;" points="185.454,206.98 185.454,243.88 180.294,243.88 180.294,228.34 141.894,228.34
			141.894,222.52 180.294,222.52 180.294,206.98 		"/>
		<path style="fill:#FFC98B;" d="M181.794,98.86c0,1.98-0.3,3.78-0.96,5.4c-0.66,1.62-1.62,3.06-2.88,4.26
			c-1.5,1.5-3.24,2.64-5.28,3.42c-2.04,0.72-4.62,1.08-7.74,1.08h-5.82v16.26h-5.76V85.72h11.76c2.64,0,4.86,0.24,6.66,0.66
			c1.8,0.42,3.42,1.14,4.86,2.04c1.62,1.14,2.94,2.52,3.84,4.2C181.374,94.24,181.794,96.34,181.794,98.86z M175.254,102.52
			c0.36-1.02,0.54-2.22,0.54-3.48c0-1.5-0.24-2.82-0.78-3.9c-0.54-1.14-1.32-2.04-2.4-2.76c-0.96-0.6-2.04-1.02-3.18-1.26
			c-1.26-0.3-2.76-0.42-4.56-0.42h-5.76v17.4h4.86c2.34,0,4.26-0.18,5.76-0.6c1.44-0.42,2.64-1.14,3.54-2.04
			S174.834,103.54,175.254,102.52z"/>
		<path style="fill:#FFC98B;" d="M175.134,54.16v21.18h-5.52v-18.6l-0.3-4.2c-0.18-1.32-0.48-2.34-0.96-3.12
			c-0.48-0.78-1.2-1.38-2.1-1.8s-2.1-0.6-3.54-0.6c-1.5,0-3.12,0.36-4.74,1.08c-1.62,0.78-3.18,1.68-4.68,2.82v24.42h-5.52V29.8
			h5.52v16.5c1.74-1.44,3.48-2.58,5.34-3.36c1.8-0.78,3.66-1.2,5.64-1.2c3.54,0,6.18,1.08,8.04,3.18
			C174.174,47.08,175.134,50.14,175.134,54.16z"/>
		<path style="fill:#85EBD3;" d="M175.494,295.42c0,4.44-1.32,7.86-3.9,10.26c-2.58,2.34-6.24,3.54-10.98,3.54h-2.94v-24.06
			c-1.98,0-3.78,0.3-5.28,0.9s-2.7,1.44-3.66,2.46c-0.9,1.02-1.62,2.28-2.1,3.66c-0.48,1.38-0.72,2.88-0.72,4.56
			c0,2.22,0.42,4.5,1.32,6.72c0.9,2.28,1.8,3.9,2.64,4.8v0.3h-6c-0.78-1.86-1.44-3.72-1.98-5.64c-0.54-1.98-0.78-4.02-0.78-6.12
			c0-5.4,1.44-9.6,4.38-12.66s7.14-4.56,12.54-4.56c5.34,0,9.6,1.44,12.72,4.38C173.934,286.84,175.494,290.68,175.494,295.42z
			 M170.934,295.18c0-2.94-0.84-5.28-2.58-7.02c-1.74-1.74-3.9-2.76-6.48-3v18.72c2.88-0.06,5.1-0.78,6.72-2.16
			C170.154,300.28,170.934,298.12,170.934,295.18z"/>
		<rect x="141.894" y="249.28" style="fill:#85EBD3;" width="32.7" height="5.52"/>
		<rect x="164.394" y="146.62" style="fill:#FFC98B;" width="5.52" height="45.54"/>
		<rect x="148.074" y="146.62" style="fill:#FFC98B;" width="5.52" height="45.54"/>
		<path style="fill:#FFC98B;" d="M139.974,65.92c0,3-1.2,5.46-3.66,7.32c-2.46,1.92-5.88,2.88-10.14,2.88c-2.4,0-4.62-0.3-6.66-0.84
			c-1.98-0.6-3.66-1.26-5.04-1.92v-6.18h0.3c1.74,1.32,3.66,2.4,5.76,3.18c2.1,0.78,4.14,1.14,6.12,1.14c2.4,0,4.26-0.42,5.64-1.2
			c1.38-0.78,2.1-1.98,2.1-3.66c0-1.26-0.36-2.28-1.14-2.94c-0.72-0.66-2.16-1.26-4.26-1.68c-1.02-0.18-2.04-0.42-3.06-0.66
			l-3.42-0.72c-2.88-0.78-4.92-1.86-6.12-3.36c-1.2-1.5-1.8-3.3-1.8-5.4c0-1.38,0.3-2.64,0.84-3.84s1.38-2.28,2.52-3.18
			c1.08-0.9,2.46-1.62,4.2-2.16c1.68-0.54,3.54-0.84,5.64-0.84c1.98,0,3.96,0.24,5.94,0.72s3.66,1.08,4.98,1.74v5.88h-0.3
			c-1.38-1.02-3.12-1.92-5.1-2.58c-2.04-0.72-4.02-1.08-5.94-1.08c-1.98,0-3.72,0.36-5.1,1.14c-1.38,0.78-2.04,1.92-2.04,3.42
			c0,1.38,0.42,2.4,1.26,3.06c0.78,0.66,2.1,1.26,3.96,1.68l3.42,0.72l3.12,0.6c2.58,0.6,4.56,1.62,5.94,3
			C139.314,61.66,139.974,63.58,139.974,65.92z"/>
		<polygon style="fill:#FFC98B;" points="138.654,187.72 138.654,192.16 121.494,192.16 121.494,187.72 127.194,187.72
			127.194,153.04 121.494,153.04 121.494,148.6 138.654,148.6 138.654,153.04 132.954,153.04 132.954,187.72 		"/>
		<path style="fill:#F4F4C2;" d="M127.074,97.78v7.74l-43.56,15.84v-6.18l12.12-4.26V92.08l-12.12-4.26v-5.88L127.074,97.78z
			 M100.614,109.12l21.42-7.62l-21.42-7.68V109.12z"/>
		<path style="fill:#F4F4C2;" d="M117.114,239.68c0,4.44-1.32,7.86-3.9,10.26c-2.58,2.34-6.24,3.54-10.98,3.54h-2.94v-24.06
			c-1.98,0-3.78,0.3-5.28,0.9c-1.5,0.6-2.7,1.44-3.66,2.46c-0.9,1.02-1.62,2.28-2.1,3.66s-0.72,2.88-0.72,4.56
			c0,2.22,0.42,4.5,1.32,6.72c0.9,2.28,1.8,3.9,2.64,4.8v0.3h-6c-0.78-1.86-1.44-3.72-1.98-5.64c-0.54-1.98-0.78-4.02-0.78-6.12
			c0-5.4,1.44-9.6,4.38-12.66c2.94-3.06,7.14-4.56,12.54-4.56c5.34,0,9.6,1.44,12.72,4.38
			C115.554,231.1,117.114,234.94,117.114,239.68z M112.554,239.44c0-2.94-0.84-5.28-2.58-7.02c-1.74-1.74-3.9-2.76-6.48-3v18.72
			c2.88-0.06,5.1-0.78,6.72-2.16C111.774,244.54,112.554,242.38,112.554,239.44z"/>
		<path style="fill:#F4F4C2;" d="M116.214,200.68v5.52h-4.86c1.74,2.16,3,4.08,3.72,5.76c0.78,1.68,1.14,3.36,1.14,5.1l-0.12,2.1
			l-0.24,1.92h-5.64v-0.3l0.36-2.34l0.18-2.76c0-1.74-0.36-3.36-1.14-4.92c-0.78-1.62-1.74-3.12-2.88-4.56h-23.22v-5.52H116.214z"/>
		<path style="fill:#F4F4C2;" d="M116.214,184.36v5.52h-32.7v-5.52h3.6c-1.44-1.86-2.58-3.6-3.36-5.34
			c-0.78-1.68-1.14-3.54-1.14-5.58c0-3.42,1.02-6.12,3.12-8.04s5.22-2.88,9.24-2.88h21.24v5.52h-18.66l-4.26,0.24
			c-1.14,0.18-2.16,0.48-3,0.96c-0.84,0.54-1.44,1.26-1.86,2.1c-0.42,0.84-0.6,2.04-0.6,3.6c0,1.44,0.36,3,1.14,4.68
			c0.72,1.68,1.68,3.24,2.82,4.74H116.214z"/>
		<polygon style="fill:#F4F4C2;" points="116.214,149.26 116.214,155.74 100.074,142.9 83.514,155.74 83.514,148.78 96.054,139.54
			83.514,130.18 83.514,123.76 99.834,136.54 116.214,123.88 116.214,130.84 103.854,140.02 		"/>
		<path style="fill:#FFC98B;" d="M106.074,53.14v22.2h-5.46v-3.48l-1.92,1.38l-2.46,1.44l-3.18,1.14c-1.14,0.3-2.52,0.42-4.14,0.42
			c-2.94,0-5.46-0.96-7.5-2.94c-2.04-1.92-3.06-4.38-3.06-7.44c0-2.46,0.54-4.5,1.62-6c1.02-1.5,2.52-2.7,4.5-3.6
			c1.98-0.9,4.38-1.5,7.2-1.8l8.94-0.72V52.9c0-1.26-0.24-2.28-0.66-3.12c-0.42-0.78-1.08-1.44-1.86-1.92
			c-0.78-0.42-1.74-0.72-2.82-0.9l-3.42-0.24c-1.44,0-3.06,0.18-4.86,0.6c-1.74,0.36-3.6,0.9-5.46,1.62h-0.3v-5.58l4.62-0.96
			c2.04-0.36,4.02-0.54,6-0.54c2.34,0,4.32,0.18,6.06,0.6c1.68,0.36,3.12,1.02,4.38,1.92c1.26,0.9,2.16,2.1,2.82,3.48
			C105.774,49.3,106.074,51.04,106.074,53.14z M100.614,67.3v-9.12l-5.88,0.48c-2.28,0.18-4.08,0.48-5.4,0.84
			c-1.62,0.42-2.88,1.14-3.84,2.1c-1.02,0.9-1.5,2.22-1.5,3.9c0,1.86,0.6,3.3,1.74,4.2c1.14,0.96,2.82,1.44,5.16,1.44
			c1.92,0,3.66-0.36,5.28-1.14C97.794,69.22,99.234,68.32,100.614,67.3z"/>
		<path style="fill:#F9927E;" d="M74.874,262.24c2.34,3.06,3.48,6.96,3.48,11.7c0,3.06-0.3,5.88-0.9,8.46
			c-0.54,2.58-1.26,4.8-2.16,6.78h-6.84v-0.42c1.38-1.68,2.58-3.84,3.48-6.54c0.96-2.7,1.44-5.46,1.44-8.28
			c0-3.12-0.66-5.64-1.92-7.5c-1.32-1.86-3-2.82-4.98-2.82c-1.86,0-3.3,0.48-4.32,1.44c-1.02,0.9-1.8,2.58-2.34,4.92l-1.02,5.34
			l-1.2,5.82c-0.84,3.24-2.1,5.7-3.84,7.32c-1.74,1.62-4.2,2.46-7.32,2.46c-1.68,0-3.36-0.42-5.04-1.2c-1.62-0.78-3.06-1.86-4.2-3.3
			c-1.26-1.56-2.22-3.36-2.94-5.46c-0.66-2.1-1.02-4.56-1.02-7.5c0-3.18,0.3-6,0.84-8.46c0.6-2.52,1.5-5.1,2.64-7.68h7.26v0.42
			c-1.86,2.22-3.24,4.74-4.26,7.62c-1.02,2.94-1.5,5.64-1.5,8.16c0,3.6,0.66,6.42,2.04,8.4c1.32,1.98,3.12,3,5.4,3
			c1.92,0,3.36-0.48,4.26-1.44s1.62-2.4,2.1-4.32l0.96-4.74l0.96-5.46c0.84-3.84,2.22-6.66,4.2-8.52s4.56-2.82,7.74-2.82
			C69.534,257.62,72.534,259.18,74.874,262.24z"/>
		<path style="fill:#F9927E;" d="M78.354,345.64c0,2.46-0.3,5.04-0.9,7.62c-0.6,2.58-1.62,5.34-3,8.34h-6.9v-0.54l1.86-2.64
			c0.6-1.14,1.26-2.28,1.92-3.42c0.6-1.32,1.08-2.82,1.44-4.56c0.42-1.74,0.66-3.66,0.66-5.82c0-4.86-1.56-8.7-4.74-11.52
			c-3.12-2.88-7.32-4.32-12.66-4.32c-5.64,0-10.02,1.5-13.2,4.5c-3.12,2.94-4.68,6.96-4.68,12.06c0,1.86,0.18,3.78,0.54,5.64
			c0.42,1.86,0.9,3.48,1.44,4.86h10.68V344.2h5.1v17.4h-18.66c-1.14-2.34-2.1-4.98-2.88-7.8c-0.78-2.82-1.2-5.52-1.2-8.16
			c0-3.42,0.48-6.54,1.38-9.36c0.96-2.82,2.34-5.22,4.2-7.2c1.92-1.98,4.26-3.54,7.08-4.68c2.88-1.08,6.24-1.62,10.02-1.62
			c6.96,0,12.42,2.04,16.44,6.12C76.314,332.92,78.354,338.5,78.354,345.64z"/>
		<polygon style="fill:#F9927E;" points="77.574,399.52 77.574,404.92 34.014,404.92 34.014,397.78 72.954,377.14 34.014,377.14
			34.014,371.74 77.574,371.74 77.574,380.68 41.994,399.52 		"/>
		<polygon style="fill:#F9927E;" points="77.574,298.3 77.574,315.46 73.134,315.46 73.134,309.76 38.454,309.76 38.454,315.46
			34.014,315.46 34.014,298.3 38.454,298.3 38.454,304 73.134,304 73.134,298.3 		"/>
		<polygon style="fill:#F9927E;" points="77.574,221.56 77.574,250.24 72.414,250.24 72.414,227.32 60.474,227.32 60.474,250.24
			55.314,250.24 55.314,227.32 39.174,227.32 39.174,250.24 34.014,250.24 34.014,221.56 		"/>
		<path style="fill:#F9927E;" d="M77.574,175.42v10.86c0,4.26-0.3,7.62-0.96,10.14c-0.6,2.46-1.44,4.62-2.52,6.36
			c-1.86,2.94-4.32,5.28-7.38,6.9c-3.06,1.68-6.72,2.52-10.98,2.52c-3.96,0-7.56-0.84-10.74-2.58c-3.24-1.74-5.76-4.02-7.5-6.9
			c-1.26-1.98-2.1-4.2-2.64-6.66s-0.84-5.64-0.84-9.66v-10.98H77.574z M72.594,186.64v-5.46h-33.6v5.46c0,2.76,0.18,5.22,0.6,7.32
			c0.42,2.04,1.14,3.96,2.28,5.7c1.38,2.16,3.24,3.78,5.46,4.86c2.28,1.08,5.1,1.62,8.52,1.62s6.3-0.6,8.64-1.8
			c2.34-1.2,4.14-3,5.52-5.34c0.96-1.68,1.62-3.48,1.98-5.46C72.414,191.62,72.594,189.34,72.594,186.64z"/>
		<rect x="64.374" y="29.8" style="fill:#FFC98B;" width="5.52" height="45.54"/>
		<polygon style="fill:#FFC98B;" points="58.314,31.78 58.314,36.94 36.294,36.94 36.294,49.24 55.194,49.24 55.194,54.34
			36.294,54.34 36.294,75.34 30.534,75.34 30.534,31.78 		"/>
	</g>
	<g>
	</g>
</g>
</svg>
