<?xml version="1.0" encoding="utf-8"?>
<!-- Generator: Adobe Illustrator 16.0.0, SVG Export Plug-In . SVG Version: 6.00 Build 0)  -->
<!DOCTYPE svg PUBLIC "-//W3C//DTD SVG 1.1//EN" "http://www.w3.org/Graphics/SVG/1.1/DTD/svg11.dtd">
<svg version="1.1" id="图层_3" xmlns="http://www.w3.org/2000/svg" xmlns:xlink="http://www.w3.org/1999/xlink" x="0px" y="0px"
	 width="381.665px" height="429.96px" viewBox="0 0 381.665 429.96" style="enable-background:new 0 0 381.665 429.96;"
	 xml:space="preserve">
<g id="XMLID_1_">
	<g>
		<path style="fill:#F4F4C2;" d="M71.95,80.9h20.54v3.47h-3.01c1.07,1.37,1.89,2.55,2.34,3.62c0.46,1.07,0.67,2.14,0.67,3.21
			l-0.05,1.32l-0.16,1.22h-3.56v-0.2l0.25-1.48l0.1-1.73c0-1.07-0.25-2.14-0.71-3.11c-0.46-0.97-1.07-1.94-1.84-2.85H71.95V80.9z"/>
		<path style="fill:#F4F4C2;" d="M74.91,57.05c1.17-1.17,2.65-2.08,4.43-2.75c1.78-0.66,3.87-0.97,6.27-0.97
			c2.29,0,4.28,0.31,6.06,0.92c1.78,0.66,3.31,1.58,4.54,2.8c1.17,1.18,2.09,2.55,2.7,4.23c0.66,1.63,0.97,3.47,0.97,5.46
			c0,1.47-0.21,2.95-0.57,4.43c-0.35,1.48-0.96,3.11-1.88,4.89H93.1v-0.3c1.27-1.48,2.24-3.01,2.8-4.49s0.87-3.06,0.87-4.74
			c0-1.37-0.26-2.65-0.72-3.77c-0.45-1.12-1.12-2.09-2.09-2.95c-0.91-0.87-2.08-1.53-3.46-1.99s-3.01-0.71-4.89-0.71
			c-1.89,0-3.57,0.25-4.95,0.76c-1.37,0.56-2.54,1.22-3.41,2.04c-0.87,0.86-1.53,1.83-1.99,3c-0.46,1.18-0.66,2.35-0.66,3.62
			c0,1.79,0.31,3.42,0.92,4.95c0.56,1.52,1.48,2.95,2.7,4.33v0.25h-4.28l-0.82-1.83l-0.81-2.14l-0.61-2.45
			c-0.16-0.87-0.26-1.83-0.26-2.9c0-1.99,0.31-3.83,0.87-5.41C72.87,59.7,73.73,58.28,74.91,57.05z"/>
		<path style="fill:#F4F4C2;" d="M75.26,152.6h-3.11l-0.45-2.09l-0.16-2.09c0-2.09,0.56-3.67,1.68-4.79
			c1.18-1.07,2.96-1.63,5.46-1.63h10.9v-2.34h2.91V142h5.91v3.47h-5.91v7.13h-2.91v-7.13h-9.32l-2.55,0.1
			c-0.61,0.05-1.17,0.2-1.73,0.51c-0.46,0.25-0.82,0.66-1.07,1.12c-0.21,0.46-0.31,1.17-0.31,2.14c0,0.56,0.05,1.17,0.2,1.78
			l0.46,1.33V152.6z"/>
		<path style="fill:#F4F4C2;" d="M84.54,98.94v11.77c1.78,0,3.21-0.46,4.18-1.32c1.01-0.92,1.52-2.3,1.52-4.13
			c0-1.88-0.56-3.36-1.63-4.43C87.49,99.76,86.12,99.09,84.54,98.94z M77,113.72h-3.78c-0.51-1.17-0.91-2.4-1.27-3.57
			c-0.31-1.22-0.46-2.49-0.46-3.87c0-3.41,0.92-6.06,2.75-7.95c1.84-1.94,4.44-2.9,7.85-2.9c3.36,0,6.06,0.91,8.05,2.75
			c1.99,1.83,2.96,4.23,2.96,7.23c0,2.81-0.82,4.95-2.45,6.42c-1.63,1.53-3.92,2.3-6.88,2.3h-1.88V98.94c-1.28,0-2.4,0.21-3.31,0.56
			c-0.97,0.41-1.74,0.92-2.3,1.58c-0.61,0.66-1.07,1.43-1.32,2.3c-0.31,0.86-0.46,1.83-0.46,2.9c0,1.38,0.25,2.8,0.81,4.23
			c0.56,1.37,1.13,2.39,1.69,3.01V113.72z"/>
		<path style="fill:#F4F4C2;" d="M75.31,129.11c0.46,1.02,1.02,1.93,1.69,2.8h5.75l-0.3-3.72c-0.1-1.43-0.26-2.55-0.51-3.41
			c-0.31-0.97-0.77-1.79-1.33-2.4c-0.61-0.61-1.42-0.92-2.44-0.92c-1.17,0-2.09,0.36-2.7,1.08c-0.56,0.71-0.87,1.78-0.87,3.26
			C74.6,126.97,74.86,128.09,75.31,129.11z M71.39,124.52c0-1.88,0.61-3.46,1.83-4.74c1.23-1.27,2.81-1.88,4.69-1.88
			c1.58,0,2.81,0.3,3.77,0.97c0.97,0.66,1.74,1.63,2.3,2.85c0.56,1.27,0.91,2.75,1.12,4.53l0.46,5.66h0.51
			c0.76,0,1.42-0.15,1.93-0.41c0.56-0.25,0.97-0.66,1.23-1.22c0.25-0.46,0.45-1.07,0.56-1.73l0.15-2.19c0-0.87-0.1-1.89-0.36-3.01
			c-0.25-1.12-0.56-2.29-1.02-3.46v-0.21h3.52l0.61,2.96c0.2,1.27,0.31,2.49,0.31,3.77c0,1.42-0.11,2.7-0.36,3.77
			c-0.26,1.07-0.66,2.04-1.22,2.8c-0.56,0.77-1.28,1.38-2.19,1.73c-0.87,0.41-1.99,0.62-3.32,0.62H71.95v-3.42h2.19l-0.86-1.22
			l-0.92-1.53l-0.72-1.99C71.49,126.41,71.39,125.54,71.39,124.52z"/>
		<path style="fill:#F4F4C2;" d="M88.61,160.7c-1.12-1.07-2.49-1.73-4.07-1.88v11.77c1.78,0,3.21-0.46,4.18-1.33
			c1.01-0.91,1.52-2.29,1.52-4.12C90.24,163.25,89.68,161.77,88.61,160.7z M77,173.59h-3.78c-0.51-1.17-0.91-2.39-1.27-3.56
			c-0.31-1.23-0.46-2.5-0.46-3.88c0-3.41,0.92-6.06,2.75-7.94c1.84-1.94,4.44-2.91,7.85-2.91c3.36,0,6.06,0.92,8.05,2.75
			c1.99,1.84,2.96,4.23,2.96,7.24c0,2.8-0.82,4.94-2.45,6.42c-1.63,1.53-3.92,2.29-6.88,2.29h-1.88v-15.18
			c-1.28,0-2.4,0.2-3.31,0.56c-0.97,0.41-1.74,0.91-2.3,1.58c-0.61,0.66-1.07,1.42-1.32,2.29c-0.31,0.87-0.46,1.83-0.46,2.9
			c0,1.38,0.25,2.81,0.81,4.23c0.56,1.38,1.13,2.4,1.69,3.01V173.59z"/>
		<path style="fill:#F4F4C2;" d="M71.7,179.05l0.4-2.45h3.42v0.21l-0.56,1.83c-0.16,0.76-0.26,1.53-0.26,2.29
			c0,1.12,0.1,2.04,0.36,2.7c0.25,0.67,0.66,1.12,1.12,1.48c0.51,0.36,1.12,0.56,1.78,0.61c0.87,0.05,1.69,0.1,2.5,0.16h16v-5.81
			h2.91v9.42H79.08c-2.39,0-4.28-0.71-5.55-2.19c-1.32-1.48-1.99-3.41-1.99-5.86L71.7,179.05z"/>
		<path style="fill:#F4F4C2;" d="M71.44,205.44c0-1.98,0.2-3.72,0.56-5.3s0.92-3.21,1.63-4.84h4.59v0.26c-1.17,1.37-2.04,3-2.7,4.84
			c-0.61,1.78-0.92,3.51-0.92,5.09c0,2.3,0.41,4.03,1.27,5.3c0.87,1.28,1.99,1.89,3.37,1.89c1.22,0,2.14-0.31,2.7-0.92
			c0.56-0.56,1.02-1.48,1.37-2.7l0.56-3.01l0.62-3.41c0.56-2.39,1.42-4.23,2.65-5.4c1.27-1.17,2.9-1.73,4.89-1.73
			c2.29,0,4.13,0.96,5.6,2.9c1.48,1.94,2.25,4.38,2.25,7.39c0,1.89-0.21,3.67-0.57,5.3c-0.35,1.58-0.81,3.01-1.37,4.23h-4.28v-0.26
			c0.86-1.02,1.63-2.39,2.19-4.07s0.87-3.47,0.87-5.25c0-1.94-0.41-3.52-1.23-4.69c-0.81-1.17-1.83-1.78-3.11-1.78
			c-1.17,0-2.03,0.3-2.7,0.86c-0.66,0.62-1.12,1.63-1.47,3.11l-0.67,3.37l-0.71,3.66c-0.56,2.04-1.38,3.57-2.5,4.64
			c-1.07,1.02-2.6,1.53-4.53,1.53c-1.07,0-2.14-0.25-3.21-0.71c-1.02-0.51-1.89-1.23-2.65-2.14c-0.77-0.97-1.38-2.09-1.84-3.42
			C71.64,208.91,71.44,207.33,71.44,205.44z"/>
		<polygon style="fill:#F9927E;" points="363.41,30.24 350.33,51.14 350.33,67.47 345.35,67.47 345.35,51.69 332.2,30.24
			337.67,30.24 347.84,46.92 358.15,30.24 		"/>
		<path style="fill:#FFC98B;" d="M346.19,87.99c1.079-0.9,2.279-1.68,3.659-2.28c1.32-0.66,2.761-0.96,4.32-0.96
			c2.94,0,5.16,1.14,6.78,3.36c1.62,2.16,2.46,5.22,2.46,9.12c0,1.98-0.3,3.78-0.84,5.4s-1.38,3-2.4,4.14
			c-0.96,1.08-2.1,1.92-3.36,2.46c-1.26,0.6-2.64,0.9-4.14,0.9c-1.26,0-2.34-0.12-3.36-0.42c-1.02-0.3-2.1-0.72-3.119-1.26v10.14
			h-4.08V85.47h4.08V87.99z M349.55,89.43c-1.14,0.48-2.28,1.14-3.359,1.98v13.74c1.14,0.54,2.159,0.84,3,1.02
			c0.779,0.18,1.739,0.3,2.819,0.3c2.221,0,4.021-0.78,5.28-2.28c1.26-1.56,1.92-3.84,1.92-6.84c0-2.94-0.479-5.1-1.5-6.54
			c-1.02-1.44-2.52-2.16-4.62-2.16C351.95,88.65,350.75,88.89,349.55,89.43z"/>
		<path style="fill:#FFC98B;" d="M334.25,93.21v16.44h-4.02v-2.58l-1.44,1.02l-1.8,1.08l-2.34,0.84c-0.9,0.18-1.92,0.3-3.12,0.3
			c-2.221,0-4.08-0.72-5.58-2.16s-2.22-3.3-2.22-5.52c0-1.86,0.359-3.3,1.14-4.44s1.92-2.04,3.36-2.7c1.5-0.66,3.239-1.08,5.34-1.32
			l6.66-0.54v-0.6c0-0.9-0.181-1.68-0.48-2.28c-0.3-0.66-0.78-1.14-1.44-1.44c-0.54-0.3-1.26-0.54-2.04-0.66l-2.579-0.18
			c-1.021,0-2.221,0.12-3.54,0.42c-1.32,0.3-2.7,0.66-4.08,1.2h-0.24v-4.14l3.479-0.72c1.5-0.24,2.94-0.36,4.44-0.36
			c1.68,0,3.18,0.12,4.44,0.42c1.26,0.3,2.399,0.78,3.3,1.44c0.899,0.66,1.62,1.5,2.04,2.58C334.01,90.33,334.25,91.65,334.25,93.21
			z M330.23,103.71v-6.78l-4.381,0.36c-1.68,0.12-3,0.3-4.02,0.6c-1.14,0.36-2.1,0.9-2.82,1.56c-0.72,0.72-1.08,1.68-1.08,2.88
			c0,1.38,0.42,2.46,1.261,3.18c0.84,0.66,2.1,1.02,3.84,1.02c1.38,0,2.7-0.3,3.899-0.84C328.13,105.15,329.21,104.49,330.23,103.71
			z"/>
		<path style="fill:#F9927E;" d="M318.29,51.21l13.979,16.26h-6.439l-12.39-14.81h-6.99v14.81h-4.98V30.24h10.45
			c2.29,0,4.15,0.14,5.61,0.48c1.52,0.28,2.899,0.76,4.08,1.53c1.319,0.83,2.42,1.93,3.18,3.25c0.76,1.24,1.11,2.84,1.11,4.84
			c0,2.7-0.69,4.99-2.011,6.78C322.51,48.92,320.64,50.31,318.29,51.21z M320.71,40.69c0-1.04-0.21-2.01-0.55-2.77
			c-0.351-0.83-0.97-1.52-1.87-2.14c-0.76-0.49-1.59-0.77-2.56-0.97c-0.971-0.21-2.15-0.28-3.461-0.28h-5.819v14.05h4.99
			c1.59,0,2.899-0.14,4.079-0.42c1.181-0.27,2.211-0.83,2.98-1.59c0.76-0.69,1.31-1.45,1.66-2.35
			C320.5,43.32,320.71,42.14,320.71,40.69z"/>
		<rect x="300" y="276.28" style="fill:#F4F4C2;" width="3.55" height="3.91"/>
		<polygon style="fill:#F4F4C2;" points="303.4,137.13 303.4,142.1 288.19,149.35 287.01,151.82 283.63,150.21 283.63,148.08
			299.6,140.53 276.13,140.53 276.13,137.13 		"/>
		<path style="fill:#FFC98B;" d="M300.65,89.01c1.619-1.26,3-2.22,4.26-2.76s2.52-0.78,3.78-0.78l1.56,0.06l1.44,0.18v4.2h-0.24
			l-1.74-0.3l-2.04-0.12c-1.26,0-2.52,0.3-3.66,0.84c-1.14,0.54-2.279,1.26-3.359,2.16v17.16h-4.081V85.47h4.081V89.01z"/>
		<polygon style="fill:#F4F4C2;" points="299.6,157.81 287.01,151.82 288.19,149.35 303.4,156.39 303.4,161.41 276.13,161.41
			276.13,157.81 		"/>
		<polygon style="fill:#F4F4C2;" points="296.56,285.25 296.56,301.17 294.12,301.17 279.02,289.21 279.02,301.48 276.13,301.48
			276.13,285 278.66,285 293.72,296.91 293.72,285.25 		"/>
		<rect x="276.13" y="276.54" style="fill:#F4F4C2;" width="20.43" height="3.39"/>
		<path style="fill:#F9927E;" d="M282.37,30.24l13.5,37.23h-5.26l-3.67-10.38h-16.06l-3.67,10.38h-5.05l13.57-37.23H282.37z
			 M285.42,52.87l-6.51-18.27l-6.57,18.27H285.42z"/>
		<path style="fill:#F4F4C2;" d="M293.16,259.15c-0.46-1.02-1.01-1.98-1.77-2.94h-15.26v-3.45h20.43v3.45h-2.23
			c0.86,1.06,1.57,2.18,2.08,3.29c0.5,1.17,0.76,2.33,0.76,3.55c0,2.23-0.66,3.9-2.03,5.07c-1.32,1.17-3.25,1.72-5.73,1.72h-13.28
			v-3.44h11.66l2.63-0.15c0.81-0.11,1.47-0.31,1.93-0.61c0.51-0.31,0.86-0.76,1.11-1.32c0.26-0.56,0.41-1.32,0.41-2.23
			C293.87,261.12,293.62,260.16,293.16,259.15z"/>
		<path style="fill:#F4F4C2;" d="M292.45,243.08c-0.46-0.96-1.06-1.93-1.82-2.84h-14.5v-3.45h20.43v3.45h-2.99
			c1.06,1.37,1.87,2.53,2.33,3.6c0.45,1.06,0.66,2.13,0.66,3.19l-0.05,1.32l-0.16,1.22h-3.54v-0.21l0.25-1.47l0.1-1.72
			C293.16,245.11,292.91,244.04,292.45,243.08z"/>
		<path style="fill:#F4F4C2;" d="M292.45,312.68c-0.46-0.96-1.06-1.93-1.82-2.84h-14.5v-3.45h20.43v3.45h-2.99
			c1.06,1.37,1.87,2.54,2.33,3.6c0.45,1.06,0.66,2.13,0.66,3.19l-0.05,1.32l-0.16,1.22h-3.54v-0.2l0.25-1.47l0.1-1.73
			C293.16,314.71,292.91,313.64,292.45,312.68z"/>
		<path style="fill:#FFC98B;" d="M291.71,105.75v3.66l-2.46,0.54l-2.46,0.18c-2.46,0-4.32-0.66-5.64-1.98
			c-1.26-1.38-1.92-3.48-1.92-6.42V88.89h-2.76v-3.42h2.76v-6.96h4.08v6.96h8.4v3.42h-8.4v10.98l0.12,3
			c0.06,0.72,0.24,1.38,0.6,2.04c0.3,0.54,0.78,0.96,1.32,1.26c0.54,0.24,1.38,0.36,2.52,0.36c0.66,0,1.38-0.06,2.1-0.24l1.56-0.54
			H291.71z"/>
		<path style="fill:#F4F4C2;" d="M296.81,201.71c-0.25,0.81-0.61,1.68-1.06,2.59h8.87v3.45h-28.49v-3.45h2.13
			c-0.86-0.96-1.52-2.03-1.98-3.09c-0.46-1.07-0.71-2.23-0.71-3.5c0-2.43,0.91-4.36,2.79-5.78c1.87-1.47,4.51-2.18,7.86-2.18
			c1.72,0,3.24,0.25,4.61,0.76c1.37,0.46,2.48,1.11,3.45,1.98c0.96,0.86,1.67,1.82,2.13,2.94c0.5,1.06,0.76,2.23,0.76,3.39
			C297.17,199.89,297.06,200.85,296.81,201.71z M293.77,201.81c0.15-0.76,0.25-1.52,0.25-2.38c0-1.92-0.66-3.45-2.03-4.51
			c-1.36-1.06-3.24-1.62-5.72-1.62c-2.44,0-4.26,0.4-5.53,1.27c-1.27,0.81-1.93,2.12-1.93,3.95c0,0.96,0.21,1.98,0.66,2.99
			c0.46,1.01,1.02,1.93,1.68,2.79h11.76C293.31,203.39,293.62,202.57,293.77,201.81z"/>
		<path style="fill:#F4F4C2;" d="M297.17,222.95c0,2.79-0.82,4.92-2.44,6.39c-1.62,1.52-3.9,2.28-6.84,2.28h-1.88v-15.1
			c-1.26,0-2.38,0.2-3.29,0.55c-0.97,0.41-1.73,0.92-2.28,1.57c-0.61,0.66-1.07,1.42-1.32,2.29c-0.31,0.86-0.46,1.82-0.46,2.88
			c0,1.37,0.26,2.79,0.81,4.21c0.56,1.37,1.12,2.39,1.68,2.99v0.21h-3.75c-0.51-1.17-0.92-2.39-1.27-3.55
			c-0.31-1.22-0.46-2.49-0.46-3.86c0-3.39,0.91-6.03,2.74-7.9c1.82-1.93,4.41-2.89,7.81-2.89c3.34,0,6.03,0.91,8.01,2.73
			C296.2,217.58,297.17,219.96,297.17,222.95z M292.81,226.91c1.01-0.91,1.52-2.28,1.52-4.11c0-1.87-0.56-3.34-1.63-4.41
			c-1.11-1.06-2.48-1.72-4.05-1.87v11.71C290.42,228.23,291.84,227.77,292.81,226.91z"/>
		<path style="fill:#F4F4C2;" d="M294.23,169.57c1.97,1.68,2.94,4.01,2.94,6.9c0,2.89-0.97,5.17-2.94,6.84
			c-1.93,1.73-4.57,2.59-7.86,2.59c-3.35,0-5.98-0.86-7.91-2.59c-1.93-1.67-2.89-3.95-2.89-6.84c0-2.89,0.96-5.22,2.89-6.9
			c1.93-1.72,4.56-2.58,7.91-2.58C289.66,166.99,292.3,167.85,294.23,169.57z M292.25,180.78c1.27-1.07,1.92-2.49,1.92-4.31
			c0-1.88-0.65-3.35-1.92-4.36c-1.27-1.07-3.25-1.57-5.88-1.57c-2.59,0-4.51,0.5-5.88,1.57c-1.32,1.06-1.98,2.48-1.98,4.36
			c0,1.82,0.66,3.24,1.98,4.31c1.31,1.06,3.29,1.57,5.88,1.57C289,182.35,290.98,181.84,292.25,180.78z"/>
		<path style="fill:#FFC98B;" d="M273.35,102.69c0,2.22-0.9,4.02-2.7,5.4c-1.86,1.44-4.32,2.16-7.5,2.16c-1.8,0-3.42-0.24-4.92-0.66
			s-2.76-0.9-3.78-1.38v-4.56h0.18c1.26,0.96,2.7,1.74,4.32,2.28c1.56,0.54,3.06,0.84,4.5,0.84c1.8,0,3.18-0.3,4.2-0.84
			c1.02-0.6,1.56-1.5,1.56-2.76c0-0.9-0.3-1.62-0.84-2.16c-0.54-0.48-1.62-0.9-3.18-1.26l-2.22-0.42l-2.58-0.6
			c-2.1-0.54-3.6-1.38-4.5-2.46s-1.32-2.4-1.32-4.02c0-1.02,0.18-1.92,0.6-2.82c0.42-0.9,1.02-1.68,1.86-2.34
			c0.78-0.66,1.86-1.2,3.12-1.62c1.26-0.42,2.64-0.6,4.14-0.6s2.94,0.18,4.44,0.54c1.5,0.3,2.7,0.72,3.66,1.26v4.38h-0.18
			c-1.02-0.78-2.34-1.38-3.84-1.92s-2.94-0.84-4.38-0.84c-1.5,0-2.7,0.3-3.72,0.9c-1.02,0.54-1.56,1.38-1.56,2.52
			c0,1.02,0.3,1.74,0.9,2.22c0.66,0.54,1.62,0.96,3,1.26l2.52,0.54l2.28,0.48c1.92,0.42,3.36,1.2,4.38,2.22
			C272.81,99.51,273.35,100.95,273.35,102.69z"/>
		<polygon style="fill:#FFC98B;" points="270.05,127.65 255.89,160.77 251.57,160.77 256.07,150.63 246.41,127.65 250.85,127.65
			258.29,145.59 265.79,127.65 		"/>
		<path style="fill:#F4F4C2;" d="M264.29,198.15c1.74,2.28,2.64,5.16,2.64,8.7c0,2.22-0.24,4.32-0.66,6.24
			c-0.42,1.86-0.96,3.54-1.62,4.98h-5.04v-0.3c1.02-1.2,1.92-2.82,2.58-4.8s1.02-4.08,1.02-6.18c0-2.28-0.48-4.14-1.44-5.52
			s-2.16-2.1-3.66-2.1c-1.38,0-2.4,0.36-3.18,1.02c-0.78,0.72-1.32,1.92-1.74,3.66l-0.78,3.96l-0.84,4.32
			c-0.66,2.4-1.62,4.2-2.94,5.46c-1.26,1.2-3.06,1.8-5.34,1.8c-1.26,0-2.52-0.3-3.78-0.84c-1.2-0.6-2.22-1.44-3.12-2.52
			c-0.9-1.14-1.62-2.46-2.16-4.02c-0.54-1.5-0.78-3.36-0.78-5.58c0-2.34,0.24-4.38,0.66-6.24s1.08-3.78,1.92-5.7h5.4v0.3
			c-1.38,1.62-2.4,3.54-3.18,5.7c-0.72,2.1-1.08,4.14-1.08,6c0,2.7,0.48,4.74,1.5,6.24s2.34,2.22,3.96,2.22
			c1.44,0,2.52-0.36,3.18-1.08c0.66-0.66,1.2-1.74,1.62-3.18l0.66-3.54l0.72-4.02c0.66-2.82,1.68-4.98,3.12-6.36
			c1.5-1.38,3.42-2.04,5.76-2.04C260.39,194.73,262.55,195.87,264.29,198.15z"/>
		<path style="fill:#F9927E;" d="M247.77,51.21l13.98,16.26h-6.44l-12.39-14.81h-6.98v14.81h-4.99V30.24h10.45
			c2.29,0,4.15,0.14,5.61,0.48c1.52,0.28,2.9,0.76,4.08,1.53c1.32,0.83,2.42,1.93,3.19,3.25c0.76,1.24,1.1,2.84,1.1,4.84
			c0,2.7-0.69,4.99-2.01,6.78C251.99,48.92,250.12,50.31,247.77,51.21z M250.19,40.69c0-1.04-0.21-2.01-0.55-2.77
			c-0.35-0.83-0.97-1.52-1.87-2.14c-0.76-0.49-1.59-0.77-2.56-0.97c-0.97-0.21-2.15-0.28-3.46-0.28h-5.81v14.05h4.98
			c1.59,0,2.9-0.14,4.08-0.42c1.18-0.27,2.21-0.83,2.98-1.59c0.76-0.69,1.31-1.45,1.66-2.35C249.98,43.32,250.19,42.14,250.19,40.69
			z"/>
		<path style="fill:#F4F4C2;" d="M254.27,288.09c-0.48-1.14-1.14-2.28-1.98-3.36h-13.74c-0.54,1.14-0.84,2.16-1.02,3
			c-0.18,0.78-0.3,1.74-0.3,2.82c0,2.22,0.78,4.02,2.28,5.28c1.56,1.26,3.84,1.92,6.84,1.92c2.94,0,5.1-0.48,6.54-1.5
			s2.16-2.52,2.16-4.62C255.05,290.49,254.81,289.29,254.27,288.09z M255.71,284.73c0.9,1.08,1.68,2.28,2.28,3.66
			c0.66,1.32,0.96,2.76,0.96,4.32c0,2.94-1.14,5.16-3.36,6.78c-2.16,1.62-5.22,2.46-9.12,2.46c-1.98,0-3.78-0.3-5.4-0.84
			c-1.62-0.54-3-1.38-4.14-2.4c-1.08-0.96-1.92-2.1-2.46-3.36c-0.6-1.26-0.9-2.64-0.9-4.14c0-1.26,0.12-2.34,0.42-3.36
			c0.3-1.02,0.72-2.1,1.26-3.12h-10.14v-4.08h33.12v4.08H255.71z"/>
		<path style="fill:#F4F4C2;" d="M254.21,233.49c-0.54-1.2-1.2-2.34-2.1-3.48h-18.06v-4.08h24.18v4.08h-2.64
			c1.02,1.26,1.86,2.58,2.46,3.9c0.6,1.38,0.9,2.76,0.9,4.2c0,2.64-0.78,4.62-2.4,6c-1.56,1.38-3.84,2.04-6.78,2.04h-15.72v-4.08
			h13.8l3.12-0.18c0.96-0.12,1.74-0.36,2.28-0.72c0.6-0.36,1.02-0.9,1.32-1.56c0.3-0.66,0.48-1.56,0.48-2.64
			C255.05,235.83,254.75,234.69,254.21,233.49z"/>
		<path style="fill:#FFC98B;" d="M251.21,105.75v3.66l-2.46,0.54l-2.46,0.18c-2.46,0-4.32-0.66-5.64-1.98
			c-1.26-1.38-1.92-3.48-1.92-6.42V88.89h-2.76v-3.42h2.76v-6.96h4.08v6.96h8.4v3.42h-8.4v10.98l0.12,3
			c0.06,0.72,0.24,1.38,0.6,2.04c0.3,0.54,0.78,0.96,1.32,1.26c0.54,0.24,1.38,0.36,2.52,0.36c0.66,0,1.38-0.06,2.1-0.24l1.56-0.54
			H251.21z"/>
		<path style="fill:#F4F4C2;" d="M238.01,265.47c0.54,1.2,1.2,2.28,1.98,3.3h6.78l-0.36-4.38c-0.12-1.68-0.3-3-0.6-4.02
			c-0.36-1.14-0.9-2.1-1.56-2.82c-0.72-0.72-1.68-1.08-2.88-1.08c-1.38,0-2.46,0.42-3.18,1.26c-0.66,0.84-1.02,2.1-1.02,3.84
			C237.17,262.95,237.47,264.27,238.01,265.47z M236.63,268.77l-1.02-1.44l-1.08-1.8l-0.84-2.34c-0.18-0.9-0.3-1.92-0.3-3.12
			c0-2.22,0.72-4.08,2.16-5.58c1.44-1.5,3.3-2.22,5.52-2.22c1.86,0,3.3,0.36,4.44,1.14c1.14,0.78,2.04,1.92,2.7,3.36
			c0.66,1.5,1.08,3.24,1.32,5.34l0.54,6.66h0.6c0.9,0,1.68-0.18,2.28-0.48c0.66-0.3,1.14-0.78,1.44-1.44
			c0.3-0.54,0.54-1.26,0.66-2.04l0.18-2.58c0-1.02-0.12-2.22-0.42-3.54c-0.3-1.32-0.66-2.7-1.2-4.08v-0.24h4.14l0.72,3.48
			c0.24,1.5,0.36,2.94,0.36,4.44c0,1.68-0.12,3.18-0.42,4.44c-0.3,1.26-0.78,2.4-1.44,3.3c-0.66,0.9-1.5,1.62-2.58,2.04
			c-1.02,0.48-2.34,0.72-3.9,0.72h-16.44v-4.02H236.63z"/>
		<path style="fill:#FFC98B;" d="M237.65,132.51c-1.14,0.54-2.28,1.26-3.36,2.16v17.16h-4.08v-24.18h4.08v3.54
			c1.62-1.26,3-2.22,4.26-2.76c1.26-0.54,2.52-0.78,3.78-0.78l1.56,0.06l1.44,0.18v4.2h-0.24l-1.74-0.3l-2.04-0.12
			C240.05,131.67,238.79,131.97,237.65,132.51z"/>
		<path style="fill:#FFC98B;" d="M229.37,88.23c2.04,2.28,3.06,5.4,3.06,9.3c0,3.96-1.02,7.08-3.06,9.36
			c-1.98,2.28-4.68,3.42-8.1,3.42s-6.18-1.14-8.16-3.42c-2.04-2.28-3.06-5.4-3.06-9.36c0-3.9,1.02-7.02,3.06-9.3
			c1.98-2.34,4.74-3.48,8.16-3.48S227.39,85.89,229.37,88.23z M228.23,97.53c0-3.12-0.6-5.46-1.86-6.96
			c-1.26-1.5-2.94-2.28-5.1-2.28c-2.22,0-3.96,0.78-5.16,2.28c-1.26,1.5-1.86,3.84-1.86,6.96c0,3.06,0.6,5.34,1.86,6.96
			c1.26,1.56,2.94,2.34,5.16,2.34c2.16,0,3.84-0.78,5.1-2.34C227.63,102.93,228.23,100.59,228.23,97.53z"/>
		<path style="fill:#FFC98B;" d="M224.09,137.91v2.22h-17.88c0,1.5,0.24,2.82,0.66,3.9c0.48,1.14,1.08,2.04,1.86,2.7
			c0.78,0.72,1.68,1.26,2.7,1.56c1.02,0.36,2.16,0.54,3.42,0.54c1.62,0,3.3-0.3,4.98-0.96c1.62-0.66,2.82-1.32,3.54-1.98h0.24v4.44
			c-1.38,0.6-2.82,1.08-4.2,1.5c-1.44,0.36-2.94,0.54-4.56,0.54c-4.02,0-7.14-1.08-9.36-3.24c-2.28-2.16-3.42-5.22-3.42-9.24
			c0-3.96,1.08-7.14,3.24-9.48c2.16-2.34,4.98-3.48,8.52-3.48c3.3,0,5.82,0.96,7.56,2.88C223.19,131.73,224.09,134.43,224.09,137.91
			z M206.21,137.01h13.86c0-2.1-0.54-3.78-1.56-4.92c-1.08-1.2-2.7-1.8-4.86-1.8c-2.22,0-3.96,0.66-5.22,1.92
			C207.17,133.53,206.39,135.15,206.21,137.01z"/>
		<path style="fill:#F9927E;" d="M223.96,56.05c0,1.87-0.34,3.46-1.04,4.85c-0.69,1.45-1.66,2.63-2.83,3.53
			c-1.39,1.1-2.91,1.86-4.64,2.35c-1.66,0.48-3.81,0.69-6.37,0.69h-13.21V30.24h11.07c2.7,0,4.7,0.07,6.09,0.28
			c1.31,0.2,2.63,0.69,3.87,1.31c1.32,0.69,2.36,1.59,2.98,2.77c0.62,1.11,0.9,2.42,0.9,4.01c0,1.73-0.42,3.25-1.32,4.5
			s-2.14,2.22-3.66,2.98v0.2c2.56,0.49,4.49,1.6,5.95,3.33C223.2,51.35,223.96,53.49,223.96,56.05z M218.77,56.19
			c0-1.45-0.21-2.63-0.62-3.53c-0.48-0.9-1.32-1.66-2.49-2.28c-0.76-0.42-1.73-0.7-2.91-0.76l-4.15-0.21h-7.75v13.84h6.5
			c2.15,0,3.95-0.14,5.33-0.35c1.39-0.2,2.49-0.62,3.39-1.24c0.97-0.63,1.66-1.39,2.08-2.22C218.56,58.61,218.77,57.5,218.77,56.19z
			 M215.66,39.24c0-0.9-0.14-1.67-0.49-2.29c-0.27-0.62-0.76-1.11-1.45-1.45c-0.76-0.49-1.73-0.76-2.84-0.83l-4.15-0.21h-5.88v10.8
			h6.37l3.73-0.28c0.9-0.14,1.8-0.49,2.56-0.97c0.76-0.48,1.32-1.18,1.66-1.94C215.52,41.31,215.66,40.34,215.66,39.24z"/>
		<rect x="213.47" y="227.25" style="fill:#FFC98B;" width="4.2" height="4.62"/>
		<path style="fill:#FFC98B;" d="M209.99,321.33c0,1.5-0.18,2.94-0.54,4.44c-0.3,1.5-0.72,2.7-1.26,3.66h-4.38v-0.18
			c0.78-1.02,1.38-2.34,1.92-3.84s0.84-2.94,0.84-4.38c0-1.5-0.3-2.7-0.9-3.72c-0.54-1.02-1.38-1.56-2.52-1.56
			c-1.02,0-1.74,0.3-2.22,0.9c-0.54,0.66-0.96,1.62-1.26,3l-0.54,2.52l-0.48,2.28c-0.42,1.92-1.2,3.36-2.22,4.38
			c-1.08,1.02-2.52,1.56-4.26,1.56c-2.22,0-4.02-0.9-5.4-2.7c-1.44-1.86-2.16-4.32-2.16-7.5c0-1.8,0.24-3.42,0.66-4.92
			s0.9-2.76,1.38-3.78h4.56v0.18c-0.96,1.26-1.74,2.7-2.28,4.32c-0.54,1.56-0.84,3.06-0.84,4.5c0,1.8,0.3,3.18,0.84,4.2
			c0.6,1.02,1.5,1.56,2.76,1.56c0.9,0,1.62-0.3,2.16-0.84c0.48-0.54,0.9-1.62,1.26-3.18l0.42-2.22l0.6-2.58
			c0.54-2.1,1.38-3.6,2.46-4.5c1.08-0.9,2.4-1.32,4.02-1.32c1.02,0,1.92,0.18,2.82,0.6c0.9,0.42,1.68,1.02,2.34,1.86
			c0.66,0.78,1.2,1.86,1.62,3.12C209.81,318.45,209.99,319.83,209.99,321.33z"/>
		<path style="fill:#FFC98B;" d="M205.37,247.11c-0.54-1.2-1.2-2.34-2.1-3.48h-18.06v-4.08h24.18v4.08h-2.64
			c1.02,1.26,1.86,2.58,2.46,3.9c0.6,1.38,0.9,2.76,0.9,4.2c0,2.64-0.78,4.62-2.4,6c-1.56,1.38-3.84,2.04-6.78,2.04h-15.72v-4.08
			h13.8l3.12-0.18c0.96-0.12,1.74-0.36,2.28-0.72c0.6-0.36,1.02-0.9,1.32-1.56s0.48-1.56,0.48-2.64
			C206.21,249.45,205.91,248.31,205.37,247.11z"/>
		<rect x="185.21" y="227.55" style="fill:#FFC98B;" width="24.18" height="4.02"/>
		<path style="fill:#FFC98B;" d="M202.55,88.23c2.04,2.28,3.06,5.4,3.06,9.3c0,3.96-1.02,7.08-3.06,9.36
			c-1.98,2.28-4.68,3.42-8.1,3.42c-3.42,0-6.18-1.14-8.16-3.42c-2.04-2.28-3.06-5.4-3.06-9.36c0-3.9,1.02-7.02,3.06-9.3
			c1.98-2.34,4.74-3.48,8.16-3.48C197.87,84.75,200.57,85.89,202.55,88.23z M201.41,97.53c0-3.12-0.6-5.46-1.86-6.96
			c-1.26-1.5-2.94-2.28-5.1-2.28c-2.22,0-3.96,0.78-5.16,2.28c-1.26,1.5-1.86,3.84-1.86,6.96c0,3.06,0.6,5.34,1.86,6.96
			c1.26,1.56,2.94,2.34,5.16,2.34c2.16,0,3.84-0.78,5.1-2.34C200.81,102.93,201.41,100.59,201.41,97.53z"/>
		<path style="fill:#FFC98B;" d="M195.77,127.65v24.18h-4.08v-2.7c-1.38,1.08-2.64,1.92-3.9,2.52c-1.26,0.54-2.7,0.84-4.2,0.84
			c-2.52,0-4.5-0.78-5.94-2.28c-1.38-1.56-2.1-3.84-2.1-6.9v-15.66h4.08v13.74l0.18,3.18c0.12,0.9,0.36,1.62,0.72,2.22
			c0.42,0.66,0.9,1.08,1.5,1.38c0.66,0.3,1.56,0.48,2.7,0.48c1.08,0,2.22-0.3,3.48-0.84c1.26-0.54,2.4-1.26,3.48-2.1v-18.06H195.77z
			"/>
		<path style="fill:#FFC98B;" d="M189.23,211.89c0.54,1.26,1.26,2.4,2.1,3.48h18.06v4.08h-24.18v-4.08h2.7
			c-1.08-1.38-1.92-2.64-2.52-3.9c-0.54-1.26-0.84-2.7-0.84-4.2c0-2.52,0.78-4.5,2.28-5.94c1.56-1.38,3.84-2.1,6.9-2.1h15.66v4.08
			h-13.74l-3.18,0.18c-0.9,0.12-1.62,0.36-2.22,0.72c-0.66,0.42-1.08,0.9-1.38,1.5c-0.3,0.66-0.48,1.56-0.48,2.7
			C188.39,209.49,188.69,210.63,189.23,211.89z"/>
		<path style="fill:#FFC98B;" d="M189.23,297.51c0.54,1.26,1.26,2.4,2.1,3.48h18.06v4.08h-24.18v-4.08h2.7
			c-1.08-1.38-1.92-2.64-2.52-3.9c-0.54-1.26-0.84-2.7-0.84-4.2c0-2.52,0.78-4.5,2.28-5.94c1.56-1.38,3.84-2.1,6.9-2.1h15.66v4.08
			h-13.74l-3.18,0.18c-0.9,0.12-1.62,0.36-2.22,0.72c-0.66,0.42-1.08,0.9-1.38,1.5c-0.3,0.66-0.48,1.56-0.48,2.7
			C188.39,295.11,188.69,296.25,189.23,297.51z"/>
		<path style="fill:#FFC98B;" d="M188.57,278.43l0.54,1.56v0.18h-3.66l-0.54-2.46l-0.18-2.46c0-2.46,0.66-4.32,1.98-5.64
			c1.38-1.26,3.48-1.92,6.42-1.92h12.84v-2.76h3.42v2.76h6.96v4.08h-6.96v8.4h-3.42v-8.4h-10.98l-3,0.12
			c-0.72,0.06-1.38,0.24-2.04,0.6c-0.54,0.3-0.96,0.78-1.26,1.32c-0.24,0.54-0.36,1.38-0.36,2.52
			C188.33,276.99,188.39,277.71,188.57,278.43z"/>
		<polygon style="fill:#F9927E;" points="187.56,63.66 187.56,67.47 172.82,67.47 172.82,63.66 177.73,63.66 177.73,34.04
			172.82,34.04 172.82,30.24 187.56,30.24 187.56,34.04 182.65,34.04 182.65,63.66 		"/>
		<path style="fill:#FFC98B;" d="M181.25,193.65h-3.96l-0.48-2.58l-0.12-2.58c0-2.52,0.66-4.56,2.04-6.06s3.36-2.34,5.94-2.46
			l-0.12-1.02v-0.96c0-2.28,0.36-4.32,1.14-6.18c0.72-1.86,1.8-3.42,3.24-4.74c1.44-1.26,3.18-2.28,5.28-3
			c2.1-0.66,4.44-1.02,7.14-1.02c2.58,0,4.98,0.36,7.08,1.02c2.1,0.66,3.84,1.68,5.34,3c1.38,1.26,2.46,2.88,3.24,4.8
			c0.78,1.86,1.14,3.9,1.14,6.12c0,2.34-0.36,4.38-1.14,6.24c-0.78,1.86-1.86,3.42-3.24,4.68c-1.44,1.32-3.18,2.34-5.28,3.06
			c-2.1,0.66-4.5,1.02-7.14,1.02c-3.96,0-7.26-0.78-9.96-2.4c-2.7-1.62-4.62-3.78-5.7-6.48c-1.62,0.06-2.94,0.42-3.84,1.14
			s-1.38,2.04-1.38,3.96l0.3,2.1l0.48,1.74V193.65z M214.43,178.05c0-3.3-1.14-5.88-3.42-7.74c-2.22-1.86-5.46-2.82-9.66-2.82
			c-4.26,0-7.5,0.96-9.72,2.88c-2.22,1.86-3.36,4.44-3.36,7.68c0,3.18,1.14,5.76,3.36,7.62c2.22,1.92,5.46,2.88,9.72,2.88
			c4.2,0,7.44-0.96,9.66-2.82C213.29,183.87,214.43,181.29,214.43,178.05z"/>
		<path style="fill:#FFC98B;" d="M167.93,90.15c0.78-0.12,1.56-0.42,2.22-0.84c0.66-0.42,1.14-1.02,1.44-1.68
			c0.3-0.66,0.42-1.5,0.42-2.46c0-0.78-0.12-1.44-0.42-1.98c-0.24-0.54-0.66-0.96-1.26-1.26c-0.66-0.42-1.5-0.66-2.46-0.72
			l-3.6-0.18h-5.1v9.36h5.52L167.93,90.15z M172.13,91.11v0.18c2.22,0.42,3.9,1.38,5.16,2.88c1.26,1.5,1.92,3.36,1.92,5.58
			c0,1.62-0.3,3-0.9,4.2c-0.6,1.26-1.44,2.28-2.46,3.06c-1.2,0.96-2.52,1.62-4.02,2.04c-1.44,0.42-3.3,0.6-5.52,0.6h-11.46V77.37
			h9.6c2.34,0,4.08,0.06,5.28,0.24c1.14,0.18,2.28,0.6,3.36,1.14c1.14,0.6,2.04,1.38,2.58,2.4c0.54,0.96,0.78,2.1,0.78,3.48
			c0,1.5-0.36,2.82-1.14,3.9C174.53,89.61,173.45,90.45,172.13,91.11z M174.71,99.87c0-1.26-0.18-2.28-0.54-3.06
			c-0.42-0.78-1.14-1.44-2.16-1.98c-0.66-0.36-1.5-0.6-2.52-0.66l-3.6-0.18h-6.72v12h5.64c1.86,0,3.42-0.12,4.62-0.3
			c1.2-0.18,2.16-0.54,2.94-1.08c0.84-0.54,1.44-1.2,1.8-1.92C174.53,101.97,174.71,101.01,174.71,99.87z"/>
		<path style="fill:#FFC98B;" d="M169.97,155.79v3.96l-2.58,0.48l-2.58,0.12c-2.52,0-4.56-0.66-6.06-2.04s-2.34-3.36-2.46-5.94
			l-1.02,0.12h-0.96c-2.28,0-4.32-0.36-6.18-1.14c-1.86-0.72-3.42-1.8-4.74-3.24c-1.26-1.44-2.28-3.18-3-5.28
			c-0.66-2.1-1.02-4.44-1.02-7.14c0-2.58,0.36-4.98,1.02-7.08c0.66-2.1,1.68-3.84,3-5.34c1.26-1.38,2.88-2.46,4.8-3.24
			c1.86-0.78,3.9-1.14,6.12-1.14c2.34,0,4.38,0.36,6.24,1.14c1.86,0.78,3.42,1.86,4.68,3.24c1.32,1.44,2.34,3.18,3.06,5.28
			c0.66,2.1,1.02,4.5,1.02,7.14c0,3.96-0.78,7.26-2.4,9.96c-1.62,2.7-3.78,4.62-6.48,5.7c0.06,1.62,0.42,2.94,1.14,3.84
			c0.72,0.9,2.04,1.38,3.96,1.38l2.1-0.3l1.74-0.48H169.97z M164.87,135.69c0-4.2-0.96-7.44-2.82-9.66
			c-1.86-2.28-4.44-3.42-7.68-3.42c-3.3,0-5.88,1.14-7.74,3.42c-1.86,2.22-2.82,5.46-2.82,9.66c0,4.26,0.96,7.5,2.88,9.72
			c1.86,2.22,4.44,3.36,7.68,3.36c3.18,0,5.76-1.14,7.62-3.36C163.91,143.19,164.87,139.95,164.87,135.69z"/>
		<polygon style="fill:#F9927E;" points="169.57,63.04 169.57,67.47 145.97,67.47 145.97,30.24 150.95,30.24 150.95,63.04 		"/>
		<rect x="126.41" y="316.41" style="fill:#85EBD3;" width="33.72" height="4.02"/>
		<path style="fill:#85EBD3;" d="M156.65,396.57c1.74,2.28,2.64,5.16,2.64,8.7c0,2.22-0.24,4.32-0.66,6.24
			c-0.42,1.86-0.96,3.54-1.62,4.98h-5.04v-0.3c1.02-1.2,1.92-2.82,2.58-4.8c0.66-1.98,1.02-4.08,1.02-6.18
			c0-2.28-0.48-4.14-1.44-5.52s-2.16-2.1-3.66-2.1c-1.38,0-2.4,0.36-3.18,1.02c-0.78,0.72-1.32,1.92-1.74,3.66l-0.78,3.96
			l-0.84,4.32c-0.66,2.4-1.62,4.2-2.94,5.46c-1.26,1.2-3.06,1.8-5.34,1.8c-1.26,0-2.52-0.3-3.78-0.84c-1.2-0.6-2.22-1.44-3.12-2.52
			c-0.9-1.14-1.62-2.46-2.16-4.02c-0.54-1.5-0.78-3.36-0.78-5.58c0-2.34,0.24-4.38,0.66-6.24c0.42-1.86,1.08-3.78,1.92-5.7h5.4v0.3
			c-1.38,1.62-2.4,3.54-3.18,5.7c-0.72,2.1-1.08,4.14-1.08,6c0,2.7,0.48,4.74,1.5,6.24s2.34,2.22,3.96,2.22
			c1.44,0,2.52-0.36,3.18-1.08c0.66-0.66,1.2-1.74,1.62-3.18l0.66-3.54l0.72-4.02c0.66-2.82,1.68-4.98,3.12-6.36
			c1.5-1.38,3.42-2.04,5.76-2.04C152.75,393.15,154.91,394.29,156.65,396.57z"/>
		<path style="fill:#85EBD3;" d="M158.69,374.97v11.1h-23.88c-2.82,0-5.04-0.84-6.54-2.58c-1.56-1.74-2.34-4.02-2.34-6.9l0.18-2.82
			l0.48-2.88h4.02v0.24l-0.66,2.16c-0.18,0.9-0.3,1.8-0.3,2.7c0,1.32,0.12,2.4,0.42,3.18c0.3,0.78,0.78,1.32,1.32,1.74
			c0.6,0.42,1.32,0.66,2.1,0.72c1.02,0.06,1.98,0.12,2.94,0.18h18.84v-6.84H158.69z"/>
		<path style="fill:#85EBD3;" d="M158.69,210.57v5.76l-32.28,11.7v-4.56l9-3.18v-13.92l-9-3.18v-4.38L158.69,210.57z M139.07,218.97
			l15.84-5.64l-15.84-5.7V218.97z"/>
		<path style="fill:#85EBD3;" d="M147.95,236.67c1.02,1.26,1.86,2.58,2.46,3.9c0.6,1.38,0.9,2.76,0.9,4.2c0,2.64-0.78,4.62-2.4,6
			c-1.56,1.38-3.84,2.04-6.78,2.04h-15.72v-4.08h13.8l3.12-0.18c0.96-0.12,1.74-0.36,2.28-0.72c0.6-0.36,1.02-0.9,1.32-1.56
			c0.3-0.66,0.48-1.56,0.48-2.64c0-1.14-0.3-2.28-0.84-3.48c-0.54-1.2-1.2-2.34-2.1-3.48h-18.06v-4.08h24.18v4.08H147.95z"/>
		<path style="fill:#85EBD3;" d="M145.73,362.55c-0.54-1.14-1.26-2.28-2.16-3.36h-17.16v-4.08h24.18v4.08h-3.54
			c1.26,1.62,2.22,3,2.76,4.26c0.54,1.26,0.78,2.52,0.78,3.78l-0.06,1.56l-0.18,1.44h-4.2v-0.24l0.3-1.74l0.12-2.04
			C146.57,364.95,146.27,363.69,145.73,362.55z"/>
		<rect x="128.63" y="119.37" style="fill:#FFC98B;" width="4.62" height="4.2"/>
		<path style="fill:#FFC98B;" d="M132.95,127.65v24.78c0,2.82-0.72,4.98-2.16,6.42s-3.36,2.16-5.82,2.16l-2.28-0.18l-2.34-0.42v-3.9
			h0.18l1.68,0.54c0.66,0.18,1.32,0.3,1.98,0.3c1.02,0,1.86-0.12,2.52-0.42c0.66-0.3,1.14-0.72,1.44-1.32
			c0.3-0.54,0.54-1.26,0.6-2.04l0.12-3v-19.5h-5.04v-3.42H132.95z"/>
		<path style="fill:#85EBD3;" d="M131.21,272.97c0.48,1.14,1.08,2.22,1.86,3.24h13.2c0.48-1.08,0.84-2.1,1.02-3
			c0.24-0.96,0.36-1.92,0.36-2.82c0-2.22-0.78-4.02-2.28-5.28c-1.5-1.26-3.72-1.92-6.54-1.92c-2.7,0-4.8,0.48-6.18,1.44
			s-2.1,2.52-2.1,4.74C130.55,270.57,130.79,271.77,131.21,272.97z M129.71,276.21c-1.02-1.26-1.74-2.4-2.22-3.48
			c-0.48-1.14-0.72-2.58-0.72-4.32c0-2.88,1.02-5.16,3.12-6.84c2.1-1.74,5.1-2.58,8.88-2.58c2.1,0,3.84,0.3,5.34,0.9
			c1.5,0.54,2.82,1.38,3.9,2.4c1.02,0.9,1.86,2.04,2.4,3.42c0.6,1.32,0.9,2.64,0.9,3.96c0,1.38-0.18,2.58-0.48,3.54
			c-0.24,0.96-0.66,1.98-1.26,3l1.02,0.3v3.78h-21.42c-4.14,0-7.14-0.96-9.06-2.82c-1.92-1.86-2.88-4.68-2.88-8.58
			c0-1.26,0.12-2.52,0.3-3.72l0.78-3.66h4.14v0.24l-0.96,3.18c-0.42,1.44-0.6,2.88-0.6,4.32c0,1.38,0.18,2.52,0.54,3.42
			c0.3,0.9,0.78,1.62,1.38,2.16c0.54,0.48,1.26,0.84,2.04,1.08c0.78,0.18,1.62,0.3,2.64,0.3H129.71z"/>
		<path style="fill:#85EBD3;" d="M129.11,304.23c-1.08-1.38-1.92-2.64-2.52-3.9c-0.54-1.26-0.84-2.7-0.84-4.2
			c0-2.52,0.78-4.5,2.28-5.94c1.56-1.38,3.84-2.1,6.9-2.1h15.66v4.08h-13.74l-3.18,0.18c-0.9,0.12-1.62,0.36-2.22,0.72
			c-0.66,0.42-1.08,0.9-1.38,1.5c-0.3,0.66-0.48,1.56-0.48,2.7c0,1.08,0.3,2.22,0.84,3.48s1.26,2.4,2.1,3.48h18.06v4.08h-24.18
			v-4.08H129.11z"/>
		<path style="fill:#85EBD3;" d="M130.37,339.93c0.54,1.2,1.2,2.28,1.98,3.3h6.78l-0.36-4.38c-0.12-1.68-0.3-3-0.6-4.02
			c-0.36-1.14-0.9-2.1-1.56-2.82c-0.72-0.72-1.68-1.08-2.88-1.08c-1.38,0-2.46,0.42-3.18,1.26c-0.66,0.84-1.02,2.1-1.02,3.84
			C129.53,337.41,129.83,338.73,130.37,339.93z M128.99,343.23l-1.02-1.44l-1.08-1.8l-0.84-2.34c-0.18-0.9-0.3-1.92-0.3-3.12
			c0-2.22,0.72-4.08,2.16-5.58s3.3-2.22,5.52-2.22c1.86,0,3.3,0.36,4.44,1.14c1.14,0.78,2.04,1.92,2.7,3.36
			c0.66,1.5,1.08,3.24,1.32,5.34l0.54,6.66h0.6c0.9,0,1.68-0.18,2.28-0.48c0.66-0.3,1.14-0.78,1.44-1.44
			c0.3-0.54,0.54-1.26,0.66-2.04l0.18-2.58c0-1.02-0.12-2.22-0.42-3.54c-0.3-1.32-0.66-2.7-1.2-4.08v-0.24h4.14l0.72,3.48
			c0.24,1.5,0.36,2.94,0.36,4.44c0,1.68-0.12,3.18-0.42,4.44c-0.3,1.26-0.78,2.4-1.44,3.3c-0.66,0.9-1.5,1.62-2.58,2.04
			c-1.02,0.48-2.34,0.72-3.9,0.72h-16.44v-4.02H128.99z"/>
		<path style="fill:#85EBD3;" d="M58.32,199.11c0,2.07-0.23,4.04-0.62,5.83c-0.39,1.74-0.9,3.3-1.51,4.65h-4.71v-0.28
			c0.95-1.12,1.79-2.63,2.41-4.48c0.62-1.85,0.95-3.81,0.95-5.78c0-2.12-0.45-3.86-1.34-5.15c-0.9-1.29-2.02-1.96-3.42-1.96
			c-1.29,0-2.24,0.33-2.97,0.95c-0.73,0.67-1.23,1.79-1.63,3.42l-0.73,3.7l-0.78,4.03c-0.62,2.24-1.51,3.92-2.75,5.1
			c-1.17,1.12-2.85,1.68-4.98,1.68c-1.18,0-2.36-0.28-3.53-0.78c-1.12-0.56-2.08-1.35-2.92-2.36c-0.84-1.06-1.51-2.29-2.02-3.75
			c-0.5-1.4-0.72-3.14-0.72-5.21c0-2.19,0.22-4.09,0.61-5.83c0.39-1.74,1.01-3.53,1.8-5.32h5.04v0.28c-1.29,1.51-2.24,3.3-2.97,5.32
			c-0.67,1.96-1.01,3.87-1.01,5.6c0,2.53,0.45,4.43,1.4,5.83c0.95,1.4,2.19,2.08,3.7,2.08c1.34,0,2.35-0.34,2.97-1.01
			c0.62-0.62,1.12-1.63,1.51-2.97l0.62-3.31l0.67-3.75c0.62-2.64,1.57-4.66,2.92-5.94c1.4-1.29,3.19-1.91,5.38-1.91
			c2.52,0,4.53,1.07,6.16,3.19C57.48,193.11,58.32,195.8,58.32,199.11z"/>
		<path style="fill:#85EBD3;" d="M57.76,170.81v10.37H35.45c-2.63,0-4.71-0.79-6.11-2.41c-1.45-1.63-2.18-3.76-2.18-6.45l0.17-2.63
			l0.44-2.69h3.76v0.22l-0.62,2.02c-0.17,0.84-0.28,1.68-0.28,2.52c0,1.24,0.11,2.25,0.39,2.97c0.28,0.73,0.73,1.24,1.24,1.63
			c0.56,0.39,1.23,0.62,1.96,0.67c0.95,0.06,1.85,0.11,2.74,0.17h17.6v-6.39H57.76z"/>
		<path style="fill:#85EBD3;" d="M57.76,53.97v8.46c0,1.85-0.12,3.36-0.4,4.54c-0.22,1.23-0.61,2.36-1.23,3.31
			c-0.67,1.06-1.57,1.96-2.63,2.58c-1.01,0.61-2.3,0.89-3.93,0.89c-2.18,0-4.03-0.56-5.49-1.62c-1.46-1.12-2.58-2.64-3.3-4.54
			L27.61,78.91V73.7L39.6,63.67v-5.66H27.61v-4.04H57.76z M54.28,62.71v-4.7H42.91v4.03c0,1.29,0.11,2.35,0.33,3.31
			c0.23,0.95,0.67,1.79,1.29,2.41c0.56,0.61,1.18,1.06,1.91,1.34c0.72,0.28,1.68,0.45,2.85,0.45c0.84,0,1.63-0.17,2.25-0.45
			c0.67-0.28,1.23-0.78,1.73-1.51c0.39-0.62,0.62-1.29,0.79-2.08C54.22,64.73,54.28,63.78,54.28,62.71z"/>
		<path style="fill:#85EBD3;" d="M41.45,84.74v12.94c1.96,0,3.53-0.5,4.59-1.46c1.12-1.01,1.68-2.52,1.68-4.54
			c0-2.07-0.61-3.69-1.79-4.87C44.7,85.63,43.19,84.9,41.45,84.74z M38.53,84.74c-1.4,0-2.63,0.22-3.64,0.61
			c-1.06,0.45-1.9,1.01-2.52,1.74c-0.67,0.73-1.18,1.57-1.46,2.52c-0.33,0.95-0.5,2.02-0.5,3.2c0,1.51,0.28,3.08,0.89,4.65
			c0.62,1.51,1.24,2.63,1.85,3.3v0.23h-4.14c-0.56-1.29-1.01-2.64-1.4-3.93c-0.34-1.34-0.51-2.74-0.51-4.25
			c0-3.76,1.01-6.67,3.03-8.75c2.02-2.13,4.87-3.19,8.63-3.19c3.7,0,6.67,1.01,8.85,3.03c2.19,2.01,3.25,4.65,3.25,7.95
			c0,3.08-0.89,5.44-2.69,7.06c-1.79,1.68-4.31,2.53-7.56,2.53h-2.08V84.74z"/>
		<path style="fill:#85EBD3;" d="M33.21,148.73h-4.2c-0.62-1.29-1.07-2.46-1.4-3.58c-0.34-1.18-0.51-2.36-0.51-3.65
			c0-1.62,0.23-3.14,0.73-4.48c0.5-1.4,1.23-2.58,2.19-3.53c0.95-0.95,2.18-1.74,3.64-2.3c1.51-0.5,3.25-0.78,5.21-0.78
			c3.7,0,6.61,1.01,8.74,3.02c2.08,2.08,3.14,4.77,3.14,8.07c0,1.29-0.17,2.58-0.56,3.81c-0.39,1.24-0.84,2.36-1.34,3.42h-4.21
			v-0.17c0.9-1.17,1.57-2.35,2.08-3.58c0.5-1.29,0.72-2.47,0.72-3.65c0-2.18-0.72-3.86-2.18-5.1c-1.46-1.28-3.59-1.9-6.39-1.9
			c-2.75,0-4.82,0.62-6.28,1.85c-1.45,1.23-2.18,2.97-2.18,5.15c0,0.79,0.11,1.57,0.28,2.36c0.22,0.78,0.5,1.51,0.78,2.13l0.9,1.57
			l0.84,1.17V148.73z"/>
		<path style="fill:#85EBD3;" d="M31.3,117.85c0.51,1.13,1.13,2.13,1.85,3.09h6.34l-0.34-4.09c-0.11-1.57-0.28-2.81-0.56-3.76
			c-0.34-1.06-0.84-1.96-1.46-2.63c-0.67-0.67-1.57-1.01-2.69-1.01c-1.29,0-2.29,0.39-2.97,1.18c-0.61,0.78-0.95,1.96-0.95,3.58
			C30.52,115.5,30.8,116.73,31.3,117.85z M30.02,120.94l-0.96-1.35l-1.01-1.68l-0.78-2.18c-0.17-0.85-0.28-1.8-0.28-2.92
			c0-2.07,0.67-3.81,2.02-5.21c1.34-1.4,3.08-2.07,5.15-2.07c1.74,0,3.09,0.33,4.15,1.06s1.9,1.79,2.52,3.14
			c0.62,1.4,1.01,3.03,1.23,4.99l0.51,6.22h0.56c0.84,0,1.57-0.17,2.13-0.45c0.62-0.28,1.06-0.73,1.34-1.35
			c0.28-0.5,0.51-1.17,0.62-1.9l0.17-2.41c0-0.95-0.11-2.07-0.39-3.31c-0.28-1.23-0.62-2.52-1.12-3.81v-0.22h3.86l0.67,3.25
			c0.23,1.4,0.34,2.74,0.34,4.14c0,1.57-0.11,2.97-0.39,4.15c-0.28,1.18-0.73,2.24-1.35,3.08c-0.61,0.84-1.4,1.52-2.41,1.91
			c-0.95,0.45-2.18,0.67-3.64,0.67H27.61v-3.75H30.02z"/>
		<path style="fill:#85EBD3;" d="M31.25,165.32h-3.42l-0.5-2.3l-0.17-2.3c0-2.29,0.61-4.03,1.85-5.26c1.29-1.18,3.25-1.8,5.99-1.8
			h12v-2.57h3.19v2.57h6.5v3.81h-6.5v7.85H47v-7.85H36.74l-2.8,0.12c-0.67,0.05-1.29,0.22-1.91,0.56c-0.5,0.28-0.89,0.73-1.17,1.23
			c-0.23,0.5-0.34,1.29-0.34,2.35c0,0.62,0.06,1.29,0.22,1.96l0.51,1.46V165.32z"/>
	</g>
	<g>
	</g>
</g>
</svg>
