<?xml version="1.0" encoding="utf-8"?>
<!-- Generator: Adobe Illustrator 16.0.0, SVG Export Plug-In . SVG Version: 6.00 Build 0)  -->
<!DOCTYPE svg PUBLIC "-//W3C//DTD SVG 1.1//EN" "http://www.w3.org/Graphics/SVG/1.1/DTD/svg11.dtd">
<svg version="1.1" id="图层_3" xmlns="http://www.w3.org/2000/svg" xmlns:xlink="http://www.w3.org/1999/xlink" x="0px" y="0px"
	 width="481px" height="370px" viewBox="0 0 481 370" style="enable-background:new 0 0 481 370;" xml:space="preserve">
<g id="XMLID_1_">
	<g>
		<path style="fill:#FFC98B;" d="M446.31,252.48c0,3.48-1.439,6.36-4.26,8.58c-2.88,2.22-6.84,3.3-11.819,3.3
			c-2.82,0-5.4-0.3-7.74-0.96c-2.34-0.66-4.32-1.44-5.94-2.22v-7.2h0.36c2.04,1.5,4.32,2.76,6.78,3.66s4.859,1.32,7.079,1.32
			c2.82,0,5.04-0.48,6.66-1.38c1.561-0.9,2.34-2.28,2.34-4.26c0-1.5-0.42-2.64-1.26-3.42c-0.899-0.78-2.52-1.44-4.979-1.98
			l-3.54-0.72l-4.021-0.9c-3.359-0.9-5.7-2.16-7.08-3.9c-1.439-1.74-2.159-3.84-2.159-6.3c0-1.56,0.359-3.06,1.02-4.44
			c0.66-1.38,1.62-2.64,2.94-3.72c1.26-1.08,2.88-1.92,4.859-2.52c1.98-0.66,4.141-0.96,6.601-0.96c2.22,0,4.56,0.3,6.899,0.84
			s4.26,1.26,5.76,2.04v6.84h-0.3c-1.62-1.2-3.66-2.22-6-3.06c-2.34-0.84-4.62-1.26-6.84-1.26c-2.34,0-4.32,0.48-5.939,1.38
			c-1.62,0.9-2.461,2.22-2.461,4.02c0,1.56,0.48,2.76,1.5,3.54c0.961,0.78,2.521,1.44,4.62,1.92l4.021,0.84l3.6,0.72
			c3,0.66,5.28,1.86,6.9,3.54C445.53,247.5,446.31,249.72,446.31,252.48z"/>
		<path style="fill:#FFC98B;" d="M411.51,257.34v5.76l-3.96,0.78l-3.78,0.3c-3.899,0-6.84-1.02-8.88-3.12s-3.06-5.4-3.06-10.02
			v-20.28h-4.32v-5.4h4.32v-10.92h6.42v10.92h13.26v5.4h-13.26v17.34l0.12,4.74c0.12,1.14,0.42,2.16,0.96,3.12
			c0.54,0.9,1.2,1.62,2.1,2.04c0.9,0.42,2.221,0.6,3.96,0.6c1.08,0,2.16-0.18,3.301-0.48l2.46-0.78H411.51z"/>
		<path style="fill:#FFC98B;" d="M382.05,241.62v3.48h-28.02c0,2.34,0.359,4.38,1.02,6.12c0.72,1.74,1.681,3.12,2.94,4.26
			c1.14,1.08,2.58,1.92,4.2,2.46c1.619,0.54,3.359,0.84,5.34,0.84c2.58,0,5.22-0.54,7.859-1.56c2.58-1.02,4.44-2.04,5.58-3.06h0.36
			v6.96c-2.16,0.9-4.38,1.68-6.6,2.28c-2.28,0.66-4.681,0.96-7.141,0.96c-6.3,0-11.22-1.68-14.76-5.1
			c-3.54-3.42-5.34-8.34-5.34-14.64c0-6.18,1.68-11.16,5.1-14.82c3.42-3.66,7.86-5.46,13.44-5.46c5.1,0,9.06,1.5,11.88,4.5
			C380.67,231.84,382.05,236.1,382.05,241.62z M354.03,240.18h21.779c0-3.36-0.84-5.94-2.52-7.8c-1.68-1.86-4.2-2.76-7.62-2.76
			s-6.18,1.02-8.16,3C355.47,234.66,354.33,237.18,354.03,240.18z"/>
		<polygon style="fill:#FFC98B;" points="324.57,243 343.53,263.46 335.07,263.46 319.83,246.78 315.63,250.74 315.63,263.46
			309.27,263.46 309.27,210.42 315.63,210.42 315.63,244.44 334.17,225.36 342.27,225.36 		"/>
		<path style="fill:#F4F4C2;" d="M328.59,159.54v3.48h-28.02c0,2.34,0.359,4.38,1.02,6.12c0.72,1.74,1.68,3.12,2.94,4.26
			c1.14,1.08,2.58,1.92,4.2,2.46c1.619,0.54,3.359,0.84,5.34,0.84c2.58,0,5.22-0.54,7.859-1.56c2.58-1.02,4.44-2.04,5.58-3.06h0.36
			v6.96c-2.16,0.9-4.38,1.68-6.601,2.28c-2.279,0.66-4.68,0.96-7.14,0.96c-6.3,0-11.22-1.68-14.76-5.1
			c-3.54-3.42-5.34-8.34-5.34-14.64c0-6.18,1.68-11.16,5.1-14.82c3.42-3.66,7.86-5.46,13.44-5.46c5.1,0,9.06,1.5,11.88,4.5
			C327.21,149.76,328.59,154.02,328.59,159.54z M300.57,158.1h21.779c0-3.36-0.84-5.94-2.52-7.8c-1.68-1.86-4.2-2.76-7.62-2.76
			s-6.18,1.02-8.16,3C302.01,152.58,300.87,155.1,300.57,158.1z"/>
		<path style="fill:#FFC98B;" d="M300.81,254.04v7.02c-2.1,1.02-4.14,1.86-6.06,2.4s-3.96,0.84-6.12,0.84
			c-2.76,0-5.28-0.42-7.56-1.2c-2.34-0.78-4.26-2.04-5.88-3.66c-1.68-1.62-3-3.72-3.9-6.18c-0.9-2.52-1.32-5.46-1.32-8.76
			c0-6.24,1.68-11.16,5.1-14.7c3.42-3.54,7.98-5.28,13.56-5.28c2.22,0,4.32,0.3,6.42,0.9c2.101,0.6,4.021,1.32,5.76,2.22v7.14h-0.3
			c-1.979-1.5-3.96-2.7-6.06-3.48c-2.1-0.84-4.14-1.26-6.12-1.26c-3.6,0-6.48,1.26-8.58,3.72c-2.1,2.4-3.18,6-3.18,10.74
			c0,4.56,1.02,8.1,3.12,10.56c2.04,2.46,4.92,3.72,8.64,3.72c1.32,0,2.64-0.18,3.96-0.54c1.38-0.3,2.58-0.78,3.66-1.32l2.58-1.5
			l1.979-1.38H300.81z"/>
		<path style="fill:#F4F4C2;" d="M284.43,156.66v24.72h-6.42v-21.66c0-1.62-0.06-3.24-0.18-4.74c-0.18-1.5-0.48-2.76-0.96-3.66
			c-0.54-1.02-1.26-1.74-2.22-2.22c-1.02-0.54-2.4-0.78-4.26-0.78c-1.8,0-3.6,0.48-5.4,1.38c-1.8,0.9-3.6,2.04-5.34,3.42l0.12,1.86
			l0.12,2.04v24.36h-6.42v-21.66l-0.24-4.8c-0.18-1.5-0.48-2.76-0.96-3.66c-0.54-0.96-1.26-1.68-2.22-2.16
			c-1.02-0.54-2.4-0.78-4.26-0.78c-1.74,0-3.48,0.42-5.22,1.32c-1.74,0.9-3.54,1.98-5.28,3.3v28.44h-6.42v-38.1h6.42v4.26
			c1.98-1.68,4.02-3,6-3.9s4.08-1.38,6.36-1.38c2.58,0,4.74,0.54,6.6,1.62c1.8,1.08,3.12,2.58,4.02,4.56
			c2.58-2.22,4.98-3.78,7.08-4.74s4.38-1.44,6.84-1.44c4.2,0,7.32,1.26,9.3,3.78C283.47,148.56,284.43,152.1,284.43,156.66z"/>
		<path style="fill:#F9927E;" d="M275.74,76.38c1.86,2.04,2.82,4.86,2.82,8.52c0,1.98-0.42,3.9-1.32,5.82
			c-0.96,1.98-2.28,3.6-3.9,4.92c-1.86,1.44-3.96,2.58-6.36,3.42c-2.46,0.78-5.34,1.2-8.76,1.2c-3.66,0-6.9-0.36-9.84-1.02
			c-2.94-0.66-5.88-1.68-8.94-3v-8.46h0.48c2.58,2.1,5.52,3.78,8.88,4.92c3.36,1.14,6.54,1.74,9.48,1.74c4.2,0,7.44-0.78,9.78-2.34
			s3.48-3.66,3.48-6.3c0-2.22-0.54-3.9-1.62-4.92c-1.14-1.08-2.82-1.92-5.04-2.52l-5.52-1.14L253,76.14
			c-4.5-0.96-7.8-2.58-9.96-4.92c-2.22-2.34-3.3-5.34-3.3-9c0-4.26,1.8-7.74,5.4-10.44c3.6-2.7,8.16-4.08,13.68-4.08
			c3.54,0,6.84,0.36,9.78,1.02c3,0.66,5.64,1.5,7.92,2.52v7.98h-0.48c-1.92-1.62-4.44-3-7.56-4.08c-3.18-1.08-6.42-1.62-9.72-1.62
			c-3.6,0-6.48,0.72-8.7,2.22c-2.22,1.5-3.3,3.48-3.3,5.82c0,2.1,0.54,3.78,1.68,4.98c1.08,1.2,3,2.1,5.76,2.76l6.18,1.14l6.84,1.44
			C271,72.9,273.82,74.4,275.74,76.38z"/>
		<path style="fill:#FFC98B;" d="M260.37,237.6v25.86h-6.36v-4.08l-2.28,1.68l-2.82,1.62l-3.72,1.32c-1.38,0.36-3,0.54-4.86,0.54
			c-3.42,0-6.36-1.14-8.7-3.42c-2.4-2.28-3.6-5.16-3.6-8.7c0-2.88,0.6-5.22,1.86-7.02c1.26-1.74,3-3.18,5.28-4.2
			c2.34-1.02,5.1-1.74,8.4-2.1l10.44-0.78v-1.02c0-1.44-0.24-2.64-0.72-3.6c-0.54-0.96-1.32-1.68-2.22-2.22
			c-0.9-0.54-2.04-0.9-3.3-1.08l-3.96-0.3c-1.68,0-3.54,0.24-5.64,0.72c-2.1,0.42-4.2,1.08-6.42,1.92h-0.36v-6.54
			c1.86-0.36,3.66-0.72,5.46-1.14c2.34-0.42,4.68-0.6,6.96-0.6c2.7,0,5.04,0.24,7.02,0.66s3.72,1.2,5.16,2.28
			c1.44,1.02,2.52,2.4,3.3,4.08C260.01,233.1,260.37,235.14,260.37,237.6z M254.01,254.1v-10.62l-6.9,0.54
			c-2.64,0.18-4.74,0.54-6.3,0.96c-1.86,0.54-3.3,1.32-4.44,2.46c-1.14,1.08-1.74,2.58-1.74,4.56c0,2.16,0.66,3.78,1.98,4.92
			c1.32,1.08,3.36,1.62,6.06,1.62c2.22,0,4.32-0.42,6.18-1.26C250.71,256.38,252.39,255.3,254.01,254.1z"/>
		<polygon style="fill:#F9927E;" points="235.12,93.36 235.12,99.36 203.02,99.36 203.02,48.6 209.74,48.6 209.74,93.36 		"/>
		<path style="fill:#FFC98B;" d="M224.85,225.78v6.6h-0.36l-2.76-0.48l-3.18-0.18c-1.98,0-3.84,0.42-5.7,1.32s-3.6,1.98-5.34,3.36
			v27.06h-6.42v-38.1h6.42V231c2.58-2.04,4.8-3.48,6.72-4.32c1.98-0.9,3.96-1.32,5.94-1.32l2.46,0.12L224.85,225.78z"/>
		<rect x="209.49" y="130.26" style="fill:#F4F4C2;" width="7.26" height="6.66"/>
		<rect x="209.91" y="143.28" style="fill:#F4F4C2;" width="6.42" height="38.1"/>
		<rect x="190.89" y="128.34" style="fill:#F4F4C2;" width="6.42" height="53.04"/>
		<path style="fill:#FFC98B;" d="M189.09,239.1c1.98,2.34,3,5.22,3,8.76c0,2.52-0.48,4.74-1.44,6.66s-2.22,3.54-3.84,4.8
			c-1.92,1.5-4.02,2.52-6.3,3.18c-2.28,0.66-5.16,0.96-8.7,0.96h-18V212.7h15c3.72,0,6.48,0.12,8.34,0.42
			c1.86,0.3,3.6,0.84,5.28,1.68c1.86,1.02,3.18,2.28,4.02,3.78c0.84,1.5,1.26,3.36,1.26,5.52c0,2.4-0.6,4.44-1.8,6.18
			c-1.26,1.68-2.88,3-4.92,4.02v0.3C184.41,235.26,187.11,236.76,189.09,239.1z M184.17,252.54c0.6-1.14,0.9-2.64,0.9-4.44
			c0-2.04-0.3-3.66-0.96-4.86c-0.6-1.2-1.68-2.22-3.3-3.06c-1.14-0.54-2.46-0.9-3.96-1.08l-5.7-0.3h-10.62v18.9h8.94
			c2.94,0,5.4-0.12,7.26-0.42c1.86-0.3,3.42-0.9,4.62-1.74C182.61,254.64,183.57,253.68,184.17,252.54z M180.69,225
			c0-1.26-0.18-2.28-0.6-3.12c-0.42-0.84-1.08-1.5-1.98-2.04c-1.02-0.66-2.34-1.02-3.84-1.14l-5.7-0.24h-8.04v14.64h8.76l5.04-0.3
			c1.26-0.18,2.4-0.66,3.48-1.32c1.02-0.72,1.8-1.62,2.28-2.64C180.51,227.76,180.69,226.5,180.69,225z"/>
		<path style="fill:#F9927E;" d="M190.78,62.76c1.08,3.3,1.62,7.08,1.62,11.22c0,4.2-0.54,7.98-1.68,11.28
			c-1.14,3.3-2.7,6-4.74,8.22c-2.1,2.34-4.56,4.08-7.38,5.22c-2.88,1.14-6.12,1.74-9.78,1.74c-3.54,0-6.78-0.6-9.72-1.8
			c-2.94-1.14-5.4-2.88-7.44-5.16c-2.1-2.22-3.66-4.98-4.74-8.28c-1.14-3.3-1.68-7.02-1.68-11.22c0-4.14,0.54-7.8,1.68-11.1
			c1.08-3.3,2.64-6.12,4.74-8.46c1.98-2.22,4.5-3.9,7.5-5.1c2.94-1.2,6.12-1.8,9.66-1.8c3.66,0,6.9,0.6,9.84,1.86
			c2.88,1.14,5.34,2.82,7.32,5.04C188.08,56.7,189.64,59.46,190.78,62.76z M185.38,73.98c0-6.54-1.5-11.64-4.44-15.24
			c-2.94-3.54-7.02-5.34-12.12-5.34c-5.1,0-9.18,1.8-12.12,5.34c-2.94,3.6-4.44,8.7-4.44,15.24c0,6.66,1.5,11.76,4.5,15.3
			c3,3.54,7.02,5.28,12.06,5.28c5.1,0,9.12-1.74,12.12-5.28C183.88,85.74,185.38,80.64,185.38,73.98z"/>
		<path style="fill:#F4F4C2;" d="M176.97,147.42c2.58,3.42,3.9,8.34,3.9,14.64c0,3.18-0.48,6-1.38,8.58c-0.9,2.58-2.1,4.68-3.6,6.42
			c-1.62,1.8-3.42,3.12-5.34,4.02c-1.92,0.9-4.02,1.38-6.36,1.38c-2.16,0-4.08-0.24-5.7-0.78c-1.62-0.54-3.18-1.2-4.74-2.1
			l-0.42,1.8h-6v-53.04h6.42v18.96c1.8-1.5,3.72-2.7,5.7-3.6c2.04-0.96,4.32-1.44,6.84-1.44C170.79,142.26,174.33,144,176.97,147.42
			z M174.21,162.24c0-4.56-0.72-7.98-2.22-10.32c-1.5-2.4-3.96-3.6-7.26-3.6c-1.86,0-3.78,0.42-5.64,1.26
			c-1.92,0.78-3.72,1.86-5.34,3.12v21.78c1.8,0.84,3.36,1.44,4.68,1.74c1.32,0.3,2.82,0.48,4.44,0.48c3.54,0,6.36-1.14,8.34-3.48
			C173.19,170.88,174.21,167.22,174.21,162.24z"/>
		<path style="fill:#F9927E;" d="M136,62.76c1.08,3.3,1.62,7.08,1.62,11.22c0,4.2-0.54,7.98-1.68,11.28c-1.14,3.3-2.7,6-4.74,8.22
			c-2.1,2.34-4.56,4.08-7.38,5.22c-2.88,1.14-6.12,1.74-9.78,1.74c-3.54,0-6.78-0.6-9.72-1.8c-2.94-1.14-5.4-2.88-7.44-5.16
			c-2.1-2.22-3.66-4.98-4.74-8.28c-1.14-3.3-1.68-7.02-1.68-11.22c0-4.14,0.54-7.8,1.68-11.1c1.08-3.3,2.64-6.12,4.74-8.46
			c1.98-2.22,4.5-3.9,7.5-5.1c2.94-1.2,6.12-1.8,9.66-1.8c3.66,0,6.9,0.6,9.84,1.86c2.88,1.14,5.34,2.82,7.32,5.04
			C133.3,56.7,134.86,59.46,136,62.76z M130.6,73.98c0-6.54-1.5-11.64-4.44-15.24c-2.94-3.54-7.02-5.34-12.12-5.34
			s-9.18,1.8-12.12,5.34c-2.94,3.6-4.44,8.7-4.44,15.24c0,6.66,1.5,11.76,4.5,15.3c3,3.54,7.02,5.28,12.06,5.28
			c5.1,0,9.12-1.74,12.12-5.28C129.1,85.74,130.6,80.64,130.6,73.98z"/>
		<path style="fill:#F4F4C2;" d="M134.73,143.28v38.1h-6.42v-4.2c-2.16,1.68-4.2,3-6.18,3.9s-4.14,1.38-6.54,1.38
			c-4.02,0-7.14-1.2-9.36-3.66s-3.3-6.06-3.3-10.8v-24.72h6.36V165l0.3,4.98c0.18,1.38,0.54,2.52,1.14,3.48
			c0.66,1.02,1.44,1.74,2.4,2.22c0.96,0.42,2.4,0.66,4.26,0.66c1.62,0,3.48-0.42,5.46-1.32c1.98-0.84,3.78-1.92,5.46-3.3v-28.44
			H134.73z"/>
		<path style="fill:#F4F4C2;" d="M106.41,248.08c0,2.88-0.36,5.82-1.02,8.88c-0.66,3-1.86,6.24-3.54,9.72h-7.98v-0.66l2.1-3.06
			l2.22-3.96c0.72-1.56,1.32-3.3,1.74-5.28c0.48-1.98,0.72-4.26,0.72-6.78c0-5.7-1.8-10.2-5.46-13.5c-3.66-3.3-8.58-4.98-14.82-4.98
			c-6.54,0-11.64,1.74-15.3,5.22c-3.66,3.42-5.46,8.16-5.46,14.1c0,2.16,0.18,4.32,0.6,6.54c0.42,2.16,1.02,4.08,1.68,5.7h12.48
			V246.4h5.94v20.28H58.47c-1.26-2.76-2.34-5.76-3.3-9.06c-0.9-3.3-1.38-6.48-1.38-9.54c0-3.96,0.54-7.56,1.62-10.86
			c1.08-3.3,2.7-6.12,4.92-8.46c2.22-2.34,4.92-4.14,8.22-5.4c3.3-1.26,7.2-1.92,11.64-1.92c8.1,0,14.52,2.4,19.2,7.14
			C104.07,233.32,106.41,239.8,106.41,248.08z"/>
		<polygon style="fill:#F4F4C2;" points="105.51,301 105.51,344.02 99.51,344.02 99.51,325.9 54.75,325.9 54.75,319.12
			99.51,319.12 99.51,301 		"/>
		<polygon style="fill:#F4F4C2;" points="105.51,276.34 105.51,296.38 100.35,296.38 100.35,289.72 59.91,289.72 59.91,296.38
			54.75,296.38 54.75,276.34 59.91,276.34 59.91,283 100.35,283 100.35,276.34 		"/>
		<path style="fill:#F4F4C2;" d="M90.09,158.4c1.86,2.04,2.82,4.86,2.82,8.52c0,1.98-0.42,3.9-1.32,5.82
			c-0.96,1.98-2.28,3.6-3.9,4.92c-1.86,1.44-3.96,2.58-6.36,3.42c-2.46,0.78-5.34,1.2-8.76,1.2c-3.66,0-6.9-0.36-9.84-1.02
			c-2.94-0.66-5.88-1.68-8.94-3v-8.46h0.48c2.58,2.1,5.52,3.78,8.88,4.92c3.36,1.14,6.54,1.74,9.48,1.74c4.2,0,7.44-0.78,9.78-2.34
			c2.34-1.56,3.48-3.66,3.48-6.3c0-2.22-0.54-3.9-1.62-4.92c-1.14-1.08-2.82-1.92-5.04-2.52l-5.52-1.14l-6.36-1.08
			c-4.5-0.96-7.8-2.58-9.96-4.92c-2.22-2.34-3.3-5.34-3.3-9c0-4.26,1.8-7.74,5.4-10.44c3.6-2.7,8.16-4.08,13.68-4.08
			c3.54,0,6.84,0.36,9.78,1.02c3,0.66,5.64,1.5,7.92,2.52v7.98h-0.48c-1.92-1.62-4.44-3-7.56-4.08c-3.18-1.08-6.42-1.62-9.72-1.62
			c-3.6,0-6.48,0.72-8.7,2.22c-2.22,1.5-3.3,3.48-3.3,5.82c0,2.1,0.54,3.78,1.68,4.98c1.08,1.2,3,2.1,5.76,2.76l6.18,1.14l6.84,1.44
			C85.35,154.92,88.17,156.42,90.09,158.4z"/>
		<polygon style="fill:#F9927E;" points="86.62,48.6 86.62,54.6 68.5,54.6 68.5,99.36 61.72,99.36 61.72,54.6 43.6,54.6 43.6,48.6
					"/>
	</g>
	<g>
	</g>
</g>
</svg>
