<?xml version="1.0" encoding="utf-8"?>
<!-- Generator: Adobe Illustrator 16.0.0, SVG Export Plug-In . SVG Version: 6.00 Build 0)  -->
<!DOCTYPE svg PUBLIC "-//W3C//DTD SVG 1.1//EN" "http://www.w3.org/Graphics/SVG/1.1/DTD/svg11.dtd">
<svg version="1.1" id="图层_6" xmlns="http://www.w3.org/2000/svg" xmlns:xlink="http://www.w3.org/1999/xlink" x="0px" y="0px"
	 width="400px" height="300px" viewBox="0 0 400 300" style="enable-background:new 0 0 400 300;" xml:space="preserve">
<filter  id="AI_高斯模糊_7">
	<feGaussianBlur  stdDeviation="7"></feGaussianBlur>
</filter>
<g id="XMLID_21_" style="filter:url(#AI_高斯模糊_7);">
	<g>
		<path style="fill:#A5E4E6;" d="M307.778,171.647c3.23,2.939,5.16,5.569,1.73,7.819
			C308.629,175.018,307.839,171.857,307.778,171.647z"/>
		<path style="fill:#FBFDFD;" d="M307.778,171.647c0.061,0.21,0.851,3.37,1.73,7.819c-2.521,1.65-7.93,3.09-17.851,4.301
			c0,0-28.1,3.42-50.819,2.06c-25.66-18.3-61.34-39.71-123.63-44.68c-2.41-2.95-4.98-5.101-7.55-5.38c-4.5-0.49-9.58,10.53-14,11.5
			c-5.3,1.159-21.09-0.07-21-5.5c0.11-6.791,20.19-3.49,26.5-6c3.65-1.45,10.8-5.16,13.5-8c8.17-8.59,19-36,32-35
			c3.12,0.24,7.52-0.79,12.52-2.36c0,0,41.48-4.64,58.479,22.36c0,0,31,14.29,36,19.15c0.761,0.74,2.44,1.38,4.761,2.04
			c0.1,0.92,0.18,1.86,0.239,2.811c0,0,40,11,39,22c-0.43,4.71,5.931,9.06,10.12,12.869
			C307.778,171.637,307.778,171.637,307.778,171.647z"/>
		<path style="fill:#A5E1DF;" d="M258.419,133.957c-2.32-0.66-4-1.3-4.761-2.04c-5-4.86-36-19.15-36-19.15
			c-17-27-58.479-22.36-58.479-22.36c15.8-4.94,37.64-15.24,44.479-7.64C203.658,82.767,253.658,87.577,258.419,133.957z"/>
		<path style="fill:#A5E4E6;" d="M117.208,141.147c62.29,4.97,97.97,26.38,123.63,44.68c-14.15-0.84-26.21-3.54-28.13-10.06
			c0,0-74.271,3.409-85.05-17C125.449,154.587,121.609,146.537,117.208,141.147z"/>
	</g>
</g>
</svg>
