<?xml version="1.0" encoding="utf-8"?>
<!-- Generator: Adobe Illustrator 16.0.0, SVG Export Plug-In . SVG Version: 6.00 Build 0)  -->
<!DOCTYPE svg PUBLIC "-//W3C//DTD SVG 1.1//EN" "http://www.w3.org/Graphics/SVG/1.1/DTD/svg11.dtd">
<svg version="1.1" id="图层_8" xmlns="http://www.w3.org/2000/svg" xmlns:xlink="http://www.w3.org/1999/xlink" x="0px" y="0px"
	 width="400px" height="300px" viewBox="0 0 400 300" style="enable-background:new 0 0 400 300;" xml:space="preserve">
<filter  id="AI_高斯模糊_7">
	<feGaussianBlur  stdDeviation="7"></feGaussianBlur>
</filter>
<g id="XMLID_9_" style="filter:url(#AI_高斯模糊_7);">
	<g>
		<path style="fill:#FDF9EF;" d="M302.017,148.937c3.26,12.86-17.75,24.351-39.2,30.14c-1.2-13.5-126.8-30.14-126.8-30.14
			l-0.77,2.78c-3.3-0.91-6.4-1.84-9.23-2.78c-7.49-2.49-3.04-15.88,9.34-23.93c9.76-2.92,19.7-4.84,29.01-5.43h0.01
			c6.66,1.21,13.92,4.02,21.64,9c0,0,66-36.99,71-8.5C262.017,148.577,296.017,125.287,302.017,148.937z"/>
		<path style="fill:#F1F2E2;" d="M262.816,179.076c-14.56,3.931-29.319,5.23-36.819,2.551c-1.91-7.36-11.49-11.36-24.99-13.19
			c-18.89-6.04-45.9-11.2-65.76-16.72l0.77-2.78C136.017,148.937,261.616,165.576,262.816,179.076z"/>
		<path style="fill:#C7EADF;" d="M222.017,179.076c0.87,1.08,2.22,1.931,3.98,2.551c0,0-114.101,31.76-144.21,8.51
			c-1.02-0.79-1.95-1.64-2.77-2.561c-2.46-2.76-4.07-5.6-4.92-8.5c0,0,83.61-16.51,126.91-10.64
			C211.097,171.667,218.877,175.146,222.017,179.076z"/>
		<path style="fill:#9AE5E6;" d="M135.247,151.717c19.86,5.52,46.87,10.68,65.76,16.72c-43.3-5.87-126.91,10.64-126.91,10.64
			c-6.08-20.659,26.45-43.689,61.26-54.069c-12.38,8.05-16.83,21.44-9.34,23.93C128.847,149.876,131.947,150.807,135.247,151.717z"
			/>
	</g>
</g>
</svg>
