<?xml version="1.0" encoding="utf-8"?>
<!-- Generator: Adobe Illustrator 16.0.0, SVG Export Plug-In . SVG Version: 6.00 Build 0)  -->
<!DOCTYPE svg PUBLIC "-//W3C//DTD SVG 1.1//EN" "http://www.w3.org/Graphics/SVG/1.1/DTD/svg11.dtd">
<svg version="1.1" id="图层_9" xmlns="http://www.w3.org/2000/svg" xmlns:xlink="http://www.w3.org/1999/xlink" x="0px" y="0px"
	 width="400px" height="300px" viewBox="0 0 400 300" style="enable-background:new 0 0 400 300;" xml:space="preserve">
<filter  id="AI_高斯模糊_7">
	<feGaussianBlur  stdDeviation="7"></feGaussianBlur>
</filter>
<g id="XMLID_6_" style="filter:url(#AI_高斯模糊_7);">
	<g>
		<path style="fill:#A5E4E6;" d="M318.517,189.724c5.189,4.74,7.05,8.67-11.49,11.5L318.517,189.724z"/>
		<path style="fill:#FBFDFD;" d="M318.517,189.724l-11.49,11.5c-0.43,0.07-0.87,0.13-1.33,0.189c-6.5-4-59.09-34.05-181.3-42.449
			l-4-5.11l-14,11.5l-21-5.5l26.5-6l13.5-8c0,0,19-36,32-35c3.12,0.24,7.52-0.79,12.52-2.36c0,0,41.48-4.64,58.48,22.36
			c0,0,31,14.29,36,19.15c0.82,0.8,2.55,2.57,4.9,4.95c11.949,12.051,40.1,39.66,49.21,34.771H318.517z"/>
		<path style="fill:#FDFDFA;" d="M318.507,189.724c-9.11,4.89-37.261-22.72-49.21-34.771l0.1-0.1c0,0,40,11,39,22
			C307.967,181.563,314.316,185.903,318.507,189.724z"/>
		<path style="fill:#A5E4E6;" d="M305.696,201.413c-1.04,0.15-2.14,0.301-3.3,0.44c0,0-74-2-79-19c0,0-78,16-85-6l-14-17.89
			C246.606,167.363,299.196,197.413,305.696,201.413z"/>
		<path style="fill:#A5E1DF;" d="M269.396,154.854l-0.1,0.1c-2.351-2.38-4.08-4.149-4.9-4.95c-5-4.86-36-19.15-36-19.15
			c-17-27-58.48-22.36-58.48-22.36c15.8-4.94,37.64-15.24,44.48-7.64C214.396,100.854,266.396,105.854,269.396,154.854z"/>
	</g>
</g>
</svg>
